<?xml version="1.0" encoding="utf-8"?>
<!-- Generator: Adobe Illustrator 21.0.0, SVG Export Plug-In . SVG Version: 6.00 Build 0)  -->
<svg version="1.1" id="Layer_1" xmlns="http://www.w3.org/2000/svg" xmlns:xlink="http://www.w3.org/1999/xlink" x="0px" y="0px"
	 viewBox="0 0 1080 1920" style="enable-background:new 0 0 1080 1920;" xml:space="preserve">
<style type="text/css">
	.st0{clip-path:url(#SVGID_2_);}
	.st1{fill:url(#SVGID_3_);}
	.st2{fill:#CCC564;}
	.st3{fill:#FFFDDB;}
	.st4{fill:#2C9182;}
	.st5{fill:url(#SVGID_4_);}
	.st6{fill:url(#SVGID_5_);}
	.st7{fill:#166E6E;}
	.st8{fill:url(#SVGID_6_);}
	.st9{fill:url(#SVGID_7_);}
	.st10{fill:url(#SVGID_8_);}
	.st11{fill:url(#SVGID_9_);}
	.st12{fill:#CC842D;}
	.st13{fill:#1C3B4A;}
	.st14{fill:url(#SVGID_10_);}
	.st15{fill:url(#SVGID_11_);}
	.st16{fill:url(#SVGID_12_);}
	.st17{fill:url(#SVGID_13_);}
	.st18{fill:url(#SVGID_14_);}
	.st19{fill:url(#SVGID_15_);}
	.st20{fill:url(#SVGID_16_);}
	.st21{fill:url(#SVGID_17_);}
	.st22{fill:url(#SVGID_18_);}
	.st23{fill:url(#SVGID_19_);}
	.st24{fill:url(#SVGID_20_);}
	.st25{fill:url(#SVGID_21_);}
</style>
<title>softsnow</title>
<g>
	<defs>
		<rect id="SVGID_1_" x="-2" y="-13.3" width="1086.7" height="1940.6"/>
	</defs>
	<clipPath id="SVGID_2_">
		<use xlink:href="#SVGID_1_"  style="overflow:visible;"/>
	</clipPath>
	<g class="st0">
		<g>
			<linearGradient id="SVGID_3_" gradientUnits="userSpaceOnUse" x1="317.1418" y1="217.9949" x2="317.1418" y2="1705.0414">
				<stop  offset="5.586590e-03" style="stop-color:#D6D66F"/>
				<stop  offset="0.9888" style="stop-color:#FFFED1"/>
			</linearGradient>
			<rect x="-2544.5" y="-109.9" class="st1" width="5723.2" height="2396.4"/>
			<g>
				<path class="st2" d="M2633.3,677.5c12.7,0.1,25.8-0.7,39-2.2c58.2-6.6,114-26.3,170.1-43.4c146-44.5,297.1-71.9,449.2-81.4
					c10.1-0.6,21.4-0.7,28.7,6.4c6.2,6.1,7.3,15.7,7.8,24.5c4.1,67.9-7,135.7-13.9,203.4c-34.8,338.5,31.6,694.7-90.6,1011.5
					c-70.4-34.6-151.8-33.3-229.7-40.4c-147.8-13.4-290.7-59.1-436.4-88.2c-329.7-65.9-653-5.7-983.9-15.2
					c-121.9-3.5-243.7-8.7-365.6-11.9c-240.9-6.4-483.1-4.8-721.8,32.1c-516.1,79.8-1043.9,39.5-1558.3-50.4
					c-123.8-21.6-242.6-63.1-364.6-86.8c-121.6-23.6-239.4-25-362.3-9.7c-241.6,30-493.8,109.1-735.1,34.8
					c-16.7-5.2-33.9-11.4-46.1-24.1c-10.6-11-16.5-25.7-21.8-40.2c-63.9-173.8-82.6-364.6-53.9-547.8c1.7-10.6,3.9-21.9,11.6-29.2
					c9.1-8.6,22.8-8.9,35.2-8.7c256,4.6,512.3,27,767.8,9.8c97.4-6.6,128.7-100.7,238.4-67.2c31.2,9.5,65.1,33.4,75.6,64.8
					c22.2-34.7,65.5-62.7,106.1-57.9c-15.9-14.1-18.5-39.4-10.7-59.3c7.8-19.9,24-35.3,41.2-47.5c67-47.8,158.2-58.2,233.9-26.7
					c18.4,7.6,39.9,15.9,48.6,34.1c9-11.4,18.8-23.5,32.4-28.1c11.8-3.9,33.2-7,40.3,1.4c-6.9-17.7-3.5-38.7,6.1-55.3
					c0.4-0.6,0.7-1.2,1.1-1.7c11.4-18.5,29.3-31.7,48-42.4c62.5-35.5,145.2-43.9,203.4-1.5c17,12.3,38.5,35.4,51.8,53.4
					c0.1-1.8,0.9-4,2.1-5.4c32.4-38.1,85.8-56.4,134.2-45.9c48.4,10.5,89.9,49.3,104.2,97.5c21-16,43.7-4.8,67.8,5.7
					c21.2,9.3,43.4,22.7,50.7,45.1c4.8,14.9,2.1,31.1-0.6,46.6c-2.6,14.4-5.2,28.8-7.7,43.2c15-7,36.8-1.4,53.1,1.1
					c16.3,2.5,32.1,15.4,33.1,32.2c1.4-7,7.9-8.1,10.7-14.7c4.3-10,12.3-18.9,22.8-21.5c10.5-2.6,22.9,2.5,26.7,12.7
					c2.6-25.9,26.5-38.6,50.2-48.6c32.7-13.9,69.8-19,104-9.5c34.2,9.5,65,34.8,76.8,68.8c5.1-4.4,21-3.9,26.3,0.2
					c5.4,4.1,7.4,12.1,4.6,18.3c11.1-17.5,33.5-9.1,52.9-2.5c19.4,6.5,34.9,21.5,49.2,36.3c3.4-11.5,11.3-11.3,23.1-12
					c11.7-0.7,23.6,6.7,28.3,17.7c16.2-37.3,49.5-54.8,89.6-54.4c19.4,0.2,41.3,8.6,47.3,27.4c37.4-1.7,75.4,24.6,94.7,59.1
					c6.7,11.9,11.1,24.7,12.5,37.8c24-20.1,49.4-22,80.4-20.1c31.1,1.9,61.2,16.2,82.7,39.2c3.9,4.2,7.2,11.4,4.5,15.6
					c15.3-14.1,26-10,47.1-3.9c21.9,6.4,39.9,25.4,45.3,48c2.4-21.7,32.2-27.6,52.3-20c-5.2-20.7,27.1-33.9,44.1-46.3
					c12.6-9.1,26.7-17.3,42.2-17.9c15.4-0.6,32.2,8.6,35.8,23.8c1.8-14.4,10.7-16.1,23-22.2c0,0,0.1-0.1,0.2-0.1
					c0.7-0.4,1.5-0.8,2.3-1.2c13.4-7.2,29.1-9.1,44.3-8.5c35,1.5,69.3,16.3,94.6,40.9c3.1-6.7,5.3-14.8,9.1-21.3
					c2-3.5,4.5-6.6,7.8-8.7c9.5-6.2,24.6-4.9,29.4,5.4c0.9-7.8,4.1-15,8.9-21.5c9.6-13.3,25.3-23.9,39.3-31.3
					c20.8-11,46.9-10.9,67.5,0.4c-1.2-3.5-2.1-6.9-2.7-10.5c-3.7-22.9,5.7-47.3,21.1-65.9c4.2-5.1,8.8-9.7,13.7-13.8
					c25.9-21.3,62.2-26.8,94.5-18.8c32.3,8.1,60.7,28.5,82.9,53.6c2.8-4.9,6.6-8.4,11-10.7c7.8-4.1,17.4-4.6,26.9-2.5
					c-14.2-4.6-22.6-21.3-20-36.2c2.7-14.8,17.2-26.5,32-25.7c-29-39.4-36.3-98.4-14.7-142.4c2.2-4.4,4.6-8.7,7.3-12.8
					c23.8-37,66.4-61.1,109.9-61.1c48.4-0.1,95.7,29.5,117.5,73.4c17.3-24.6,44.8-30.2,73.7-23c28.9,7.2,52.2,33.4,56.3,63.4
					c12.6-10.8,26.5-3.2,41.6,3.5c15.1,6.7,25.8,22.5,26.6,39.1c42.9,9.1,73,53,76.3,97.5c2.8,38.3-18,77-50.2,96.8
					c15.7-2.7,35.7,3.7,46.8,15c2.7,2.7,5,5.8,6.4,9.2c13.8-48.9,63.4-79.9,112.7-71.7c-26.5-47.3-21.4-107.9,5.1-155.1
					c26.5-47.3,78.5-78.6,132-79.6c-15.4-13.3-17.1-44.5-12-64.4c5.1-19.9,21.9-36.2,41.8-40.3c18.7-51.6,84.1-91.3,137.8-84.3
					c31.7,4.1,60.9,22.6,80.3,48.2c9.2,12.2,12.2,27.4,20.3,39.5c11.2,16.7,13.2,16.8,27.6,31.3
					C2533.2,662.6,2581,677.3,2633.3,677.5z"/>
				<path class="st3" d="M418.4,983.6c-14.8,24.1-34.5,45.1-58,60.4c-54.8,35.7-127.4,40-185.8,10.8c4.6-23.7-5.8-49.6-25.3-63.3
					c-19.5-13.7-52.1-18.9-72.2-6c-11.6-9.8-28.6-12.4-42.6-6.7c-14,5.8-26.6,17.2-28.3,32.5c-16.9-14.5-37.8-19.8-53.7-4.3
					c8.1-24.1,5.9-51.6-6-74c-34.9-66-112.2-67.8-151.3-5.4c-15.2,24.2-27.1,45.5-26.9,74.2c-14.2-20.3-39.9-31.6-61.9-20.8
					c1.8-11.1-3-23.1-11.9-29.8c-8.9-6.7-19.4-11.6-29.3-6.6c-16.3-10.1-37.5-11.4-54.9-3.5c-17.4,8-32.2,21-35.4,40.1
					c-3.8-18.9-22.1-38.6-40.4-33.5c21-25.2,42.5-51.3,51.5-83c8.3-29.3,1.8-77.3-27.3-94.3c-33.2-19.5-59.6,22-68.2,48.5
					c-1.8-54.3-40.6-105.4-91.9-120.8c-51.3-15.4-111.2,6-141.7,50.6c-6.5-30.4-27.7-38.8-51.4-51.8c-21.2-11.8-39-26.8-62.5-35.1
					c-56.2-19.7-120.7-13-172.3,16.8c0.4-0.6,0.7-1.2,1.1-1.7c11.4-18.5,29.3-31.7,48-42.4c62.5-35.5,145.2-43.9,203.4-1.5
					c17,12.3,38.5,35.4,51.8,53.4c0.1-1.8,0.9-4,2.1-5.4c32.4-38.1,85.8-56.4,134.2-45.9c48.4,10.5,89.9,49.3,104.2,97.5
					c21-16,43.7-4.8,67.8,5.7c21.2,9.3,43.4,22.7,50.7,45.1c4.8,14.9,2.1,31.1-0.6,46.6c-2.6,14.4-5.2,28.8-7.7,43.2
					c15-7,36.8-1.4,53.1,1.1c16.3,2.5,32.1,15.4,33.1,32.2c1.4-7,7.9-8.1,10.7-14.7c4.3-10,12.3-18.9,22.8-21.5
					c10.5-2.6,22.9,2.5,26.7,12.7c2.6-25.9,26.5-38.6,50.2-48.6c32.7-13.9,69.8-19,104-9.5c34.2,9.5,65,34.8,76.8,68.8
					c5.1-4.4,21-3.9,26.3,0.2c5.4,4.1,7.4,12.1,4.6,18.3c11.1-17.5,33.5-9.1,52.9-2.5c19.4,6.5,34.9,21.5,49.2,36.3
					c3.4-11.5,11.3-11.3,23.1-12c11.7-0.7,23.6,6.7,28.3,17.7c16.2-37.3,49.5-54.8,89.6-54.4c19.4,0.2,41.3,8.6,47.3,27.4
					C361,922.7,399.1,949.1,418.4,983.6z"/>
				<path class="st3" d="M-193.2,1186.2c-0.8-32.5-7.7-65.6-24.6-93.2c-16.9-27.6-44.6-49.4-76.2-54.4s-69.4,6.2-85.7,34.2
					c-5-9.5-16.7-14.8-26.9-12.1c-10.2,2.7-20.9,7.3-20.8,18.1c-31.5-24.1-90.1-22.3-117.5,6.5c16.3-36.4,9.3-82.4-17.1-112.1
					c-26.4-29.7-70.7-41.3-108-28.4c-21.2,7.4-48,18-52.2,40.4c0.1-9.8-6.8-19.3-16.1-22c-9.3-2.7-20.4-2.5-25.4,5.9
					c-2.9-19.6-15.9-37.4-33.6-45.9c-17.6-8.5-36-15.3-52.7-5.1c9.9-27.4,1.4-59.3-16.2-82.4c-17.6-23.1-43.1-38.7-69.4-50.5
					c-15-6.8-30.8-12.6-47.2-12.9c-16.4-0.4-33.6,5.4-44,18.4c23.6-0.1,45.2,5.1,67.2,13.7c33.3,13,58,46.3,61,82.4
					c3.1,36.1-15.5,73.3-46.1,91.9c14.9-2.2,41,0.6,55.9,2.3c15,1.7,30,7.4,40.3,18.6c10.3,11.1,15.1,28.3,9.3,42.4
					c15.3-17.3,44.9-18.2,67.6-15.7c5.7,0.7,11.7,2.2,15.8,6.2c4.2,4,5.8,11.3,2.2,15.8c16.3-20.3,43-37.9,67.3-46.8
					c24.2-8.9,55.6-2.8,68.4,19.9c8.8,15.8,7,35.4,3,53.2c-7.1,31.9-22.9,65.3-52.8,77.2c9.8-10.6,30.9-6,45.1-4.7
					c14.3,1.3,27.8,9.6,35.6,21.9c30-30.5,79.6-38.3,121.4-30.6c16.9,3.1,35.5,12.2,39.1,29.3c31-27.8,73.6-33.4,114.7-29.5
					C-270.7,1141.9-218.5,1153-193.2,1186.2z"/>
				<g>
					<path class="st3" d="M-533.3,818.8c0,0-0.5-2.7-1.5-7.5c-1-4.8-2.9-11.6-5.9-19.6c-6-16-17.8-36.6-36.7-53.3
						c-18.9-16.6-40.6-25.7-57-29.4c-8.2-1.9-15.1-2.8-19.9-3.2c-4.8-0.3-7.5-0.5-7.5-0.5s2.6-0.6,7.4-1.4
						c4.8-0.8,11.9-1.3,20.8-0.8c17.5,0.9,42.7,7.7,63.9,26.3c21.1,18.6,31.3,43.1,34.6,60.6c1.8,8.8,2.2,16.1,2.1,21
						C-533.1,816.1-533.3,818.8-533.3,818.8z"/>
				</g>
				<g>
					<path class="st3" d="M-428,806.6c0,0-0.2-1.2-0.6-3.5c-0.4-2.2-1.3-5.3-2.7-8.7c-2.9-6.9-8.8-15.1-17.3-20.1
						c-8.5-5-18.5-6.1-25.8-5.2c-3.6,0.4-6.7,1.2-8.8,2c-2.1,0.8-3.3,1.2-3.3,1.2s0.7-1.1,2.3-2.8c1.6-1.7,4.2-4,7.9-6.1
						c3.8-2.1,8.8-3.7,14.7-4c5.8-0.3,12.6,1,18.7,4.5c6.1,3.6,10.6,8.9,13.2,14.2c2.7,5.3,3.8,10.6,4,14.9c0.2,4.4-0.5,7.8-1.2,10
						C-427.4,805.4-428,806.6-428,806.6z"/>
				</g>
				<g>
					<path class="st3" d="M-363.5,814.8c0,0-0.5-2.3-1.4-6.4c-0.9-4.1-2.7-9.8-5.4-16.5c-5.5-13.4-16.3-30.4-33.2-43.2
						c-16.8-12.7-36-18.4-50.2-19.9c-7.1-0.8-13-0.8-17.1-0.5c-4.1,0.3-6.4,0.5-6.4,0.5s2.1-1,6.1-2.3c4-1.4,9.9-2.9,17.5-3.6
						c7.6-0.7,16.8-0.4,26.8,2c10,2.4,20.6,7,30.3,14.2c9.6,7.3,17,16.4,22.1,25.4c5.1,9,8.1,18,9.6,25.6c1.5,7.6,1.8,13.8,1.7,18.1
						C-363.2,812.5-363.5,814.8-363.5,814.8z"/>
				</g>
				<g>
					<path class="st3" d="M-777.3,743.8c0,0-1.5-2.3-4.3-6.5c-1.3-2.1-3-4.6-5.1-7.4c-2.1-2.8-4.3-6.1-7.3-9.3
						c-2.8-3.4-5.9-7-9.5-10.5c-3.4-3.8-7.6-7.3-11.7-11.2c-8.7-7.4-18.6-14.8-29.8-21.5c-11.2-6.5-22.5-11.7-33.1-15.7
						c-5.3-1.8-10.4-3.7-15.3-4.8c-4.9-1.5-9.5-2.4-13.7-3.2c-4.2-1-8.1-1.3-11.6-1.8c-3.4-0.6-6.4-0.8-8.9-0.9
						c-4.9-0.4-7.7-0.6-7.7-0.6s2.7-0.5,7.6-1.3c2.5-0.5,5.5-0.9,9-1c3.5-0.2,7.6-0.6,12.1-0.3c4.5,0.1,9.4,0.3,14.7,1.2
						c5.3,0.5,10.8,1.9,16.7,3.2c11.6,3.2,24,8,36,15c12,7.2,22.2,15.8,30.7,24.5c4,4.5,7.9,8.7,11,13.2c3.3,4.2,5.9,8.5,8.2,12.4
						c2.5,3.8,4.1,7.6,5.7,10.8c1.6,3.2,2.7,6.1,3.6,8.5C-778.2,741.2-777.3,743.8-777.3,743.8z"/>
				</g>
				<g>
					<path class="st3" d="M-864.6,1021.4c0,0-0.2-1.1-0.6-3.2c-0.4-2-1.2-4.8-2.4-8c-2.4-6.4-7.3-14.1-14.3-19.9
						c-7.1-5.8-15.5-8.9-22.2-10c-3.3-0.5-6.2-0.7-8.2-0.7c-2.1,0.1-3.2,0.1-3.2,0.1s0.9-0.8,2.7-1.9c1.8-1.1,4.6-2.5,8.4-3.5
						c7.4-2,19.7-1.6,29.9,6.7c10.1,8.3,13.1,20.5,12.8,28.2c-0.1,4-0.9,7.1-1.6,9.1C-864.1,1020.4-864.6,1021.4-864.6,1021.4z"/>
				</g>
				<g>
					<path class="st3" d="M-903.7,906.3c0,0,0-2.5-0.2-7c-0.2-4.5-0.9-11-2.6-18.7c-3.2-15.3-11.5-35.7-27.1-52.7
						c-15.6-16.9-35.1-26.7-49.9-30.9c-7.4-2.2-13.7-3.3-18.2-3.8c-4.4-0.5-6.9-0.7-6.9-0.7s2.4-0.6,6.9-1.2
						c4.5-0.6,11.1-1,19.3-0.2c8.2,0.8,17.9,3,28,7.6c10.1,4.5,20.5,11.5,29.4,21c8.8,9.6,15,20.6,18.8,31.1
						c3.8,10.6,5.4,20.6,5.6,28.9c0.3,8.4-0.5,15-1.4,19.5C-903,903.9-903.7,906.3-903.7,906.3z"/>
				</g>
				<g>
					<path class="st3" d="M-632.8,1041.6c0,0-0.8-1.6-2.4-4.3c-1.6-2.7-4.1-6.3-7.7-10.2c-7.1-7.8-19.3-16.1-33.9-18.3
						c-14.6-2.1-28.7,2.3-37.6,7.7c-4.5,2.7-8,5.4-10.2,7.5c-2.3,2.1-3.5,3.4-3.5,3.4s0.6-1.7,2-4.5c1.4-2.9,4-6.9,8.1-11.1
						c4.1-4.2,9.9-8.5,17.3-11.5c7.3-3,16.3-4.6,25.7-3.2c9.3,1.4,17.5,5.6,23.7,10.6c6.2,5,10.6,10.8,13.3,16.1
						c2.7,5.2,4.1,9.8,4.6,13C-632.9,1039.8-632.8,1041.6-632.8,1041.6z"/>
				</g>
				<g>
					<path class="st3" d="M-656.7,897.9c0,0,0.7-1.8,1.6-5.1c1-3.3,1.9-8.1,2.3-14c0.7-11.7-2.3-28.1-12.6-41.3
						c-10.3-13.1-25.5-19.7-36.8-21.5c-5.7-1-10.6-1.1-13.9-0.8c-3.4,0.2-5.3,0.5-5.3,0.5s1.6-1,4.9-2.3c3.2-1.4,8.2-2.8,14.6-3.3
						c6.4-0.5,14.3,0.3,22.5,3.3c8.2,3,16.7,8.5,23.2,16.7c6.4,8.3,9.9,17.9,11,26.7c1.1,8.8,0.1,16.8-1.8,23
						c-1.9,6.3-4.4,10.9-6.4,13.8C-655.4,896.5-656.7,897.9-656.7,897.9z"/>
				</g>
				<g>
					<path class="st3" d="M-553.4,916c0,0-0.9-1.7-2.6-4.5c-1.7-2.8-4.5-6.7-8.3-10.8c-7.6-8.3-20.6-17.3-36.3-20.3
						c-15.8-2.9-31,1-41,6.1c-5,2.5-9,5.1-11.5,7.2c-2.6,2-4,3.3-4,3.3s0.8-1.7,2.7-4.5c1.8-2.9,4.9-6.8,9.6-10.9
						c4.7-4.1,11.1-8.1,19.1-10.8c7.9-2.7,17.4-3.8,27.2-2c9.7,1.8,18.3,6.3,24.8,11.6c6.6,5.3,11.2,11.4,14.2,16.9
						c3,5.5,4.6,10.3,5.3,13.6C-553.6,914.1-553.4,916-553.4,916z"/>
				</g>
				<g>
					<path class="st3" d="M-666.4,910.2c0,0-1.8-2.7-4.9-5.5c-3.1-2.9-7.4-5.6-12-7.4c-4.5-1.8-9.5-2.8-13.7-2.8
						c-4.1-0.1-7.2,0.7-7.2,0.7s0.3-0.7,1.1-1.9c0.8-1.2,2.1-2.8,4.1-4.4c4-3.2,11.8-5.9,20-2.7c8.1,3.3,12.1,10.7,12.9,15.7
						c0.5,2.6,0.4,4.7,0.2,6.1C-666.2,909.5-666.4,910.2-666.4,910.2z"/>
				</g>
				<g>
					<path class="st3" d="M-329.2,953c0,0-1.4-0.6-4-1.6c-2.6-1-6.3-2.1-11-3c-9.2-1.7-22.1-1.4-34.3,3.9
						c-12.1,5.3-21.3,14.6-26.4,22.6c-2.6,4-4.4,7.6-5.4,10.1c-1,2.6-1.6,4.1-1.6,4.1s-0.2-1.6-0.2-4.5c0-2.9,0.4-7.1,1.9-12.2
						c1.5-5.1,4.2-11,8.7-16.6c4.4-5.6,10.7-10.9,18.4-14.4c7.8-3.3,15.8-4.3,22.9-3.7c7.1,0.6,13.2,2.7,17.8,5.1c4.7,2.4,8,5,10,7
						C-330.2,951.8-329.2,953-329.2,953z"/>
				</g>
				<g>
					<path class="st3" d="M-80.8,1028.9c0,0,0.5-0.8,1.4-2.3c0.9-1.5,2.1-3.7,3.6-6.7c2.9-5.9,6.2-14.8,7.8-26.2
						c1.5-11.3,1.1-25.2-3.7-39.1c-4.6-13.9-14.2-27.4-27.5-37.6c-13.3-10.1-28.8-15.6-43.2-16.2c-14.5-0.7-27.7,2.8-38,7.4
						c-10.3,4.8-17.8,10.6-22.5,15c-2.4,2.3-4.2,4.1-5.3,5.4c-1.2,1.3-1.8,2-1.8,2s0.5-0.8,1.4-2.3c0.9-1.5,2.3-3.7,4.3-6.4
						c4-5.3,10.8-12.5,21.1-19c10.3-6.3,24.3-11.9,40.8-12.2c16.5-0.5,34.8,5.2,50.1,16.8c15.2,11.7,25.8,27.9,29.9,44.1
						c4.3,16.2,3.1,31.5,0,43.3c-3.2,11.9-8.1,20.5-12,26c-2,2.7-3.6,4.7-4.8,6C-80.2,1028.3-80.8,1028.9-80.8,1028.9z"/>
				</g>
				<g>
					<path class="st3" d="M-153.8,953c0,0-1.4-0.6-3.8-1.8c-2.4-1.1-6-2.5-10.4-3.5c-8.8-2.1-21.3-2.4-33.1,2.3
						c-11.8,4.7-20.8,13.6-25.7,21.3c-2.5,3.8-4.3,7.3-5.3,9.8c-1,2.6-1.6,4-1.6,4s-0.2-1.5-0.2-4.3c0-2.8,0.3-7,1.8-11.9
						c1.4-5,4.1-10.7,8.5-16.2c4.4-5.5,10.6-10.5,18.2-13.7c7.7-3,15.6-3.6,22.5-2.7c6.9,0.9,12.7,3.3,17.1,5.9
						c4.4,2.6,7.4,5.4,9.3,7.5C-154.7,951.7-153.8,953-153.8,953z"/>
				</g>
				<g>
					<path class="st3" d="M-582.5,724c0,0-1.4-0.8-3.9-2.3c-2.4-1.6-6.2-3.5-10.7-5.7c-4.5-2.2-10.1-4.4-16.3-6.4
						c-6.2-1.9-13.1-3.7-20.4-5c-7.3-1.2-14.3-1.8-20.8-2.1c-6.5-0.1-12.4,0.1-17.4,0.6c-5,0.5-9.2,1.2-12,1.8
						c-2.9,0.6-4.5,0.9-4.5,0.9s1.4-0.9,3.8-2.6c2.5-1.7,6.3-3.8,11.2-5.9c5-2.1,11.2-3.9,18.3-4.9c7.1-0.9,15.1-1,23.3,0.4
						c8.2,1.5,15.7,4.2,22.2,7.4c6.4,3.4,11.7,7.1,15.7,10.7c4,3.6,6.9,6.8,8.7,9.3C-583.5,722.7-582.5,724-582.5,724z"/>
				</g>
				<g>
					<path class="st3" d="M-538.3,748c0,0-1.3-1.2-3.7-3.4c-2.3-2.2-5.8-5.2-10.1-8.6c-4.3-3.5-9.7-7.2-15.7-11
						c-6.1-3.7-12.9-7.4-20.3-10.8c-7.4-3.3-14.7-6-21.5-8.2c-6.8-2.1-13.1-3.7-18.5-4.6c-5.4-1-9.9-1.7-13-2
						c-3.2-0.4-4.9-0.6-4.9-0.6s1.7-0.5,4.8-1.3c3.1-0.9,7.7-1.7,13.4-2.1c5.8-0.5,12.7-0.3,20.4,0.8c7.6,1.2,15.9,3.5,24.1,7.2
						c8.1,3.8,15.3,8.6,21.3,13.5c5.9,5.1,10.7,10.2,14.1,14.9c3.5,4.7,5.9,8.7,7.4,11.6C-539.1,746.4-538.3,748-538.3,748z"/>
				</g>
				<g>
					<path class="st3" d="M-816,762.3c0,0-0.8-2.5-2.3-7.1c-1.5-4.5-4-11-7.6-18.6c-7.2-15.1-20-34.5-38.8-50.7
						c-18.8-16.2-39.7-25.8-55.6-30.5c-7.9-2.4-14.6-3.8-19.3-4.5c-4.7-0.7-7.3-1.1-7.3-1.1s2.6-0.4,7.4-0.7
						c4.8-0.4,11.7-0.4,20.4,0.6c17.1,1.9,41.2,9.4,62,27.2c20.8,17.8,32.1,40.8,36.7,57.6c2.4,8.5,3.5,15.5,3.9,20.3
						C-816,759.6-816,762.3-816,762.3z"/>
				</g>
				<g>
					<path class="st3" d="M-938.7,887.9c0,0-2.4-6.8-5.8-17.6c-3.5-10.7-8.2-25.4-16.8-38.8c-8.4-13.1-20.5-21.9-30.5-25.2
						c-5-1.7-9.4-2.3-12.5-2.2c-3.1,0-4.9,0.2-4.9,0.2s0.4-0.2,1.2-0.6c0.8-0.3,1.9-1,3.4-1.4c3.1-1.1,7.8-2.1,13.9-1.8
						c12,0.5,28.8,8.4,39.2,24.5c10.1,16,12,32.8,12.7,44.2C-938.1,880.8-938.7,887.9-938.7,887.9z"/>
				</g>
				<g>
					<path class="st3" d="M-917.7,840c0,0-1.5-0.9-4.2-2.6c-2.6-1.7-6.5-4.1-11.2-6.8c-9.5-5.5-22.8-12.2-37.9-18.3
						c-15.1-6-29.4-10.3-40-12.8c-5.3-1.3-9.7-2.2-12.8-2.8c-3.1-0.6-4.8-1-4.8-1s1.7-0.3,4.8-0.9c3.1-0.6,7.7-1.1,13.3-1.3
						c11.3-0.4,27.4,1.2,43.7,7.6c16.3,6.5,29.2,16.5,37.2,24.6c4,4.1,7,7.6,8.9,10.2C-918.8,838.6-917.7,840-917.7,840z"/>
				</g>
				<g>
					<path class="st3" d="M-882.7,1108.8c0,0-0.3-1.9-0.8-5.4c-0.2-1.7-0.5-3.8-1.1-6.2c-0.6-2.4-1-5.1-1.9-8
						c-1.5-5.9-4.1-12.6-7.3-19.7c-3.5-7-7.7-14.4-12.9-21.7c-5.3-7.2-11-13.5-16.6-18.9c-5.7-5.3-11.3-9.7-16.3-12.9
						c-2.4-1.8-4.9-3-7-4.2c-2.1-1.3-4-2.2-5.5-2.9c-3.1-1.5-4.9-2.4-4.9-2.4s1.9,0.2,5.4,0.6c1.8,0.2,3.9,0.5,6.3,1.2
						c2.4,0.6,5.3,1.2,8.2,2.4c6.1,2,12.9,5.6,20,10.5c6.9,5.1,13.9,11.6,19.8,19.7c5.8,8.1,9.9,16.9,12.7,25.1
						c2.5,8.3,3.8,16,4,22.5c0.3,3.2,0,6.2-0.2,8.7c-0.1,2.5-0.4,4.7-0.8,6.5C-882.4,1106.9-882.7,1108.8-882.7,1108.8z"/>
				</g>
				<g>
					<path class="st3" d="M-758.6,1130.5c0,0-1.4-1.6-3.9-4.6c-2.6-2.9-6.4-6.9-11.5-11.1c-10.2-8.6-26.1-17.8-45.2-22.2
						c-19-4.4-37.5-3.2-49.2,1.8c-5.9,2.5-10,6-12.4,8.9c-1.2,1.5-2,2.7-2.4,3.6c-0.5,0.9-0.7,1.4-0.7,1.4s0.1-0.5,0.3-1.6
						c0.2-1,0.6-2.5,1.3-4.4c1.5-3.7,5-8.9,11.1-13.2c12-8.6,33-13.3,54.7-8.2c21.8,5.1,38.1,18.4,46.8,29.7
						c4.4,5.7,7.2,10.7,8.9,14.3C-759.5,1128.5-758.6,1130.5-758.6,1130.5z"/>
				</g>
				<g>
					<path class="st3" d="M-988.6,1098.7c0,0,0.1-1,0.4-2.8c0.2-1.8,0.4-4.3,0.3-7.2c-0.2-5.9-1.7-13.4-5.2-20.2
						c-3.4-6.9-8.5-12.5-13.1-16.1c-2.3-1.8-4.4-3.1-5.9-4c-1.6-0.9-2.4-1.3-2.4-1.3s1-0.3,2.8-0.5c1.8-0.2,4.5-0.3,7.9,0.4
						c6.5,1.1,16.1,6,21.2,16.2c5.1,10.2,3.4,20.9,0.4,27c-1.5,3.1-3.1,5.3-4.3,6.7C-987.8,1098.1-988.6,1098.7-988.6,1098.7z"/>
				</g>
				<g>
					<path class="st3" d="M-930.2,1117.3c0,0-0.6-0.8-1.8-2.3c-1.1-1.5-2.9-3.4-5.1-5.6c-4.4-4.3-11-9-18.7-12
						c-7.7-3-15.6-4.1-21.8-3.9c-3.1,0.1-5.7,0.3-7.5,0.6c-1.8,0.3-2.9,0.5-2.9,0.5s0.7-0.8,2.1-2.2c1.4-1.3,3.6-3.1,6.8-4.7
						c6.1-3.3,16.7-5.6,27.5-1.4c10.7,4.3,17.1,13.2,19.4,19.9c1.2,3.4,1.7,6.2,1.9,8.1C-930.1,1116.2-930.2,1117.3-930.2,1117.3z"
						/>
				</g>
				<g>
					<path class="st3" d="M-511.4,1021.2c0,0,0.1-1.3,0.3-3.6c0.3-2.2,0.4-5.6,0.3-9.5c-0.1-7.9-1.8-18.1-5.3-28.8
						c-3.6-10.6-8.5-19.8-13.1-26c-2.3-3.1-4.3-5.7-5.9-7.3c-1.6-1.7-2.4-2.7-2.4-2.7s1.2,0.4,3.4,1.1c2.2,0.7,5.3,2.2,8.9,4.5
						c3.6,2.3,7.5,5.7,11.2,10.1c3.6,4.5,6.9,10.1,9,16.4c2.1,6.4,2.9,12.8,2.8,18.6c-0.2,5.8-1.2,10.9-2.7,15
						c-1.4,4.1-3,7.1-4.3,9.1C-510.7,1020.1-511.4,1021.2-511.4,1021.2z"/>
				</g>
				<path class="st3" d="M1042.3,1066.2c-15.7,6.9-27.9,21.6-32,38.5c-1.8-29.9-18.2-58.6-42.8-75.1c-23-15.4-52.7-19.8-79-12.2
					c0.7-0.4,1.5-0.8,2.3-1.2c13.4-7.2,29.1-9.1,44.3-8.5c35,1.5,69.3,16.3,94.6,40.9c3.1-6.7,5.3-14.8,9.1-21.3
					C1036.1,1039.5,1037.3,1052.3,1042.3,1066.2z"/>
				<path class="st3" d="M1485.4,1193.8c-1.6,0.6-4.1,0.8-7.1-1.7c-8-6.5-18.5-8.7-28.6-10.1c-16.1-2.1-32.7-2.6-48.3,2
					c-15.6,4.6-38.9,9.2-46,24.1c-14.4-30.8-51.4-48.7-84.1-40.6c11-11.8,17.7-30.2,17.2-46.4c-1.1-34.1-19.6-67.1-47.9-85.4
					c-9.2-6-20.1-10.6-30.8-8.6c-10.7,1.9-20.4,12.5-18.2,23.3c-23.5-34.1-66.4-53-106.9-47.7c9.6-13.3,25.3-23.9,39.3-31.3
					c20.8-11,46.9-10.9,67.5,0.4c-1.2-3.5-2.1-6.9-2.7-10.5c16.6,2.5,32.9,7.5,47.1,16.6c17,10.8,30.6,28,34.3,48
					c22.1,9.7,44.8,27.4,54.5,49.7c9.6,22.4,10.7,48.6,2.7,71.7c19.7-9.5,41.5-16.8,63.2-19.2c21.7-2.3,44.5,1.2,63,13.1
					C1471.4,1152.6,1484.4,1172.5,1485.4,1193.8z"/>
				<path class="st3" d="M1485.5,1196.2c0-0.8,0-1.6-0.1-2.4C1488.1,1192.8,1488.5,1190.5,1485.5,1196.2z"/>
				<path class="st3" d="M1496.4,964c-21.1,2.9-41.2,12.3-45.8,33.4c-4.2-13.2-15.5-23.7-28.8-26.8c-13.3-3-27.4-4.6-36.6,5.6
					c-14.3-36.3-44.1-66-80.1-79.8c-30.3-11.6-64.6-11.8-95.2-1c4.2-5.1,8.8-9.7,13.7-13.8c25.9-21.3,62.2-26.8,94.5-18.8
					c32.3,8.1,60.7,28.5,82.9,53.6c2.8-4.9,6.6-8.4,11-10.7h0c5.5,5.9,11.6,11.4,18,16.3C1450.1,937.4,1473.6,953.3,1496.4,964z"/>
				<path class="st3" d="M1942.1,990.6c-2.8,8.5-5.1,17.5-6.8,27.4c-11.4-14.6-30-23.2-48.4-22.3c-18.4,0.9-38.1,3.7-48.2,19.3
					c12.7-26,25.8-55.6,16.7-83.2c-7.5-22.8-30.3-39-53.9-40c-23.7-1-43.4,3.9-56.6,23.9c8.7-18,17.4-36.2,20.9-55.9
					c3.5-19.7,1-41.4-11-57.2c-12-15.8-27-31.4-44.5-22.2c2.8-18.8-12.3-38.4-30.9-40.1c-18.7-1.7-38.8,11.8-39.2,30.8
					c-11.9-42.6-44.8-78.4-85.8-93.3c-35.9-13.1-77.2-9.8-110.9,8.3c23.8-37,66.4-61.1,109.9-61.1c48.4-0.1,95.7,29.5,117.5,73.4
					c17.3-24.6,44.8-30.2,73.7-23c28.9,7.2,52.2,33.4,56.3,63.4c12.6-10.8,26.5-3.2,41.6,3.5c15.1,6.7,25.8,22.5,26.6,39.1
					c42.9,9.1,73,53,76.3,97.5c2.8,38.3-18,77-50.2,96.8C1911,973,1931,979.3,1942.1,990.6z"/>
				<g>
					<path class="st3" d="M1186.8,1120.7c0,0,0.1-2.6,0.1-7.1c0-4.6-0.4-11.1-1.8-19c-2.7-15.6-10.7-36.5-26.6-53.5
						c-15.9-17-36-26.2-51.2-29.8c-7.6-1.9-14.1-2.6-18.5-2.9c-4.5-0.2-7-0.3-7-0.3s2.4-0.7,6.9-1.6c4.5-0.9,11.2-1.6,19.5-1.2
						c8.3,0.4,18.3,2.3,28.7,6.6c10.4,4.3,21.1,11.2,30.2,20.8c9,9.7,15.2,21,18.9,31.7c3.7,10.8,5,21,5,29.5
						c0,8.5-1.1,15.2-2.2,19.7C1187.6,1118.3,1186.8,1120.7,1186.8,1120.7z"/>
				</g>
				<g>
					<path class="st3" d="M1184.7,1161.6c0,0-0.3-1.2-0.8-3.3c-0.4-2.1-1.3-5-2.6-8.4c-1.2-3.4-3.1-7.1-5.4-11
						c-2.4-3.9-5.3-7.8-8.6-11.7c-3.4-3.8-6.9-7.2-10.4-10.1c-3.5-2.8-6.9-5.2-10.1-6.8c-3.1-1.7-5.9-3-7.9-3.6
						c-2-0.8-3.1-1.2-3.1-1.2s1.2-0.2,3.3-0.7c2.2-0.5,5.4-0.6,9.4-0.2c4,0.4,8.7,1.7,13.6,4c4.8,2.5,9.8,6,13.9,10.8
						c4.1,4.8,7,10.3,8.8,15.4c1.7,5.2,2.4,10.2,2.2,14.2c-0.1,4.1-0.7,7.3-1.4,9.4C1185.1,1160.4,1184.7,1161.6,1184.7,1161.6z"/>
				</g>
				<g>
					<path class="st3" d="M1003.1,1125c0,0-0.4-2-1.1-5.7c-0.7-3.6-2-8.8-4-15c-3.9-12.3-11.5-28.4-23.7-42.9
						c-12.1-14.5-26.5-24.8-37.8-30.7c-5.7-3-10.5-5.1-13.9-6.4c-3.5-1.3-5.4-2-5.4-2s2,0,5.8,0.2c3.7,0.2,9.1,0.9,15.6,2.7
						c13,3.4,30.8,12.1,44.6,28.6c13.8,16.5,19.3,35.9,20.5,49.4c0.6,6.8,0.4,12.4,0.1,16.1C1003.5,1123,1003.1,1125,1003.1,1125z"
						/>
				</g>
				<g>
					<path class="st3" d="M1356.1,1215.8c0,0-1-1.3-2.9-3.6c-1.9-2.3-4.7-5.4-8.5-8.7c-7.6-6.7-19.5-13.8-33.5-16.5
						c-14.1-2.7-27.7-0.4-37.2,3c-4.7,1.7-8.5,3.6-11.1,5c-2.6,1.5-4,2.3-4,2.3s0.9-1.4,2.8-3.8c1.9-2.4,5-5.6,9.5-8.8
						c8.8-6.5,24.5-12.8,42-9.5c17.5,3.4,30,15,35.8,24.3c3,4.7,4.8,8.8,5.7,11.8C1355.8,1214.2,1356.1,1215.8,1356.1,1215.8z"/>
				</g>
				<g>
					<path class="st3" d="M1374.7,992.8c0,0-1-2.2-2.9-6.2c-1.9-4-4.9-9.5-9.2-15.9c-8.4-12.9-22.4-28.8-41.5-40.9
						c-19.1-12.1-39.4-17.9-54.4-19.9c-7.5-1-13.8-1.3-18.1-1.3c-4.4,0-6.8,0.1-6.8,0.1s2.3-0.8,6.6-1.9c4.3-1.1,10.6-2.3,18.6-2.8
						c15.8-1,39,2.2,60.4,15.7c21.3,13.5,34.4,33.3,40.5,48.2c3.1,7.5,4.9,13.8,5.8,18.2C1374.4,990.4,1374.7,992.8,1374.7,992.8z"
						/>
				</g>
				<g>
					<path class="st3" d="M1381,1086.5c0,0-0.4-1.3-1.1-3.5c-0.6-2.2-1.8-5.4-3.4-9.1c-3.1-7.5-8.5-16.7-15.8-25.8
						c-7.3-9-15.2-16.2-21.8-20.8c-3.3-2.3-6.1-4.1-8.1-5.2c-2.1-1.2-3.2-1.8-3.2-1.8s1.3,0,3.7,0c2.4,0,5.9,0.5,10.1,1.6
						c4.2,1.1,9.1,3.1,14.1,6.1c4.9,3.1,10,7.3,14.3,12.6c4.2,5.3,7.3,11.2,9.3,16.7c1.9,5.6,2.9,10.8,3.1,15.3
						c0.2,4.4,0,7.9-0.5,10.3C1381.3,1085.2,1381,1086.5,1381,1086.5z"/>
				</g>
				<g>
					<path class="st3" d="M1456.5,1062.9c0,0-1.2-0.3-3.5-0.7c-2.2-0.6-5.4-1-9.2-1.3c-3.8-0.4-8.3-0.3-13.1,0.1
						c-4.8,0.5-10,1.4-15.3,2.7c-5.3,1.5-10.2,3.3-14.7,5.2c-4.4,2.1-8.3,4.2-11.5,6.4c-3.2,2.2-5.7,4.2-7.4,5.7
						c-1.7,1.5-2.7,2.4-2.7,2.4s0.4-1.2,1.2-3.4c0.8-2.3,2.3-5.3,4.7-8.9c2.4-3.6,6-7.3,10.6-10.8c4.6-3.4,10.3-6.3,16.7-8.1
						c6.4-1.7,12.8-1.9,18.5-1.3c5.7,0.8,10.6,2.3,14.4,4.2c3.8,1.9,6.6,3.8,8.4,5.4C1455.5,1062,1456.5,1062.9,1456.5,1062.9z"/>
				</g>
				<g>
					<path class="st3" d="M1599.8,776.2c0,0-0.6-2.8-1.9-7.8c-1.3-5-3.6-12-7.4-20.1c-7.4-16.2-22.2-36.6-44.6-50.3
						c-22.4-13.6-47.1-17.2-64.7-16.3c-8.8,0.4-16,1.6-20.9,2.8c-4.9,1.2-7.6,2-7.6,2s2.4-1.5,7-3.7c4.6-2.3,11.6-5,20.8-7
						c9.1-2,20.4-2.9,32.8-1.3c12.4,1.5,25.9,5.7,38.6,13.3c12.5,7.7,22.6,17.9,29.7,28.3c7.2,10.4,11.8,21,14.3,30.1
						c2.6,9.1,3.5,16.7,3.8,21.9C1600,773.4,1599.8,776.2,1599.8,776.2z"/>
				</g>
				<g>
					<path class="st3" d="M1677.6,948.8c0,0-1.2-3-3.8-7.9c-2.7-4.9-7-11.9-13.8-18.9c-6.8-7-16.1-14.1-27.6-18.8
						c-11.5-4.6-25.3-6.9-39.4-5.2l-2.6,0.4l-3,0.5l-5.5,1.2l-2.7,0.6l-1.4,0.3c-0.3-0.2-0.3-0.8-0.4-1.2c-0.9-3.4-1.7-6.8-2.6-10.1
						c-0.5-1.7-1.1-3.4-1.6-5c-2.2-6.5-5.1-12.5-8.3-18c-6.5-11-14.4-19.6-21.9-26c-7.5-6.4-14.5-10.5-19.5-13
						c-2.5-1.4-4.5-2.1-5.9-2.7c-1.4-0.6-2.1-0.9-2.1-0.9s0.8,0.1,2.2,0.4c1.4,0.3,3.7,0.6,6.4,1.5c5.5,1.5,13.4,4.3,22.2,9.9
						c8.8,5.5,18.5,13.8,26.7,25.3c4,5.8,7.7,12.3,10.6,19.6c0.7,2.1,1.5,4.2,2.3,6.3c0.1,0.2,0.1,0,0.1,0l2.6-0.5l3-0.4
						c16.4-2,32.2,1.5,44.9,7.8c12.7,6.4,22,15.6,28.1,24.1c6.2,8.6,9.3,16.5,11.1,22C1677.2,945.7,1677.6,948.8,1677.6,948.8z"/>
				</g>
				<g>
					<path class="st3" d="M1726.5,1077c0,0-1-1.3-2.9-3.8c-1.8-2.4-4.6-5.7-8.3-9.3c-7.3-7.3-18.7-15.7-32.7-20.9
						c-14-5.2-28-6.3-38.3-5.5c-5.1,0.4-9.4,1-12.3,1.6c-2.9,0.6-4.6,1-4.6,1s1.3-1.1,3.9-2.7c2.6-1.7,6.5-3.8,11.8-5.7
						c10.3-3.9,26.8-6,43.5,0.2c16.7,6.2,27.9,18.7,33.3,28.5c2.8,4.9,4.4,9.1,5.3,12.1C1726.2,1075.4,1726.5,1077,1726.5,1077z"/>
				</g>
				<g>
					<path class="st3" d="M1643.7,1058.3c0,0-0.7-1-1.9-2.7c-1.1-1.7-3.1-4.1-5.4-6.7c-4.7-5.4-11.8-11.4-20.4-16.8
						c-8.6-5.3-17.1-9-24-10.8c-3.4-0.9-6.3-1.6-8.3-1.8c-2.1-0.3-3.2-0.5-3.2-0.5s1.1-0.5,3-1.3c2-0.9,5-1.7,8.9-2.2
						c3.9-0.6,8.6-0.5,13.8,0.4c5.1,1,10.7,3,15.9,6.2c5.2,3.3,9.4,7.4,12.7,11.6c3.2,4.3,5.4,8.6,6.6,12.3c1.3,3.8,1.9,6.9,2.1,9.1
						C1643.6,1057.1,1643.7,1058.3,1643.7,1058.3z"/>
				</g>
				<g>
					<path class="st3" d="M1556,1151.5c0,0-2-3.2-5.3-8.3c-3.2-5-7.6-11.3-12.4-18.1c-4.8-6.8-9.2-13.1-12.8-17.8
						c-3.7-4.8-6-7.8-6-7.8s3.9,0.5,9.6,3.1c5.7,2.5,13.2,7.6,18.8,15.6c5.6,8,7.9,16.8,8.4,23.1
						C1556.8,1147.6,1556,1151.5,1556,1151.5z"/>
				</g>
				<g>
					<path class="st3" d="M1626.9,1263.2c0,0-0.7-1.4-1.9-3.9c-1.2-2.5-3.2-5.9-5.8-9.8c-5.2-7.9-13.8-17.3-25-24.7
						c-11.2-7.3-23.3-11.3-32.5-12.8c-4.6-0.8-8.5-1.1-11.2-1.3c-2.7-0.1-4.3-0.1-4.3-0.1s1.4-0.7,4-1.7c2.6-1,6.5-2.2,11.5-2.9
						c9.9-1.5,25.1-0.2,38.7,8.7c13.7,8.9,21.1,22.4,24,32.1c1.5,4.9,2.1,9,2.3,11.9C1627,1261.6,1626.9,1263.2,1626.9,1263.2z"/>
				</g>
			</g>
			<path class="st4" d="M3498.2,1754.4v459.9l-6364.9,9.6v-645.5c272.3-31.7,551.5-44.4,826.2-74.4c285.6-31.3,570-71.4,853.7-114.8
				c310.8-47.7,622.5-100.8,922-193.5c146.2-45.2,289.2-100.1,424.9-168.2c69.5-34.9,134.4-75.4,201.1-114.7
				c18.2-10.7,142.4-77.2,181.6-91.7c6.4-2.4,10.5-3.3,11.5-2.4c35.6,32.7,76.1,67.3,111.7,100.1c34.4,31.7,70.4,64.2,115.5,79.8
				c1.4,0.6,2.9,1.1,4.4,1.5c19.6-12.6,30.7-22.7,50.3-35.3c0.4,0.7,0.9,1.4,1.3,2.1c67.5,108.2,170.3,190.1,277.3,266.2
				c48.4,34.5,99.1,66.1,150.6,96.3c35.2,20.6,64.3,51.5,100.3,69.5c34.4,17.2,72.6,31.2,112.1,43.1c76.4,23.1,158.4,39,230.8,57.2
				c234.6,59.3,473.4,103.5,713.5,138.6C2779.1,1690,3138.8,1722.3,3498.2,1754.4z"/>
			<linearGradient id="SVGID_4_" gradientUnits="userSpaceOnUse" x1="554.0223" y1="1999.2758" x2="937.893" y2="769.7345">
				<stop  offset="5.586590e-03" style="stop-color:#2C9182"/>
				<stop  offset="0.9888" style="stop-color:#FFFED1"/>
			</linearGradient>
			<path class="st5" d="M1131.1,1834.2c-24.1,19.7-56.3,25-87.1,28.2c-22.5,2.4-45,3.7-67.4,6.2c-7.6,0.8-13.8,4.9-21,5.3
				c-8.4,0.5-17-5.2-23.6-9.8c-31.4-21.7-62.4-44.1-93-67.2c17.2,24.4,34.3,48.7,51.5,73.1c-10.7,0.9-21.4,0.8-32-0.3
				c-0.7,1-1.3,2.1-2,3.1c-9.3,2.5-19.3-0.5-27.4-5.7c-8.1-5.2-14.6-12.6-21-19.8c6,8.4,10.3,18.1,12.6,28.3
				c-9.3-3.4-18.8,6-28.7,5.3c-5.5-0.4-10.2-3.8-14.5-7.3c-21.3-17.4-39.3-39-52.6-63.3c7.1,23,16.7,45.3,28.3,66.3
				c-24.4,0.1-46.9,5.9-70.6,9.7c-25.7,4.1-46.2,10.3-72.9,8.5c-28.7-1.9-57-7.5-85.2-12.9c-23.4-4.6-47.5-9.4-67.4-22.8
				c-12.8-8.7-23.5-20.6-37.2-27.7c-13.1-6.8-28-8.9-41.9-13.6c-25.6-8.7-48-27-61.9-50.7c26.5-11,58.5-25.8,79.1-46.7
				c12.7-12.8,31.4-52.4,50.6-52.9c8.8-0.2,16.9,4.6,24.2,9.5c65.5,43.9,114.3,110.3,180.8,152.5c-46.7-45.2-95.3-88.3-145.7-129.2
				c-13-10.6-26.2-21-39.5-31.2c-8.3-6.4-22.5-12.4-29.3-19.8c-21.9-23.8,34.7-24.3,48.6-23.9c16.3,0.5,43.5-3.1,58.5,3.1
				c4,1.7,7.2,4.9,10.5,7.7c13.6,11.6,30.8,17.8,46.8,25.9c24.3,12.2,46,29,67.6,45.6c-8.2-2.2-14.4-8.8-20.2-15
				c-13.6-14.6-27.2-29.3-40.8-43.9c-2.6-2.8-5.4-5.8-6.5-9.6c-2.2-7.5,1.4-18.1-5.5-21.6c4.6-2.8,10.3-0.3,15.4,0.8
				c5.2,1.1,12.4-0.9,12.3-6.3c0-2.1-1.3-4-2-6c-1.9-5.3,0.1-11.4,3.8-15.8c9.6-11.3,24.2-21,35.4-30.9c2.7-2.4,5.4-4.9,6.5-8.4
				c1.3-4.4-0.6-9-2.5-13.1c-9-19.5-23.2-35.8-34.5-53.8c-8.1-12.8-12.5-28.6-26.1-36.9c56.2,34.4,112.4,68.8,168.7,103.2
				c-91.3-74.2-183.1-148.9-287.6-203.2c-5-2.6-10.5-5.8-11.9-11.3c-3.4-12.8,1.3-28.1,2.1-41.1c10.3-0.5,19.3,6.1,28.2,11.4
				c14.3,8.6,30.3,14.4,46.7,17.1c-33.3-27.8-70.9-37.6-107.4-58.1c-13.3-7.4-25.5-18-37.4-27.5c-30.5-24.3-61.7-46.7-88.5-75.3
				c-9.6-10.3-19.5-23.9-15.2-37.4c24.2-2.8,48.4-5.5,72.6-8.3c18.8-2.2,42.1-10.7,60.4-3.7c6.9,2.6,12.8,7.4,18.7,11.8
				c14.4,10.5,30.2,18.9,46.8,25c-16.2-14.5-32.3-29.1-48.5-43.6c8.2-1.3,17-2.8,22.9-8.8c6.9-7,7.7-17.9,10.6-27.4
				c11.9-39.2,60.2-55.6,77.7-92.6c9.2,11.6,10.1,29.2,21.5,38.6c5.9,4.9,13.3,6.1,20.1,9.2c6.9,3.1,11.5,7.8,18,11.5
				c21.8,12.3,41.4,28.7,57.4,48.2c8.4,10.3,15.9,21.5,25.3,30.8c8.7,8.7,19,15.7,29.2,22.6c-6.6-6.9-11.4-15.5-13.8-24.9
				c15.1,5.6,30.2,11.3,45.3,16.9c-32-14.4-59.6-36.9-86.8-59.1c-13.9-11.3-27.8-22.7-41.7-34c-8-6.6-16.1-13.2-22.8-21.1
				c-13.8-16.5-28.8-30.7-43.3-46.6c-24.6-26.9-16.9-85.5-23.1-120.3c-1.6-9.2-3.3-18.8-5.3-28.4c6.4-2.4,10.5-3.3,11.5-2.4
				c35.6,32.7,76.1,67.3,111.7,100.1c34.4,31.7,70.4,64.2,115.5,79.8c7.3,23.2-1.4,54.7,3.7,79.3c4.4,21.3,9,42.6,13.4,63.9
				c8.9,42.6,29.8,80.2,44.3,120.9c-55.5-18-108.7-43.5-157.7-75.5c34.8,27.9,70.7,55.3,111.5,72.8c13.2,5.7,29.2,8.1,40.8,16.8
				c12.2,9.2,24.1,19.1,36.6,28.1c3.9,2.8,7.9,5.7,10.5,9.7c2.5,3.7,3.7,8.2,4.8,12.5c3.7,13.9,10.3,30,12,44.2
				c0.1,1.1,0.1,2.3-0.6,3c-1,0.9-2.6,0.5-3.9-0.1c-4.5-1.9-8.9-3.7-13.4-5.6c9.5,5.9,18.9,11.8,28.4,17.7c1.2,0.8,2.5,1.5,3.5,2.6
				c1.7,1.9,2.5,4.4,3.4,6.8c6.8,18.9,18.9,37.4,28.1,55.3c-3.5-6.9-25.3-13.9-32.6-19.5c-13-10-27.1-18.2-39.7-28.7
				c12.5,20.4,25.2,41.1,42.9,57c12.4,11.1,26.9,19.5,39,30.9c0.6,0.5,1.1,1.1,1.4,1.9c0.2,0.8,0,1.7-0.2,2.5
				c-3.9,14.2-9.4,27.3-14,41c-1.4,4.1-6.6,30.7-5,32c-49.4-40.8-99-81.7-143.4-128.1c-10.5-10.9-21.4-22.7-35.9-26.8
				c-7.5-2.2-15.5-2.1-23.2-3.9c-25.4-6.2-42-32.7-67.2-39.7c22.7,23.2,48.4,44.8,79.2,54.2c7.9,2.4,16.2,4,23.4,8.2
				c5.3,3.1,9.7,7.4,14.1,11.6c42.9,41.3,87.3,81.1,133,119.2c20.9,17.4,32.6,48.6,41.9,73.9c-25.5-9.5-51-18.8-76.6-28
				c12.7,11,25.5,22,39.9,30.4c15.1,8.8,31.7,14.5,47.1,22.8c16.2,8.8,37.6,26.3,47.9,41.8c-0.1-0.1-19.8,6.2-22.3,6.3
				c-10,0.8-19.6-2-29.2-4.7c-20.5-5.7-40.3-13.8-59.7-22.7c-39.1-18.1-76.6-39.9-117.1-54.9c43.1,23.3,86.3,46.6,129.4,69.9
				c26.5,14.3,53,28.6,78.1,45.4c24,16.1,44,37.3,69.3,51.2c7.2,4,14.8,7.6,22.2,11.4C1105.1,1813,1120,1821.3,1131.1,1834.2z"/>
			<linearGradient id="SVGID_5_" gradientUnits="userSpaceOnUse" x1="1077.8027" y1="1823.2976" x2="1189.5529" y2="958.1999">
				<stop  offset="5.586590e-03" style="stop-color:#2C9182"/>
				<stop  offset="0.9888" style="stop-color:#FFFED1"/>
			</linearGradient>
			<path class="st6" d="M995.7,1616.5c-3.3-13.1-7.6-21.4-13.3-33c-2.1-4.3-10.4-40.3-12.3-40.7c27.8,6.6,38.9,27.6,56.1,47.4
				c16.5,19,41.9,32.1,54,54.8c-21.9-41-56.2-73.2-87.4-107.4c-9.8-10.8-9.1-19.8-13-32.9c-4.1-13.7-12.3-25.6-14-40.1
				c-2.2-18.8,6.7-37.1,8-56.1c0.5-7.5-3.3-34.8-8.6-39.2c20,16.6,48.3,16.1,73.6,21.6c42.8,9.4,79.1,37.1,113.9,64.2
				c-18.1-14.8-36.2-29.7-54.3-44.5c-20.9-17.2-43.9-35.2-70.7-36.5c-6.1-0.3-12.3,0.3-18.4-0.6c-11.5-1.7-21.6-8.7-31-15.8
				c-30-22.5-49.5-50.4-59.6-87.9c-2.9-10.9-7.6-42.3-16.8-48.3c26.3,17,50.5,37.5,71.6,60.8c-20.8-31.1-46.3-57.8-69-87.3
				c-8.1-10.5-26.9-94.5-35.3-95c10,0.5,15.6,11.5,21.7,19.6c7.9,10.5,19.1,17.8,29.6,25.6c21.3,15.7,40.5,34.1,59.7,52.4
				c-36-38.2-72-76.4-108-114.5c-11.5-12.2-13.9-38.1-18.6-54.1c-6-20.5-11.9-41.1-16.1-62.2c67.5,108.2,170.3,190.1,277.3,266.2
				c48.4,34.5,99.1,66.1,150.6,96.3c35.2,20.6,64.3,51.5,100.3,69.5c34.4,17.2,72.6,31.2,112.1,43.1c-6.9,5.1-15.1,8.5-23.6,9.8
				c9.3-1.5-14.6,24.3-15.6,25.2c-6.5,5.3-12.9,11.4-19.9,16c-4.5,3-10.3,6.9-15.5,8.2c-9.9,2.5-5.5,1.2-14.8-1.2
				c-9.8-2.5-21.2-4.3-30.5-8.3c-7.1-3.1-12.9-8.6-18.5-14c-40.4-39.3-79.3-80.1-116.5-122.5c44.6,57.9,89.4,116.1,143.1,165.4
				c-11.3,5.1-22.8,10.3-35.1,11.5c-12.3,1.2-25.7-2.3-33.6-12c-7.4-9.1-9.5-22.9-19.5-28.8c4.7,11,6.8,22.6,10.6,33.9
				c0,0.1,7,19.8,2.9,16.2c-18.8-16.6-36.3-35.3-56.1-49.8c-10.1-7.4-22.9-19.9-27-32c-2.4-6.9-3.6-14.4-7.7-20.5
				c-3.6-5.5-9.2-9.4-14.6-13.1c-37.8-26.2-75.7-52.4-113.5-78.6c3.3,8.1,10.9,13.2,18.1,18.1c32.7,22.1,63.5,47.2,91.9,74.7
				c7,6.8,10.6,16.1,16.8,23.8c8.3,10.3,16.7,20.6,25.3,30.7c18,21,36.3,41.8,59.6,57c12,7.8,13.2,9.3,19,23
				c1.5,3.5,13.5,30.4,18.1,28.9c-9.9,3.1-20.1,5.3-30.1,8.2c-7.1,2.1-14.4,7.1-21.5,8.1c-8.5,1.2-20-3.1-28.1-5.4
				c-3.3-1-23.9-11-25.7-9.8c-3.2,2-5.7,5.1-7.1,8.7c-20.8-18-45.1-30.2-62.6-51.8c-20-24.7-42.1-47.5-66.1-68.2
				c9.5,16.2,21.5,30.7,33.5,45.1c16.9,20.3,34.5,40,50.9,60.8c5.7,7.2,10.7,14.8,15.3,22.8c1.8,3.2,8,21.9,10.5,22.3
				c-12.8-1.8-18.6-18.4-30.7-22.9c2.6,4.9,5.8,9.4,9.1,13.9c5.5,7.6,11.1,15.4,18.7,21c3.6,2.7,7.6,4.8,10.9,7.8
				c8.3,7.7,17.4,16.3,21.8,27.1c3.6,9,3.4,21.2,3.9,30.9c0.1,2.7,0,5.3-0.2,8c-0.3,5.6-0.7,11.3-1,16.9c-9.7-8.1-20.4-11.6-31-17.4
				c-12.1-6.6-23.5-18.4-33.6-27.8c13.9,15.1,27.8,30.3,41.7,45.5c0.7,0.8,1.5,1.7,1.7,2.8c1.2,6-10.5,14.9-14.2,17.7
				c-3,2.3-6.5,4.6-7.6,8.3c-1.2,4.2,1,8.5,3.2,12.3c9.3,16.1,18.6,32.2,27.9,48.3c-34-20.5-68-41-102-61.5
				c-20.1-12.2-40.7-24.7-54.6-43.8c-17.2-23.7-22.1-54.6-38-79.2C1009.1,1640.1,999.2,1629.8,995.7,1616.5z"/>
			<polygon class="st7" points="-489.8,1723.3 -457.3,1723.3 -474.8,1657.2 			"/>
			<polygon class="st7" points="13.9,1943 -1.2,1885.9 -7.4,1913.1 -18.9,1869.6 -34.7,1939.3 -13.3,1939.3 -23.7,1985.1 
				25.1,1985.1 24.8,1983.9 42.5,1983.9 22.1,1907 			"/>
			<path class="st7" d="M3130.6,1650.9c-2.1-23.2-11-47-29.2-61.1c-15.3-11.9-35.1-15.5-54.1-18.7c-102.6-17.1-205.9-29.6-309.1-42
				c-14.3-1.7-28.5-3.4-42.8-5.1l-14.6-55.2l-11.8,52.1c-3.5-0.4-7-0.8-10.5-1.2l-1.1-4.2l-0.9,4c-5.5-0.6-11.1-1.2-16.6-1.8
				l-7.5-28.2l-4.4,19.5l-5.2-19.6h9.1l-19.8-74.8l-4.2,18.6l-1.4-5.2l-2.8,12.4l-17.1-64.5l-9.4,41.5l-15.8-59.6l-14,61.9
				l-10.6-40.2l-11.4,50.3l-12.9-48.8l-8.8,38.6l-15-56.5l-12.9,56.8l-12.1-45.9l-17.1,75.2l-5.3-20.2l-0.4,1.9l-2.5-9.3l-3.3,14.4
				l-25.4-95.8l-25.2,111h4.1l-4,17.8l-15.7-59.3l-6.5,28.7l-0.6-2.4l-3.6,16.1l-16.8-63.4l-10.3,45.4l-18-68.1l-13.3,58.5
				l-3.9-14.8l-10.1,44.3l-16.7-63l-18.7,82.5l-2.9-10.8l-12.3,54.1l-18.1-68.4l-12.2,54l-6.3-23.9l-2.9,12.8l-1.4-5.3l-9.5,41.8
				l-15.7-59.5l-13.3,58.5l-10.3-38.9l-11.2,49.3l-13.6-51.3l-7.2,31.7l-14.2-53.8l-11.3,49.9l-13.5-50.9l-9.6,42.1l-16.1-60.9
				l-15,66.1l-7.5-28.4l-16.3,71.8h6.7l-3.6,15.8l-7.3-27.6l-2.3,10.2l-11-41.5l-8.1,35.5l-3.9-14.7l-2.1,9.2l-11.9-45l-5,21.9
				l-8.4-31.6l-16,70.6l-4.9-18.7l-6.4,28.4l-1.4-5.4l-8.4,36.8l-6.4-24.2l-3.6,15.8l-6-22.8l-6.2,27.3l-8.9-33.5h41.6L1903,1471
				l-10.5,46.5l-14.6-55.2l-14,61.8l-8.6-32.5l-18.3,80.7h39.7l-5.9-22.2h14.3l-1.2,5.5l-0.2-0.7l-15,65.9l-3.4-13l-3.2,14.2
				l-6.4-24.1l-6.6,29.1l-26.1-98.6l-11.6,51.1l-15.2-57.5l-13.4,59l-10.7-40.2l-13.6,59.7l-8.4-31.8l-8.5,37.5l-18.4-69.3
				l-11.1,48.8l-1.4-5.2l-0.2,0.7l-14.4-54.2h26.4l-25-94.4l-3.5,15.4l-26.5-100l-24.3,107h1.9l-2.5,11.2l-12.2-46l-12,52.9
				l-10-37.8l-18.9,83.3h5.3l-6.8,29.8h10.2l-13.2,58.3l-9.6-36.3l-21.6,95.3h0.6l-1.8,8.1l-1.5-5.6l-0.5,2.4l-8.5-32.1l-0.3,1.5
				l-10.2-38.6h28.3l-17.5-66.2l-15,66.2h3.9l-12.6,55.6l-12.8-48.3h10.3l-20.6-78l-10,43.9l-7.4-28l-3.4,14.8l-4.1-15.3l-8.5,37.3
				l-15.6-58.7l-12.2,53.8l-8-30.1l-13.5,59.3l-3.8-14.3l-11.1,49.1l-14.4-54.5l-9.1,40c-0.5,0-0.9,0-1.4,0l-24.2-91.3l-23.9,105.5
				h4.1c-4.1,1.9-7.7,5.3-9.6,9.1l-11.4-43l-3.3,14.7l-21.9-82.6l-12.3,54l-9.5-36l-9.7,42.7l-19.7-74.4l-21.7,95.7h1.3l-11,48.5
				l-7.6-28.6l-7.7,34l-0.3-1l-5.3,23.3l-11.3-42.8l-10.8,47.8l-10.2-38.6l-4.4,19.6l-1.3-4.8l-13.5,59.6l-1.9-7.2l-0.5,2
				l-14.2-53.8l-10.5,46.5l-9.7-36.8l-17.8,78.6h3.7l-0.2,1c-4.4,2.6-9.1,5.4-13.9,8.3l-15.2-57.5l-1.1,5l-5.9-22.2l-8.2,36.2
				l-9.9-37.5l-13.3,58.5l-8.6-32.3l-2.5,11.2l-1.7-6.3l-6,26.3l-20.3-76.5l-13,57.5l-7.3-27.6l-12.9,56.7l-11.6-43.9l-8,35
				l-20.9-79.1l-12.1,53.1l-9.7-36.6l-17.9,78.9l-2.7-10.1l-4.7,20.7c-10.8,1.9-17.1,10-18,18.6l-0.1-0.3l-11,48.4l-13.5-50.8
				l-8,35.1l-18.4-69.6l-22.6,99.5h19.6c-5.3,5.3-5.4,14.2-1.5,20.8l-3,13.3c-6.1,0.8-12.1,1.5-18.2,2.1l-4-15l-3.6,15.8
				c-1.2,0.1-2.5,0.3-3.7,0.4l-14.5-54.7l-12.9,56.8c-8.2,0.5-16.5,0.9-24.7,1.1c-9.7,0.3-19.8,0.7-30.1,1.1l-8.2-30.9l-6.7,29.7
				l-19.5-73.5l-10.9,48l-13.9-52.4l-8.4,37.1l-17.7-67l-8.5,37.7l-17.3-65.3l-12.9,56.8l-10.6-40l-12.8,56.3l-5.6-21.3l-7.5,33
				c-3.4-4.4-7.9-8.1-13.1-10.3c-5.8-2.5-12.1-3.5-18.6-3.9l-9.3-35l-7.5,33l-20-75.7l-17.7,78.2c-1.1,0-2.2,0-3.4,0l-0.4-1.5
				l-0.3,1.5c-1,0-2,0-3.1,0l-7.6-28.9l-3,13.2l-14.1-53.2l-16.5,72.6c-2.1,1.8-3.7,4-4.8,6.5l-11.2-42.3l-1.6,6.8l-16-60.6
				l-11.6,51.3l-20.8-78.4l-10.5,46.2l-13.7-51.6l-15.6,68.6l-4.5-16.9l-5.2,22.8l-11.2-42.3l-11.1,49l-9.5-35.8h14l-21.2-80.1
				l-12.4,54.8l-15.7-59.3l-5.8,25.7l-8.4-31.7c17.5,0,34.9-1.8,52.1-5.7c-19.2-5.1-38-11.3-56.4-18.7h14.2l-24.1-91H191l-29-109.5
				l-12.7,56l-12.9-48.9l-20.9,92.1h24l-2.3,10.3h8.8l-17,74.8c-12.2-6-24.1-12.5-35.8-19.5h19.6l-28.1-106.2l-0.3,1.4l-11.2-42.2
				l-9,39.6l-4.7-17.6h6.7l-27.7-104.6l-17.3,76.2l-9.8-37l-1.6,6.9l-8.9-33.7h20.5L-7,1295.6l-5.4,23.9l-13.4-50.6l-13.8,60.7
				l-10.7-40.6l-1.1,5l-14.1-53.2l-20.1,88.6h2.8c1.9,7.7,3.8,15.3,5.7,23l-4.4,19.4l-1.6-6.2L-93,1409l-13.8-52.2l-13.8,60.9
				l-13.9-52.5l-16.7,73.5l-5-18.9l-2.5,11l-12.5-47.1l-2.4,10.5l-1.9-7.3l-2.1,9.1l-6.3-23.7h24.3l-21.1-79.5l-13,57.3l-17.4-65.9
				l-13.9,61.3l-5.8-22h5.8l-27.5-104l-7.8,34.3l-22.4-84.7l-14.7,64.9l-4.3-16.1l-10.1,44.5l-18.2-68.6l-15.8,69.8l-7.1-26.8
				l-8.5,37.5l-0.5-2l-3.3,14.4l-10.7-40.4l-1.4,6.3l-2.1-7.9l-12.4,54.5l-14.8-55.9l-13.3,58.5l-0.5-2h0.8l-25.2-95.2l-4.4,19.3
				l-2.6-10l-20.7,91.4l-12.6-47.5l-9.1,40.2l-6.9-26.1l-11.3,49.8l-13.2-49.8l-2.3,10l-8-30.1l-9,39.4l-16.7-63.3l-1.2,5.2
				l-21.7-81.8l-11.6,51.2l-13.9-52.4l-17.9,78.7l-9.2-34.8l-10.1,44.4l-14.5-54.9l-2.6,11.3l-14.4-54.5h16.6l-21.1-79.7l-12.2,53.6
				l-6.7-25.3l-11.8,51.8l-5.6-21.3l-9.2,40.4l-28.7-108.5l-12,52.7l-9.2-34.9l-11.8,51.9l-12.3-46.6l-25.5,112.4h4.8l-3.1,13.8
				l-3.8-14.4l-6.6,29.2l-16.4-61.8l-9,39.6l-13.8-52.3l-0.8,3.7l-1.3-4.9h13.7l-2.6,11.7h46.6l-25.1-94.8l-9,39.5l-16.9-64
				l-16.2,71.5l-5.2-19.7l-15.2,66.9l-14-52.8l-10.7,47l-18.4-69.4l-4.9,21.5l-24.3-91.7l-21.3,94.1h22.7l-10.4,45.6h22.3l-6.2,27.1
				h15.2l-11.2,49.3l-7-26.4l-11.3,49.9l-12.1-45.8l-10.3,45.4l-14.2-53.8l-16.1,70.8l-11-41.6l-14.1,62.3l-8.4-31.8l-2.7,11.8
				l-1.4-5.3l-1.1,5l-20-75.6l-13.3,58.7l-11.2-42.5l-20.4,90.1h3.3l-10.9,48l-11.4-43l-19.2,84.7h21.1l-3.9,17.4h15.5l-4.7,20.7
				h11.2l-0.4,1.7h26.7l-7.1,31.1c-1.5-0.6-3-1.3-4.5-1.9l-7.6-28.9l-5.3,23.5c-3.4-1.4-6.9-2.8-10.3-4.1c-0.3-0.1-0.6-0.2-0.9-0.3
				l-7.1-27l-5.1,22.6c-2.2-0.8-4.5-1.5-6.7-2.2l-4.4-16.7h2.2l-19.5-73.5l-8,35.4l-16.2-61.2l-10.8,47.5l-11.4-43.1l-8.3,36.5
				l-15.5-58.5l-7,30.7l-14.1-53.3l-6.4,28.3l-15.6-59l-1.1,5l-7.5-28.2l-16.2,71.5l-7.5-28.2l-2.5,11l-22.2-83.7l-10.2,44.9
				l-14.4-54.4l-18,79.4l-18.1-68.4l-12.7,55.9l-0.6-2.3l-1.6,7.1l-9.2-34.6l-2.5,11l-10.5-39.6l-7.9,34.7l-3.8-14.3l-5.2,23.1
				l-20-75.6l-15,65.9l-8.8-33.3l-7.5,32.9l-18-67.9l-18.4,81.2l-4.7-17.9l-7.4,32.7l-17.7-66.9l-10,44.1l-3.2-12.2l-1.6,6.9
				l-9.5-36l-13.9,61.1l-5.5-20.8l-3,13.4l-8.1-30.5l-8.2,36.1l-3.8-14.4l-13.6,60.1l-1.3-5.1l-7.4,32.5c-1.4-0.2-2.7-0.4-4.1-0.7
				l-10.2-38.6h25.2l-19.6-74.1l-12.8,56.6l-3.6-13.6l-1.4,6.3l-12.6-47.5l-3.9,17.1l-1.4-5.3l-4.8,21.3l-2.9-11.1l-7.4,32.5
				l-4.8-18.1l-0.8,3.3l-4.2-15.8l-2.2,9.5l-12.8-48.2l-10.9,48l-15.1-57l-21.2,93.3h1.2l-1.9,8.2l-10.6-39.9l-1.9,8.2l-9.7-36.7
				l-12,52.8l-1.2-4.4l-0.5,2.2l-23.1-87.3l-17.3,76.2l-1.5-5.5l-4.1,18l-5.4-20.5l-7.4,32.7l-7.4-27.8l-10.6,46.7l-19.3-72.8
				l-11.4,50.1l-7.5-28.3l-11.5,50.6l-14.6-55.2l-12.7,56l-13.6-51.3l-9.7,42.8l-20.7-78.1l-12.2,53.6l-7.4-27.8l-12.4,54.7
				l-5.7-21.5l-8.7,38.2c-73.3,6.7-146.5,16-219.4,25.3c-31.9,4.1-64.3,8.3-93.5,22c-44.1,20.7-77.5,63.5-87.4,111.8
				c-5.3,25.6-4.1,53,5.9,77.1c17.1,41.2,56.9,67.6,96.2,87.8c247.8,127.7,540.3,106.5,817.2,128.6c175.2,14,349.4,46.6,525.1,45.5
				c131.9-0.8,263.8-20.6,395.4-11.1c85.8,6.2,177.5,23.6,256-6.4c22.2,7.7,46.5,13.2,58.5,16.6c110.3,31.3,225.5,38,339.2,44.5
				c7.6,0.4,15.2,0.9,22.8,1.3l-15.6,68.6h43.4l-3.7-14.1h23.6l-7.1,31.5h42.4l-5.9-22.5h11.4l-1.7,7.4h3.6l-2.1,9.3H126l-0.9,4
				h46.6l-1.5-5.7h8.9l-13.1-49.4h0.7l-0.1,0.3h30.2l-4.4,19.3l-2.5-9.5l-15.6,68.5h4.9l-0.9,4.1h48.5l-1.9-7h20.3l-6.2,27.3h51.5
				l-6.3-23.8h9.4l-1.3,5.9h49.3l-1,4.3h28.6l-7,31h46.2l-14.5-54.7h13.9l-9.5-35.9h1.1c2.8,0.3,5.6,0.6,8.4,0.8l-4.1,17.9h37.6
				l-1.9-7.2h30.2l-2.2-8.4h2.3l-0.8,3.5h17l-1.8,8h27.3l-1.3,5.8h36.6l-12.6,55.6h21.1l-0.1,0.5h52.3l-4.8-18.1h28.2l-0.7-2.8h1.8
				l-1.5,6.5h33l-0.6,2.8h26.1l-4.5,19.9h36.9l-16-60.6c11.4-0.3,22.8-0.9,34.2-1.7l-11,48.3h25.1l-1.3,5.6H808l-1.9-7.3h7.3
				l-1.3-4.9h33.1l-1.5-5.8h7.3l-6.5-24.6h16.8l-3.2-12.1h7.4l-21.9,96.4h55.2l-7.5-28.2h13.5l-13.3-50.4h7.3l-0.8,3.7h5.6
				l-4.9,21.5h23.8l-0.2,0.8h35.6l-10,43.9h55.7l-1.7-6.2h20.2l-0.9,3.8h26.4l-2.2,9.7h55.5l-9-34.1h9.8l-0.3,1.1h11.8l-2,8.7h43.1
				l-3.1-11.8h6.3l-1.3-5h12.1l-0.4-1.4h47.7l-2.1,9.4h55.8l-6.9-26h17.9l-0.2,1.1h54.9l-5.5-20.8h23.5l-0.3-1.2h37.6l-6.7-25.2h1
				l-1.5-5.6h12.1l-3.7,16.2h41.1l-3.9-14.7h26.6l-0.8,3.7h54.8l-4.4-16.5c217.3-17.2,431.3-82.3,636.8-159.6
				c49.3-18.6,102-38.2,153.1-25.9c9.2-10.5,35,11.1,41,23.8c6,12.7,3.7,27.6,2.7,41.6c-1,14,0.2,30,10.6,39.2
				c6.1,5.4,14.3,7.4,22.1,9.3c183.8,43.5,377.8,70.9,559.8,20.1c50.3-14,100.1-34.6,138.9-70
				C3108.8,1755.9,3135.4,1703.7,3130.6,1650.9z M1926.1,1635.6h2.2c-0.7,0.2-1.4,0.4-2.1,0.6L1926.1,1635.6z M2517.4,1487.8
				l-4.4,19.6c-0.2,0-0.4,0-0.6,0l-2.4-8.9l-0.8,3.6l-3.8-14.3H2517.4z M2582.5,1463.6L2582.5,1463.6l-6,26.3l-7.1-26.9h13.2
				L2582.5,1463.6z M2552.7,1496.7l-5.3-19.9h9.8L2552.7,1496.7z M2501.9,1474.9l-0.8-3.2h1.6L2501.9,1474.9z M2476.7,1482.9
				l-5.7-21.4h10.5L2476.7,1482.9z M2334.7,1511.5c-4.1,0.5-8.2,1-12.3,1.5l-1.6-5.9h0.7l-2.4-9.2h18.7L2334.7,1511.5z
				 M2124.6,1555.6l-0.5-1.9h1L2124.6,1555.6z M2080.3,1589.1l-4.4-16.7h8.2L2080.3,1589.1z M1894.4,1639.5l-1.9-7.3h3.6
				L1894.4,1639.5z M1833.3,1660.7l-5.3-20.1h18l-4.1,18.1C1839,1659.3,1836.1,1660,1833.3,1660.7z M1800.6,1643.5h2.9l-1.3,5.9
				L1800.6,1643.5z M1973.1,1620h9.7c-3,0.9-6,1.7-9,2.6L1973.1,1620z M2597.1,1469.1l-6.6-24.9h12.2L2597.1,1469.1z M2586.9,1444.1
				l-1.3,5.6l-1.5-5.6H2586.9z M2560.3,1463.1l-0.8,3.3l-0.9-3.3H2560.3z M2496.1,1452.7l-3.5-13.3h6.6L2496.1,1452.7z
				 M2488.2,1439.3l-3,13.3l-0.9-3.3l-0.4,1.8l-3.1-11.8H2488.2z M2454.3,1461.6l-2.1,9.3l-2.5-9.3H2454.3z M2425.3,1478.6
				l-7.2-27.3h13.4L2425.3,1478.6z M2417,1451.3l-3.7,16.2l-2.1-7.8l-2.1,9.2l-4.7-17.6H2417z M2380.7,1485.7l-2.7,12l-3.2-12
				H2380.7z M2231.9,1530.6c-1.5,0.4-3.1,0.9-4.6,1.4l-0.6-2.3h5.4L2231.9,1530.6z M2218.1,1529.7l-1.2,5.4
				c-1.1,0.3-2.1,0.6-3.2,0.9l-1.7-6.3H2218.1z M2075.1,1569.4l-2.6-9.7h4.8L2075.1,1569.4z M2044.7,1551.6h9.5l-1.8,8.1h11.5
				l-4.2,18.3l-2.8-10.4l-4.8,21l-6.2-23.4l-8.1,35.6l-12.6-47.4h19.8L2044.7,1551.6z M1731.4,1650.8l-3.7,16.3h10.2l-3,13.1
				c-2.3,0.4-4.7,0.7-7,1l-2.7-10.4l-2.5,11.1c-3.7,0.5-7.3,1-11,1.4l-8.5-32.3h26.4l-0.1-0.3H1731.4z M938.1,1881l-0.8,3.5
				l-0.7-2.7C937.1,1881.5,937.6,1881.3,938.1,1881z M1590.1,1692c-1.8,0-3.5,0-5.3,0l-1.4-5.2h7.9L1590.1,1692z M1574.5,1691.9
				c-0.8,0-1.6-0.1-2.4-0.1l-1.4-5.1h4.9L1574.5,1691.9z M1672.4,1615.4l-0.1,0.3l-0.1-0.3
				C1672.3,1615.4,1672.4,1615.4,1672.4,1615.4z M1637.8,1590c1.3,2.1,2.6,4,4.1,5.8l-3.5,15.3l-5.2-19.8
				C1634.8,1590.9,1636.3,1590.5,1637.8,1590z M1569.8,1682.9l-4.4-16.5h8.1L1569.8,1682.9z M1685.8,1623.4l-2.4-9
				c1.2-1.2,2.1-2.6,2.5-4.1c0.7-2.9,1.1-5.7,1.3-8.5c0.7-0.4,1.4-1,2-1.5h1.8L1685.8,1623.4z M1494.3,1684.8
				c-4.8-0.8-9.5-1.6-14.2-2.6l-3.2-12h13.7l-0.5,2.2h7L1494.3,1684.8z M1276.4,1671.6l-6.6-24.8h12.2L1276.4,1671.6z
				 M1249.5,1664.3l-4.6-17.4h8.6L1249.5,1664.3z M799.4,1934.7c1.9-0.3,3.7-0.5,5.6-0.8h0.1l-2.7,12L799.4,1934.7z M875.2,1915.9
				l-1.9,8.3l-1.2-4.5C873.4,1918.7,874.5,1917.4,875.2,1915.9z M878.3,1908.1c1.5-0.5,2.9-1.1,4.4-1.7l-1.5,6.6h2.6l-1.9,8.5
				L878.3,1908.1z M1692.6,1454.8l-16.3,72h10.2l-3.9,17.2c-1.7-0.9-3.5-1.7-5.4-2.4l-11.3-42.8h11.1l-11.7-44.1H1692.6z
				 M1655.6,1498.9l-2.4,10.6c-3-2.9-7.2-4.4-11.5-4.5l-0.1-0.5h11.4l-1.5-5.6H1655.6z M1608.1,1548.2l-2.8,12.5h9
				c-0.9,1.9-2,3.7-3.1,5.6c-6.7,11,0.3,21.6,10.3,24.8l-5.3,23.2l-17.5-66.1H1608.1z M1504.6,1608.4l-4.6,20.2l-5.4-20.2H1504.6z
				 M1297.8,1654.8l-7.5-28.5h14L1297.8,1654.8z M1286.7,1626.3l-3.4,14.9l-3.9-14.9H1286.7z M1243,1639.3l-4.5-17.1h8.4
				L1243,1639.3z M1233.6,1622.2l-9.8,43.3l-11.5-43.3H1233.6z M1211.4,1700.3c-0.9,0.5-1.7,1.3-2.5,2l-0.5-2H1211.4z M986.1,1778.6
				l-2-7.7h3.8L986.1,1778.6z M966.9,1770.9l-0.6,2.8l-0.8-2.8H966.9z M840.9,1825.4l-1.9,8.4l-3.6-13.7
				C836.8,1822,838.6,1823.8,840.9,1825.4z M781.4,1894.6c1.2,0.8,2.5,1.6,3.9,2.1c0.2,0.1,0.3,0.1,0.5,0.2l-0.8,3.3h3.4
				c-1.8,0.3-3.6,0.5-5.4,0.7L781.4,1894.6z M564.5,1852.9l-3.9,17.2h32.9l-8.4,37.1c-0.3-0.1-0.7-0.1-1-0.1l-4.9-18.5l-3.8,16.9
				c-6.6-1.4-13-3-19.2-5.1l-12.6-47.4H564.5z M66.8,1864.2l-0.6-2.4c0.4,0,0.8,0,1.2,0.1L66.8,1864.2z M142.2,1867.9l-1.3-4.8
				c0.8,0,1.6,0,2.4,0L142.2,1867.9z M150.3,1863c0.9,0,1.7,0,2.6-0.1l-1.2,5.3L150.3,1863z M232,1894.7h6.6l-3,13.4L232,1894.7z
				 M300.1,1835.3l-0.2-0.6l-2.3,10.1l-5.9-22.1h11.2L300.1,1835.3z M214.7,1870.1l-2.8-10.6c1.8-0.2,3.6-0.4,5.3-0.5L214.7,1870.1z
				 M193.3,1789.6h14.6l-6.7,29.7L193.3,1789.6z M244.6,1942.2h5.6l-2.6,11.4L244.6,1942.2z M338.1,1866.2l-0.9,4.1
				c-2.9-0.3-5.8-0.7-8.7-1l-0.8-3H338.1z M317.3,1826.8l-1.1-4h2L317.3,1826.8z M273.8,1818.4l-3.1,13.7l-3.6-13.7H273.8z
				 M217.6,1856.2c-2.3-0.4-4.6-0.7-6.9-1.1l-0.9-3.3h8.8L217.6,1856.2z M212.1,1771.1l-2.7,11.9l-3.1-11.9H212.1z M-329.7,1660.3
				h4.4l-2,9L-329.7,1660.3z M-129.1,1764.7c-0.7-0.4-1.4-0.8-2.1-1.2l-0.4-1.3h3.1L-129.1,1764.7z M-378.6,1713.7h6.8
				c-2,0.8-4.1,1.7-6.1,2.5L-378.6,1713.7z M-949.3,1524.4l-2.6-9.8h11.4l-2.6,11.2C-945.2,1525.3-947.3,1524.9-949.3,1524.4z
				 M-1487.5,1369.1l-0.8-3.1h1.6l-1.8-6.6h10.8l-9.1-34.2h22l-7.6,33.6l-2.3-8.6l-4.8,21
				C-1482.1,1370.4-1484.8,1369.7-1487.5,1369.1z M-1527.4,1359.3h9.6l-0.5,2.2C-1521.3,1360.8-1524.4,1360.1-1527.4,1359.3z
				 M-1550.3,1324.9h0.8l-0.4,1.6L-1550.3,1324.9z M-1551.1,1322.1l-3.8-14.4l-6.6,29l-10.4-39.3h26.4L-1551.1,1322.1z
				 M-1549.1,1329.3h28.1l-6.8,30c-4.8-1.2-9.6-2.3-14.3-3.5L-1549.1,1329.3z M-1449.7,1306l-1.3-5h2.5L-1449.7,1306z M-1461.6,1301
				h2.4l-1.5,6.6l-0.7-2.6h0.9L-1461.6,1301z M-1469.4,1369.8h18.4l-1.7,7.5c-5.2-1.2-10.5-2.5-15.7-3.7L-1469.4,1369.8z
				 M-1511.8,1288.8l-6.5-24.5h12.1L-1511.8,1288.8z M-1542.6,1284.6l-3.3-12.3h6.1L-1542.6,1284.6z M-1352.6,1338.3h8.5l-3.9,17.4
				L-1352.6,1338.3z M-1357,1395.3l-2.3-8.6h4.2L-1357,1395.3z M-509.6,1366.1c-2.7-0.3-5.3-0.5-8-0.8l-0.7-2.8h9.5L-509.6,1366.1z
				 M-520.9,1365c-0.9-0.1-1.7-0.2-2.6-0.2c-1-0.1-2.1-0.1-3.1-0.2l-0.5-2.1h6.9L-520.9,1365z M-693.7,1452.1h7.6l-3.5,15.4
				L-693.7,1452.1z M-827.5,1468.8l-8.4,37.2l-8.7-32.9h8.2l-7.5-28.5h4.7l-1.2,5.3h9.6l-4.3,18.9H-827.5z M-1062.1,1481.2l-1.1-4.2
				h9.5l-1.6,7.3C-1057.6,1483.3-1059.8,1482.3-1062.1,1481.2z M-571.4,1358.2L-571.4,1358.2l-0.4-1.4l-1.8,8
				c-6.7,0.5-13.3,1.2-20,2.1l-8-30.3c1.4-2.2,2.8-4.4,4.2-6.6l-2.6,11.5h9.1l-1.7,7.4h25.8l-3.3,14.3L-571.4,1358.2z M-1048,1452
				l-3.8-14.4h7.1L-1048,1452z M-797.1,1308.8l-1,4.2c-2.7-0.8-5.4-1.6-8-2.3c0.5-0.6,1-1.3,1.4-1.9H-797.1z M-1007.1,1395.7h0.1
				l-0.1,0.3L-1007.1,1395.7z M-974,1405.7l-3.6,15.9l-4.2-15.9H-974z M-976.2,1427.1h0.2l-0.1,0.4L-976.2,1427.1z M-900.3,1460.1
				l-5.3,23.3l-6.2-23.3H-900.3z M-893,1451.4l-2-7.5h3.7L-893,1451.4z M-733.2,1440.8l-2.6,11.5l-3.1-11.5H-733.2z M-686.9,1313
				c-1.2,4.8-1.8,9.5-2,14.2l-2.7,12l-1.5-5.5l-3.4,15l-5.5-20.6h7.5l-7.7-29.1h14.6C-687.6,1303.7-687.4,1308.4-686.9,1313z
				 M-1068.6,1452.3l-3.9-14.6h7.2L-1068.6,1452.3z M-1026.5,1429.4l-0.1,0.6l-0.2-0.6H-1026.5z M-958.1,1475.8l-1.9,8.3l-2.2-8.3
				H-958.1z M-892.5,1531.6l-0.2,0.7l-0.2-0.7H-892.5z M-871.4,1473.1h19.1l-8.8,38.9L-871.4,1473.1z M-881,1462.3l-4.9-18.3h8.4
				l-0.2,0.7h0.6L-881,1462.3z M-839.4,1422.3h1.5c1.2,0.2,2.5,0.4,3.7,0.6l-2.7,12.1l-1-3.8h0.9L-839.4,1422.3z M-725.9,1245.2
				l-3.7-13.8h6.8L-725.9,1245.2z M-1008.6,1468.8h8.2l-3.8,16.7L-1008.6,1468.8z M-967.2,1474.5l-1.3,5.9l-1.5-5.9H-967.2z
				 M-661.5,1441.6c0.3,0,0.5,0,0.8,0l-0.3,1.5L-661.5,1441.6z M-703.5,1225.3l-1.1-4.1h2L-703.5,1225.3z M-720.1,1231l-1.4-5.3
				l-0.3,1.2l-1.5-5.8h5.4L-720.1,1231z M-741.3,1231.4l-3.4,15l-1.3-4.9l-1.8,8l-4.8-18.1H-741.3z M-756.3,1217.5l-3.7-14l-0.1,0.6
				l-5.3-20.1h16.7L-756.3,1217.5z M-871.4,1290.2c-0.6,2.6-1.2,5.2-1.7,7.9c-1.2-0.1-2.5-0.3-3.7-0.4l-2-7.4H-871.4z
				 M-938.9,1240.3l-4.6-17.5h8.6L-938.9,1240.3z M-998.4,1507.2h23.8l-2.1,9.2c-7.2-2.4-14.3-4.8-21.3-7.5L-998.4,1507.2z
				 M-780,1497.3l-7.8,34.3l-15.3-57.8l-10.1,44.5l-13.1-49.6h19.4l-0.2,1h17.4l-1,4.3h9.8l-5.2,22.9h12.7l-3,13.3L-780,1497.3z
				 M-704.6,1485.3l-1,4.5l-1.2-4.5H-704.6z M-698.6,1567.6c-4.4-0.9-8.7-1.8-13.1-2.7h13.7L-698.6,1567.6z M-645.6,1559.7h11
				l-4.5,20c-0.4-0.1-0.8-0.2-1.2-0.2L-645.6,1559.7z M-615.2,1584.4c-1.7-0.3-3.4-0.6-5-0.9l-6.3-23.7h16.9L-615.2,1584.4z
				 M-601.5,1572.1l-3.3-12.4h0.3l-3-11.4h11.4L-601.5,1572.1z M-627.9,1471.2l-19,83.8l-12.4-46.7l-7,30.8l-13.9-52.7l-9.6,42.1
				l-11.4-43.2h16.3l-4.6-17.5h35l-0.6-2.3h29l-1.4-5.4h7.9l-4.3,19h7.3l-2.4,10.5h6.3l-4.7,20.7L-627.9,1471.2z M-167,1467.5
				l-1.5-5.6h2.8L-167,1467.5z M-378.9,1347.3l-7.9-29.9h14.7L-378.9,1347.3z M-209.1,1422.3l-3.2-12.1h5.9L-209.1,1422.3z
				 M-195.5,1390.4h0.4l-0.2,0.8L-195.5,1390.4z M-270.8,1323.6h0.4l-0.2,0.8L-270.8,1323.6z M-379.5,1350l-2.3,10.1
				c-3.8,1.3-7.6,2.6-11.5,3.7l-3.7-13.8H-379.5z M-436.5,1371.9c-5.3,0.2-10.7,0.2-16.1,0H-436.5z M-460.5,1371.5
				c-1.4-0.1-2.8-0.2-4.1-0.4l-0.5-1.7h5.1L-460.5,1371.5z M-476.4,1370.1c-1.9-0.2-3.8-0.4-5.8-0.6h5.9L-476.4,1370.1z
				 M-432.1,1444.7h2.5c6.1,0.9,12,2.1,17.6,3.9l-4.1,18c-6.7-1.8-13.4-3.5-20.1-5h8.5L-432.1,1444.7z M-213.9,1493.7h13.7
				l-3.8-14.4h13.3l-3.3,14.6h21.1l-0.5,2.3C-187.3,1495.6-200.8,1494.9-213.9,1493.7z M-44.7,1471.2h5.3l-2.7,11.9
				c-1.1-0.8-2.1-1.6-3.2-2.3C-44.2,1477.8-44,1474.4-44.7,1471.2z M-29.4,1426.9l-3.2-12.1h5.9L-29.4,1426.9z M51.9,1495.3l-9,39.8
				l-10.5-39.8H51.9z M-18.8,1404.5l-0.4-1.4h0.7L-18.8,1404.5z M-126.7,1444.5l-1.5,6.7h1.2l-1.3,5.9c-1.7,0.5-3.5,0.9-5.1,1.4
				c-4.3,1.3-7.9,4.4-10.3,8.3l-5.9-22.3H-126.7z M-245.9,1330.9l-1.9-7.3h3.6L-245.9,1330.9z M-269.7,1295.7
				c-0.4-5.9-3.4-11.8-7.4-15.7c0,0,0,0,0,0h11.1L-269.7,1295.7z M-317.1,1286.3l-0.4-1.5h0.7L-317.1,1286.3z M-337.4,1284.8
				l-1.3,5.6l-1.5-5.6H-337.4z M-447.1,1312.8l-10.7,47.3l-12.5-47.3H-447.1z M-565.3,1244.8l-7,30.9l-2-7.4l-1.2,5.5
				c-1.1-4.9-4.3-8.9-8.5-11.6l-0.8-2.8h3.9l-3.8-14.5H-565.3z M-680.9,1269.4c-0.1,0.2-0.2,0.5-0.4,0.7l-8.7-33h16.4L-680.9,1269.4
				z M-684.3,1140.5l-1.8,8l-2.1-8H-684.3z M-691.8,1173.7l-6,26.6l-7-26.6H-691.8z M-733.5,1182.6l-4.8-18.3h9L-733.5,1182.6z
				 M-744.2,1164.3l-4.1,18.3l-4.8-18.3H-744.2z M-772.7,1187.1l-0.8-2.9h5l-12.1,53.3c-0.7,0-1.4-0.1-2.1,0c-0.4,0-0.8,0.1-1.2,0.1
				l-8.4-31.9l-4.7,20.9l-10.5-39.5H-772.7z M-862.3,1246.3l-8.5,37.4l-9.8-37.2h5.7l-8.3-31.2h16.1l-7,31H-862.3z M-888.3,1195.8
				l-3.4-12.8h6.3L-888.3,1195.8z M-959.5,1099.5h3.1l-1.4,6.4L-959.5,1099.5z M-925.4,1172.3l-1.2-4.5h14.8l-3.4,15.2h4.4
				l-5.3,23.2l-7.5-28.2l-5.3,23.5l-0.6-2.3l-1.8,8.1l-9.3-35H-925.4z M-956.8,1222.8l-5.4,24l-6.3-24H-956.8z M-1033.4,1281.8
				l-0.6,2.5l-0.7-2.5H-1033.4z M-1087.4,1300l-5.3,23.1h2.6l-3.2,14h2.1l-3.3,14.5l-13.7-51.7H-1087.4z M-1122.9,1292.8l-1.6,7.2
				h16.1l-2.9,12.6l-0.3-1.1l-2.2,9.8l-3.5-13.3l-7.3,32.4l-12.6-47.6H-1122.9z M-1188,1418.4l-1.4,6l-1.6-6H-1188z M-1237.8,1397.2
				l-0.4-1.4h3.6l-4.9,21.6c-13.9-2.9-28-5.4-42.1-7.8l-0.4-1.6l-0.3,1.5c-4-0.7-8-1.3-11.9-2l-8.1-30.7l-6.4,28.3
				c-3.6-0.6-7.1-1.2-10.7-1.7l-16.9-63.9h9.5l-3.4,15.2h29l-3,13.4h26.2l-6.6,29.2H-1237.8z M-1353.6,1334.7l-5-19h2.9l-8.7-32.9
				h22.6L-1353.6,1334.7z M-1386.1,1279.9l-8.1,35.8h30.6l-6.7,29.4l-4-15.2l-13.9,61.4c-6.2-1.2-12.4-2.5-18.6-3.8l-1.4-5.3h20.9
				l-6-22.7h9.7l-19.8-74.8h2.7l-1.3-4.8H-1386.1z M-1420.7,1284.7l-3.5,15.4l-4.1-15.4H-1420.7z M-1496.6,1256.9l-3.8,16.6
				l-4.3-16.3l-0.3,1.2l-0.4-1.4H-1496.6z M-1581.9,1274.9l-3.6,15.8h3.8l-12,52.7c-0.6-0.1-1.3-0.3-1.9-0.5l-7.5-28.5l-5.8,25.5
				c-0.5-0.1-0.9-0.2-1.4-0.3l-11.9-45.1h33l-5.2-19.6H-1581.9z M-1619.3,1268.3l-4.6,20.2l-3.4-12.7l-0.2,0.9l-2.2-8.4H-1619.3z
				 M-1765.4,1288l-1.9,8.2l-2.2-8.2H-1765.4z M-1788,1283.5l-0.2-0.8h0.4L-1788,1283.5z M-1854.9,1284.5l-1.3-4.9l-6.3,27.9
				c-0.2,0-0.4,0-0.6,0l-8-30.3h17.9L-1854.9,1284.5z M-1887.4,1277.2l-0.6,2.7l-0.7-2.7H-1887.4z M-1933.7,1307.1
				c-5.1,0.1-10.1,0.2-15.2,0.3l-0.1-0.3H-1933.7z M-2031,1305l-1.5,6.4c-6.4,0.4-12.8,0.9-19.1,1.4l-2.1-7.8H-2031z M-765.1,1553.8
				l-11.3-42.8h10.6l-1.5,6.4h48.7l-3.4-12.7h12.9l-13.1,57.9C-736.5,1559.6-750.8,1556.7-765.1,1553.8z M-87.7,1781.6h2.4
				l-2.9-10.9h21.5l-19-71.9l-9.9,43.7l-15.3-57.8l-4.9,21.7l-14.6-55.1l-14.1,62l-12.8-48.4l-11.2,49.4l-11.8-44.7l-1.9,8.6
				l-15.7-59.2l-8.7,38.4l-9.8-37l-5,22.2l-3.5-13.2l-9.7,42.6c-1.5-0.9-3.1-1.7-4.7-2.4l-4.6-17.4l-2.3,10l-4.5-17.1l-4.7,20.9
				c-2-0.1-4,0-6,0.3l-11.6-43.8l-0.9,3.9l-13.4-50.5l-11.6,51.3l-15-56.8l-18.2,80.2l-11.5-43.5l-12.2,53.7l-13.4-50.6l-16.9,74.5
				l-10.8-40.7l-9.1,40.3c-2.4-2.2-4.8-4.4-7.2-6.5l-1.8-6.9h1.3l-24.6-93l-9.8,43l-14.4-54.4l-15.1,66.7
				c-18.3-11.5-37-22.2-57.2-29.8c-7.1-2.7-14.4-4.9-21.7-7l-9.4-35.6h30.1l-18.7-70.7l-13.9,61.3l-0.8-3.1h0.1l-15.5-58.7h2.1
				l-2.8-10.5h12.1l-4.7-17.7h12.5l-6.4,28.1h43.8l-11.9-45.1c15.7-0.1,31.4-0.4,47.2-0.8l-3.2,13.9h30.2l-0.9,4.1h12.4
				c-1.8,2.5-1.8,6.2,1.7,8.2c18.9,11.1,39,21.2,59.7,30.3c-1.3-0.2-2.6-0.5-4-0.8c-7.1-1.2-9.9,8.6-3,11.1c7,2.5,14.1,4.9,21.1,7.4
				l-5.8,25.6h51.3l-3-11.2c23.9,7.8,47.9,15.3,72.1,22.5c42.2,12.5,85.4,31.2,129.3,35.3c5.6,0.5,8.3-5.1,7.3-9.8
				c45.7,18.5,89.9,41.5,135.3,60.9c5.5,2.3,11,4.6,16.5,6.8l-19.3,85.1h42l-22.5-85.1c43.6,17.3,89.6,30.5,135.6,32.1l-21.2,93.3
				h25.4l-3.6,16.1h28.6l-5,22.2l-2.2-8.5l-8.3,36.6l-8.3-31.3l-7.2,31.7c-8.6-3.1-17.2-6.4-25.8-9.8l-13.8-52.2l-9.7,42.6
				c-9-3.7-18.1-7.3-27.2-10.8l-1.4-5.1l-1,4.3c-26.4-10-53.2-18.5-81.2-21.4C-30.4,1784.9-59.9,1787.7-87.7,1781.6z M29.6,1860.1
				c4.1,0.2,8.3,0.4,12.4,0.6l-5.7,25L29.6,1860.1z M110.5,1881.8h7.1l-3.3,14.5L110.5,1881.8z M272.5,1923.6h5.5l-1-3.6
				c1.2,0.4,2.4,0.8,3.6,1.2l-4,17.8L272.5,1923.6z M332.1,1927.3H352l-9.2,40.5L332.1,1927.3z M560.4,1925.4c3,1.9,6.1,3.5,9.3,5
				l-3.7,16.3L560.4,1925.4z M670.3,1943.1c0.5,0,1,0,1.5,0l-0.7,3L670.3,1943.1z M691.6,1970.5l-7.3-27.5c4.5,0,9,0,13.5-0.1
				L691.6,1970.5z M764.1,1938.9c0.3,0,0.6,0,0.8-0.1l-0.4,1.7L764.1,1938.9z M959.1,1968.2h2.3l-1.1,4.8L959.1,1968.2z
				 M989.5,1974.7h5.4l-2.5,11.1L989.5,1974.7z M1022.7,1969.5h4.6l-1.7,7.3h6.7l-3.5,15.5L1022.7,1969.5z M1213.4,1974.9h6.2
				l-2.9,12.7L1213.4,1974.9z M1396,1917.3c0.2,0,0.5,0,0.7,0l-0.3,1.5L1396,1917.3z M1426.4,1916.9c1.4,0,2.7-0.1,4.1-0.1l-1.9,8.5
				L1426.4,1916.9z"/>
			<polygon class="st7" points="691.7,2093.4 725,2093.4 707.1,2025.5 698,2065.7 681.4,2003.3 666,2071.4 696.7,2071.4 			"/>
			<linearGradient id="SVGID_6_" gradientUnits="userSpaceOnUse" x1="71.0191" y1="1528.4469" x2="287.2375" y2="1023.9375">
				<stop  offset="5.586590e-03" style="stop-color:#2C9182"/>
				<stop  offset="0.9888" style="stop-color:#FFFED1"/>
			</linearGradient>
			<path class="st8" d="M186.2,1202.5c-17.3,13.5-37.9,24.8-56.2,36.9c-4.5,3-9.3,7.5-8.4,13c0.3,1.9,1.2,3.5,2.2,5.1
				c10.2,17.4,22.3,33.7,36.1,48.4c-6.7-3.5-11.9-9.2-17-14.7c-8.6-9.4-17.2-18.8-25.7-28.2c-0.6-0.7-1.3-1.4-2.2-1.8
				c-2-0.8-4.3,0.5-5.4,2.4c-3.4,6.3-5.3,18.5-7.2,25.8c-2.7,10-6.7,19.5-9.5,29.6c-0.3,1.1-0.7,2.3-0.5,3.5c0.2,1.7,1.3,3,2.3,4.4
				c4.3,5.9,7.8,12.4,10.1,19.4c1.4,4.1,3,9.1,7.1,10.3c-7.4-7.8-15.1-15.4-22.9-22.7c-1-0.9-2-1.9-3.3-2.3
				c-8-2.7-25.7,9.3-32.8,12.3c-8,3.3-16.7,6.6-25.3,8c-5,0.8-12.2-0.9-15.7,3.9c-2.4,3.3-1.3,7.9,0.5,11.5
				c4.9,9.8,14.2,16.9,18.5,27c1.1,2.7,3,6.2,5.8,5.3c-12.5-10.2-23.6-22.1-33-35.3c-0.6-0.9-1.3-1.8-2.3-2.3
				c-1-0.5-2.1-0.5-3.2-0.5c-0.7,0-39.2,4.5-31.8,12c4.4,4.5,7.4,10.3,8.5,16.5c21,24.6,57.4,30.7,78.5,55.2
				c17.7,20.6,37.9,49.5,44.9,76.3c-7.9-9.5-15.8-19-23.7-28.6c-4.3,20.3,2.1,26.2,14.2,42.5c11.1,15,22.2,30,33.2,45
				c2.8,3.9,5.7,7.8,9.6,10.6c3.9,2.8,8.5,4.4,13,5.8c10.9,3.4,21.9,6.4,33,8.9c-4.2-19.4-8-38.9-11.1-58.5
				c1,4.2,21.1-9.4,23.1-10.4c-2.8-10-16.1-12.2-24.8-13.2c1.7-16.3-6.3-31.9-14.1-46.3c-14.7-27.1-29.7-54.7-51.7-76
				c27.7,16,41.5,48.5,64.4,71c7,6.9,15,12.9,21.1,20.7c6.3,8.1,10.7,18.2,19.5,23.3c9.7,5.6,35.8,3.9,45-3.2
				c14.5-11.2-1.9-30.4-11.5-37.5c-13.1-9.7-24.2-22.1-35.7-33.8c6,2.7,12.1,5.5,18.5,7.1c10,2.6,4-22.1,3.8-29
				c-0.6-17.7,0.8-35.8-4.8-52.9c-6.1-18.6-6-23.1,4.5-39.7c1.6-2.5,3.2-5.2,3.6-8.2c0.5-4.6-2.2-8.9-4.7-12.7
				c-9.7-15.2-17.8-31.4-24.3-48.3c8.7,10.3,20.4,17.8,33.3,21.3c-2-1.7-1.8-5.4,0.4-6.9c1.6-1.1,3.7-1,5.3-2.1
				c2.1-1.5,2.5-4.5,2.6-7.1c0.9-18,0.2-35.3-1-53.4c-0.4-5.5-6.4-52.3-3.5-53.8C214.3,1164.7,204.1,1188.6,186.2,1202.5z"/>
			<linearGradient id="SVGID_7_" gradientUnits="userSpaceOnUse" x1="334.3721" y1="1622.5525" x2="499.3949" y2="1235.5779">
				<stop  offset="5.586590e-03" style="stop-color:#2C9182"/>
				<stop  offset="0.9888" style="stop-color:#FFFED1"/>
			</linearGradient>
			<path class="st9" d="M382.8,1340.5c0,8.6-9.6,17.6-13.1,24.9c-5.1,10.6-6.7,24.1-10.5,35.3c-1.7,5.2-3.6,10.3-6.2,15.1
				c-5.3,9.8-13.9,18.7-14.3,30c-0.2,6,2.7,7.1,7.2,11.1c11.3,9.9,20.4,22.3,26.5,36.2c-11.2-9.1-22.5-18.3-33.7-27.4
				c8.7,17.3,13.3,36.7,13.5,56.1c0.1,16.2-2.9,32.3-6.9,47.9c-6.1-1.8-11.1,4.7-14.2,10.4c-7,12.7-13.9,25.5-20.9,38.2
				c0.9,1.3,1.7,2.6,2.5,4c11.2-5.2,21.1-12.9,30.8-20.6c4.9-3.8,9.7-7.6,14.6-11.5c5.3-4.2,11-9,12.2-15.7
				c8.2-0.3,16.5,2.8,22.5,8.6c3.8-6.1,8.6-11.6,14.1-16.2c-5,4.2-24.9-32-24.9-36.9c9.7-3.2,20.9,2.6,28.8,8
				c8.8,6,16.8,13.6,26.6,17.5c-8.6-12-17.2-24.1-25.8-36.1c-4.6-6.4-9.4-13.3-9.8-21.3c4.6,4.4,10.1,7.8,16,9.9
				c-6-2.1-7.9-29.7-10-35.4c-5-14-9.9-27.9-13.6-42.4C386.8,1401,383,1370.8,382.8,1340.5z"/>
			
				<image style="overflow:visible;" width="1448" height="1246" xlink:href="6083E3E1A4F5279D.png"  transform="matrix(1 0 0 1 -62 360)">
			</image>
			<g>
				<linearGradient id="SVGID_8_" gradientUnits="userSpaceOnUse" x1="-811.338" y1="2375.9587" x2="-811.338" y2="1030.4049">
					<stop  offset="0" style="stop-color:#A65E21"/>
					<stop  offset="0.9888" style="stop-color:#0F2233"/>
				</linearGradient>
				<path class="st10" d="M-803.2,1276.3c-14.4,22-31.7,50-33.4,77.1c-0.4,6.7,8.5,12.5,14.1,8.2c23.5-18.2,33.1-52.2,36.3-80.6
					C-785,1271.1-798.7,1269.4-803.2,1276.3L-803.2,1276.3z"/>
			</g>
			<linearGradient id="SVGID_9_" gradientUnits="userSpaceOnUse" x1="-322.3917" y1="2081.4641" x2="-322.3917" y2="2745.7451">
				<stop  offset="0" style="stop-color:#A15515"/>
				<stop  offset="1" style="stop-color:#1D3742"/>
			</linearGradient>
			<path class="st11" d="M-350.1,2093.3c65.9-7.8,131.9-15.7,196.5-31c-97.8-20.9-198.7-31.7-298.7-29.3
				c-21.1,0.5-39.9-1.9-38.6,25.8c0.7,15.7,10.5,23.5,23.1,30.5C-435.2,2107.5-385,2097.5-350.1,2093.3z"/>
			<g>
				<path class="st12" d="M1709.7,2145.1c0,0-0.9,0.7-2.5,2c-1.6,1.2-3.8,3.1-6.5,5.5c-5.3,4.8-12.1,11.8-18.6,20.3
					c-6.5,8.5-11.5,17-14.7,23.4c-1.6,3.2-2.8,5.9-3.6,7.8c-0.8,1.9-1.3,2.9-1.3,2.9s0.2-1.1,0.4-3.2c0.3-2,0.9-5,1.9-8.5
					c2-7.1,6-16.8,12.9-25.8c6.9-9,15.1-15.4,21.4-19.1c3.1-1.9,5.8-3.2,7.7-4C1708.7,2145.6,1709.7,2145.1,1709.7,2145.1z"/>
			</g>
			<g>
				<path class="st12" d="M1706.6,2163.1c0,0-3.2,1.9-7.9,5.2c-4.7,3.3-10.8,8.3-16.8,14.6c-5.9,6.3-10.7,12.6-13.8,17.5
					c-3.1,4.9-4.8,8.2-4.8,8.2s0.2-0.9,0.5-2.6c0.3-1.7,0.9-4,1.9-6.9c1.9-5.7,5.9-13.4,12.3-20.2c6.5-6.8,13.9-11,19.5-13.2
					c2.8-1.1,5.1-1.8,6.7-2.1C1705.7,2163.3,1706.6,2163.1,1706.6,2163.1z"/>
			</g>
			<g>
				<path class="st12" d="M1666.4,2225.8c0,0-0.7-3.9-1.7-10.2c-1.1-6.2-3.1-14.6-5.7-23.7c-2.7-9.1-5.5-17.2-7.9-23
					c-2.5-5.8-4-9.5-4-9.5s2.8,2.8,6.4,8.1c3.7,5.3,8,13.2,10.8,22.8c2.8,9.5,3.4,18.6,3.1,25.1
					C1667.2,2221.9,1666.4,2225.8,1666.4,2225.8z"/>
			</g>
			<g>
				<path class="st12" d="M95.7,2211.4c0,0-3.2-3-8.6-7.5c-5.3-4.5-12.9-10.3-21.7-16.1c-8.8-5.7-17.1-10.4-23.3-13.4
					c-6.2-3.1-10.3-4.8-10.3-4.8s4.4,0.4,11.2,2.2c6.9,1.8,16.2,5.3,25.4,11.3c9.2,6,16.2,13.2,20.6,18.9
					C93.6,2207.5,95.7,2211.4,95.7,2211.4z"/>
			</g>
			<g>
				<path class="st12" d="M708.1,2175c-2.8-7.3-8.6-20.3-15.3-30.7c-6.5-10.5-13.4-18.4-13.4-18.4s7.9,6.9,15.6,16.7
					c7.9,9.7,15.2,22.6,18.1,30.2L708.1,2175z"/>
			</g>
			<g>
				<path class="st12" d="M709,2187.3c-4.6-10.1-14.7-27.7-26.3-40.8c-5.7-6.6-11.5-12.2-15.9-16.1c-4.4-3.9-7.4-6.1-7.4-6.1
					s3.1,1.9,7.9,5.4c4.8,3.5,11.1,8.6,17.4,14.8c12.9,12.3,24.5,29.8,29.3,40.3L709,2187.3z"/>
			</g>
			<g>
				<path class="st12" d="M944.5,2167.5c9-10.8,28.9-27.1,48.3-36.6c9.6-4.9,18.8-8.4,25.6-10.6c3.4-1.1,6.2-1.9,8.1-2.4
					c1.9-0.5,3-0.8,3-0.8s-1,0.5-2.8,1.3c-1.8,0.8-4.4,2-7.6,3.6c-6.3,3.2-14.8,7.8-23.4,13.8c-17.5,11.6-34.3,29.1-42.7,39.2
					L944.5,2167.5z"/>
			</g>
			<g>
				<path class="st12" d="M934.3,2178.4c8.7-8.1,26.7-19.9,43.7-26.4c8.4-3.4,16.4-5.8,22.2-7.3c5.8-1.5,9.5-2.1,9.5-2.1
					s-3.5,1.3-9,3.8c-5.4,2.5-12.8,6.1-20.3,10.7c-15.3,8.9-30.6,22.3-38.7,29.8L934.3,2178.4z"/>
			</g>
			<g>
				<path class="st12" d="M948,2166.6c-1.9-4.4-4.8-12.9-8.1-20.1c-3.2-7.2-6.7-13.1-6.7-13.1s5.5,4,11.2,9.9
					c5.8,5.8,11.5,13.7,13.7,18.6L948,2166.6z"/>
			</g>
			<g>
				<path class="st12" d="M1306,2108.6c6.7-12.4,22.3-32.9,38.5-47.4c8-7.4,15.9-13.4,21.7-17.6c5.9-4.2,9.7-6.5,9.7-6.5
					s-3.4,2.9-8.6,7.9c-5.2,5-12.1,12-18.8,20.1c-13.9,16.1-26.5,37.2-32.8,49L1306,2108.6z"/>
			</g>
			<g>
				<path class="st12" d="M1310,2104.3c0.3-6,1.5-14.3,4.3-23c2.7-8.7,6.9-17.7,11.8-25.4c4.8-7.7,10.2-13.9,14.4-18.2
					c2.1-2.1,3.8-3.8,5.1-4.8c1.2-1.1,1.9-1.7,1.9-1.7s-0.6,0.7-1.6,2c-1.1,1.3-2.5,3.2-4.1,5.6c-3.3,4.8-7.4,11.7-10.8,19.7
					c-7.2,15.8-9.7,35.6-9.9,46.2L1310,2104.3z"/>
			</g>
			<g>
				<path class="st12" d="M1295.1,2112c0.4-10,3.6-27.9,8.2-42.7c4.4-14.8,9.8-26.5,9.8-26.5s-2.7,12.6-4.3,27.7
					c-1.8,15.1-2.2,32.5-2.5,42L1295.1,2112z"/>
			</g>
			<g>
				<path class="st12" d="M1278.6,2133.5c-0.3-12.8,2.7-35.8,8.9-54.5c2.9-9.4,6.4-17.7,9.1-23.6c2.7-5.9,4.7-9.5,4.7-9.5
					s-1.3,3.9-3,10.1c-1.7,6.2-3.8,14.9-5.3,24.3c-3.4,18.9-3.5,41-3.2,53L1278.6,2133.5z"/>
			</g>
			<g>
				<path class="st12" d="M1249.7,2128.9c5-10.4,22.9-35.1,22.9-35.1s-8,29.7-12.9,40L1249.7,2128.9z"/>
			</g>
			<g>
				<path class="st12" d="M1234.6,2137.5c1.8-5.7,6.8-15.5,12-23.2c5.1-7.8,10.1-13.7,10.1-13.7s-2.6,7.3-5.1,16.1
					c-2.5,8.7-4.7,18.9-6.4,24.3L1234.6,2137.5z"/>
			</g>
			<g>
				<path class="st12" d="M57.1,2098c-7.2-6.9-20.5-19.6-33.4-28.9c-12.8-9.5-24.6-16.1-24.6-16.1s13,3.9,27.5,11.3
					c14.7,7.1,30.4,18.1,38.1,25.4L57.1,2098z"/>
			</g>
			<g>
				<path class="st12" d="M60.8,2094.2c-4.3-6.7-11.8-19.2-19.3-29.4c-7.4-10.3-14.6-18.3-14.6-18.3s9,5.9,18.7,14.5
					c9.8,8.5,19.9,19.9,24.5,26.9L60.8,2094.2z"/>
			</g>
			<g>
				<path class="st12" d="M89.9,2099.2c-7.1-8.7-21.4-35.2-21.4-35.2s22.9,19.3,30,28L89.9,2099.2z"/>
			</g>
			<g>
				<path class="st12" d="M239.5,2135.1c-4.3-8.4-11.9-23.9-20.1-36.5c-8-12.7-16-22.7-16-22.7s10,7.9,20.3,19.2
					c10.5,11.1,21,25.8,25.5,34.7L239.5,2135.1z"/>
			</g>
			<g>
				<path class="st12" d="M249.1,2130c-0.2-4,0.1-11.4-0.7-18c-0.6-6.6-2.1-12.3-2.1-12.3s3.9,4.3,7.4,10.5c3.6,6.1,6.3,14.3,6.5,19
					L249.1,2130z"/>
			</g>
			<g>
				<path class="st12" d="M264,2122.7c3.4-3.6,10.8-8.6,17.7-11.9c6.8-3.4,12.8-5.3,12.8-5.3s-4.6,4.3-9.5,9.8
					c-4.9,5.4-10,12-13,15.3L264,2122.7z"/>
			</g>
			<g>
				<path class="st12" d="M1702.1,1973.6c3.9-23.1,19.5-82.8,19.5-82.8s-4.7,61.6-8.5,84.7L1702.1,1973.6z"/>
			</g>
			<g>
				<path class="st12" d="M1707.9,1982.6c1.1-12.5,7.9-34.4,18.3-50.5c5-8.1,10.4-14.9,14.6-19.6c2.1-2.3,3.9-4.2,5.1-5.4
					c1.3-1.2,1.9-1.9,1.9-1.9s-0.6,0.8-1.6,2.2c-1,1.4-2.4,3.5-4.1,6.1c-3.3,5.3-7.5,12.7-11.1,21.2c-7.5,16.9-11.1,37.7-12.1,49.1
					L1707.9,1982.6z"/>
			</g>
			<g>
				<path class="st12" d="M1734.4,1957.8c5.5-12,24.9-40.9,24.9-40.9s-9.3,33.7-14.8,45.7L1734.4,1957.8z"/>
			</g>
			<g>
				<path class="st12" d="M2315.6,1887.9c-0.1-9.1,4.4-25.3,12.1-36.5c3.7-5.7,7.8-10.3,11-13.4c3.2-3.1,5.4-4.7,5.4-4.7
					s-1.7,2.2-4.1,5.9c-2.3,3.7-5.2,8.9-7.5,14.9c-4.9,11.9-6,26.4-5.9,34.1L2315.6,1887.9z"/>
			</g>
			<g>
				<path class="st12" d="M2333.4,1877c2.9-6.9,11.5-17.6,20.9-23.7c4.6-3.2,9.2-5.4,12.5-6.7c3.4-1.4,5.6-1.9,5.6-1.9
					s-1.9,1.2-4.7,3.5c-2.8,2.2-6.4,5.5-9.8,9.5c-7,7.8-12.1,18.4-14.5,24.2L2333.4,1877z"/>
			</g>
			<g>
				<path class="st12" d="M2379,1867.5c7-11.2,30.2-37.4,30.2-37.4s-13.8,32.3-20.8,43.5L2379,1867.5z"/>
			</g>
			<g>
				<path class="st12" d="M-757.6,2011.1c-5.5-14.3-14.8-54-14.8-54s19.6,35.5,25.2,49.9L-757.6,2011.1z"/>
			</g>
			<g>
				<path class="st12" d="M-738.8,1992.1c0-4.2,0.3-12.1-1.4-19.1c-1.4-7-4.4-12.8-4.4-12.8s5.1,3.8,9.5,10.5
					c4.5,6.5,7.5,15.8,7.4,21.2L-738.8,1992.1z"/>
			</g>
			<g>
				<path class="st12" d="M-696.4,2001.6c1.4-3.9,3.6-11.9,2.3-19.5c-0.5-3.8-1.7-7.2-2.7-9.7c-1.1-2.4-2-3.9-2-3.9s1.4,0.9,3.5,2.9
					c2,1.9,4.6,4.9,6.6,8.9c4.4,7.7,5.1,19.1,3,24.9L-696.4,2001.6z"/>
			</g>
			<g>
				<path class="st12" d="M-750.2,2003.7c-0.1-4.5,0.1-12.9-1.6-20.3c-1.5-7.4-4.5-13.5-4.5-13.5s5.2,4.3,9.6,11.3
					c4.6,6.9,7.6,16.6,7.6,22.1L-750.2,2003.7z"/>
			</g>
			<g>
				<path class="st12" d="M-850.7,2001.7c-10.2-10.4-33-41.5-33-41.5s30.6,23.2,40.8,33.5L-850.7,2001.7z"/>
			</g>
			<g>
				<path class="st12" d="M-834.9,1994.3c-3.1-7.2-6.3-28.3-6.3-28.3s13.3,16.5,16.4,23.7L-834.9,1994.3z"/>
			</g>
			<g>
				<path class="st13" d="M-870.2,2119.7c-8.6-8.8-27.1-35.9-27.1-35.9s26.4,19.1,35,27.9L-870.2,2119.7z"/>
			</g>
			<g>
				<path class="st13" d="M-800.7,2120.9c-3.7-10.5-12.4-29.4-24.4-43c-5.8-6.9-11.9-12.5-16.7-16.4c-2.4-1.9-4.4-3.4-5.8-4.4
					c-1.4-1-2.2-1.6-2.2-1.6s0.9,0.4,2.4,1.2c1.6,0.7,3.8,1.9,6.5,3.3c5.4,3,12.6,7.6,19.6,13.9c7.1,6.1,14,13.8,19.4,21.6
					c5.4,7.7,9.3,15.6,11.5,21.4L-800.7,2120.9z"/>
			</g>
			<g>
				<path class="st13" d="M-789.6,2109.2c-3.1-9.6-6.1-36.4-6.1-36.4s13.5,23.3,16.6,32.9L-789.6,2109.2z"/>
			</g>
			<g>
				<path class="st13" d="M-763.3,2089.5c-2.3-4.8-3.4-19.9-3.4-19.9s11.1,10.1,13.4,14.9L-763.3,2089.5z"/>
			</g>
			<g>
				<path class="st13" d="M-485,2151.3c-4.7-6.4-12.6-26.5-12.6-26.5s16.8,13.3,21.5,19.7L-485,2151.3z"/>
			</g>
			<g>
				<path class="st13" d="M-456.4,2145.1c-0.2-6.4,4.8-23.3,4.8-23.3s6.1,16.5,6.3,22.9L-456.4,2145.1z"/>
			</g>
			<g>
				<path class="st13" d="M-463.4,2154.9c-1-5.1-3.2-14.8-7.5-22.6c-4-7.9-9.5-13.6-9.5-13.6s1.7,0.8,4.4,2.5
					c2.6,1.7,6.2,4.2,9.6,7.6c7,6.6,12.6,17.1,13.9,23.5L-463.4,2154.9z"/>
			</g>
			<g>
				<path class="st13" d="M-1353.1,2136.3c-14.5-20.4-48.1-77.3-48.1-77.3s42.6,50.2,57.1,70.7L-1353.1,2136.3z"/>
			</g>
			<g>
				<path class="st13" d="M-1346,2140.7c-4.9-17.5-12.5-64.8-12.5-64.8s18.2,44.3,23.2,61.7L-1346,2140.7z"/>
			</g>
			<g>
				<path class="st13" d="M-1335,2124.8c0-4.8,5.6-17.3,5.6-17.3s5.6,12.5,5.6,17.3H-1335z"/>
			</g>
			<g>
				<path class="st13" d="M-1828.5,1936.5c-7.1-15.9-20.5-60.1-20.5-60.1s23.6,39.5,30.6,55.4L-1828.5,1936.5z"/>
			</g>
			<g>
				<path class="st13" d="M-1820.4,1923.3c-0.8-7.2,2.7-26.6,2.7-26.6s7.6,18.2,8.4,25.4L-1820.4,1923.3z"/>
			</g>
			<g>
				<path class="st13" d="M-881.6,2134.5c-11.8-11.1-38.9-44.5-38.9-44.5s34.7,25,46.5,36.2L-881.6,2134.5z"/>
			</g>
			<g>
				<path class="st13" d="M-292.6,2116.7c-2.4-19.9-3.1-72.8-3.1-72.8s11.7,51.6,14.1,71.5L-292.6,2116.7z"/>
			</g>
			<g>
				<path class="st13" d="M-321.2,2120.9c-3.9-11.2-9-42.3-9-42.3s15.5,27.4,19.4,38.5L-321.2,2120.9z"/>
			</g>
			<g>
				<path class="st13" d="M-355.2,2123.9c-2.4-6.4-3.3-25.1-3.3-25.1s11.4,14.7,13.7,21.1L-355.2,2123.9z"/>
			</g>
			<g>
				<path class="st13" d="M-397.6,2135.6c0.8-5.6,8.3-19.4,8.3-19.4s3.4,15.4,2.7,21L-397.6,2135.6z"/>
			</g>
			<g>
				<path class="st13" d="M-341,2126.7c-3.1-8.8-6.1-33.7-6.1-33.7s13.4,21.1,16.6,29.8L-341,2126.7z"/>
			</g>
			<g>
				<path class="st13" d="M-326.6,2119.7c-0.7-5.6,2.8-21,2.8-21s7.4,13.9,8.2,19.5L-326.6,2119.7z"/>
			</g>
			<g>
				<path class="st13" d="M-310,2114.3c-1.6-8-0.2-30-0.2-30s9.6,19.8,11.1,27.8L-310,2114.3z"/>
			</g>
			<g>
				<path class="st13" d="M-285.1,2098c0.8-6.4,8.4-22.4,8.4-22.4s3.5,17.4,2.7,23.8L-285.1,2098z"/>
			</g>
			<g>
				<path class="st13" d="M1732,2046.4c6.1-9.1,20.1-23.3,34.2-32.2c7-4.6,13.8-8.1,18.8-10.4c5-2.3,8.2-3.5,8.2-3.5s-2.9,1.8-7.4,5
					c-4.4,3.2-10.4,7.8-16.2,13.3c-12,10.9-22.9,25.9-28.6,34.3L1732,2046.4z"/>
			</g>
			<g>
				<path class="st13" d="M1755.6,2044.6c11.8-8.8,45.9-27.1,45.9-27.1s-27.6,27.5-39.3,36.3L1755.6,2044.6z"/>
			</g>
			<g>
				<path class="st13" d="M1795.7,2039.4c6.3-4.8,26-12.8,26-12.8s-13.1,17.1-19.4,21.8L1795.7,2039.4z"/>
			</g>
			<g>
				<path class="st13" d="M1722.9,2036.2c2.4-6.4,13.7-21.1,13.7-21.1s-1,18.7-3.3,25.1L1722.9,2036.2z"/>
			</g>
			<g>
				<path class="st13" d="M1941.2,2046.1c0.6-5.7,4.9-15.4,10.8-21.6c2.8-3.2,5.8-5.6,8-7.1c2.3-1.6,3.7-2.3,3.7-2.3
					s-4.3,5.4-7.1,12.5c-3,7.1-3.9,15.5-4.4,20L1941.2,2046.1z"/>
			</g>
			<g>
				<path class="st13" d="M1975.9,2041.1c3.1-5.6,16.2-17.4,16.2-17.4s-3.4,17.4-6.5,23L1975.9,2041.1z"/>
			</g>
			<g>
				<path class="st13" d="M1998.5,2044.3c2.4-4.8,13.5-14.8,13.5-14.8s-1.2,15.1-3.5,19.9L1998.5,2044.3z"/>
			</g>
			<g>
				<path class="st13" d="M1950.5,2052.4c5.5-8.8,24.6-28.7,24.6-28.7s-9.7,26-15.2,34.8L1950.5,2052.4z"/>
			</g>
			<g>
				<path class="st13" d="M2375.8,1990c2.7-7.8,11.1-20.6,20.6-28.7c4.6-4.2,9.4-7.4,12.9-9.5c3.5-2.1,5.8-3.2,5.8-3.2
					s-1.9,1.7-4.8,4.6c-2.8,2.9-6.5,7-9.8,11.9c-7,9.6-11.9,22.1-14.3,28.9L2375.8,1990z"/>
			</g>
			<g>
				<path class="st13" d="M2394.1,1979.3c7.1-7.2,29.5-22,29.5-22s-14.6,22.8-21.6,30L2394.1,1979.3z"/>
			</g>
			<g>
				<path class="st13" d="M2416.3,1993.1c6.3-6.3,26.8-18.9,26.8-18.9s-12.7,20.6-19,27L2416.3,1993.1z"/>
			</g>
			<g>
				<path class="st13" d="M2458.2,2005c-1.3-3.8,0-11.2,3.4-15.6c1.6-2.3,3.5-3.9,4.9-4.9c1.4-1,2.4-1.4,2.4-1.4s-2,3.9-2.1,8.3
					c-0.3,4.5,1.5,8.5,2.1,10.4L2458.2,2005z"/>
			</g>
			<path class="st12" d="M1838.9,1888.8c1.3-1.9,2.6-3.7,3.6-5.5c-2.2,4.7-4.6,9.5-7.1,14.2c-1,1.8-2.9,1.7-4.1,0.6
				C1834,1895.1,1836.5,1892.1,1838.9,1888.8z"/>
		</g>
		<g>
			<linearGradient id="SVGID_10_" gradientUnits="userSpaceOnUse" x1="790.5211" y1="3676.2732" x2="790.5211" y2="2572.1663">
				<stop  offset="0" style="stop-color:#A65E21"/>
				<stop  offset="0.9888" style="stop-color:#0F2233"/>
			</linearGradient>
			<path class="st14" d="M740.3,1938.4c16.5,81.6,43.1,171.8,85.7,243.6c4.4,7.4,17.6,2.6,14.4-6.2c-14.9-39.9-34.1-78.2-49.2-118.2
				c-15.2-40.1-28.2-81.1-41-122.1C748.1,1929.2,739,1931.9,740.3,1938.4L740.3,1938.4z"/>
		</g>
		<g>
			<linearGradient id="SVGID_11_" gradientUnits="userSpaceOnUse" x1="887.7294" y1="3676.269" x2="887.7294" y2="2572.1584">
				<stop  offset="0" style="stop-color:#A65E21"/>
				<stop  offset="0.9888" style="stop-color:#0F2233"/>
			</linearGradient>
			<path class="st15" d="M915.4,2140.9c-16.7,36.3-41.2,65.7-64.8,97.2c-2,2.7,1.9,6.4,4.5,4.6c32.6-23.1,53.9-59.6,69.7-96.2
				C927.7,2140,918.4,2134.3,915.4,2140.9L915.4,2140.9z"/>
		</g>
		<g>
			<linearGradient id="SVGID_12_" gradientUnits="userSpaceOnUse" x1="555.9208" y1="3676.2729" x2="555.9208" y2="2572.1646">
				<stop  offset="0" style="stop-color:#A65E21"/>
				<stop  offset="0.9888" style="stop-color:#0F2233"/>
			</linearGradient>
			<path class="st16" d="M521.7,1978.8c3.6,39.9,10.1,79.4,20.4,118.1c5.1,19,11.2,37.7,18.2,56.1c6,16,11.2,35.3,23.7,47.1
				c2.2,2.1,6.4,0.7,6.2-2.6c-1-17-10.7-32.5-16.7-48.2c-6.5-17.1-12.3-34.4-17.6-51.9c-11.8-38.7-19.9-78.4-24.7-118.6
				C530.4,1972.7,521.1,1972.5,521.7,1978.8L521.7,1978.8z"/>
		</g>
		<g>
			<linearGradient id="SVGID_13_" gradientUnits="userSpaceOnUse" x1="653.0082" y1="3676.2781" x2="653.0082" y2="2572.1697">
				<stop  offset="0" style="stop-color:#A65E21"/>
				<stop  offset="0.9888" style="stop-color:#0F2233"/>
			</linearGradient>
			<path class="st17" d="M644.6,1931.6c-3.8,41.9-5.2,91.1,9.2,131.3c1.8,5.1,10.6,4.9,10-1.4c-4.2-44.3-11.9-84.9-8.3-129.9
				C656.2,1924.4,645.3,1924.5,644.6,1931.6L644.6,1931.6z"/>
		</g>
		<g>
			<linearGradient id="SVGID_14_" gradientUnits="userSpaceOnUse" x1="433.8731" y1="3676.2729" x2="433.8731" y2="2572.1638">
				<stop  offset="0" style="stop-color:#A65E21"/>
				<stop  offset="0.9888" style="stop-color:#0F2233"/>
			</linearGradient>
			<path class="st18" d="M391.3,2154.8c21.5,52.2,42.5,112,75.7,157.8c3.1,4.3,11.6,2,9.3-4c-9.8-26-24.8-50.3-37-75.2
				c-13.4-27.3-26-54.9-38.1-82.9C398.9,2144.8,388.9,2149,391.3,2154.8L391.3,2154.8z"/>
		</g>
		<g>
			<linearGradient id="SVGID_15_" gradientUnits="userSpaceOnUse" x1="499.8333" y1="3676.2715" x2="499.8333" y2="2572.1638">
				<stop  offset="0" style="stop-color:#A65E21"/>
				<stop  offset="0.9888" style="stop-color:#0F2233"/>
			</linearGradient>
			<path class="st19" d="M519.4,2320.2c-15.5,27.7-34.4,55.4-46.5,84.9c-2.4,5.9,6.5,8.9,9.7,4.1c17.4-25.9,29.9-56.9,44-84.7
				C529.1,2319.7,522.1,2315.4,519.4,2320.2L519.4,2320.2z"/>
		</g>
		<g>
			<linearGradient id="SVGID_16_" gradientUnits="userSpaceOnUse" x1="-54.1404" y1="3676.2737" x2="-54.1404" y2="2572.1655">
				<stop  offset="0" style="stop-color:#A65E21"/>
				<stop  offset="0.9888" style="stop-color:#0F2233"/>
			</linearGradient>
			<path class="st20" d="M-102,2148.6c21-14.9,37.4-36.1,53.9-55.8c17.1-20.4,32.9-40.9,45.6-64.5c2.2-4.1-2.9-8.1-6.3-5
				c-19.8,18.7-36.5,39.8-53.3,61.2c-15.1,19.3-32.5,38-43.8,60C-107.2,2146.9-104.5,2150.4-102,2148.6L-102,2148.6z"/>
		</g>
		<g>
			<linearGradient id="SVGID_17_" gradientUnits="userSpaceOnUse" x1="-385.032" y1="3676.2722" x2="-385.032" y2="2572.1638">
				<stop  offset="0" style="stop-color:#A65E21"/>
				<stop  offset="0.9888" style="stop-color:#0F2233"/>
			</linearGradient>
			<path class="st21" d="M-423.1,2132.1c20,57.1,40.5,114.2,68.3,167.8c2.3,4.4,9.8,1.4,8-3.4c-20.6-56.2-45.1-111-66.4-167.1
				C-415.6,2123.1-425.4,2125.7-423.1,2132.1L-423.1,2132.1z"/>
		</g>
		<g>
			<linearGradient id="SVGID_18_" gradientUnits="userSpaceOnUse" x1="-398.7168" y1="3676.272" x2="-398.7168" y2="2572.1638">
				<stop  offset="0" style="stop-color:#A65E21"/>
				<stop  offset="0.9888" style="stop-color:#0F2233"/>
			</linearGradient>
			<path class="st22" d="M-422.4,2405c19.7-34.2,41.9-67.3,58.9-102.9c1.6-3.4-2.7-7.5-5.4-4.3c-25.9,30.2-45.3,65.8-64.5,100.6
				C-437.4,2405.8-426.5,2412.2-422.4,2405L-422.4,2405z"/>
		</g>
		<g>
			<linearGradient id="SVGID_19_" gradientUnits="userSpaceOnUse" x1="-602.7758" y1="3676.2737" x2="-602.7758" y2="2572.165">
				<stop  offset="0" style="stop-color:#A65E21"/>
				<stop  offset="0.9888" style="stop-color:#0F2233"/>
			</linearGradient>
			<path class="st23" d="M-660.8,2012.8c14.3,35,29.9,69,46.9,102.8c17.9,35.6,34.7,72.8,58.5,104.8c3.7,4.9,12.9,2.4,10.7-4.6
				c-11.6-35.9-30.6-69.3-48.1-102.5c-18.8-35.5-38.2-70.2-59.7-104.1C-655.1,2005.1-662.9,2007.7-660.8,2012.8L-660.8,2012.8z"/>
		</g>
		<g>
			<linearGradient id="SVGID_20_" gradientUnits="userSpaceOnUse" x1="-607.0241" y1="3676.2734" x2="-607.0241" y2="2572.166">
				<stop  offset="0" style="stop-color:#A65E21"/>
				<stop  offset="0.9888" style="stop-color:#0F2233"/>
			</linearGradient>
			<path class="st24" d="M-671,2025.6c27.8-37.4,54.2-75.7,78.4-115.6c22.3-36.7,47.2-77.3,59.5-118.8c1.2-4.1-4.1-5.7-6.3-2.7
				c-26.5,35.8-46.3,78.6-68.9,117.1c-22.8,38.9-46.6,77.2-71.8,114.6C-684.1,2026-675,2031-671,2025.6L-671,2025.6z"/>
		</g>
		<g>
			<linearGradient id="SVGID_21_" gradientUnits="userSpaceOnUse" x1="-585.9708" y1="3676.2737" x2="-585.9708" y2="2572.165">
				<stop  offset="0" style="stop-color:#A65E21"/>
				<stop  offset="0.9888" style="stop-color:#0F2233"/>
			</linearGradient>
			<path class="st25" d="M-625.9,2194.3c24.2,66,45.3,133.2,70.5,198.8c2.3,5.9,11.1,3.7,9.5-2.7c-16.7-69-42.9-135.1-70.7-200.2
				C-618.9,2185-628,2188.8-625.9,2194.3L-625.9,2194.3z"/>
		</g>
		<path class="st12" d="M811.3,2200.1c8.3-14.8,19.9-27.8,27.1-43.4c1-2.4,3.8-1.9,5.2-0.3c-8.3,14.3-17.2,28.1-27,40.6
			C814.9,2199,813.1,2199.9,811.3,2200.1z"/>
		<path class="st12" d="M320.4,2024.1c-4,9.7-6.5,21-12.3,29.5c6.1-23.6,15.1-46.2,28.6-66.6C331,1999.2,325.6,2011.7,320.4,2024.1z
			"/>
		<path class="st12" d="M-613.6,1833.3c-0.8,0.9-1.6,1.8-2.4,2.7c5.4-8.2,10.5-16.6,16.2-24.4c1.5-2,3.6-2.5,5.5-2
			C-600.5,1817.7-606.9,1825.7-613.6,1833.3z"/>
	</g>
</g>
</svg>
