<?xml version="1.0" encoding="utf-8"?>
<!-- Generator: Adobe Illustrator 21.0.0, SVG Export Plug-In . SVG Version: 6.00 Build 0)  -->
<svg version="1.1" id="Layer_1" xmlns="http://www.w3.org/2000/svg" xmlns:xlink="http://www.w3.org/1999/xlink" x="0px" y="0px"
	 viewBox="0 0 1080 1920" style="enable-background:new 0 0 1080 1920;" xml:space="preserve">
<style type="text/css">
	.st0{clip-path:url(#SVGID_2_);fill:url(#SVGID_3_);}
	.st1{clip-path:url(#SVGID_7_);}
	.st2{fill:url(#SVGID_8_);}
	.st3{clip-path:url(#SVGID_10_);}
	.st4{fill:url(#SVGID_11_);}
	.st5{clip-path:url(#SVGID_13_);}
	.st6{opacity:0.2;}
	.st7{fill:url(#SVGID_14_);}
	.st8{fill:url(#SVGID_15_);}
	.st9{fill:url(#SVGID_16_);}
	.st10{opacity:0.54;clip-path:url(#SVGID_18_);}
	.st11{fill:#2C9182;}
	.st12{clip-path:url(#SVGID_20_);}
	.st13{clip-path:url(#SVGID_22_);}
	.st14{fill:#166E6E;}
	.st15{clip-path:url(#SVGID_24_);}
	.st16{clip-path:url(#SVGID_26_);}
	.st17{opacity:0.34;fill:url(#SVGID_27_);}
</style>
<title>softsnow</title>
<g>
	<g>
		<defs>
			<rect id="SVGID_1_" x="-32.2" y="-23.7" width="1150.8" height="1976.5"/>
		</defs>
		<clipPath id="SVGID_2_">
			<use xlink:href="#SVGID_1_"  style="overflow:visible;"/>
		</clipPath>
		
			<linearGradient id="SVGID_3_" gradientUnits="userSpaceOnUse" x1="561.652" y1="2270.6196" x2="758.8253" y2="109.599" gradientTransform="matrix(1 0 0 -1 0 1920)">
			<stop  offset="5.586590e-03" style="stop-color:#D6D66F"/>
			<stop  offset="0.9888" style="stop-color:#FFFED1"/>
		</linearGradient>
		<rect x="-2028.6" y="-90" class="st0" width="5423.4" height="2140.9"/>
	</g>
	<g>
		<defs>
			<rect id="SVGID_4_" x="-32.2" y="-23.7" width="1150.8" height="1976.5"/>
		</defs>
		<clipPath id="SVGID_5_">
			<use xlink:href="#SVGID_4_"  style="overflow:visible;"/>
		</clipPath>
	</g>
	<g>
		<defs>
			<rect id="SVGID_6_" x="-32.2" y="-23.7" width="1150.8" height="1976.5"/>
		</defs>
		<clipPath id="SVGID_7_">
			<use xlink:href="#SVGID_6_"  style="overflow:visible;"/>
		</clipPath>
		<g class="st1">
			
				<linearGradient id="SVGID_8_" gradientUnits="userSpaceOnUse" x1="-6444.2012" y1="532.9999" x2="2686.2991" y2="532.9999" gradientTransform="matrix(-1 0 0 -1 -3584.1008 1920)">
				<stop  offset="5.586590e-03" style="stop-color:#2C9182"/>
				<stop  offset="0.9888" style="stop-color:#FFFED1"/>
			</linearGradient>
			<path class="st2" d="M-6270.4,1660.8c0,0,74.4-66.1,166.1-69.8c0,0,189-66.1,257.7-106.5c0,0,217.7-91.8,269.2-191l80.2,29.4
				l57.3-22l68.7,18.4l320.8-191c0,0,246.3,168.9,252,205.7c0,0,160.4,11,189,33.1l211.9-40.4l194.8,80.8l74.5-18.4l68.7,25.7
				l22.9-3.7l177.6-121.2l74.5,29.4l80.2-51.4l85.9-3.7l114.6-135.9l51.5,11l51.6-22l68.7,18.4l108.8,51.4l57.3-11l49.6-92.2
				l30.6,26.1c0,0,91.7-47.7,108.8-80.8c0,0,24.2,19.1,75.8,48.5c0,0,53.8,38.9,159.1,102.1c0,0,45.8,3.7,85.9-18.4
				c0,0,131.8-7.4,269.2,80.8l63-14.7l103.1,73.4l45.8,3.7c0,0,80.2,58.8,148.9,40.4l120.3,51.4l74.5,14.7l91.6,40.4l45.8,51.4
				c0,0,91.7-3.7,183.3-25.7c0,0,217.6-44.1,274.9-99.2l97.4,7.3l63-18.4l74.5,29.4l97.4-95.5l57.3,47.8l57.3-3.7l45.8,36.7
				l51.6-40.4l45.8,29.4c0,0,154.6-102.8,240.6-113.9l80.2-44.1l166.1-7.4c0,0,240.6-132.2,320.8-132.2l39.5-1.4
				c0,0,26.3,8,92.3,45.4c0,0,412.4,209.4,515.5,293.8c0,0,120.3,29.4,171.9,3.7c0,0,0,33.1,85.9,11c0,0,320.8-113.9,418.1-224.1
				l217.7-7.4l137.5-113.9l148.9,99.2l40.1,11l166.1,102.8l85.9,36.7l17.2,55.1c0,0,171.8,29.4,206.2,55.1c0,0,74.5,58.8,91.7,77.1
				l194.8,110.2l68.7,117.5l-9113.2-3.7L-6270.4,1660.8z"/>
		</g>
	</g>
	<g>
		<defs>
			<rect id="SVGID_9_" x="-32.2" y="-23.7" width="1150.8" height="1976.5"/>
		</defs>
		<clipPath id="SVGID_10_">
			<use xlink:href="#SVGID_9_"  style="overflow:visible;"/>
		</clipPath>
		<g class="st3">
			
				<linearGradient id="SVGID_11_" gradientUnits="userSpaceOnUse" x1="-7123.4014" y1="218.0501" x2="2007.0994" y2="218.0501" gradientTransform="matrix(-1 0 0 -1 -3584.1008 1920)">
				<stop  offset="5.586590e-03" style="stop-color:#2C9182"/>
				<stop  offset="0.9888" style="stop-color:#FFFED1"/>
			</linearGradient>
			<path class="st4" d="M-5591.2,1975.7c0,0,74.4-66.1,166.1-69.8c0,0,189-66.1,257.8-106.5c0,0,217.7-91.8,269.2-191l80.2,29.4
				l57.3-22.1l68.7,18.4l320.8-191c0,0,246.3,168.9,252,205.7c0,0,160.4,11,189,33.1l211.9-40.4l194.8,80.8l74.4-18.3l68.8,25.7
				l22.9-3.7l177.6-121.2l74.5,29.4l80.2-51.4l85.9-3.7l114.6-135.9l51.5,11l51.6-22l68.7,18.4l108.8,51.4l57.3-11l49.6-92.2
				l30.6,26.1c0,0,91.7-47.8,108.8-80.8c0,0,24.2,19.1,75.8,48.5c0,0,53.8,38.9,159.1,102.1c0,0,45.8,3.7,85.9-18.4
				c0,0,131.8-7.4,269.2,80.8l63-14.7l103.1,73.4l45.8,3.7c0,0,80.2,58.8,148.9,40.4l120.3,51.4l74.5,14.7l91.7,40.4l45.8,51.4
				c0,0,91.7-3.7,183.3-25.7c0,0,217.6-44.1,274.9-99.2l97.4,7.3l63-18.4l74.5,29.4l97.4-95.5l57.3,47.8l57.3-3.7l45.8,36.7
				l51.6-40.4l45.8,29.4c0,0,154.6-102.8,240.6-113.9l80.2-44.1l166.1-7.4c0,0,240.6-132.2,320.8-132.2l39.5-1.4
				c0,0,26.3,8,92.3,45.4c0,0,412.4,209.4,515.5,293.8c0,0,120.3,29.4,171.8,3.7c0,0,0,33.1,85.9,11c0,0,320.8-113.9,418.1-224
				l217.7-7.4l137.5-113.9l148.9,99.2l40.1,11l166.1,102.8l85.9,36.7l17.2,55.1c0,0,171.9,29.4,206.2,55.1c0,0,74.5,58.8,91.6,77.1
				l194.8,110.2l68.7,117.5l-9113.2-3.7L-5591.2,1975.7z"/>
		</g>
	</g>
	<g>
		<defs>
			<rect id="SVGID_12_" x="-32.2" y="-23.7" width="1150.8" height="1976.5"/>
		</defs>
		<clipPath id="SVGID_13_">
			<use xlink:href="#SVGID_12_"  style="overflow:visible;"/>
		</clipPath>
		<g class="st5">
			<g class="st6">
				<g>
					
						<linearGradient id="SVGID_14_" gradientUnits="userSpaceOnUse" x1="-1867.9006" y1="667.2003" x2="7262.5" y2="667.2003" gradientTransform="matrix(1 0 0 -1 0 1920)">
						<stop  offset="5.586590e-03" style="stop-color:#2C9182"/>
						<stop  offset="0.9888" style="stop-color:#FFFED1"/>
					</linearGradient>
					<path class="st7" d="M7262.5,1593.6c0,0-74.4-82.3-166.1-86.9c0,0-189-82.3-257.7-132.6c0,0-217.7-114.3-269.2-237.7
						l-80.2,36.6l-57.3-27.5l-68.7,22.9l-320.8-237.7c0,0-246.3,210.3-252,256c0,0-160.4,13.7-189,41.1l-211.9-50.3L5194.8,1278
						l-74.5-22.8l-68.7,32l-22.9-4.6l-177.6-150.9l-74.5,36.6l-80.2-64l-85.9-4.6l-114.6-169.2l-51.5,13.7l-51.6-27.4l-68.7,22.9
						l-108.8,64L4158,990l-49.6-114.8l-30.6,32.5c0,0-91.7-59.4-108.8-100.6c0,0-24.2,23.8-75.8,60.4c0,0-53.8,48.4-159.1,127.1
						c0,0-45.8,4.6-85.9-22.9c0,0-131.8-9.2-269.2,100.6l-63-18.3l-103.1,91.4l-45.8,4.6c0,0-80.2,73.2-148.9,50.3l-120.3,64
						l-74.5,18.3l-91.7,50.3l-45.8,64c0,0-91.7-4.6-183.3-32c0,0-217.6-54.9-274.9-123.4l-97.4,9.1l-63-22.9l-74.5,36.6l-97.4-118.9
						l-57.3,59.4l-57.3-4.6l-45.8,45.7l-51.6-50.3l-45.8,36.6c0,0-154.6-128-240.6-141.7l-80.2-54.8l-166.1-9.2
						c0,0-240.6-164.6-320.8-164.6l-39.5-1.7c0,0-26.2,10-92.3,56.6c0,0-412.4,260.6-515.5,365.7c0,0-120.3,36.6-171.8,4.6
						c0,0,0,41.1-85.9,13.7c0,0-320.8-141.7-418.1-278.9l-217.7-9.2L-848.4,871l-148.9,123.4l-40.1,13.7l-166.1,128l-85.9,45.7
						l-17.2,68.6c0,0-171.8,36.6-206.2,68.6c0,0-74.5,73.1-91.6,96l-194.8,137.2l-68.7,146.3l9113.2-4.6L7262.5,1593.6z"/>
				</g>
			</g>
			<g>
				<g>
					
						<linearGradient id="SVGID_15_" gradientUnits="userSpaceOnUse" x1="-184.2999" y1="510.2001" x2="8946.0996" y2="510.2001" gradientTransform="matrix(1 0 0 -1 0 1920)">
						<stop  offset="5.586590e-03" style="stop-color:#2C9182"/>
						<stop  offset="0.9888" style="stop-color:#FFFED1"/>
					</linearGradient>
					<path class="st8" d="M8946.1,1750.4c0,0-74.4-82.3-166.1-86.9c0,0-189-82.3-257.8-132.6c0,0-217.7-114.3-269.2-237.7
						l-80.2,36.6l-57.3-27.4l-68.7,22.9L7726,1087.6c0,0-246.3,210.3-252,256c0,0-160.4,13.7-189,41.2l-211.9-50.3L6878.4,1435
						l-74.5-22.8l-68.7,32l-22.9-4.6l-177.6-150.9l-74.4,36.6l-80.2-64l-85.9-4.6l-114.6-169.2l-51.5,13.7l-51.6-27.4l-68.7,22.9
						l-108.8,64l-57.3-13.7l-49.6-114.8l-30.6,32.5c0,0-91.6-59.4-108.8-100.6c0,0-24.2,23.8-75.8,60.4c0,0-53.8,48.5-159.1,127.1
						c0,0-45.8,4.6-85.9-22.8c0,0-131.8-9.2-269.2,100.6l-63-18.3l-103.1,91.4l-45.8,4.6c0,0-80.2,73.2-148.9,50.3l-120.3,64
						l-74.5,18.3l-91.7,50.3l-45.8,64c0,0-91.7-4.6-183.3-32c0,0-217.6-54.9-274.9-123.4l-97.4,9.1l-63-22.9l-74.5,36.6l-97.4-118.9
						l-57.3,59.4l-57.3-4.6l-45.8,45.7l-51.6-50.3l-45.8,36.6c0,0-154.6-128-240.6-141.7l-80.2-54.9l-166.1-9.2
						c0,0-240.6-164.6-320.8-164.6l-39.5-1.7c0,0-26.2,10-92.3,56.6c0,0-412.4,260.6-515.5,365.7c0,0-120.3,36.6-171.9,4.6
						c0,0,0,41.2-85.9,13.7c0,0-320.8-141.7-418.1-278.9l-217.7-9.2L835.2,1028l-148.9,123.4l-40.1,13.7l-166.1,128l-85.9,45.7
						l-17.2,68.6c0,0-171.8,36.6-206.2,68.6c0,0-74.5,73.1-91.7,96l-194.7,137.2l-68.7,146.3L8929,1851L8946.1,1750.4z"/>
				</g>
			</g>
			<g>
				<g>
					
						<linearGradient id="SVGID_16_" gradientUnits="userSpaceOnUse" x1="129.0989" y1="-100.5004" x2="6758.1001" y2="-100.5004" gradientTransform="matrix(1 0 0 -1 0 1920)">
						<stop  offset="5.586590e-03" style="stop-color:#2C9182"/>
						<stop  offset="0.9888" style="stop-color:#FFFED1"/>
					</linearGradient>
					<path class="st9" d="M6758.1,2370.4c0,0-54.1-84.5-120.6-89.2c0,0-137.2-84.5-187.1-136.2c0,0-158-117.4-195.4-244.2
						l-58.2,37.6l-41.6-28.2l-49.9,23.5l-232.9-244.2c0,0-178.8,216-183,263c0,0-116.4,14.1-137.2,42.3l-153.9-51.6l-141.4,103.3
						l-54.1-23.5l-49.9,32.9l-16.6-4.7l-128.9-155l-54.1,37.5l-58.2-65.7l-62.4-4.7l-83.2-173.8l-37.4,14.1l-37.4-28.2l-49.9,23.5
						l-79,65.8l-41.6-14.1l-36-118L4446,1666c0,0-66.5-61.1-79-103.3c0,0-17.6,24.5-55,62c0,0-39.1,49.8-115.5,130.5
						c0,0-33.3,4.7-62.4-23.5c0,0-95.7-9.4-195.5,103.3l-45.7-18.8l-74.8,93.9l-33.3,4.7c0,0-58.2,75.2-108.1,51.7l-87.3,65.7
						l-54.1,18.8l-66.5,51.7l-33.3,65.8c0,0-66.5-4.7-133.1-32.9c0,0-158-56.4-199.6-126.8l-70.7,9.4l-45.8-23.5l-54.1,37.6
						l-70.7-122.1l-41.6,61.1l-41.6-4.7l-33.3,46.9l-37.4-51.7l-33.3,37.6c0,0-112.3-131.5-174.7-145.6l-58.2-56.4l-120.6-9.4
						c0,0-174.7-169.1-232.9-169.1l-28.7-1.7c0,0-19.1,10.2-67,58.1c0,0-299.4,267.7-374.3,375.7c0,0-87.3,37.6-124.8,4.7
						c0,0,0,42.3-62.4,14.1c0,0-232.9-145.6-303.6-286.5l-158-9.4l-99.8-145.6l-108.1,126.8l-29.1,14.1l-120.6,131.5l-62.4,47
						l-12.5,70.4c0,0-124.8,37.6-149.7,70.4c0,0-54.1,75.2-66.5,98.6L179,2328l-49.9,150.3l6616.3-4.7L6758.1,2370.4z"/>
				</g>
			</g>
		</g>
	</g>
	<g>
		<defs>
			<rect id="SVGID_17_" x="-32.2" y="-23.7" width="1150.8" height="1976.5"/>
		</defs>
		<clipPath id="SVGID_18_">
			<use xlink:href="#SVGID_17_"  style="overflow:visible;"/>
		</clipPath>
		<g class="st10">
			<g>
				<g>
					<path class="st11" d="M3011.3,2104.3c0,0-54.1-77-120.6-81.3c0,0-137.2-77-187.1-124.1c0,0-158-107-195.5-222.5l-58.2,34.2
						l-41.6-25.7l-49.9,21.4l-232.9-222.5c0,0-178.8,196.8-183,239.6c0,0-116.4,12.9-137.2,38.5l-153.9-47.1L1510,1809l-54.1-21.4
						l-49.9,30l-16.6-4.3l-128.9-141.2l-54.1,34.2l-58.2-59.9l-62.4-4.3l-83.2-158.3l-37.4,12.8l-37.4-25.7l-49.9,21.4l-79,59.9
						l-41.6-12.8l-36-107.5l-22.2,30.4c0,0-66.5-55.6-79-94.2c0,0-17.6,22.3-55,56.5c0,0-39.1,45.3-115.5,118.9
						c0,0-33.3,4.3-62.4-21.4c0,0-95.7-8.6-195.5,94.1l-45.7-17.1l-74.8,85.6l-33.3,4.3c0,0-58.2,68.5-108.1,47.1l-87.3,59.9
						l-54.1,17.1l-66.5,47.1l-33.3,59.9c0,0-66.5-4.3-133.1-29.9c0,0-158-51.4-199.6-115.6l-70.7,8.6l-45.7-21.4l-54.1,34.2
						l-70.7-111.3l-41.6,55.7l-41.6-4.3l-33.3,42.8l-37.4-47.1l-33.3,34.2c0,0-112.3-119.8-174.7-132.7l-58.2-51.3l-120.6-8.6
						c0,0-174.7-154.1-232.9-154.1l-28.7-1.6c0,0-19.1,9.3-67,53c0,0-299.4,243.9-374.3,342.4c0,0-87.3,34.2-124.8,4.3
						c0,0,0,38.5-62.4,12.9c0,0-232.9-132.7-303.6-261l-158-8.6l-99.8-132.7l-108.1,115.6l-29.1,12.8l-120.6,119.8l-62.4,42.8
						l-12.5,64.2c0,0-124.8,34.2-149.7,64.2c0,0-54.1,68.5-66.5,89.9l-141.4,128.4l-49.9,136.9l6616.2-4.3L3011.3,2104.3z"/>
				</g>
			</g>
			<g>
				<path class="st11" d="M1519.7,1802.6l-9.7,6.4l-54.1-21.4l-49.9,30l-16.6-4.3l-128.9-141.2l-54.1,34.2l-58.2-59.9l-62.4-4.3
					l-83.2-158.3l-37.4,12.8l-37.4-25.7l-49.9,21.4l-79,59.9l-41.6-12.8l-36-107.5l-22.2,30.4c0,0-66.5-55.6-79-94.2
					c0,0-17.6,22.3-55,56.5c0,0-5.3,6.2-15.7,17.5c17.5,29.8,61.5,30.4,80,68.1c-77.4,49.3-9.7,175.9,38.7,232.2
					c38.7,42.2,116.2,21.1,140.4,49.3c14.2,20.7,0.6,48.1,4.6,62.4c2.3,5.7,22,58.6,24.6,65.1c-0.1-0.3-0.1-0.6-0.2-0.8
					c0.6,1.7,0.6,1.8,0.2,0.8c21.9,96,31.5,203.3,68.7,280.5l363.1-0.2c50.1-46.9,98.1-100.3,148.9-140.3
					C1491,1999.8,1516.8,1906.2,1519.7,1802.6z"/>
				<path class="st11" d="M837.5,1918.5c0.1,0.3,0.1,0.5,0.2,0.8C838.1,1920.3,838.1,1920.2,837.5,1918.5z"/>
				<path class="st11" d="M813.3,1855.2c-0.1-0.3-0.1-0.6-0.2-0.9C812.7,1853.4,812.7,1853.5,813.3,1855.2z"/>
			</g>
		</g>
	</g>
	<g>
		<defs>
			<rect id="SVGID_19_" x="-32.2" y="-23.7" width="1150.8" height="1976.5"/>
		</defs>
		<clipPath id="SVGID_20_">
			<use xlink:href="#SVGID_19_"  style="overflow:visible;"/>
		</clipPath>
		<g class="st12">
			<g>
				<g>
					<path class="st11" d="M6005.1,2019c0,0-74.5-66.1-166.1-69.8c0,0-189-66.1-257.8-106.5c0,0-217.7-91.8-269.2-191l-80.2,29.4
						l-57.3-22.1l-68.7,18.4l-320.8-191c0,0-246.3,168.9-252,205.7c0,0-160.4,11-189,33.1l-211.9-40.4l-194.8,80.8l-74.5-18.4
						l-68.8,25.7l-22.9-3.7L3593.6,1648l-74.5,29.4l-80.2-51.4l-85.9-3.7l-114.6-135.9l-51.5,11l-51.6-22l-68.7,18.4l-108.8,51.4
						l-57.3-11l-49.6-92.2l-30.6,26.1c0,0-91.6-47.8-108.8-80.8c0,0-24.2,19.1-75.8,48.5c0,0-53.8,38.9-159.1,102.1
						c0,0-45.8,3.7-85.9-18.4c0,0-131.7-7.3-269.2,80.8l-63-14.7l-103.1,73.4l-45.8,3.7c0,0-80.2,58.8-148.9,40.4l-120.3,51.4
						l-74.5,14.7l-91.7,40.4l-45.8,51.4c0,0-91.7-3.7-183.3-25.7c0,0-217.6-44.1-274.9-99.2l-97.4,7.3l-63-18.3l-74.4,29.4L638,1659
						l-57.3,47.8l-57.3-3.7l-45.8,36.7l-51.6-40.4l-45.8,29.4c0,0-154.6-102.8-240.6-113.9l-80.2-44.1l-166.1-7.4
						c0,0-240.6-132.2-320.8-132.2l-39.5-1.4c0,0-26.2,8-92.2,45.5c0,0-412.4,209.4-515.5,293.8c0,0-120.3,29.4-171.9,3.7
						c0,0,0,33-85.9,11c0,0-320.7-113.8-418.1-224l-217.7-7.3l-137.5-113.9l-148.9,99.2l-40.1,11l-166.1,102.8l-85.9,36.7
						l-17.2,55.1c0,0-171.9,29.4-206.2,55.1c0,0-74.5,58.8-91.6,77.1l-194.8,110.2l-68.7,117.5l9113.2-3.7L6005.1,2019z"/>
				</g>
			</g>
			<g>
				<path class="st11" d="M380.2,1728.8l27.1-17.4c-11.7,2.8-23.3,6.6-34.8,12.4C377.5,1727,380.2,1728.8,380.2,1728.8z"/>
				<path class="st11" d="M-410.1,1471.1c2.9,40.9-50.2,40.9-14.8,88.7c17.7,20.5,82.7,44.3,106.3,54.6
					c-38.4,40.9,8.9,98.9,53.1,71.6c14.8,61.4,26.6,61.4,88.6,58c14.8,0,50.2-13.6,62-10.2c14.8,3.4,20.7,27.3,35.4,40.9
					c-11.8,13.6-29.5,23.9-41.3,37.5c17.7,30.7,50.2,34.1,79.7,30.7c59-10.2,106.3-13.6,168.3-10.2c53.1,0,100.4-13.6,147.6-37.5
					c32.5-13.6,50.2-37.5,76.8-58c7-5.4,14.1-9.7,21.1-13.3c-32-20.6-158.4-99.3-232.9-108.9l-80.2-44.1l-166.1-7.4
					c0,0-240.6-132.2-320.8-132.2l-8.3-0.3C-430.3,1445.6-412.2,1442.3-410.1,1471.1z"/>
			</g>
		</g>
	</g>
	<g>
		<defs>
			<rect id="SVGID_21_" x="-32.2" y="-23.7" width="1150.8" height="1976.5"/>
		</defs>
		<clipPath id="SVGID_22_">
			<use xlink:href="#SVGID_21_"  style="overflow:visible;"/>
		</clipPath>
		<g class="st13">
			<path class="st14" d="M3440.5,2131.8c0,0-64.7-53.2-144.3-56.1c0,0-164.3-53.2-223.9-85.7c0,0-189.1-73.8-233.9-153.6l-69.7,23.6
				l-49.8-17.7l-59.7,14.8l-278.7-153.6c0,0-214,135.9-219,165.4c0,0-139.3,8.9-164.2,26.6l-184.1-32.5l-169.2,65l-64.7-14.8
				l-59.7,20.7l-19.9-3l-154.3-97.5l-64.7,23.6l-69.7-41.4l-74.6-3l-99.6-109.3l-44.8,8.9l-44.8-17.7l-59.7,14.8l-94.5,41.4
				l-49.8-8.9l-43.1-74.2l-26.6,21c0,0-79.6-38.4-94.6-65c0,0-21,15.4-65.8,39c0,0-46.8,31.3-138.2,82.1c0,0-39.8,3-74.6-14.8
				c0,0-114.5-5.9-233.9,65l-54.7-11.8l-89.6,59.1l-39.8,2.9c0,0-69.7,47.3-129.4,32.5l-104.5,41.3l-64.7,11.8l-79.6,32.5
				l-39.8,41.4c0,0-79.6-3-159.3-20.7c0,0-189.1-35.5-238.9-79.8l-84.6,5.9l-54.7-14.8l-64.7,23.6l-84.6-76.8l-49.8,38.4l-49.8-2.9
				l-39.8,29.5l-44.8-32.5l-39.8,23.6c0,0-134.4-82.7-209-91.6l-69.7-35.4l-144.3-5.9c0,0-209-106.3-278.7-106.3l-34.3-1.1
				c0,0-22.8,6.4-80.1,36.5c0,0-358.3,168.4-447.9,236.3c0,0-104.5,23.6-149.3,3c0,0,0,26.6-74.7,8.8c0,0-278.7-91.6-363.3-180.2
				l-189.1-5.9l-119.4-91.6l-129.4,79.8l-34.8,8.9l-144.3,82.7l-74.7,29.5l-14.9,44.3c0,0-149.3,23.6-179.2,44.3
				c0,0-64.7,47.3-79.6,62l-169.2,88.6l-59.7,94.5l7917.9-3L3440.5,2131.8z"/>
		</g>
	</g>
	<g>
		<defs>
			<rect id="SVGID_23_" x="-32.2" y="-23.7" width="1150.8" height="1976.5"/>
		</defs>
		<clipPath id="SVGID_24_">
			<use xlink:href="#SVGID_23_"  style="overflow:visible;"/>
		</clipPath>
		<g class="st15">
			<path class="st14" d="M174.6,1454.2c1.2-0.1,2.3-0.2,3.3-0.2c-1.2,0.1-2.6,0.2-4.1,0.3C174.1,1454.3,174.4,1454.3,174.6,1454.2z
				 M406.7,1717.9c-5.6,0.1-6.6,2.2-2.3,4.8l1.9,1.2c3.5,2.1,3.5,3.4,0.6,3.4c-0.7,0-1.6-0.1-2.7-0.3l-19.1-3
				c7.1,2.4,14.6,5.2,14.6,5.2c5.2,2,4.8,3.2-0.9,2.7l-23.2-2c-5.6-0.5-6.6,1.3-2,4c0,0,20.4,11.9,16.6,10.5
				c-1.4-0.5-5.2-1.6-9.5-2.8c2.5,1.5,4.3,2.7,3.9,2.7c-0.1,0-0.2,0-0.4-0.1c-3.6-1.3-23.6-6.7-25-7.1c-1.3,0.7-1.6,2.2-0.4,4.2
				l3.1,5c2.2,3.7,0,5.1-5,3.1c-0.3,0.4-0.9,0.6-1.8,0.6c-1,0-2.3-0.3-3.9-0.9l-27.9-11.4c-0.4-0.2-0.8-0.3-1.2-0.4
				c-1.3,0.6-1.9,2-1.5,3.9l1.6,7.3c0.8,3.6-1.9,4.8-5.9,3.2c-0.4,0.2-1,0.5-1.7,0.5c-1.1,0-2.6-0.4-4.2-1.3l-19.2-10.2
				c-0.5-0.3-1-0.4-1.4-0.7c-0.8,0.7-1.1,1.8-0.7,3.4l3.6,15c0.8,3.6-1.3,4.6-4.9,2.7c-0.4,0.3-0.8,0.6-1.4,0.6
				c-1.1,0-2.5-0.5-4.2-1.6l-19.7-13v61.4h-40.2v-57.2l-2.8,2.2c-2.4,1.8-4.7,2.1-6.2,1.2c-0.5,0.1-0.9,0.2-1.3,0.2
				c-1.9,0-3.2-1.2-3.5-3.5l-1-7.8c-0.3-2.2-1.9-3.7-4-4.2c-0.9,0.1-1.8,0.3-2.7,0.7l-23.2,8.9c-2.3,0.9-4.4,1-5.8,0.5
				c-0.3,0-0.5,0.1-0.7,0.1c-2.8,0-4.5-1.6-4.1-4.3l0.7-4.5c0.4-2.3-0.7-3.8-2.7-4.2c-0.8,0.1-1.7,0.3-2.7,0.6l-10,3.7
				c-2.1,0.8-3.9,0.9-5.2,0.6c-0.3,0-0.6,0.1-0.8,0.1c-2.7,0-4.1-1.6-3.2-4.3l1.7-5.2c0.8-2.5-0.2-4-2.4-4.3
				c-0.7,0.1-1.5,0.3-2.4,0.6l-1.7,0.6l-26.4,9.5c-0.4,0.1-0.7,0.2-1,0.3c-0.3,0.1-0.6,0.2-0.8,0.3c-0.3,0.1-0.6,0.1-0.9,0.2
				c-0.3,0-0.5,0.1-0.7,0.1c-0.1,0-0.2,0-0.3,0c-0.2,0-0.3,0-0.4,0c0,0,0,0-0.1,0c-0.3-0.1-0.5-0.1-0.7-0.2l0,0
				c-0.1-0.1-0.2-0.2-0.3-0.4c0,0,0,0,0-0.1v-0.1c0-0.4,0.2-0.9,0.6-1.5l0.1-0.1c0.2-0.4,0.5-0.7,0.9-1.1l3.8-4.2l3.8-4.3
				c0.4-0.4,0.6-0.8,0.8-1.1c0-0.1,0.1-0.1,0.1-0.2c0.2-0.3,0.3-0.6,0.4-0.9c0-0.1,0-0.1,0-0.1c0-0.2,0-0.4,0-0.6s-0.1-0.3-0.2-0.5
				c-0.1-0.1-0.1-0.2-0.2-0.4c-0.1-0.1-0.2-0.2-0.4-0.3c-0.1-0.1-0.2-0.2-0.4-0.3c-0.2-0.1-0.4-0.2-0.6-0.2s-0.3-0.1-0.5-0.1
				c-0.3,0-0.6-0.1-1-0.1c-0.2,0-0.3,0-0.5,0c-0.7,0-1.4,0.1-2.2,0.2l-37.4,5.8c-0.7,0.1-1.3,0.2-1.8,0.2c-0.1,0-0.1,0-0.2,0
				c-0.3,0-0.6,0-0.8,0c-0.2,0-0.3,0-0.4,0s-0.1,0-0.2,0c-0.3,0-0.6-0.1-0.9-0.2c0,0,0,0-0.1,0c-0.2-0.1-0.4-0.2-0.5-0.3
				c0,0,0,0,0-0.1c-0.1-0.1-0.1-0.2-0.1-0.2s0.1-0.1,0.1-0.2c0,0,0-0.1,0-0.2c0.1-0.1,0.1-0.2,0.2-0.4c0.1-0.1,0.1-0.2,0.2-0.3
				c0.2-0.1,0.3-0.3,0.5-0.5c0.1-0.1,0.2-0.2,0.4-0.3c0.2-0.2,0.5-0.3,0.8-0.5c0.2-0.1,0.3-0.2,0.5-0.3l0.6-0.3l1.4-0.8
				c0.4-0.2,0.6-0.4,0.9-0.6c0.1-0.1,0.3-0.2,0.4-0.3c0.2-0.2,0.3-0.3,0.5-0.4c0.1-0.2,0.3-0.3,0.4-0.4s0.2-0.2,0.2-0.4
				c0.1-0.2,0.2-0.3,0.2-0.4s0.1-0.2,0.1-0.3c0-0.1,0-0.2-0.1-0.4c0-0.1-0.1-0.3-0.2-0.4s-0.2-0.2-0.3-0.3c-0.1-0.1-0.3-0.2-0.6-0.3
				c-0.1-0.1-0.2-0.1-0.4-0.2c-0.3-0.1-0.7-0.2-1.1-0.2c-0.1-0.1-0.2-0.1-0.3-0.1c-0.6-0.1-1.3-0.1-2.1-0.1l-5.6-0.1h-2.8
				c-0.8,0-1.4-0.1-2-0.1c-0.2,0-0.3-0.1-0.5-0.1c-0.3-0.1-0.7-0.1-0.9-0.2s-0.3-0.1-0.4-0.2c-0.2-0.1-0.4-0.2-0.5-0.3
				c-0.1-0.1-0.2-0.2-0.3-0.3c-0.1-0.1-0.1-0.2-0.2-0.4c0-0.1-0.1-0.1-0.1-0.2c0,0,0-0.1,0-0.2s0-0.2,0.1-0.2
				c0.1-0.1,0.2-0.3,0.3-0.5c0.1-0.1,0.1-0.2,0.2-0.3c0.2-0.2,0.4-0.4,0.6-0.5c0.1-0.1,0.2-0.2,0.3-0.3c0.4-0.3,0.8-0.6,1.4-0.9
				l11.2-6.3l0,0c0.6-0.4,1.2-0.8,1.7-1.2c0.2-0.2,0.3-0.4,0.5-0.5c0.3-0.3,0.6-0.6,0.8-1c0.1-0.2,0.3-0.4,0.4-0.6
				c0.2-0.4,0.4-0.8,0.6-1.2c0.1-0.1,0.1-0.2,0.2-0.4c0.1-0.3,0.1-0.6,0.1-0.9c53.2-14.6,109.8-15.1,154.4-50.3
				c-10.3,6.2-22.2,9.3-34.1,13.7c-40.4,7-74.6,10.5-111.9,28c-3.3,1.2-6.9,1.6-10.9,1.5c0-0.1,0-0.1,0-0.1c0-0.1-0.1-0.2-0.1-0.2
				c0-0.2,0.1-0.3,0.1-0.4s0-0.2,0-0.3c0.1-0.3,0.2-0.7,0.4-1c0-0.1,0.1-0.1,0.2-0.2c0.1-0.3,0.3-0.5,0.5-0.8
				c0.1-0.1,0.1-0.1,0.2-0.2c0.3-0.3,0.7-0.6,1.1-0.9s0.9-0.5,1.4-0.8c0.1,0,0.1,0,0.2,0c0.5-0.3,1-0.5,1.7-0.6l5.1-1.5l5.7-1.6
				c0.2-0.2,0.4-0.4,0.7-0.6c0,0,0,0,0.1,0c0.2-0.2,0.5-0.4,0.8-0.6l1.1-0.7l0.7-0.4c0.1-0.1,0.3-0.2,0.4-0.3
				c0.2-0.1,0.5-0.3,0.7-0.5c0.1-0.1,0.2-0.2,0.3-0.3c0.2-0.1,0.3-0.3,0.5-0.5c0.1-0.1,0.1-0.2,0.2-0.3c0.1-0.2,0.2-0.3,0.2-0.5
				c0-0.1,0.1-0.2,0.1-0.2c0-0.1,0-0.2,0-0.3c0-0.2-0.1-0.3-0.1-0.5c-0.1-0.1-0.2-0.2-0.2-0.2c-0.1-0.1-0.3-0.2-0.5-0.3
				c-0.2-0.1-0.2-0.1-0.4-0.2c-0.2-0.1-0.5-0.1-0.8-0.2c-0.2-0.1-0.3-0.1-0.6-0.1c-0.4-0.1-0.8-0.1-1.2-0.1c-0.2,0-0.4,0-0.6,0H84
				c-0.7,0-1.3-0.1-1.8-0.1c-0.1,0-0.3,0-0.4-0.1c-0.4-0.1-0.6-0.1-0.9-0.2c-0.1-0.1-0.2-0.1-0.3-0.1c-0.2-0.1-0.4-0.2-0.5-0.3
				c-0.1-0.1-0.2-0.2-0.2-0.2c-0.1-0.1-0.1-0.2-0.2-0.4c0-0.1,0-0.1,0-0.2v-0.1c0-0.1,0-0.1,0.1-0.2s0.2-0.3,0.3-0.4
				c0.1-0.1,0.1-0.2,0.2-0.3c0.2-0.1,0.3-0.3,0.5-0.5c0.1-0.1,0.2-0.2,0.3-0.3c0.2-0.1,0.4-0.3,0.6-0.4s0.3-0.2,0.5-0.4l4.9-2.9
				l5-2.9c0.6-0.4,1.2-0.8,1.6-1.2c0.1-0.1,0.2-0.2,0.3-0.3c0.3-0.3,0.6-0.7,0.9-1c0.1-0.1,0.2-0.3,0.3-0.4c0.2-0.4,0.4-0.8,0.6-1.2
				c0-0.1,0.1-0.2,0.1-0.3c0.1-0.5,0.2-0.9,0.2-1.4c0-0.2-0.1-0.3-0.1-0.5c0-0.4-0.1-0.7-0.2-1c-0.1-0.2-0.1-0.3-0.2-0.5
				c-0.2-0.4-0.5-0.9-0.8-1.3c0,0,0,0,0-0.1c-0.3-0.4-0.6-0.8-0.8-1.2c0-0.1-0.1-0.3-0.1-0.4c-0.1-0.3-0.2-0.6-0.2-0.9
				c0-0.1-0.1-0.1-0.1-0.2s0.1-0.1,0.1-0.2c0-0.4,0.1-0.7,0.2-1.1c0-0.1,0-0.2,0.1-0.3c0.2-0.4,0.5-0.8,0.9-1.2
				c0.1-0.1,0.2-0.2,0.3-0.3c0.3-0.3,0.7-0.5,1.1-0.8c0.2-0.1,0.3-0.2,0.5-0.3c0.5-0.3,1.2-0.6,1.9-0.8l12.4-3.7l4.5-1.3
				c0.7-0.2,1.5-0.4,2.3-0.6c0,0,0,0,0.1,0c2.3-0.6,5.2-1.3,7.8-1.8l10-10.7l2.6-2.8c1.1-1.2,1.6-2.1,1.6-2.7c0,0,0,0,0-0.1
				c21.4-6.5,33.3-13.7,50.6-29.9c-21.7,17.4-49.6,17.5-71.3,34.9l-11.2,3.6c-0.7,0.2-1.3,0.4-1.9,0.5c-0.1,0-0.2,0-0.3,0
				c-0.4,0.1-0.8,0.1-1.1,0.1c-0.1,0-0.1,0-0.1,0c-0.2,0-0.5,0-0.6,0l0,0c-0.3-0.1-0.4-0.2-0.6-0.3c0,0,0,0-0.1-0.1
				s-0.2-0.3-0.2-0.4v-0.1v-0.1c0-0.2,0.1-0.4,0.2-0.6c0,0,0-0.1,0.1-0.1c0.1-0.2,0.2-0.5,0.4-0.7c0-0.1,0.1-0.1,0.2-0.2
				c0.2-0.3,0.5-0.6,0.9-1l0,0l0.2-0.2l4.5-4.6c0.1-0.1,0.2-0.2,0.3-0.4c0.2-0.2,0.4-0.4,0.5-0.6c0.1-0.1,0.2-0.2,0.3-0.4
				c0.2-0.2,0.3-0.4,0.3-0.6c0-0.1,0.1-0.2,0.1-0.2c0.1-0.2,0.1-0.5,0.1-0.6s0-0.1,0-0.2c0-0.2-0.1-0.3-0.2-0.4l-0.1-0.1
				c-0.1-0.1-0.2-0.2-0.4-0.2c-0.1,0-0.1-0.1-0.2-0.1c-0.2-0.1-0.5-0.1-0.8-0.1c-0.1,0-0.1,0-0.2,0c-0.8,0-1.8,0.2-3.1,0.5
				l-11.9,3.1l-13.6,3.5c-1.4,0.4-2.5,0.6-3.3,0.6c-0.1,0-0.1,0-0.1,0c-0.1,0-0.1,0-0.1,0c-0.2-0.1-0.4-0.1-0.5-0.1s-0.1,0-0.2-0.1
				c-0.1,0-0.1-0.1-0.2-0.2v-0.1v-0.1c0-0.1,0-0.1,0.1-0.2s0.2-0.3,0.3-0.4c0.1-0.1,0.1-0.1,0.2-0.2c0.4-0.4,1.1-1,2.1-1.6l22-14
				c0.2-0.1,0.3-0.2,0.5-0.3c0.2-0.2,0.5-0.3,0.7-0.5c0.2-0.1,0.3-0.3,0.4-0.3c0.1-0.2,0.3-0.4,0.4-0.6c0.1-0.1,0.2-0.2,0.3-0.3
				c0.1-0.2,0.1-0.3,0.2-0.5c0-0.1,0-0.2,0.1-0.3c0-0.1,0-0.2,0-0.4c0-0.2-0.1-0.4-0.2-0.5s-0.2-0.2-0.3-0.3
				c-0.1-0.1-0.3-0.3-0.4-0.4s-0.3-0.2-0.4-0.2c-0.3-0.1-0.6-0.2-0.9-0.4c-0.2,0-0.3-0.1-0.4-0.2c-0.5-0.1-1.2-0.2-1.9-0.3l-1.8-0.2
				H97c-0.7-0.1-1.3-0.1-1.9-0.3c-0.2-0.1-0.3-0.1-0.5-0.1c-0.3-0.1-0.6-0.2-0.9-0.4c-0.1-0.1-0.3-0.2-0.4-0.2
				c-0.2-0.1-0.4-0.2-0.5-0.4c-0.1-0.1-0.2-0.2-0.2-0.4c-0.1-0.1-0.1-0.3-0.2-0.4c0-0.1-0.1-0.2-0.1-0.2c0-0.1,0-0.1,0-0.2
				s0-0.1,0.1-0.2c0-0.2,0.1-0.3,0.3-0.6c0-0.1,0.1-0.2,0.2-0.3c0.2-0.2,0.4-0.4,0.6-0.7c0.1-0.1,0.1-0.1,0.2-0.2
				c0.3-0.3,0.8-0.6,1.2-0.9l14.8-9.8c26.6-13.7,50.8-30.2,80.6-40.4c-22.3-2.2-42,11.9-62.5,23c0,0-0.1,0-0.1-0.1
				c-0.1,0-0.2-0.1-0.3-0.1c-0.5-0.2-1-0.4-1.7-0.5c-0.3-0.1-0.5-0.2-0.8-0.2c-0.3-0.1-0.6-0.1-0.8-0.2c-0.2-0.1-0.3-0.2-0.5-0.3
				c-0.2-0.1-0.5-0.2-0.7-0.4c-0.1-0.1-0.2-0.2-0.3-0.3c-0.2-0.2-0.3-0.4-0.5-0.5c0-0.1-0.1-0.2-0.1-0.3c-0.1-0.2-0.1-0.4-0.1-0.6
				c0-0.1-0.1-0.1-0.1-0.2s0.1-0.2,0.1-0.3c0-0.1,0-0.2,0.1-0.4c0.1-0.2,0.2-0.4,0.3-0.6c0.1-0.1,0.1-0.2,0.2-0.3
				c0.2-0.2,0.4-0.4,0.7-0.7c0.1,0,0.1-0.1,0.2-0.1c0.3-0.3,0.7-0.7,1.2-1l26.6-18.5c1.7-1.1,2.4-2,2.4-2.5c0-0.4-0.5-0.7-1.5-0.7
				c-0.7,0-1.6,0.1-2.8,0.4l-7.7,1.7c-1,0.2-1.8,0.4-2.5,0.4c-1.7,0-2.7-0.6-2.7-1.7c0-0.7,0.4-1.7,1.2-2.8l7.7-10.2
				c17.8-7.9,34.1-21,41.8-41.3c-11.8,4.4-21.1,14.4-31.1,23c-0.1,0-0.2-0.1-0.3-0.1c-0.8,0-1.8,0.2-3.1,0.7l-12.7,4.7
				c-1.3,0.5-2.4,0.7-3.1,0.7c-0.9,0-1.4-0.3-1.4-0.9s0.5-1.5,1.5-2.7l20.1-23.4c1.1-1.2,1.6-2.4,1.6-3.3c0-1.6-1.3-2.7-3.7-2.7
				c-2.3,0-3.6-1-3.7-2.5c-0.1-1,0.5-2.2,1.6-3.6l19.5-18.1c21.9-2.6,36.5-22.4,58.2-31.6c-18.7-2.7-32.1,12.5-48.1,20.2
				c0-1.6-1.2-2.6-3.5-2.6c-0.3,0-0.8,0.1-1.3,0.1c0.2,0,0.6-0.1,0.8-0.1c4.8-2.6,11.3-7.2,17.1-11.6c-1.2,0.7-2.3,1.4-3.3,2
				c-1,0-2.4,0.2-3.9,0.3c-1.1,0.1-2.2,0.2-3.2,0.2c-1.1,0-2-0.1-2.3-0.4c-0.3-0.2-0.3-0.6,0.1-1.2l7.9-10.5l-2.6,0.7
				c-3.5-1-3.7-3.5-0.5-5.5l12.6-7.8l1.1-1.5c0.7-0.9,1-1.7,1-2.2s-0.3-0.8-1-0.8c-0.6,0-1.3,0.2-2.3,0.6l-5.2,2.3
				c-1,0.4-1.8,0.6-2.4,0.6c-0.5,0-0.8-0.2-0.8-0.6c0-0.5,0.4-1.2,1.2-2.1l7-8.3c-1.8,0.1-3.3,0.2-4.3,0.2c-1.5,0-1.7-0.2,0.2-0.5
				c2.6-0.6,6.4-3.4,10.3-7l1.7-2c0.8-1,1.2-1.8,1.2-2.2c0-0.4-0.3-0.6-0.7-0.6c-0.5,0-1.3,0.2-2.3,0.7l-0.5,0.2
				c-1,0.5-1.8,0.7-2.3,0.7c-0.4,0-0.7-0.2-0.7-0.5c0-0.4,0.5-1.2,1.3-2.1l12.1-14c-1.3-0.2-1.1-1.4,0.8-3.1l3.7-3.8
				c-0.5,0.1-1.1,0.3-2,0.8l-0.9,0.6c-1.1,0.6-1.9,0.9-2.3,0.9c-0.2,0-0.3-0.1-0.3-0.3c0-0.3,0.5-1,1.4-2l9.3-10.1l-0.2,0.8l0.7-0.5
				l19.3-16v2.9l25,21.3l-3.6-0.9c-0.4,0-3.2,5.3,0,8.7h0.1c0.9,0.2,2.6,2.5,3.2,3.5c5.2,5.3,11.4,11,15.1,11.8
				c0.3,0.1,0.6,0.1,0.8,0.2c0.3,0.1,0.4,0.2,0.4,0.2c0,0.1-0.1,0.1-0.4,0.1c-0.1,0-0.3,0-0.5,0c-0.5,0-1.2,0-2,0
				c-0.9-0.1-2-0.1-3.2-0.2l2.2,2.6c0.2,0.1,0.3,0.1,0.4,0.1c0.1,0.3,0.2,0.6,0.4,0.9l7.6,8.7c0.9,1,1.4,1.8,1.5,2.4h-0.1l10.2,12.1
				c1.9,2.1,1.9,3.4,0.5,3.4c-0.6,0-1.6-0.3-2.9-0.8l-0.7-0.3c-0.4,0.8-1.5,1.4-3.1,1.8l-5.5-1.4l19.4,25.9c0.4,0.1,0.8,0.3,1.1,0.5
				c2.4,0.8,2,1,0,1l0,0l2.2,3c1.1,1.5-0.4,1.9-2.7,1.9c-1.4,0-3.2-0.2-4.8-0.3c-1.7-0.2-3.4-0.3-4.4-0.3c-1.6,0-2.6,0.4-3.1,1.2
				l20,8.2c3.4,1.4,3.9,2.3,1.3,2.3c-0.5,0-1.2-0.1-1.9-0.1c0,0-6.8-0.7-13.7-1.4l6.3,5.8c10.5,3.6,20.9,7.1,20.9,7.1
				c3.8,1.2,4.1,2.2,1.1,2.2c-0.4,0-0.9,0-1.5,0l-11.3-0.8l3.4,3.2c-24.3-10-49.9-16.5-75.5-27c22.2,21.8,49.3,27,74.8,37.8
				c-0.3,0.3-0.6,0.7-0.6,1.1l10.4,9.1c2.3,2,2.7,3.1,1.2,3.1c-0.7,0-1.7-0.2-3-0.8l-0.8-0.2l13.5,15.7c2,2.3,2,3.6,0.2,3.6
				c-0.8,0-1.8-0.2-3.1-0.7l-12.4-4.7c-1-0.4-1.9-0.6-2.5-0.7c-0.2,0-0.3-0.1-0.5-0.1c-1.9,0-2.2,1.5-0.5,3.8l0.2,0.3l18.1,24.1
				c2.1,2.7,1.3,4.5-1.5,4.5c-0.7,0-1.6-0.1-2.5-0.3l-3.4-0.8c-21.6-7.8-45.7-9.9-65.7-21.3c21.2,20.5,51.4,24.4,76,34.3l10,6.9
				c1.1,0.8,1.9,1.5,2.3,2.3c0.6,1.3,0.3,2.4-0.9,3.2c-0.6,0.4-1.4,0.7-2.6,1c-4.6,0.9-5.1,3.9-1.3,6.4l31.7,21
				c4,2.6,3.1,5.1-1.9,5.5l-2,0.2c-5.1,0.4-6,2.9-1.9,5.5l21.7,13.8c2.9,1.8,3.3,2.9,1.6,2.9c-0.7,0-1.8-0.2-3.3-0.6l-25.1-6.5
				c-1.2-0.3-2.2-0.5-3-0.5c-2.4,0-2.7,1.4-0.3,3.9l4.6,4.7c2.3,2.2,2.2,3.6,0.3,3.6c-0.8,0-1.9-0.2-3.3-0.7l-26.7-8.6
				c-0.8-0.3-1.6-0.5-2.2-0.6c-0.4-0.1-0.8-0.1-1.1-0.1c-0.2,0-0.3,0-0.4,0c-15-8.1-28.9-20.5-47.2-20.5
				c16.4,10.6,32.8,21.1,50.5,27.2l9.5,10.2c3.6,0.7,7.4,1.6,10,2.4l4.1,1.2l12.6,3.8c4.6,1.3,6.3,4.7,3.9,7.4
				c-2.5,2.7-1.3,6.8,2.6,9.2l9.8,5.7c3.9,2.3,3.1,4.2-1.9,4.3h-7.5c-4.9,0-5.9,2-2,4.4l1.7,1.1c0.6,0.4,1.1,0.7,1.5,1.1l10.7,3.1
				c5.2,1.5,7.2,5.1,4.5,8.1c-0.1,0.1-0.2,0.3-0.3,0.4c-44.2,2.8-98,21.5-125.3-24.6c23.6,53.2,92.1,37,141.6,44.3
				c-0.8,0.4-2.1,0.7-4.1,0.7L406.7,1717.9z M332.5,1642.7c1.5,0.5,2.7,0.8,3.4,0.8c0.3,0,0.5-0.1,0.7-0.1c-1.4-0.3-2.2-0.4-2.2-0.4
				C333.7,1642.8,333,1642.7,332.5,1642.7z M288.8,1422.2c-0.2,0.6,0.1,1.6,1.1,3C289.3,1424.4,289,1423.3,288.8,1422.2z
				 M261.1,1392.7l3.2,4.3h0.2c0,0,4.3,0.4,9.4,0.9c-0.9-0.9-1.7-1.7-2.6-2.6c-3.9-0.4-7-0.7-7-0.7h-0.1l-2.6-3.4
				c-0.3-0.4-0.5-0.7-0.7-1c-0.2-0.1-0.3-0.1-0.5-0.1C259.6,1389.9,259.8,1390.9,261.1,1392.7z"/>
		</g>
	</g>
	<g>
		<defs>
			<rect id="SVGID_25_" x="-32.2" y="-23.7" width="1150.8" height="1976.5"/>
		</defs>
		<clipPath id="SVGID_26_">
			<use xlink:href="#SVGID_25_"  style="overflow:visible;"/>
		</clipPath>
		<g class="st16">
			<path class="st14" d="M2.3,1520.3c1.2-0.1,2.3-0.2,3.3-0.2c-1.2,0.1-2.6,0.2-4.1,0.3C1.8,1520.4,2,1520.3,2.3,1520.3z
				 M234.4,1783.9c-5.6,0.1-6.6,2.2-2.3,4.8l1.9,1.2c3.5,2.1,3.5,3.4,0.6,3.4c-0.7,0-1.6-0.1-2.7-0.3l-19.1-3
				c7.1,2.4,14.6,5.2,14.6,5.2c5.2,1.9,4.8,3.2-0.9,2.7l-23.2-2c-5.7-0.5-6.6,1.3-2,3.9c0,0,20.4,11.9,16.6,10.5
				c-1.4-0.5-5.2-1.6-9.5-2.8c2.5,1.5,4.3,2.7,3.9,2.7c-0.1,0-0.2-0.1-0.4-0.1c-3.6-1.3-23.6-6.7-25-7.1c-1.3,0.7-1.6,2.2-0.4,4.2
				l3.1,5.1c2.2,3.7,0,5.1-5,3.1c-0.3,0.4-0.9,0.6-1.8,0.6c-1,0-2.3-0.3-3.9-0.9l-27.9-11.4c-0.4-0.2-0.8-0.2-1.2-0.4
				c-1.3,0.6-1.9,2-1.5,3.9l1.6,7.3c0.7,3.6-1.9,4.8-5.9,3.1c-0.4,0.3-1,0.5-1.7,0.5c-1.1,0-2.6-0.4-4.3-1.3l-19.2-10.2
				c-0.5-0.3-1-0.4-1.4-0.6c-0.8,0.6-1.1,1.8-0.8,3.4l3.6,15c0.9,3.6-1.3,4.7-4.9,2.7c-0.4,0.3-0.8,0.5-1.4,0.5
				c-1.1,0-2.5-0.5-4.2-1.6L90,1813v61.4H50.1v-57.2l-2.8,2.2c-2.4,1.8-4.7,2.1-6.2,1.2c-0.5,0.1-0.9,0.2-1.4,0.2
				c-1.8,0-3.2-1.2-3.5-3.6l-0.9-7.7c-0.3-2.2-1.9-3.6-4-4.1c-0.9,0.1-1.8,0.3-2.7,0.7L5.3,1815c-2.3,0.9-4.4,1-5.8,0.4
				c-0.3,0-0.5,0.1-0.7,0.1c-2.8,0-4.5-1.6-4.1-4.3l0.7-4.5c0.4-2.3-0.7-3.8-2.7-4.2c-0.8,0.1-1.7,0.3-2.7,0.6l-10,3.7
				c-2.1,0.8-3.9,0.9-5.2,0.6c-0.3,0-0.6,0.1-0.8,0.1c-2.7,0-4.1-1.6-3.2-4.3l1.7-5.2c0.8-2.5-0.2-4-2.4-4.3
				c-0.7,0.1-1.5,0.3-2.4,0.6l-1.7,0.6l-26.4,9.5c-0.4,0.1-0.7,0.2-1,0.3c-0.3,0.1-0.6,0.2-0.8,0.3c-0.3,0.1-0.6,0.1-0.8,0.2
				c-0.3,0-0.5,0.1-0.8,0.1c-0.1,0-0.2,0-0.3,0c-0.2,0-0.3,0-0.4,0c0,0,0,0-0.1,0c-0.3-0.1-0.5-0.1-0.7-0.2l0,0
				c-0.1-0.1-0.2-0.2-0.3-0.4v-0.1v-0.1c0-0.4,0.2-0.9,0.6-1.5c0,0,0-0.1,0.1-0.1c0.2-0.4,0.5-0.7,0.9-1.2l3.8-4.2l3.9-4.3
				c0.4-0.4,0.6-0.8,0.8-1.1c0-0.1,0.1-0.1,0.1-0.2c0.2-0.3,0.3-0.6,0.4-0.9v-0.1c0.1-0.2,0-0.4,0-0.6s-0.1-0.3-0.1-0.5
				c-0.1-0.1-0.1-0.2-0.2-0.4c-0.1-0.1-0.2-0.2-0.4-0.3c-0.1-0.1-0.2-0.2-0.4-0.3c-0.2-0.1-0.4-0.1-0.6-0.2c-0.2,0-0.3-0.1-0.5-0.1
				c-0.3-0.1-0.6-0.1-1-0.1c-0.2,0-0.3,0-0.5,0c-0.7,0-1.4,0.1-2.2,0.2l-37.4,5.8c-0.7,0.1-1.3,0.2-1.8,0.2c-0.1,0-0.1,0-0.2,0
				c-0.3,0-0.6,0-0.8,0c-0.1,0-0.2,0-0.4,0c-0.1,0-0.2,0-0.2,0c-0.3,0-0.6-0.1-0.9-0.2c0,0,0,0-0.1,0c-0.2-0.1-0.4-0.2-0.5-0.3
				c0,0,0,0,0-0.1c-0.1-0.1-0.1-0.2-0.1-0.2l0.1-0.1c0-0.1,0-0.1,0-0.2c0.1-0.1,0.2-0.2,0.2-0.4c0.1-0.1,0.2-0.2,0.2-0.3
				c0.2-0.1,0.3-0.3,0.6-0.5c0.1-0.1,0.2-0.2,0.3-0.3c0.2-0.2,0.5-0.3,0.8-0.5c0.2-0.1,0.3-0.2,0.5-0.4l0.6-0.3l1.4-0.8
				c0.3-0.2,0.6-0.4,0.9-0.6c0.1-0.1,0.3-0.2,0.4-0.3c0.2-0.2,0.3-0.3,0.5-0.4c0.1-0.2,0.3-0.3,0.4-0.4s0.2-0.2,0.2-0.4
				c0.1-0.2,0.2-0.3,0.2-0.5c0-0.1,0.1-0.2,0.1-0.3c0-0.1,0-0.2-0.1-0.4c0-0.1-0.1-0.3-0.2-0.4s-0.1-0.2-0.3-0.3
				c-0.1-0.1-0.3-0.2-0.6-0.3c-0.1-0.1-0.2-0.1-0.4-0.2c-0.3-0.1-0.7-0.2-1.1-0.2c-0.1,0-0.2-0.1-0.3-0.1c-0.6-0.1-1.3-0.1-2.1-0.1
				l-5.6-0.1h-2.8c-0.8,0-1.4-0.1-2-0.1c-0.2,0-0.3-0.1-0.5-0.1c-0.3-0.1-0.7-0.1-1-0.2c-0.2-0.1-0.3-0.1-0.4-0.2
				c-0.2-0.1-0.4-0.2-0.5-0.3c-0.1-0.1-0.2-0.2-0.2-0.3c-0.1-0.1-0.1-0.3-0.2-0.4c0-0.1-0.1-0.1-0.1-0.2s0-0.1,0-0.2s0-0.2,0.1-0.2
				c0.1-0.2,0.2-0.3,0.3-0.5c0.1-0.1,0.1-0.2,0.2-0.3c0.2-0.2,0.4-0.4,0.6-0.5c0.1-0.1,0.2-0.2,0.3-0.3c0.4-0.3,0.8-0.6,1.4-0.9
				l11.2-6.3l0,0c0.6-0.4,1.2-0.8,1.7-1.2c0.2-0.1,0.3-0.3,0.5-0.5c0.3-0.3,0.6-0.6,0.8-1c0.1-0.2,0.3-0.4,0.4-0.6
				c0.2-0.4,0.4-0.8,0.6-1.2c0.1-0.1,0.1-0.2,0.1-0.4c0.1-0.3,0.1-0.6,0.1-0.9c53.2-14.6,109.7-15.1,154.4-50.3
				c-10.3,6.2-22.2,9.3-34.1,13.7c-40.4,7-74.6,10.5-111.9,28c-3.3,1.2-6.9,1.6-10.9,1.5v-0.1c0-0.1-0.1-0.1-0.1-0.2
				c0-0.2,0.1-0.3,0.1-0.4s0-0.2,0-0.3c0.1-0.3,0.2-0.7,0.4-1c0-0.1,0.1-0.1,0.1-0.2c0.2-0.3,0.3-0.5,0.6-0.8
				c0.1-0.1,0.1-0.1,0.2-0.2c0.3-0.4,0.7-0.6,1.1-0.9s0.9-0.6,1.4-0.8c0.1,0,0.1,0,0.2-0.1c0.5-0.3,1.1-0.5,1.7-0.6l5.1-1.5l5.7-1.6
				c0.2-0.2,0.4-0.4,0.7-0.6l0,0c0.3-0.2,0.5-0.4,0.8-0.6l1.2-0.7l0.7-0.4c0.2-0.1,0.3-0.2,0.4-0.3c0.2-0.1,0.5-0.3,0.7-0.5
				c0.1-0.1,0.2-0.2,0.3-0.3c0.2-0.1,0.3-0.3,0.5-0.5c0.1-0.1,0.1-0.2,0.2-0.3c0.1-0.2,0.2-0.3,0.2-0.5c0-0.1,0.1-0.2,0.1-0.2
				c0-0.1,0-0.2-0.1-0.3c0-0.2,0-0.3-0.1-0.5c-0.1-0.1-0.2-0.2-0.2-0.2c-0.1-0.1-0.3-0.2-0.5-0.3c-0.1-0.1-0.2-0.1-0.4-0.2
				c-0.2-0.1-0.5-0.1-0.8-0.2c-0.1,0-0.3-0.1-0.6-0.1c-0.4-0.1-0.8-0.1-1.2-0.1c-0.2,0-0.4,0-0.6,0h-7.6c-0.7,0-1.3,0-1.8-0.1
				c-0.2,0-0.3,0-0.4-0.1c-0.3-0.1-0.6-0.1-0.9-0.3c-0.1,0-0.2-0.1-0.3-0.1c-0.2-0.1-0.4-0.2-0.5-0.3c-0.1-0.1-0.2-0.2-0.2-0.2
				c-0.1-0.1-0.1-0.2-0.2-0.4c0-0.1-0.1-0.1-0.1-0.2l0.1-0.1c0-0.1,0-0.1,0-0.2c0.1-0.1,0.2-0.3,0.3-0.4c0-0.1,0.1-0.2,0.2-0.3
				c0.2-0.1,0.3-0.3,0.5-0.5c0.1-0.1,0.2-0.2,0.3-0.3c0.2-0.1,0.4-0.3,0.6-0.4s0.3-0.2,0.6-0.4l4.9-2.9l5-2.9
				c0.6-0.4,1.2-0.8,1.6-1.2c0.1-0.1,0.2-0.2,0.3-0.3c0.3-0.3,0.6-0.7,0.9-1c0.1-0.2,0.2-0.3,0.3-0.4c0.2-0.4,0.4-0.8,0.6-1.2
				c0.1-0.1,0.1-0.2,0.1-0.3c0.1-0.5,0.2-0.9,0.2-1.4c0-0.2,0-0.3-0.1-0.5c0-0.4-0.1-0.7-0.2-1c-0.1-0.2-0.1-0.3-0.2-0.5
				c-0.2-0.4-0.5-0.9-0.9-1.3c0,0,0-0.1-0.1-0.1c-0.3-0.4-0.6-0.8-0.8-1.2c0-0.1-0.1-0.2-0.1-0.4c-0.1-0.3-0.1-0.6-0.2-0.9
				c0-0.1-0.1-0.1-0.1-0.2s0.1-0.2,0.1-0.2c0-0.4,0.1-0.7,0.3-1.1c0-0.1,0-0.2,0.1-0.3c0.2-0.4,0.5-0.8,0.9-1.2
				c0.1-0.1,0.2-0.2,0.3-0.3c0.3-0.3,0.7-0.5,1.1-0.8c0.2-0.1,0.3-0.2,0.5-0.3c0.5-0.3,1.2-0.6,1.9-0.8l12.4-3.7l4.5-1.3
				c0.7-0.2,1.5-0.4,2.3-0.7c0,0,0,0,0.1,0c2.3-0.6,5.2-1.3,7.9-1.8l10-10.7l2.6-2.8c1.1-1.2,1.6-2.1,1.6-2.7c0,0,0,0-0.1-0.1
				c21.4-6.6,33.3-13.7,50.6-29.9c-21.7,17.5-49.6,17.5-71.3,34.9l-11.2,3.6c-0.7,0.2-1.3,0.4-1.9,0.5c-0.1,0-0.2,0-0.3,0
				c-0.4,0.1-0.8,0.1-1.1,0.1c-0.1,0-0.1,0-0.2,0c-0.2,0-0.4,0-0.6,0l0,0c-0.3-0.1-0.4-0.2-0.6-0.3c0,0,0,0-0.1-0.1
				s-0.2-0.3-0.2-0.4v-0.1v-0.1c0-0.2,0.1-0.4,0.2-0.6c0,0,0-0.1,0.1-0.1c0.1-0.2,0.2-0.4,0.4-0.7c0.1-0.1,0.1-0.1,0.2-0.2
				c0.2-0.3,0.5-0.6,0.9-1l0,0l0.2-0.2l4.5-4.6c0.1-0.1,0.2-0.2,0.3-0.4c0.2-0.2,0.4-0.4,0.5-0.6c0.1-0.1,0.2-0.2,0.3-0.4
				c0.2-0.2,0.3-0.4,0.3-0.6c0.1-0.1,0.1-0.2,0.1-0.2c0.1-0.3,0.1-0.5,0.1-0.7c0-0.1,0-0.1,0-0.2c0-0.2-0.1-0.3-0.2-0.4
				c0-0.1-0.1-0.1-0.1-0.1c-0.1-0.1-0.2-0.2-0.4-0.2c-0.1,0-0.1-0.1-0.2-0.1c-0.2-0.1-0.5-0.1-0.8-0.1c-0.1,0-0.1,0-0.2,0
				c-0.8,0-1.8,0.2-3.1,0.5l-11.9,3.1l-13.6,3.5c-1.4,0.4-2.5,0.6-3.2,0.6H-95c-0.1,0-0.1,0-0.1,0c-0.2,0-0.4-0.1-0.5-0.1
				s-0.1,0-0.2-0.1c-0.1,0-0.1-0.1-0.2-0.2l-0.1-0.1c0,0,0-0.1,0.1-0.1c0,0,0-0.1,0.1-0.2s0.2-0.2,0.3-0.4c0.1-0.1,0.1-0.1,0.2-0.2
				c0.4-0.4,1.1-1,2.1-1.6l22-14c0.2-0.1,0.3-0.2,0.5-0.3c0.2-0.2,0.5-0.4,0.7-0.5c0.1-0.1,0.2-0.3,0.4-0.4c0.2-0.2,0.3-0.4,0.4-0.5
				s0.2-0.2,0.3-0.3c0.1-0.2,0.2-0.3,0.2-0.5c0-0.1,0-0.2,0-0.3c0-0.1,0-0.2,0-0.4c0-0.2-0.1-0.4-0.1-0.5c-0.1-0.1-0.2-0.2-0.3-0.3
				c-0.1-0.1-0.3-0.3-0.4-0.4s-0.3-0.2-0.4-0.2c-0.3-0.1-0.6-0.2-0.9-0.4c-0.1,0-0.3-0.1-0.4-0.1c-0.6-0.1-1.2-0.2-1.9-0.3l-1.9-0.2
				h-0.1c-0.7,0-1.3-0.1-1.8-0.3c-0.2-0.1-0.3-0.1-0.5-0.1c-0.3-0.1-0.6-0.2-0.9-0.4c-0.1-0.1-0.3-0.2-0.4-0.3
				c-0.2-0.1-0.3-0.2-0.5-0.4c-0.1-0.1-0.2-0.2-0.2-0.4c-0.1-0.1-0.1-0.3-0.2-0.5c0-0.1,0-0.2,0-0.2c0-0.1,0-0.1,0-0.2s0-0.2,0-0.2
				c0.1-0.2,0.2-0.4,0.3-0.6c0.1-0.1,0.1-0.2,0.2-0.3c0.2-0.2,0.4-0.4,0.6-0.7c0.1-0.1,0.1-0.1,0.2-0.2c0.3-0.3,0.8-0.6,1.2-0.9
				l14.8-9.8c26.6-13.7,50.7-30.2,80.6-40.4c-22.4-2.2-42,11.9-62.5,23c0-0.1-0.1-0.1-0.1-0.1c-0.1,0-0.2-0.1-0.3-0.1
				c-0.5-0.2-1-0.3-1.7-0.5c-0.3-0.1-0.5-0.2-0.8-0.2c-0.3-0.1-0.6-0.1-0.8-0.2s-0.3-0.2-0.5-0.3c-0.2-0.1-0.5-0.2-0.7-0.4
				c-0.1-0.1-0.2-0.2-0.3-0.3c-0.1-0.2-0.3-0.4-0.4-0.5c0-0.1,0-0.2-0.1-0.3c-0.1-0.2-0.1-0.4-0.1-0.6c0-0.1-0.1-0.1-0.1-0.2
				s0.1-0.2,0.1-0.3c0-0.1,0.1-0.2,0.1-0.3c0.1-0.2,0.2-0.4,0.3-0.6c0.1-0.1,0.1-0.2,0.2-0.3c0.2-0.2,0.4-0.5,0.6-0.7
				c0.1-0.1,0.1-0.1,0.2-0.2c0.3-0.3,0.7-0.7,1.2-1l26.6-18.5c1.6-1.1,2.4-2,2.4-2.5c0-0.4-0.5-0.7-1.5-0.7c-0.7,0-1.6,0.1-2.8,0.4
				l-7.7,1.7c-1,0.2-1.8,0.4-2.5,0.4c-1.7,0-2.7-0.6-2.7-1.7c0-0.7,0.4-1.7,1.2-2.8l7.7-10.2c17.8-7.9,34.1-21,41.8-41.3
				c-11.8,4.4-21.1,14.4-31.1,23c-0.1,0-0.2-0.1-0.3-0.1c-0.8,0-1.8,0.2-3.1,0.7l-12.7,4.7c-1.3,0.5-2.4,0.7-3.1,0.7
				c-0.9,0-1.4-0.3-1.3-0.9c0-0.6,0.5-1.5,1.5-2.7l20.1-23.4c1-1.2,1.5-2.4,1.6-3.3c0-1.6-1.3-2.7-3.7-2.7c-2.3,0-3.6-1-3.7-2.5
				c-0.1-1,0.5-2.2,1.6-3.6l19.5-18.1c21.9-2.6,36.5-22.4,58.2-31.6c-18.7-2.6-32.1,12.5-48.1,20.2c0-1.6-1.2-2.6-3.6-2.6
				c-0.3,0-0.8,0-1.3,0c0.2,0,0.6,0,0.8,0c4.8-2.6,11.4-7.3,17.1-11.6c-1.2,0.7-2.3,1.4-3.3,2c-1,0-2.5,0.2-3.9,0.3
				c-1.1,0.1-2.3,0.2-3.2,0.2c-1.1,0-2-0.1-2.3-0.4c-0.3-0.2-0.3-0.6,0.1-1.1l7.9-10.6l-2.6,0.7c-3.5-1-3.7-3.5-0.6-5.5l12.6-7.8
				l1.1-1.5c0.7-0.9,1-1.6,1-2.2c0-0.5-0.3-0.8-1-0.8c-0.6,0-1.3,0.2-2.3,0.6l-5.2,2.3c-1,0.4-1.8,0.6-2.4,0.6
				c-0.5,0-0.8-0.2-0.8-0.6c0-0.5,0.4-1.2,1.2-2.1l7-8.3c-1.8,0.1-3.3,0.2-4.3,0.2c-1.5,0-1.7-0.2,0.1-0.5c2.6-0.6,6.4-3.4,10.3-6.9
				l1.7-2c0.8-1,1.2-1.8,1.1-2.2c0-0.4-0.3-0.6-0.7-0.6c-0.6,0-1.3,0.2-2.3,0.7l-0.5,0.2c-1,0.5-1.8,0.7-2.3,0.7
				c-0.4,0-0.7-0.2-0.7-0.5c0-0.4,0.5-1.1,1.3-2.1l12.1-14c-1.3-0.2-1.1-1.3,0.8-3l3.7-3.9c-0.5,0.1-1.1,0.3-2,0.8l-0.9,0.6
				c-1.1,0.6-1.9,0.9-2.3,0.9c-0.2,0-0.3-0.1-0.3-0.3c0-0.4,0.5-1,1.4-2l9.3-10.1l-0.2,0.8l0.7-0.5l19.3-16v2.9l25,21.3l-3.6-0.9
				c-0.4,0-3.3,5.2,0,8.7h0.1c0.9,0.2,2.6,2.5,3.2,3.5c5.2,5.3,11.4,11,15.1,11.8c0.3,0.1,0.6,0.1,0.8,0.2c0.3,0.1,0.4,0.1,0.4,0.2
				s-0.1,0.1-0.4,0.1c-0.1,0-0.3,0-0.5,0c-0.5,0-1.2,0-2,0c-0.9-0.1-2-0.1-3.2-0.2l2.2,2.6c0.2,0,0.3,0,0.4,0.1
				c0.1,0.3,0.2,0.6,0.4,0.9l7.6,8.8c0.9,1,1.4,1.8,1.5,2.3h-0.1l10.2,12.1c1.8,2.1,1.9,3.4,0.5,3.4c-0.6,0-1.6-0.3-2.9-0.8
				l-0.7-0.3c-0.5,0.8-1.5,1.4-3.1,1.8l-5.4-1.4l19.4,25.9c0.4,0.1,0.8,0.3,1.1,0.4c2.4,0.8,2,1,0,1l0,0l2.2,3
				c1.1,1.5-0.4,1.9-2.7,1.9c-1.4,0-3.2-0.2-4.8-0.3c-1.7-0.2-3.4-0.3-4.4-0.3c-1.6,0-2.6,0.4-3.1,1.2l20,8.2
				c3.4,1.4,3.9,2.3,1.3,2.3c-0.5,0-1.2-0.1-1.9-0.1c0,0-6.8-0.8-13.7-1.4l6.3,5.8c10.5,3.6,20.9,7.1,20.9,7.1
				c3.8,1.2,4.1,2.2,1.1,2.2c-0.5,0-0.9,0-1.5,0l-11.3-0.7l3.4,3.2c-24.3-10-49.9-16.5-75.5-27c22.2,21.8,49.3,27,74.8,37.8
				c-0.3,0.3-0.6,0.7-0.6,1.2l10.4,9.1c2.3,2,2.7,3.1,1.2,3.1c-0.7,0-1.7-0.2-3.1-0.7l-0.8-0.2l13.5,15.6c2,2.3,1.9,3.6,0.2,3.6
				c-0.7,0-1.8-0.2-3.1-0.7l-12.4-4.7c-1-0.4-1.9-0.6-2.6-0.7c-0.2,0-0.3,0-0.5,0c-1.9,0-2.2,1.4-0.5,3.8l0.2,0.3l18.1,24.1
				c2.1,2.7,1.3,4.5-1.5,4.5c-0.7,0-1.6-0.1-2.5-0.3l-3.4-0.8c-21.6-7.8-45.7-9.9-65.7-21.3c21.2,20.5,51.4,24.4,76,34.3l10,6.9
				c1.1,0.8,1.9,1.5,2.2,2.3c0.7,1.2,0.3,2.4-0.9,3.2c-0.6,0.4-1.4,0.7-2.6,1c-4.6,0.9-5.1,3.9-1.3,6.4l31.7,21
				c4,2.6,3.1,5.1-1.9,5.5l-2,0.2c-5.1,0.4-6,2.9-1.9,5.5l21.7,13.8c2.9,1.8,3.3,2.9,1.6,2.9c-0.7,0-1.8-0.2-3.2-0.6l-25.1-6.5
				c-1.2-0.3-2.3-0.5-3-0.5c-2.5,0-2.7,1.5-0.3,3.9l4.6,4.7c2.3,2.3,2.2,3.6,0.3,3.6c-0.8,0-1.9-0.2-3.4-0.7l-26.7-8.7
				c-0.8-0.3-1.6-0.5-2.2-0.6c-0.4-0.1-0.8-0.1-1.1-0.1c-0.2,0-0.3,0-0.4,0c-15-8.1-28.9-20.5-47.2-20.5
				c16.4,10.5,32.8,21.1,50.5,27.2l9.5,10.2c3.6,0.7,7.4,1.6,10,2.4l4,1.2l12.6,3.8c4.5,1.3,6.3,4.7,3.9,7.4
				c-2.5,2.7-1.3,6.8,2.6,9.1l9.8,5.7c3.9,2.3,3.1,4.2-1.9,4.3h-7.5c-4.9,0-5.9,2-2.1,4.4l1.7,1.1c0.6,0.4,1.1,0.7,1.5,1.1l10.7,3
				c5.2,1.5,7.2,5.1,4.5,8.1c-0.1,0.1-0.2,0.2-0.3,0.4c-44.2,2.9-98,21.6-125.3-24.6c23.6,53.2,92.1,37,141.6,44.2
				c-0.8,0.4-2.1,0.7-4.1,0.7L234.4,1783.9z M160.1,1708.7c1.5,0.5,2.7,0.8,3.4,0.8c0.3,0,0.6,0,0.7-0.1c-1.4-0.2-2.2-0.4-2.2-0.4
				C161.3,1708.9,160.7,1708.8,160.1,1708.7z M116.5,1488.2c-0.2,0.6,0.1,1.6,1.1,3C117,1490.4,116.7,1489.3,116.5,1488.2z
				 M88.8,1458.7l3.2,4.3h0.2c0,0,4.3,0.4,9.4,0.9c-0.9-0.9-1.7-1.7-2.6-2.6c-3.8-0.4-7-0.7-7-0.7h-0.1l-2.6-3.4
				c-0.3-0.4-0.5-0.7-0.7-1.1c-0.2-0.1-0.3-0.1-0.4-0.1C87.3,1456,87.5,1457,88.8,1458.7z"/>
		</g>
	</g>
</g>
<linearGradient id="SVGID_27_" gradientUnits="userSpaceOnUse" x1="543.2001" y1="2326.7981" x2="543.2001" y2="343.0496">
	<stop  offset="5.586590e-03" style="stop-color:#FFFED1"/>
	<stop  offset="0.9888" style="stop-color:#FFFED1;stop-opacity:0"/>
</linearGradient>
<rect x="-32.2" y="180" class="st17" width="1150.8" height="1772.8"/>
</svg>
