<?xml version="1.0" encoding="utf-8"?>
<!-- Generator: Adobe Illustrator 21.0.0, SVG Export Plug-In . SVG Version: 6.00 Build 0)  -->
<svg version="1.1" id="Layer_1" xmlns="http://www.w3.org/2000/svg" xmlns:xlink="http://www.w3.org/1999/xlink" x="0px" y="0px"
	 viewBox="0 0 1080 1920" style="enable-background:new 0 0 1080 1920;" xml:space="preserve">
<style type="text/css">
	.st0{clip-path:url(#SVGID_2_);}
	.st1{fill:url(#SVGID_3_);}
	.st2{fill:url(#SVGID_4_);}
	.st3{clip-path:url(#SVGID_6_);}
	.st4{clip-path:url(#SVGID_8_);}
	.st5{clip-path:url(#SVGID_10_);}
	.st6{fill:url(#SVGID_11_);}
	.st7{fill:#EEF9FF;}
	.st8{opacity:0.5;fill:#DFEFF7;enable-background:new    ;}
	.st9{fill:#DFEFF7;}
	.st10{opacity:0.23;fill:#FFFFFF;enable-background:new    ;}
	.st11{opacity:0.58;fill:#C7DDE5;enable-background:new    ;}
	.st12{fill:#EEFBFF;}
	.st13{opacity:0.51;fill:#C1CDD6;enable-background:new    ;}
	.st14{opacity:0.54;fill:url(#SVGID_12_);enable-background:new    ;}
	.st15{fill:#80DDDA;}
	.st16{fill:#D7E8F2;}
	.st17{fill:#E4F1F9;}
	.st18{fill:#D6E4EA;}
	.st19{fill:#C9DCF2;}
	.st20{fill:#FAFBFC;}
	.st21{fill:#FFFFFF;}
	.st22{fill:#C6E3F4;}
	.st23{fill:#7894C4;}
	.st24{fill:#8FD1C4;}
	.st25{fill:#63AECE;}
	.st26{fill:#4497A5;}
	.st27{fill:#89A7D3;}
	.st28{fill:#FDFFFF;}
	.st29{fill:#E8F7FC;}
</style>
<title>softsnow</title>
<g>
	<defs>
		<rect id="SVGID_1_" x="-3" y="-48.5" width="1084.9" height="1968.5"/>
	</defs>
	<clipPath id="SVGID_2_">
		<use xlink:href="#SVGID_1_"  style="overflow:visible;"/>
	</clipPath>
	<g class="st0">
		
			<image style="overflow:visible;enable-background:new    ;" width="187" height="187" xlink:href="A8B7CB024F07F12A.png"  transform="matrix(1 0 0 1 922.5 322.5)">
		</image>
	</g>
	<g class="st0">
		
			<image style="overflow:visible;enable-background:new    ;" width="187" height="186" xlink:href="A8B7CB024F07F12E.png"  transform="matrix(1 0 0 1 779.5 562.5)">
		</image>
	</g>
	<g class="st0">
		
			<image style="overflow:visible;enable-background:new    ;" width="187" height="187" xlink:href="A8B7CB024F07F129.png"  transform="matrix(1 0 0 1 632.5 1531.5)">
		</image>
	</g>
	<g class="st0">
		
			<image style="overflow:visible;enable-background:new    ;" width="187" height="187" xlink:href="A8B7CB024F07F12B.png"  transform="matrix(1 0 0 1 -96.5 950.5)">
		</image>
	</g>
	<g class="st0">
		
			<image style="overflow:visible;enable-background:new    ;" width="187" height="187" xlink:href="A8B7CB024F07F128.png"  transform="matrix(1 0 0 1 463.5 365.5)">
		</image>
	</g>
	<g class="st0">
		
			<linearGradient id="SVGID_3_" gradientUnits="userSpaceOnUse" x1="-1124.8402" y1="103.3198" x2="-1372.4702" y2="563.1998" gradientTransform="matrix(1 0 0 -1 0 1919)">
			<stop  offset="0" style="stop-color:#000000"/>
			<stop  offset="1" style="stop-color:#FFFFFF"/>
		</linearGradient>
		<polygon class="st1" points="191.3,2228.8 -802.4,2207.5 -1793.9,1559.1 -2084.7,1612.1 -2226.3,1355.6 -2809.3,699.7 
			-2863,618.8 -2612.3,809.1 -2332.4,1021.6 -2244,1231.8 -2084.7,1143.4 -846.6,1904 -86.1,2207.5 		"/>
	</g>
	<g class="st0">
		
			<linearGradient id="SVGID_4_" gradientUnits="userSpaceOnUse" x1="-289.47" y1="872.16" x2="-289.47" y2="2616.1001" gradientTransform="matrix(1 0 0 -1 0 1919)">
			<stop  offset="0" style="stop-color:#FFFFFF"/>
			<stop  offset="1" style="stop-color:#808080"/>
		</linearGradient>
		<path class="st2" d="M3480.6-560.2v2358.1L426.9,1691.7L2.4,1559.1l-389.1-185.8c0,0-265.3,141.5-796,283
			c-462.5,123.3-2389.3,139.1-2876.8,141.2V-560.2H3480.6z"/>
	</g>
	<g class="st0">
		<defs>
			<rect id="SVGID_5_" y="-48.5" width="1080" height="1968.5"/>
		</defs>
		<clipPath id="SVGID_6_">
			<use xlink:href="#SVGID_5_"  style="overflow:visible;"/>
		</clipPath>
		<g class="st3">
			<g>
				<defs>
					<rect id="SVGID_7_" x="-7.8" y="-545.2" width="1096.5" height="3173.1"/>
				</defs>
				<clipPath id="SVGID_8_">
					<use xlink:href="#SVGID_7_"  style="overflow:visible;"/>
				</clipPath>
				<g class="st4">
					<g>
						<defs>
							<rect id="SVGID_9_" x="-4059.5" y="-622.9" width="7540" height="4349.7"/>
						</defs>
						<clipPath id="SVGID_10_">
							<use xlink:href="#SVGID_9_"  style="overflow:visible;"/>
						</clipPath>
						<g class="st5">
							<g>
								
									<linearGradient id="SVGID_11_" gradientUnits="userSpaceOnUse" x1="-289.47" y1="894.2021" x2="-289.47" y2="2682.1663" gradientTransform="matrix(1 0 0 -1 0 1919)">
									<stop  offset="0" style="stop-color:#FFFFFF"/>
									<stop  offset="1" style="stop-color:#A2BED7"/>
								</linearGradient>
								<path class="st6" d="M3480.6-622.9v2417.6L426.9,1686L2.4,1550l-389.1-190.4c0,0-265.3,145.1-796,290.1
									c-462.5,126.4-2389.3,142.6-2876.8,144.8V-622.9H3480.6z"/>
							</g>
							<path class="st7" d="M3480.6,1794.8v1928.1h-7540V1794.5c487.5-2.1,2414.3-18.3,2876.8-144.8
								c530.6-145.1,1015.8-330.2,1015.8-330.2l576.1-105l1184.3,513.1L3480.6,1794.8z"/>
							<path class="st8" d="M3480.6,1794.8v1928.1h-7540v-778.9l206-79.2c0,0,3838.1-761.7,4156.5-1069.9
								c315.5-305.5,109.9-575.4,106.2-580.2l1101.6,477.2L3480.6,1794.8z"/>
							<path class="st9" d="M3480.6,706.7v3016.1h-7540V1287c0,0,1237.9-177.2,1447.1-288.1S-2067,851.8-2067,851.8l434.2,269.8
								l149.4,92.9l389.1-72.6l0.8,0.4c0.6,0.3,1.4,0.8,2.5,1.3c18.9,9.9,115.7,60.7,253.5,129.9l3.6,1.8
								c339,170.3,921,449.9,1201.2,509.5c19.7,4.3,39.5,7.6,59.5,9.8c353.7,36.2,955.1-326.4,955.1-326.4l479.6-137.7l404.8-116.2
								L3480.6,706.7z"/>
							<path class="st10" d="M1209.3,2450.1c7.7,22.7-1109.8-546.5-1109.8-546.5l26.9-23l240.9-95.6c19.7,4.3,39.5,7.6,59.5,9.8
								c353.7,36.2,955.1-326.4,955.1-326.4l479.6-137.7c191.5,18,480.6,16,811.6-84.8C3268.6,1064.6,1201.6,2427.4,1209.3,2450.1z"
								/>
							<polygon class="st11" points="391.5,1903.6 -1394.9,1550 -1607.2,1903.6 -2084.7,998.9 -1632.8,1121.6 -1483.4,1214.5 
								-1094.3,1141.9 -1093.4,1142.4 -1090.9,1143.7 -837.4,1273.6 -833.8,1275.5 							"/>
							<path class="st12" d="M-4059.5,1604.4v-589c0,0,259-72.8,418.2-217.9S-3199.1,471-3199.1,471l318.4-108.8l689.8,636.8
								l400.7,80l819.7,471.1l681,353.6c0,0,681,127,1229.3,217.6c548.3,90.7,2540.7,93.6,2540.7,93.6v450.4l-7540,181.3
								L-4059.5,1604.4z"/>
							<polygon class="st13" points="1258.2,2320.7 -705.1,2320.7 -1784.1,1794.8 -2261.6,1903.6 -2509.2,1341.4 -2456.2,1214.5 
								-2809.3,668.9 -2863,586 -2612.3,781 -2332.4,998.9 -2244,1214.5 -2084.7,1123.8 -846.6,1903.6 -86.1,2214.8 191.3,2236.6 
															"/>
							<g>
								
									<linearGradient id="SVGID_12_" gradientUnits="userSpaceOnUse" x1="-1122.2051" y1="110.9524" x2="-1372.9274" y2="576.5752" gradientTransform="matrix(1 0 0 -1 0 1919)">
									<stop  offset="0" style="stop-color:#FFFFFF"/>
									<stop  offset="1" style="stop-color:#C3D0E5"/>
								</linearGradient>
								<polygon class="st14" points="191.3,2236.6 -802.4,2214.8 -1793.9,1550 -2084.7,1604.4 -2226.3,1341.4 -2809.3,668.9 
									-2863,586 -2612.3,781 -2332.4,998.9 -2244,1214.5 -2084.7,1123.8 -846.6,1903.6 -86.1,2214.8 								"/>
							</g>
							<path class="st15" d="M1085.2,1952.1l-4.3-3.9l-5.9-5.4l5.8,3l3.9,2.1l-3.2-30.5l-2.2-1.1l-2.1-1l2.1,0.4l2.1,0.4l-3.6-34.5
								l0,0l-2.5-24.1l-2.4,13.9l-4.8,27.7l4.5-2l-4.8,3.5l-6.4,37.1l5.9-4.6l6-4.7l-6.2,6.2l-6.2,6.2l-6.3,36.3l7.6-7.9l6.1-6.3
								l-6.4,8.8l-8.3,11.3l-3.2,18.7l8.2-0.2l17.3-0.5l4.7-0.1l9.7-0.3L1085.2,1952.1z"/>
							<polygon class="st16" points="-174.5,2320.7 1081.3,1976.1 2605.8,1361.7 3009.2,998.9 3480.6,706.7 3480.6,2665.2 
								-289.5,2755.9 -2385.4,2846.5 1382,2393.2 							"/>
							<polygon class="st17" points="-4059.5,1451.2 -3570.5,998.9 -3128.3,851.8 -2951.4,489.1 -2863,1214.5 -2756.9,1051.3 
								-2385.4,2030.5 -1837.1,2121.2 -802.4,2468.6 -174.5,2468.7 3480.6,2665.2 3480.6,3807.6 -4059.5,3722.8 							"/>
							<polygon class="st18" points="-4059.5,1794.5 -3592,1214.5 -3322.9,999 -3322.9,1168.5 -2912.3,810.5 -2863,1214.5 
								-2756.9,1293.6 -2863,1832.1 -2297,2214.8 -687.4,2665.2 3480.6,2665.2 3480.6,3722.8 -4059.5,3722.8 							"/>
							<path class="st19" d="M403.7,1799.7c152.8,16,302,57.8,441.5,123.8c35.1,16.6,74.6,42.8,74,82.4
								c-0.4,28.7-22.7,51.9-45.8,68.1c-42.9,30.2-92.9,47.6-142.7,62.8c-190.7,58.3-387.8,89.5-584.4,117.9
								c-98.6,14.3-197.4,27.7-295.8,43.6c-84.6,13.7-190.9,18.3-269,56.4c-8.8,4.3-17.5,9.7-22.9,18c-9.5,14.6-6,35.1,4.1,49.3
								s25.5,23.3,40.8,31.2c126.3,64.9,270.3,70.1,407.8,88.6c149.5,20,300.4,32,451,37.4c168.8,6.1,337.8,7.3,506.7,5.1
								c84.5-1.2,169-3.8,253.4-7c84.4-3.1,168.9-7.2,253.2-12.5c-42.2,2.8-84.4,5.4-126.6,7.9c-42.2,2.4-84.4,4.8-126.6,7
								c-84.4,4.3-168.9,7.9-253.4,10.5c-169,5.8-338.1,8.2-507.2,5.7c-172.6-2.5-345.4-8.2-517.1-27.6
								c-137.7-15.6-338.7-6.2-436.7-127.6c-14.8-18.3-26.5-40.8-25.8-64.6c0.8-30.1,21.5-56.7,46.7-72s54.7-21.4,83.6-26.8
								c404-76,823-79.7,1213.1-211.8c29.3-9.9,63.7-27.4,65-59c1.3-30.5-29.3-50.9-56.2-64C697.6,1875.7,552.7,1827.6,403.7,1799.7
								z"/>
							<path class="st20" d="M883.3,2046.7l-120.1,43.8l-118.5,27.3c0,0-287,70.7-298.6,72.4c-11.6,1.7-351.1,30.8-351.1,30.8
								l-149.7,15.3l-1.7,0.2c0.1-0.1,0.2-0.2,0.3-0.4c19.6-23.4,40.5-45.6,62.5-66.5c48.9-46.6,118.6-101.2,180.8-105.8
								c110.1-8,137.6,16.1,263.3-48.4c125.8-64.5,161.7-191.7,161.7-191.7l244.7,75.4c9.4,2.9,18.4,7,26.8,12.1l80.7,49.2l21.8,19
								C904.7,1995.5,904.5,2034.6,883.3,2046.7z"/>
							<polygon class="st21" points="-1090.9,1143.7 -763.7,1264 -710.7,1264 445.5,1803.4 403.7,1799.7 191.3,1733.8 391.5,1862.4 
								473.3,1903.6 391.5,1903.6 -62.2,1669 -486.9,1453.3 							"/>
							<path class="st21" d="M53.5,1279.3l355.7-64.8l36.2,64.8c0,0-313.1,230.2-313.1,234.4S321,1276.1,321,1276.1l-372.5,247.5
								l242.8-211.2l-480.7,98.9l367.4-111L53.5,1279.3z"/>
							<polygon class="st21" points="500.8,1762.7 487.5,1832.1 509.4,1832.1 							"/>
							<polygon class="st21" points="445.5,1712.8 427.1,1814 455.1,1814 							"/>
							<polygon class="st21" points="403.7,1799.7 416.8,1712.8 427.1,1814 391.5,1814 							"/>
							<polygon class="st21" points="473.3,1840 478.8,1776.6 492,1840 							"/>
							<path class="st22" d="M460.1,2139.9l-24.7,0.7l-12,0.3l-44,1.2l-20.9,0.6l8.2-47.4l21-28.7l16.3-22.2l-15.5,16l-19.1,19.9
								l16-92.1l15.6-15.7l15.7-15.8l-15.1,11.8l-14.9,11.7l16.4-94.2l12.1-8.9l-11.4,5l12.2-70.4l6.1-35.3l6.4,61.1l0,0l9.2,87.5
								l-5.3-1.1l-5.3-1.1l5.4,2.7l5.5,2.8l8.1,77.3l-10-5.1l-14.7-7.5l14.9,13.6l10.9,9.9L460.1,2139.9z"/>
							<path class="st23" d="M423.4,2141l-44,1.2l-20.9,0.6l8.2-47.4l21-28.7l16.2-22.2l-15.5,16l-19.1,19.9l16-92.1l15.6-15.7
								l15.7-15.8l-15.1,11.8l-14.9,11.7l16.4-94.2l12.1-8.9l-11.4,5l12.2-70.4C419.2,1908.7,422.9,2070.1,423.4,2141z"/>
							<path class="st24" d="M292.8,2157.6l-24.7,0.7l-12,0.3l-43.9,1.2l-20.9,0.6l8.2-47.4l21-28.7l16.2-22.2l-15.5,16.1
								l-19.1,19.9l16-92.1c5-5,10.6-10.6,15.7-15.7l15.7-15.8l-15.1,11.8l-14.9,11.7l16.3-94.2l12.1-8.9l-11.4,5l12.2-70.4
								l6.1-35.3l6.4,61.1l0,0l9.2,87.5l-5.3-1.1l-5.3-1.1l5.4,2.7l5.5,2.8l8.1,77.3l-10-5.1l-14.7-7.6l14.9,13.6l10.9,9.9
								L292.8,2157.6z"/>
							<path class="st25" d="M256.2,2158.6l-43.9,1.2l-20.9,0.6l8.2-47.4l21-28.7l16.2-22.2l-15.5,16.1l-19.1,19.9l16-92.1
								c5-5,10.6-10.6,15.7-15.7l15.7-15.8l-15.1,11.8l-14.9,11.7l16.3-94.2l12.1-8.9l-11.4,5l12.2-70.4
								C252,1926.4,255.6,2087.7,256.2,2158.6z"/>
							<path class="st26" d="M948,1991.8l-4.3-3.9l-5.9-5.4l5.8,3l4,2.1l-3.2-30.5l-2.2-1.1l-2.1-1l2.1,0.4l2.1,0.4l-3.6-34.5l0,0
								l-2.5-24.1l-2.4,13.9l-4.8,27.7l4.5-2l-4.8,3.5l-6.4,37.1l5.9-4.6l6-4.7l-6.2,6.2l-6.2,6.2l-6.3,36.3l7.5-7.9l6.1-6.3
								l-6.4,8.8l-8.3,11.3l-3.2,18.7l8.2-0.2l17.3-0.5l4.7-0.1l9.7-0.3L948,1991.8z"/>
							<path class="st27" d="M993.1,2058.9l-9.7,0.3l-4.7,0.1l-17.3,0.5l-8.2,0.2l3.2-18.7l8.3-11.3l6.4-8.8l-6.1,6.3l-7.5,7.8
								l6.3-36.3l6.2-6.2l6.2-6.2l-6,4.7l-5.9,4.6l6.4-37.1l4.8-3.5l-4.5,2l4.8-27.7l2.4-13.9l2.5,24.1l0,0l3.6,34.5l-2.1-0.4
								l-2.1-0.4l2.1,1l2.2,1.1l3.2,30.5l-3.9-2.1l-5.8-3l5.9,5.4l4.3,3.9L993.1,2058.9z"/>
							<path class="st28" d="M3480.6,1794.8v1928.1l-6766.5,8.7l0.1-0.1c11.9-2.3,776.5-154.3,1998.7-656.8
								C-884.8,2909.4-438.7,2767.5,9,2648.5c923.1-245.2,1853.8-393.3,2425.4-450.2L3480.6,1794.8z"/>
							<path class="st29" d="M3480.6,3722.8h-7540V1897.1c0,0,2.5,0.5,7.4,1.7c13.9,3.1,47.3,10.6,98.4,21.9
								c286.5,63.3,1129.5,246.3,2214.6,450.2c408.6,76.8,720.8,130.1,984.7,168.3c234.8,34,431.4,56,623.8,72
								c304,25.3,597.2,35.5,1013.8,54C1859.7,2708.6,3480.6,3722.8,3480.6,3722.8z"/>
						</g>
					</g>
				</g>
			</g>
		</g>
	</g>
</g>
</svg>
