<?xml version="1.0" encoding="utf-8"?>
<!-- Generator: Adobe Illustrator 21.0.0, SVG Export Plug-In . SVG Version: 6.00 Build 0)  -->
<svg version="1.1" id="Layer_1" xmlns="http://www.w3.org/2000/svg" xmlns:xlink="http://www.w3.org/1999/xlink" x="0px" y="0px"
	 viewBox="0 0 1080 1920" style="enable-background:new 0 0 1080 1920;" xml:space="preserve">
<style type="text/css">
	.st0{clip-path:url(#SVGID_2_);}
	.st1{clip-path:url(#SVGID_4_);}
	.st2{fill:url(#SVGID_5_);}
	.st3{clip-path:url(#SVGID_8_);}
	.st4{clip-path:url(#SVGID_9_);}
	.st5{fill:url(#SVGID_10_);}
	.st6{fill:url(#SVGID_11_);}
	.st7{opacity:0.16;fill:#FFC350;enable-background:new    ;}
	.st8{fill:url(#SVGID_12_);}
	.st9{opacity:7.000000e-02;fill:#FFC350;enable-background:new    ;}
	.st10{opacity:9.000000e-02;fill:#FFC350;enable-background:new    ;}
	.st11{opacity:0.22;fill:#491F0D;enable-background:new    ;}
	.st12{opacity:0.26;fill:#491F0D;enable-background:new    ;}
	.st13{fill:url(#SVGID_13_);}
</style>
<title>dangerousdesert</title>
<g>
	<defs>
		<rect id="SVGID_1_" y="-4" width="1080" height="1924"/>
	</defs>
	<clipPath id="SVGID_2_">
		<use xlink:href="#SVGID_1_"  style="overflow:visible;"/>
	</clipPath>
	<g class="st0">
		<g>
			<defs>
				<rect id="SVGID_3_" x="-1" y="-1226" width="1083.9" height="3165.6"/>
			</defs>
			<clipPath id="SVGID_4_">
				<use xlink:href="#SVGID_3_"  style="overflow:visible;"/>
			</clipPath>
			<g class="st1">
				
					<linearGradient id="SVGID_5_" gradientUnits="userSpaceOnUse" x1="118.8999" y1="778.7712" x2="118.8999" y2="2808.6113" gradientTransform="matrix(1 0 0 -1 0 1919)">
					<stop  offset="0" style="stop-color:#FF9D00"/>
					<stop  offset="1" style="stop-color:#FF7400"/>
				</linearGradient>
				<rect x="-2101" y="-1157.1" class="st2" width="4439.9" height="3263.2"/>
				<g>
					<defs>
						<rect id="SVGID_6_" x="-2101" y="-1157.1" width="4439.9" height="3263.2"/>
					</defs>
					<defs>
						<rect id="SVGID_7_" x="-2101" y="-1157.1" width="4439.9" height="3263.2"/>
					</defs>
					<clipPath id="SVGID_8_">
						<use xlink:href="#SVGID_6_"  style="overflow:visible;"/>
					</clipPath>
					<clipPath id="SVGID_9_" class="st3">
						<use xlink:href="#SVGID_7_"  style="overflow:visible;"/>
					</clipPath>
					<g class="st4">
						
							<linearGradient id="SVGID_10_" gradientUnits="userSpaceOnUse" x1="127.78" y1="778.7712" x2="127.78" y2="2808.6113" gradientTransform="matrix(1 0 0 -1 0 1919)">
							<stop  offset="0" style="stop-color:#FF9D00"/>
							<stop  offset="1" style="stop-color:#FF7400"/>
						</linearGradient>
						<rect x="-2474" y="-1418.2" class="st5" width="5203.5" height="3818"/>
					</g>
					<g class="st4">
						
							<linearGradient id="SVGID_11_" gradientUnits="userSpaceOnUse" x1="481.35" y1="-67.2878" x2="481.35" y2="315.1472" gradientTransform="matrix(1 0 0 -1 0 1919)">
							<stop  offset="0" style="stop-color:#FF9D00"/>
							<stop  offset="1" style="stop-color:#FF6600"/>
						</linearGradient>
						<path class="st6" d="M-389,1267.4h72.9l32,27.5l7.1,91.4l32,20.3l53.4,57.6v62.5h48L-36,1589l285.5,25.5l81.8-41.2l32,9.2
							l39.1,135.2h43.1l54.6-61.5l17.9-55.4l24.9-11.8l19.6,32.8c0,0,3.4,47.6,12.4,65.3c9,17.6,23.3,30.6,23.3,30.6h27.5l13.3-67.1
							l26-112.8l103.8-45.2l8.9,90l61.7,79.2l215.8,11l106.8-208.6l24.9-94.8l47.6-41.2l41.4,19.8l35.5,178.7l58,160.4l-74.5,313.3
							H-406.8L-389,1267.4z"/>
						<polygon class="st7" points="543.2,1588.9 523.6,1680.2 445.7,1717.7 500.3,1656.2 518.2,1600.8 						"/>
						<polygon class="st7" points="625.9,1717.7 702.7,1521.4 665.2,1537.8 						"/>
						
							<linearGradient id="SVGID_12_" gradientUnits="userSpaceOnUse" x1="812.3845" y1="-173.743" x2="649.1863" y2="279.3718" gradientTransform="matrix(1 0 0 -1 0 1919)">
							<stop  offset="0" style="stop-color:#FF8000"/>
							<stop  offset="1" style="stop-color:#CF4A00"/>
						</linearGradient>
						<path class="st8" d="M319.5,1738.5l33.4-98.5l67.6-25.5l55.5,9.8c0,0,13.6,54.9,24.4,62.8l25.8,10.8c0,0,13.6,44.1,28.7,57.9
							c15,13.8,95,0,95,0l53-125.5l30.9-192.2l9.5-72.6l116.6-50.7l37.4,21.2l24.9-41.1c0,0,38.2-16.7,51.6-14.8
							c13.3,2,61.4,11.8,61.4,11.8s39.1,54.9,52.5,68.6l7.1,25.8l35.6,22.3l13.3,142.1l173.5,385.4l-1115.3,27.5L319.5,1738.5z"/>
						<polygon class="st9" points="310.7,1792.2 379,1656.2 415.1,1633.1 476,1624.3 420.4,1614.5 352.8,1640 319.5,1738.5 
							276.3,1820.9 						"/>
						<path class="st10" d="M540.5,1774.3h24.9l84.5-18.7c0,0-80,13.7-95,0s-28.7-57.9-28.7-57.9l-25.8-10.8l17,19.4L540.5,1774.3z"
							/>
						<path class="st9" d="M733.7,1438l-30.8,192.2l-53,125.5l-63.1,90l72.9,17.4c0,0,43.7-59.3,51.7-79.9s23.1-111.8,23.1-111.8
							l17.8-88.3l-14.2,12.7l-19.6,45.1l8.9-57.9l32-101l11.6-116.7l89-50.7l-116.6,50.7L733.7,1438z"/>
						<path class="st11" d="M859.8,1314.7c0,0,0.4,47,0,61s-3.1,64-3.1,64l-8,60.3l5.7,50.6l9-64.6l28-128.7l5.8-21.3L859.8,1314.7z
							"/>
						<path class="st9" d="M854.3,1550.6l-5.7,76.6l-25.3,97.1l-91.6,144.1l74.7,16.7l32.9-154.4l33.6-113.2l3.8-114.7l36.5-164.7
							l16.1-34.3l40.9-17.6l64.9,5.9c0,0-48-9.8-61.4-11.8c-13.4-2-51.6,14.7-51.6,14.7l-24.9,41.1l-33.8,150L854.3,1550.6z"/>
						<polygon class="st12" points="1002.1,1314.8 954.1,1494.9 989.7,1704.7 976.8,1944.5 1317,1936.1 1143.5,1550.6 
							1130.2,1408.6 1094.6,1386.3 1115.1,1557.6 1068.8,1533.1 1035,1476.2 1042.1,1418.4 1035,1371.3 1035,1291.9 						"/>
						
							<linearGradient id="SVGID_13_" gradientUnits="userSpaceOnUse" x1="287.2857" y1="-96.3707" x2="395.8765" y2="440.7824" gradientTransform="matrix(1 0 0 -1 0 1919)">
							<stop  offset="0" style="stop-color:#F06500"/>
							<stop  offset="0.18" style="stop-color:#DE5300"/>
							<stop  offset="0.48" style="stop-color:#C73C00"/>
							<stop  offset="0.76" style="stop-color:#BA2F00"/>
							<stop  offset="1" style="stop-color:#B52A00"/>
						</linearGradient>
						<path class="st13" d="M792,1854.8l-0.3-25.1c3.7-3.7,7.3-7.6,10.7-11.6c3.3-4.4,6.7-18,7.3-23.5c0.7-5.5,3-15.4,0-15
							s-4.3,19.9-8.7,29.8c-2.1,4.8-5.4,9-9.4,12.2l-0.2-19.2c0,0,3.1-47.1-2.7-47.1c-4.7,0-4.7,29.4-4.5,50.6
							c-3.4-4-6.4-8.4-8.8-13.1c-4-8.5-4.7-18.4-7.3-18.4s-1.3,9.2,0,15c1.1,4.7,11.9,20.6,16.2,26.9c0,0.8,0,1.5,0,2.2v35.6
							c0,5.4-4,9.8-9,9.7l-30.6-0.7c0,0-99.9-34.8-146.3-32.9c-46.3,2-229.5-72.5-229.5-72.5l-69.4-172.6l-69.4-35.3h-90.7
							l-21.3,33.3v-105.9c0,0-3.6-41.2-17.8-51s-96.1-72.6-108.5-76.5c-12.4-3.9-46.2,0-46.2,0l-56.9,88.3v99.8l-53.4,23.8
							l-23.1,35.3l-10.7,76.5l-37.3,74.5c0,0-51.6,49-65.8,56.9c-14.2,7.8-94.3,38.4-94.3,38.4v132.3H911.4l123.6-105.9l-234.4-5.1
							C795.8,1864.2,792,1860,792,1854.8z"/>
						<polygon class="st12" points="118,1583.1 128.2,1656.2 157.6,1680.2 168.2,1792 180.2,1819.9 188.3,1863.1 188.3,1780.2 
							178.9,1650.5 188.3,1583.1 230.1,1549.8 139.3,1549.8 						"/>
						<path class="st12" d="M-111.5,1537.8l39.1,12l19.6,29.4l8.4,158.8l32.5,187.4l42.7,28.6c0,0-12.5-72.7-15.1-90.9
							s-8-89.2-8.9-120.4c-0.9-31.2-3.6-139.1-7.1-164.6s-36.5-85.3-40-103.9c-3.5-18.6-7.1-89.2-7.1-89.2l-7.1-35.3l-56.9,88.2
							V1537.8z"/>
						<path class="st9" d="M7.5,1441.9c6,13.2,23.4,30.2,23.4,30.2l8,60.3l16,17.4l-5.3-85.8l-4.9-78.7
							C21,1368-2.1,1351.7-8.3,1349.7l9.8,46.6C1.5,1396.3,1.5,1428.7,7.5,1441.9z"/>
						<path class="st9" d="M231.8,1550.6L231.8,1550.6l57.2,40.6l18,80.9l54,95.6c0,0,36.7,37.5,51.4,47.1s108.1,30.9,108.1,30.9
							s48-10.3,67.4-10.3s71.5,3.1,71.8,3.1c-22.6-5.2-45.2-9-61.2-8.3c-46.3,2-229.5-72.6-229.5-72.6l-69.4-172.6L231.8,1550.6z"/>
					</g>
				</g>
			</g>
		</g>
	</g>
</g>
</svg>
