<?xml version="1.0" encoding="utf-8"?>
<!-- Generator: Adobe Illustrator 21.0.0, SVG Export Plug-In . SVG Version: 6.00 Build 0)  -->
<svg version="1.1" id="Layer_1" xmlns="http://www.w3.org/2000/svg" xmlns:xlink="http://www.w3.org/1999/xlink" x="0px" y="0px"
	 viewBox="0 0 1080 1920" style="enable-background:new 0 0 1080 1920;" xml:space="preserve">
<style type="text/css">
	.st0{clip-path:url(#SVGID_2_);}
	.st1{fill:url(#SVGID_3_);}
	.st2{fill:#FFFFAE;}
	.st3{fill:url(#SVGID_4_);}
	.st4{fill:url(#SVGID_5_);}
	.st5{fill:#FFFF63;}
	.st6{opacity:0.45;fill:url(#SVGID_6_);enable-background:new    ;}
	.st7{fill:none;}
</style>
<title>warmsunset</title>
<g>
	<g id="Layer_1_1_">
		<g>
			<defs>
				<rect id="SVGID_1_" y="-6.3" width="1080" height="1926.3"/>
			</defs>
			<clipPath id="SVGID_2_">
				<use xlink:href="#SVGID_1_"  style="overflow:visible;"/>
			</clipPath>
			<g class="st0">
				
					<linearGradient id="SVGID_3_" gradientUnits="userSpaceOnUse" x1="539.68" y1="-606.7565" x2="539.68" y2="2533.9207" gradientTransform="matrix(1 0 0 -1 0 1919)">
					<stop  offset="0.19" style="stop-color:#FFA65B"/>
					<stop  offset="0.49" style="stop-color:#FF6A65"/>
					<stop  offset="1" style="stop-color:#7E90FC"/>
				</linearGradient>
				<path class="st1" d="M1083.6-614.9v3140.7H-0.7V2470c-1.2-2.9-2.4-5.8-3.6-8.8h3.6V-614.9H1083.6z"/>
				<ellipse class="st2" cx="537.2" cy="1162" rx="123.4" ry="123.8"/>
				
					<linearGradient id="SVGID_4_" gradientUnits="userSpaceOnUse" x1="898.56" y1="144.0532" x2="898.56" y2="147.7855" gradientTransform="matrix(1 0 0 -1 0 1919)">
					<stop  offset="0" style="stop-color:#FFAE86"/>
					<stop  offset="0.99" style="stop-color:#CC7F9A"/>
				</linearGradient>
				<path class="st3" d="M904.8,1771.2c-1.7,1-6.2,2.3-12.5,3.7C896.5,1773.9,900.7,1772.7,904.8,1771.2z"/>
				
					<linearGradient id="SVGID_5_" gradientUnits="userSpaceOnUse" x1="541.475" y1="-606.8066" x2="541.475" y2="179.7598" gradientTransform="matrix(1 0 0 -1 0 1919)">
					<stop  offset="2.000000e-02" style="stop-color:#6F6AB8"/>
					<stop  offset="0.67" style="stop-color:#FF6A65"/>
					<stop  offset="1" style="stop-color:#FFB354"/>
				</linearGradient>
				<path class="st4" d="M1085.4,1739.2v786.6H1.1v-717.7c-1.2-3.2-2.4-6.4-3.6-9.7h3.6v-59.2h725.2c1.6,0.1,3.3,0.1,4.9,0
					L1085.4,1739.2z"/>
				<path class="st5" d="M375.3,1735.1l204.3,20.7l-367.9,12.4h495.5c0,0-378,11-384.7,13.8c-6.7,2.8,519.6,1.4,529.7,0
					c10.1-1.4-129.9-12.4-129.9-12.4s160.1-6.7,164.3-10.2s-264.8-9.8-264.8-9.8l104.8-10.3L375.3,1735.1z"/>
				<path class="st5" d="M216.6,1833.8c-5.2,0,430.1,18.2,430.1,18.2s-318.9,9.7-322.7,12.8s334,13.5,334,13.5s-223.2,3.8-233.7,6.9
					s135.9,10.9,135.9,10.9s-324.8,24.1-338.5,27.2c-13.6,3.1,631.1,2.7,637.3-0.4s-184.6-18.8-184.6-18.8s80.8-5.5,88.4-8.1
					s-134.5-6.7-134.5-6.7s138.3-2.6,141.4-3.6c3.1-1-125.7-15-125.7-15s237.6-20.2,237.6-22.8
					C881.8,1837.2,433.9,1832.7,216.6,1833.8z"/>
				<path class="st5" d="M1085.4,1727.8v10.9l-83.6,0.2c-16.1,0-32.1,0.1-48.3,0.1c-25,0-50,0-75.2,0.1c-20.8,0-41.5,0.1-62.5,0.1
					c-28.1,0.1-56.2,0.1-84.5,0.1c-1.6,0.1-3.3,0.1-4.9,0c-101.2,0.2-203.5,0.3-306,0.4h-0.3c-59.4,0.2-119,0.3-178.5,0.2
					c-8.9,0.1-17.8,0.1-26.7,0.1c-24.4,0-48.8,0.1-73.1,0.1c-14.7,0.1-29.4,0.1-44.1,0.1c-32.2,0.1-64.4,0.1-96.5,0.1v-11.4
					l94.5-0.2c15.8,0,31.7-0.1,47.6-0.1c25.7-0.1,51.5-0.1,77.2-0.1h17.7c193.9-0.3,389.1-0.5,581.1-0.6h53.7
					c27.6-0.1,55.1-0.1,82.6-0.1L1085.4,1727.8z"/>
				
					<linearGradient id="SVGID_6_" gradientUnits="userSpaceOnUse" x1="967.12" y1="761.9643" x2="967.26" y2="761.9643" gradientTransform="matrix(1 0 0 -1 0 1919)">
					<stop  offset="0" style="stop-color:#FF8D63"/>
					<stop  offset="1" style="stop-color:#000000"/>
				</linearGradient>
				<rect x="967.1" y="1152" class="st6" width="0.1" height="10.1"/>
				<polyline class="st7" points="-0.7,1915.9 -0.7,1431 -0.7,-268 1083.6,-268 1083.6,1410.9 1083.6,1914.9 1083.6,1922.3 
					1083.6,1925.8 1083.6,1926.4 1083.6,1938.5 				"/>
				<polyline class="st7" points="-0.7,2525.8 -0.7,2519.9 -0.7,2411.9 -0.7,2403.5 -0.7,2395.3 -0.7,2312.4 -0.7,2311.6 
					-0.7,2311.3 -0.7,2267.4 -0.7,2249.8 -0.7,2245.3 -0.7,2235.1 -0.7,2232.7 -0.7,2129.3 -0.7,2112.5 -0.7,2025.8 -0.7,1978.9 
					-0.7,1971.5 -0.7,1927.3 -0.7,1926.4 -0.7,1922.3 -0.7,1915.9 -0.7,1431 -0.7,-268 -0.7,-614.9 1083.6,-614.9 1083.6,-268 
					1083.6,1410.9 1083.6,1914.9 1083.6,1922.3 1083.6,1925.8 1083.6,1926.4 1083.6,1938.5 1083.6,1938.6 1083.6,1972.7 
					1083.6,1979.7 1083.6,1998.6 1083.6,2004 1083.6,2025.8 1083.6,2072.6 1083.6,2112.5 1083.6,2117.7 1083.6,2144.4 
					1083.6,2293.3 1083.6,2311.3 1083.6,2357.3 1083.6,2359.1 1083.6,2390.4 1083.6,2497.4 1083.6,2525.8 				"/>
			</g>
		</g>
	</g>
</g>
</svg>
