<svg id="Layer_1" data-name="Layer 1" xmlns="http://www.w3.org/2000/svg" viewBox="0 0 654 220"><defs><style>.cls-1{fill:#006cfa;stroke:#006cfa;stroke-miterlimit:10;stroke-width:10.29px;}</style></defs><title>Logo</title><path class="cls-1" d="M82.84,156a37.14,37.14,0,0,1-37.1-37.1c0-3,0-12.17,16.27-48.78,4.25-9.56,8.33-18.11,11-23.59,1.51-3.1,2.78-5.64,3.67-7.4,1.84-3.62,2.85-5.62,6.16-5.62s4.32,2,6.16,5.62c.89,1.76,2.16,4.3,3.67,7.4,2.67,5.48,6.75,14,11,23.59,16.27,36.61,16.27,45.77,16.27,48.78A37.14,37.14,0,0,1,82.84,156Zm0-105.51c-8.75,17.91-26.5,56.55-26.5,68.42a26.5,26.5,0,0,0,53,0C109.34,107.07,91.6,68.44,82.84,50.52Z"/><path class="cls-1" d="M82.84,186.43A64.92,64.92,0,0,1,18,121.59a5.63,5.63,0,0,1,11.26,0,53.58,53.58,0,0,0,107.16,0,5.63,5.63,0,0,1,11.26,0A64.92,64.92,0,0,1,82.84,186.43Z"/><path d="M255.34,67.89a40.15,40.15,0,0,1,16.33,15.88,46.35,46.35,0,0,1,5.72,23.13A46.8,46.8,0,0,1,271.67,130a41.17,41.17,0,0,1-16.33,16.2q-10.61,5.91-24.72,5.91H193.14v-90h37.49Q244.73,62.17,255.34,67.89Zm-12.14,53.88q5.59-5.21,5.59-14.87T243.21,92q-5.59-5.21-15.12-5.21h-6.74V127h6.74Q237.62,127,243.21,121.77Z"/><path d="M326.32,83.71a24.79,24.79,0,0,1,13-3.75v30.12h-8q-8,0-11.75,2.8t-3.75,9.91v29.35H287.56V80.47h28.21V93.68A34.27,34.27,0,0,1,326.32,83.71Z"/><path d="M361.52,148.58A32.75,32.75,0,0,1,348,135.81a37.78,37.78,0,0,1-4.89-19.51A37.79,37.79,0,0,1,348,96.8,32.79,32.79,0,0,1,361.52,84a44.72,44.72,0,0,1,38.89,0A32.81,32.81,0,0,1,413.94,96.8a37.81,37.81,0,0,1,4.89,19.51,37.8,37.8,0,0,1-4.89,19.51,32.78,32.78,0,0,1-13.53,12.77,44.72,44.72,0,0,1-38.89,0Zm26.05-23.06q2.67-3.11,2.67-9.21t-2.67-9.21a8.57,8.57,0,0,0-13.22,0q-2.67,3.12-2.67,9.21t2.61,9.21a8.64,8.64,0,0,0,13.28,0Z"/><path d="M463.62,82.44a23.88,23.88,0,0,1,12-2.86A27.12,27.12,0,0,1,490.75,84a29.62,29.62,0,0,1,10.61,12.71,46.14,46.14,0,0,1,3.88,19.63,46.13,46.13,0,0,1-3.88,19.63,29.6,29.6,0,0,1-10.61,12.71A27.12,27.12,0,0,1,475.63,153a23.87,23.87,0,0,1-12-2.86,19.47,19.47,0,0,1-7.69-7.82v44.1H427.72v-106h28.21v9.79A19.48,19.48,0,0,1,463.62,82.44Zm10.1,25a10.44,10.44,0,0,0-15,0q-2.92,3.18-2.92,8.9t2.92,8.9a10.44,10.44,0,0,0,15,0q2.92-3.18,2.92-8.9T473.72,107.41Z"/><path d="M542.35,58.1v94H514.13v-94Z"/><path d="M636,80.47l-45.88,106H559.25l18-37.87L547.43,80.47h31.39l13.47,36.34,12.58-36.34Z"/></svg>