<svg id="Layer_1" data-name="Layer 1" xmlns="http://www.w3.org/2000/svg" viewBox="0 0 1009 220"><defs><style>.cls-1{fill:#006cfa;stroke:#006cfa;stroke-miterlimit:10;stroke-width:10.29px;}</style></defs><title>LogoShop</title><path class="cls-1" d="M86.7,156a37.14,37.14,0,0,1-37.1-37.1c0-3,0-12.17,16.27-48.78,4.25-9.56,8.33-18.11,11-23.59,1.51-3.1,2.78-5.64,3.67-7.4,1.84-3.62,2.85-5.62,6.16-5.62s4.32,2,6.16,5.62c.89,1.76,2.16,4.3,3.67,7.4,2.67,5.48,6.75,14,11,23.59,16.27,36.61,16.27,45.77,16.27,48.78A37.14,37.14,0,0,1,86.7,156Zm0-105.51c-8.75,17.91-26.5,56.55-26.5,68.42a26.5,26.5,0,1,0,53,0C113.2,107.08,95.45,68.44,86.7,50.53Z"/><path class="cls-1" d="M86.7,186.44a64.92,64.92,0,0,1-64.84-64.84,5.63,5.63,0,0,1,11.26,0,53.58,53.58,0,0,0,107.16,0,5.63,5.63,0,0,1,11.26,0A64.92,64.92,0,0,1,86.7,186.44Z"/><path d="M266,66.52a40.48,40.48,0,0,1,16.46,16,46.74,46.74,0,0,1,5.77,23.32,47.19,47.19,0,0,1-5.77,23.32A41.51,41.51,0,0,1,266,145.51q-10.7,6-24.92,6h-37.8V60.75h37.8Q255.27,60.75,266,66.52Zm-12.24,54.33q5.64-5.25,5.64-15t-5.64-15q-5.64-5.25-15.25-5.25H231.7V126.1h6.79Q248.1,126.1,253.74,120.85Z"/><path d="M337.53,82.47a25,25,0,0,1,13.07-3.78v30.37h-8.07q-8.07,0-11.85,2.82t-3.78,10v29.6H298.45V79.2H326.9V92.53A34.56,34.56,0,0,1,337.53,82.47Z"/><path d="M373,147.88A33,33,0,0,1,359.38,135a38.08,38.08,0,0,1-4.93-19.67,38.09,38.09,0,0,1,4.93-19.67A33.06,33.06,0,0,1,373,82.79a45.09,45.09,0,0,1,39.21,0,33.08,33.08,0,0,1,13.65,12.88,38.12,38.12,0,0,1,4.93,19.67A38.11,38.11,0,0,1,425.88,135a33.06,33.06,0,0,1-13.65,12.88,45.09,45.09,0,0,1-39.21,0Zm26.27-23.26q2.69-3.14,2.69-9.29T399.29,106A8.64,8.64,0,0,0,386,106q-2.69,3.14-2.69,9.29t2.63,9.29a8.71,8.71,0,0,0,13.39,0Z"/><path d="M476,81.19a24.07,24.07,0,0,1,12.11-2.88,27.35,27.35,0,0,1,15.25,4.42A29.86,29.86,0,0,1,514,95.54a46.52,46.52,0,0,1,3.91,19.8,46.51,46.51,0,0,1-3.91,19.8,29.85,29.85,0,0,1-10.7,12.81,27.34,27.34,0,0,1-15.25,4.42A24.07,24.07,0,0,1,476,149.48a19.64,19.64,0,0,1-7.75-7.88v44.46H439.78V79.2h28.45v9.87A19.64,19.64,0,0,1,476,81.19Zm10.19,25.18a10.52,10.52,0,0,0-15.12,0q-2.95,3.2-2.95,9t2.95,9a10.52,10.52,0,0,0,15.12,0q2.95-3.2,2.95-9T486.16,106.37Z"/><path d="M555.35,56.65v94.82H526.91V56.65Z"/><path d="M649.78,79.2,603.53,186.06H572.39l18.19-38.18L560.48,79.2h31.65l13.58,36.65L618.39,79.2Z"/><path d="M692.13,149.29a25.45,25.45,0,0,1-10.57-8.58,22.53,22.53,0,0,1-4.1-12.3h9.48a18,18,0,0,0,5.77,11.47q5.12,4.93,15,4.93,9.1,0,14.42-4.68a15.1,15.1,0,0,0,5.32-11.85,14,14,0,0,0-2.95-9.29,18.07,18.07,0,0,0-7.3-5.25,113.6,113.6,0,0,0-12-3.78,105,105,0,0,1-14.22-4.74,22.61,22.61,0,0,1-9-7.18q-3.72-4.87-3.72-13.2a22,22,0,0,1,3.59-12.36A24,24,0,0,1,691.94,64a34.81,34.81,0,0,1,15-3.08q12.43,0,20.05,6.09a22.87,22.87,0,0,1,8.78,15.7H726a16.12,16.12,0,0,0-6-9.8q-5.13-4.29-13.84-4.29a20.9,20.9,0,0,0-13.45,4.29,14.19,14.19,0,0,0-5.38,11.72,13.54,13.54,0,0,0,2.95,9.1,18.77,18.77,0,0,0,7.37,5.25,108.46,108.46,0,0,0,12,3.84,108.6,108.6,0,0,1,14.09,4.8,23,23,0,0,1,9.1,7.24q3.71,4.87,3.72,13.07a23.07,23.07,0,0,1-3.33,11.92,24.32,24.32,0,0,1-9.87,9.1,33,33,0,0,1-15.63,3.46A37.1,37.1,0,0,1,692.13,149.29Z"/><path d="M801.42,83.56a23.76,23.76,0,0,1,10,10.19q3.65,6.86,3.65,16.72v41h-8.84v-40q0-11.4-5.7-17.43T785,88q-10.12,0-16.14,6.41t-6,18.83v38.18h-9V56.65h9V93.43a23.18,23.18,0,0,1,9.8-9.74,32.3,32.3,0,0,1,28.83-.13Z"/><path d="M847.8,148.07a31.92,31.92,0,0,1-12.43-12.56,38.34,38.34,0,0,1-4.55-19,37.93,37.93,0,0,1,4.61-19A32.25,32.25,0,0,1,848,84.91a36,36,0,0,1,17.81-4.42,36.36,36.36,0,0,1,17.87,4.42,31.72,31.72,0,0,1,12.56,12.56,38.38,38.38,0,0,1,4.55,19,38,38,0,0,1-4.61,19,31.91,31.91,0,0,1-12.69,12.62,36.72,36.72,0,0,1-17.94,4.42A35.63,35.63,0,0,1,847.8,148.07Zm30.56-6.53a24,24,0,0,0,9.55-9.48q3.65-6.34,3.65-15.57T888,100.92a23.57,23.57,0,0,0-9.48-9.48,27.72,27.72,0,0,0-25.63,0,23.15,23.15,0,0,0-9.42,9.48q-3.53,6.34-3.52,15.57t3.52,15.57a23.24,23.24,0,0,0,9.35,9.48,26.45,26.45,0,0,0,12.75,3.14A26.82,26.82,0,0,0,878.36,141.54Z"/><path d="M936.6,85.16a31.07,31.07,0,0,1,17.23-4.68,33.47,33.47,0,0,1,17.11,4.42,30.75,30.75,0,0,1,11.92,12.56,39.93,39.93,0,0,1,4.29,18.9,40.31,40.31,0,0,1-4.29,19A31.08,31.08,0,0,1,970.94,148a33.09,33.09,0,0,1-17.11,4.49,31.13,31.13,0,0,1-17.17-4.68A28.15,28.15,0,0,1,926,136.09v48.43h-8.84v-103H926V96.89A28.3,28.3,0,0,1,936.6,85.16Zm38.05,16.14a23.64,23.64,0,0,0-9.29-9.67A26.63,26.63,0,0,0,952,88.3a25.69,25.69,0,0,0-13.13,3.46,24.69,24.69,0,0,0-9.42,9.87A30.8,30.8,0,0,0,926,116.49a30.8,30.8,0,0,0,3.46,14.86,24.68,24.68,0,0,0,9.42,9.87A25.69,25.69,0,0,0,952,144.68a26.21,26.21,0,0,0,13.33-3.4,23.86,23.86,0,0,0,9.29-9.87,32,32,0,0,0,3.4-15.05A31.48,31.48,0,0,0,974.65,101.31Z"/></svg>