<svg id="Layer_1" data-name="Layer 1" xmlns="http://www.w3.org/2000/svg" viewBox="0 0 200 200"><defs><style>.cls-1{fill:#d4f1ff;}.cls-2{fill:#0069db;}.cls-3,.cls-4{fill:#fff;}.cls-3{opacity:0.3;}</style></defs><title>savedroply</title><rect class="cls-1" width="201" height="201"/><rect class="cls-2" x="73.93" y="73.93" width="52.15" height="52.15" rx="8.82" ry="8.82"/><rect class="cls-3" x="73.93" y="13.29" width="52.15" height="52.15" rx="8.82" ry="8.82"/><rect class="cls-3" x="73.93" y="134.56" width="52.15" height="52.15" rx="8.82" ry="8.82"/><path class="cls-4" d="M100,110.49h0a8.67,8.67,0,0,0,8.65-8.65c0-.74,0-2.72-3.42-10.42-.68-1.54-1.44-3.17-2.27-4.87-.31-.64-.57-1.17-.76-1.54a3.25,3.25,0,0,0-1.14-1.46v-.29l-.11.23a2.11,2.11,0,0,0-.94-.2c-1.32,0-1.79.92-2.2,1.73-.18.36-.45.89-.76,1.53-.55,1.13-1.39,2.89-2.27,4.86-3.42,7.7-3.42,9.68-3.42,10.42A8.67,8.67,0,0,0,100,110.49Zm0-4.28a4.38,4.38,0,0,1-4.37-4.37c0-1.6,2.12-6.78,4.37-11.57,2.25,4.79,4.37,10,4.37,11.57A4.38,4.38,0,0,1,100,106.22Z"/><path class="cls-4" d="M112.13,100.19h0a2.21,2.21,0,0,0-2.21,2.2,9.93,9.93,0,0,1-9.92,9.92h0a9.93,9.93,0,0,1-9.92-9.92,2.21,2.21,0,1,0-4.41,0A14.37,14.37,0,0,0,100,116.73h0a14.37,14.37,0,0,0,14.33-14.33A2.21,2.21,0,0,0,112.13,100.19Z"/><rect class="cls-3" x="12.69" y="73.93" width="52.15" height="52.15" rx="8.82" ry="8.82"/><rect class="cls-3" x="12.69" y="13.29" width="52.15" height="52.15" rx="8.82" ry="8.82"/><rect class="cls-3" x="12.69" y="134.56" width="52.15" height="52.15" rx="8.82" ry="8.82"/><rect class="cls-3" x="135.17" y="73.93" width="52.15" height="52.15" rx="8.82" ry="8.82"/><rect class="cls-3" x="135.17" y="13.29" width="52.15" height="52.15" rx="8.82" ry="8.82"/><rect class="cls-3" x="135.17" y="134.56" width="52.15" height="52.15" rx="8.82" ry="8.82"/></svg>