<?xml version="1.0" encoding="utf-8"?>
<!-- Generator: Adobe Illustrator 21.0.0, SVG Export Plug-In . SVG Version: 6.00 Build 0)  -->
<svg version="1.1" id="Layer_1" xmlns="http://www.w3.org/2000/svg" xmlns:xlink="http://www.w3.org/1999/xlink" x="0px" y="0px"
	 viewBox="0 0 1080 1080" style="enable-background:new 0 0 1080 1080;" xml:space="preserve">
<style type="text/css">
	.st0{fill:#00A456;}
	.st1{fill:#00DB72;}
	.st2{fill:none;stroke:#231F20;stroke-width:9.2713;stroke-linecap:round;stroke-linejoin:round;stroke-miterlimit:10;}
	.st3{fill:#323031;stroke:#231F20;stroke-width:9.8643;stroke-miterlimit:10;}
	.st4{fill:#404041;}
	.st5{fill:#231F20;}
	.st6{fill:#A6A8AB;}
	.st7{fill:#D0D2D3;}
	.st8{fill:#F7F000;}
</style>
<title>Characters</title>
<path class="st0" d="M860.5,681.5c0,113.2-58.7,212.7-147.4,269.8C940.3,717.1,542.4,81.9,540,78
	C541.9,79.7,860.5,504.8,860.5,681.5z"/>
<path class="st1" d="M713.2,951.2c-46.3,29.8-100.8,48-159.4,50.5c-4.6,0.2-9.2,0.3-13.8,0.3c-177,0-320.5-143.5-320.5-320.5
	S539.4,78,540,78c0,0,0,0,0,0C542.4,81.9,1016.8,679.1,713.2,951.2z"/>
<g>
	<g>
		<path class="st2" d="M374.5,598.9c0,0-38.2-7.8-47.8,30.7"/>
		<path class="st2" d="M695.1,598.9c0,0,38.2-7.8,47.8,30.7"/>
	</g>
	<g>
		<path class="st3" d="M582.7,712.9c0,0-18.8-9.1-47.8-9.1c-31.1,0-47.8,9.1-47.8,9.1v-33.9h95.6V712.9z"/>
		<g>
			<path class="st4" d="M410.7,795.5c-94.9,0-94.9-46.1-94.9-94.9c0-51.8,14.3-70.2,94.9-70.2c78.4,0,94.9,38.2,94.9,70.2
				C505.6,746.5,498.3,795.5,410.7,795.5z"/>
			<path class="st5" d="M410.7,635.6c49.5,0,89.7,15.4,89.7,65c0,49.6-10.3,89.7-89.7,89.7c-89.7,0-89.7-40.2-89.7-89.7
				C321,651,333.2,635.6,410.7,635.6L410.7,635.6z M410.7,625.2c-78.6,0-100.1,16.2-100.1,75.4c0,49.2,0,100.1,100.1,100.1
				c88,0,100.1-48.1,100.1-100.1C510.8,666.2,493.5,625.2,410.7,625.2L410.7,625.2z"/>
		</g>
		<g>
			<path class="st6" d="M475,650.1c-8.8-5.7-19.5-9.4-31.5-11.7c-35.4,39-76.5,73.4-120.2,103.1c2.3,11.8,6.7,22.1,15.5,30.1
				C391.8,742.7,443,701.8,475,650.1z"/>
		</g>
		<g>
			<path class="st4" d="M658.9,795.5c-87.6,0-94.9-49-94.9-94.9c0-32,16.5-70.2,94.9-70.2c80.6,0,94.9,18.4,94.9,70.2
				C753.8,749.4,753.8,795.5,658.9,795.5z"/>
			<path class="st5" d="M658.9,635.6c77.5,0,89.7,15.4,89.7,65c0,49.6,0,89.7-89.7,89.7c-79.4,0-89.7-40.2-89.7-89.7
				C569.2,651,609.3,635.6,658.9,635.6L658.9,635.6z M658.9,625.2c-82.7,0-100.1,41-100.1,75.4c0,52,12.1,100.1,100.1,100.1
				C759,800.7,759,749.8,759,700.6C759,641.4,737.5,625.2,658.9,625.2L658.9,625.2z"/>
		</g>
		<g>
			<path class="st6" d="M701.2,638.1c-8.9-1.3-19.3-2.1-31.7-2.4c-17,45.6-52.1,86-95.4,108.1c3.4,11.2,9.1,20.9,18.1,28.5
				C648.7,748.5,691.6,698.4,701.2,638.1z"/>
		</g>
		<path class="st7" d="M337.3,647.6c0,0-1.7,22.4-16.3,22.4c0,0,16.3,1.5,16.3,20.5c0-18.9,16.3-20.5,16.3-20.5
			C339.1,670,337.3,647.6,337.3,647.6z"/>
		<path class="st7" d="M592.1,647.6c0,0-1.7,22.4-16.3,22.4c0,0,16.3,1.5,16.3,20.5c0-18.9,16.3-20.5,16.3-20.5
			C593.8,670,592.1,647.6,592.1,647.6z"/>
	</g>
</g>
<path class="st8" d="M399.2,259.3c0,0-4.7,60.7-44.2,60.7c0,0,44.2,4.2,44.2,55.4c0-51.3,44.2-55.4,44.2-55.4
	C403.9,320.1,399.2,259.3,399.2,259.3z"/>
</svg>
