<?xml version="1.0" encoding="utf-8"?>
<!-- Generator: Adobe Illustrator 21.0.0, SVG Export Plug-In . SVG Version: 6.00 Build 0)  -->
<svg version="1.1" id="Layer_1" xmlns="http://www.w3.org/2000/svg" xmlns:xlink="http://www.w3.org/1999/xlink" x="0px" y="0px"
	 viewBox="0 0 1080 1080" style="enable-background:new 0 0 1080 1080;" xml:space="preserve">
<style type="text/css">
	.st0{fill:#92ABB2;}
	.st1{fill:#C3E4ED;}
	.st2{fill:none;stroke:#231F20;stroke-width:8.0761;stroke-linecap:round;stroke-linejoin:round;stroke-miterlimit:10;}
	.st3{fill:none;stroke:#231F20;stroke-width:13.0721;stroke-linecap:round;stroke-linejoin:round;stroke-miterlimit:10;}
	.st4{fill:#EAEAEA;}
</style>
<title>Characters</title>
<path class="st0" d="M781.5,892.2C941.6,661,640.3,215.8,559.3,104c69.3,95.1,301.2,426.7,301.2,577.5
	C860.5,762.1,830.7,835.8,781.5,892.2z"/>
<path class="st1" d="M781.5,892.2c-12.1,13.9-25.4,26.7-39.7,38.3C686.7,975.2,616.5,1002,540,1002c-177,0-320.5-143.5-320.5-320.5
	S539.4,78,540,78c0,0,0,0,0,0c0.1,0.1,2.1,2.6,5.5,7.2c1,1.3,2,2.7,3.2,4.3c0.4,0.6,0.9,1.2,1.4,1.9c0,0,0.1,0.1,0.1,0.2
	c0.4,0.6,0.9,1.2,1.3,1.8c0,0,0,0,0,0.1c1.4,2,3,4.1,4.7,6.4c1,1.3,2,2.7,3,4.1C640.3,215.8,941.6,661,781.5,892.2z"/>
<g>
	<path class="st2" d="M400.3,649.1c0,0-33.3-6.8-41.6,26.7"/>
	<path class="st2" d="M679.7,649.1c0,0,33.3-6.8,41.6,26.7"/>
</g>
<g>
	<line class="st3" x1="355" y1="735.6" x2="448.1" y2="735.6"/>
	<line class="st3" x1="725" y1="735.6" x2="631.9" y2="735.6"/>
</g>
<path class="st4" d="M844.5,709.1c0,0,16,189-120.2,152.7c-26-6.9-55.7-5.4-88.9-15.5c-15.2,16.1-62.5,26.8-95.4,26.8
	c-36.9,0-98.5-15.3-97.9-26.8c-33.2,10.1-59.5,10.1-86.4,15.5c-145.6,29.3-120.2-152.7-120.2-152.7s-8.1-40.9-16-46.9
	c0.1,6.9,0.5,58.8,1.8,75.6c0.8,11.4,2,24.5,3.9,38.4c7.2,55.7,23.6,125.5,61.1,157.9c47,40.6,143.3,111,253.8,111
	c131.4,0,206.8-70.4,253.8-111c37.5-32.4,53.9-102.2,61.1-157.9c1.9-14,3.1-27.1,3.9-38.4c1.3-16.8,1.7-46.8,1.8-53.7
	C848.7,700.7,844.5,709.1,844.5,709.1z"/>
<g>
	<path class="st4" d="M779.6,823.7c14.3,31.4-19.6,39.3-70.9,23.8c-49.9-15.2-70.3-61.5-125.5-60.5c-17.2,1-30.3,1.2-42.3,0.7
		c0,0,0-0.1,0-0.1c-0.5,0-1,0-1.5,0c-0.5,0-1,0-1.5,0c0,0,0,0.1,0,0.1c-12,0.4-25.1,0.3-42.3-0.7c-55.3-1-75.6,45.3-125.5,60.5
		c-51.4,15.6-85.2,7.7-70.9-23.8c0,0-17.3,16.3-18.2,31.8c-0.7,10.5,6.2,20.7,31.4,25.1c62,10.8,148.4-43.2,213.8-43.8
		c4.7,0,9.1-0.1,13.2-0.2c4.2,0.1,8.5,0.2,13.2,0.2c65.4,0.6,151.8,54.5,213.8,43.8c25.2-4.4,32-14.5,31.4-25.1
		C796.9,840,779.6,823.7,779.6,823.7z"/>
	<path class="st4" d="M494,787c-54,0-74.5,45.4-123.9,60.5c-51.4,15.6-85.2,7.7-70.9-23.8c0,0-17.3,16.3-18.2,31.8
		c-0.7,10.5,6.2,20.7,31.4,25.1c4.5,0.8,9.1,1.1,13.9,1.3c21.2-4.4,41.3-11.9,59.6-23.9C427.4,836.3,452.5,803.9,494,787z"/>
	<path class="st4" d="M544.3,836.7c2.7,0,5.3,0.1,8.3,0.1c65.4,0.6,151.8,54.5,213.8,43.8c18.6-3.2,27.1-9.6,30.1-17
		C712.5,892.6,628.4,817.5,544.3,836.7z"/>
</g>
</svg>
