<?xml version="1.0" encoding="utf-8"?>
<!-- Generator: Adobe Illustrator 21.0.0, SVG Export Plug-In . SVG Version: 6.00 Build 0)  -->
<svg version="1.1" xmlns="http://www.w3.org/2000/svg" xmlns:xlink="http://www.w3.org/1999/xlink" x="0px" y="0px"
	 viewBox="0 0 1080 1080" style="enable-background:new 0 0 1080 1080;" xml:space="preserve">
<style type="text/css">
	.st0{fill:#BD0000;}
	.st1{fill:#FC0000;}
	.st2{fill:#231F20;}
	.st3{fill:#FFFFFF;}
	.st4{fill:none;stroke:#231F20;stroke-width:8.0103;stroke-linecap:round;stroke-linejoin:round;stroke-miterlimit:10;}
	.st5{fill:none;stroke:#000000;stroke-width:18;stroke-linecap:round;stroke-miterlimit:10;}
</style>
<g id="Layer_1">
	<title>Characters</title>
	<path class="st0" d="M860.5,681.5C860.5,813,781.3,926,668,975.4C1061.2,792.3,543,82,540,78C541.9,79.7,860.5,504.8,860.5,681.5z"
		/>
	<path class="st1" d="M668,975.4C668,975.4,668,975.4,668,975.4c-19,8.3-38.8,14.8-59.5,19.2c0,0,0,0-0.1,0
		c-22.1,4.8-45,7.3-68.5,7.3c-177,0-320.5-143.5-320.5-320.5C219.5,504.8,538.1,79.7,540,78c0,0,0,0,0,0s0,0,0,0
		C543,82,1061.2,792.3,668,975.4z"/>
	<g>
		<ellipse class="st2" cx="407.6" cy="718.9" rx="39.8" ry="75.7"/>
		<path class="st3" d="M438.4,689.9c0,18-7.5,32.6-16.7,32.6c-9.2,0-16.7-14.6-16.7-32.6c0-18,7.5-32.6,16.7-32.6
			C431,657.3,438.4,671.9,438.4,689.9z"/>
		<ellipse class="st3" cx="392.7" cy="710.7" rx="6" ry="11.8"/>
		<ellipse class="st3" cx="411.1" cy="739.4" rx="6" ry="11.8"/>
		<ellipse class="st2" cx="672.4" cy="718.9" rx="39.8" ry="75.7"/>
		<ellipse class="st3" cx="686.5" cy="689.9" rx="16.7" ry="32.6"/>
		<ellipse class="st3" cx="657.5" cy="710.7" rx="6" ry="11.8"/>
		<ellipse class="st3" cx="675.8" cy="739.4" rx="6" ry="11.8"/>
	</g>
	<path class="st4" d="M392.5,625.1c0,0,12,31.5,44.5,20.7"/>
	<path class="st4" d="M684.8,625.1c0,0-12,31.5-44.5,20.7"/>
</g>
<g id="Layer_2">
	<g>
		<path class="st5" d="M359.2,176.3c0,0,29.4,76.4-48.5,77.9"/>
		<path class="st5" d="M391.3,176.3c0,0-12.3,80.9,64.1,65.7"/>
		<path class="st5" d="M379.3,353.9c0,0,15.9-80.3-61.1-68.5"/>
		<path class="st5" d="M411,348.4c0,0-25.9-77.6,51.9-75.6"/>
	</g>
</g>
</svg>
