<?xml version="1.0" encoding="utf-8"?>
<!-- Generator: Adobe Illustrator 21.0.0, SVG Export Plug-In . SVG Version: 6.00 Build 0)  -->
<svg version="1.1" id="Layer_1" xmlns="http://www.w3.org/2000/svg" xmlns:xlink="http://www.w3.org/1999/xlink" x="0px" y="0px"
	 viewBox="0 0 1080 1080" style="enable-background:new 0 0 1080 1080;" xml:space="preserve">
<style type="text/css">
	.st0{fill:#D7F4FF;}
	.st1{fill:none;stroke:#231F20;stroke-width:12.0387;stroke-linecap:round;stroke-linejoin:round;stroke-miterlimit:10;}
	.st2{fill:none;stroke:#231F20;stroke-width:10.6446;stroke-linecap:round;stroke-linejoin:round;stroke-miterlimit:10;}
	.st3{fill:none;stroke:#231F20;stroke-width:7.4377;stroke-linecap:round;stroke-linejoin:round;stroke-miterlimit:10;}
	.st4{fill:#FFC91D;}
	.st5{fill:#E03838;}
</style>
<title>Characters</title>
<path class="st0" d="M772.5,436.9c-15.7-29.1-32.5-58.4-49.7-87c-48.5-80.7-99.7-156.1-135.6-206.9h-0.5
	c33.9,49.3,81.2,122.8,125,206.9c14.7,28.2,25.6,50,38.9,80.1c12.3,28-89.4-91-79.4-62.2c3.3,9.6,6.5,19.2,9.5,28.8
	c1.8,5.8,3.5,11.5,5.2,17.3c0.6,1.9,1.1,3.9,1.6,5.8l42.6,17.9L683,349.9L571.6,143h-1.3c-0.8,16.5-1,16.9-0.8,16.5l-36,29
	c-4.7,6.2-10.9-35.5-28.8-10.5c1.4,5.2,1.8-39.1,5-35h-16.9c-35.9,50.8-87.1,126.2-135.6,206.9c-17.2,28.6-34,58-49.7,87.1
	c-49.9,92.7-88,183.5-88,244.6c0,177,143.5,320.5,320.5,320.5c76.5,0,146.7-26.8,201.8-71.5c14.3-11.6,27.6-24.4,39.7-38.3
	c49.2-56.4,79-130.1,79-210.7C860.5,620.4,822.4,529.6,772.5,436.9z"/>
<g>
	<g>
		<path class="st1" d="M620.8,724.7c0-38.8,16.5-70.3,36.9-70.3s36.9,31.5,36.9,70.3"/>
		<path class="st1" d="M371.7,724.7c0-38.8,16.5-70.3,36.9-70.3s36.9,31.5,36.9,70.3"/>
	</g>
	<path class="st2" d="M614.4,697.1"/>
	<g>
		<path class="st3" d="M403,602.2c0,0-30.6-6.2-38.3,24.6"/>
		<path class="st3" d="M660.2,602.2c0,0,30.6-6.2,38.4,24.6"/>
	</g>
</g>
<ellipse class="st0" cx="470.4" cy="77" rx="67.5" ry="31.6"/>
<ellipse class="st0" cx="605.5" cy="77" rx="67.5" ry="31.6"/>
<path class="st4" d="M537.9,211.9c-8.8,0-15.9-7.1-15.9-15.9V33c0-8.8,7.1-15.9,15.9-15.9s15.9,7.1,15.9,15.9v163
	C553.8,204.8,546.7,211.9,537.9,211.9L537.9,211.9z"/>
<g>
	<g>
		<g>
			<g>
				<path class="st5" d="M753.4,349.9H326.6c0-88.5,71.8-206.9,160.3-206.9H593C681.6,143,753.4,261.3,753.4,349.9z"/>
			</g>
		</g>
	</g>
	<g>
		<g>
			<g>
				<path class="st4" d="M768.7,437.6H311.3c-6.3,0-11.4-5.1-11.4-11.4v-65c0-6.3,5.1-11.4,11.4-11.4h457.5
					c6.3,0,11.4,5.1,11.4,11.4v65C780.1,432.5,775,437.6,768.7,437.6z"/>
			</g>
		</g>
	</g>
</g>
</svg>
