<?xml version="1.0" encoding="utf-8"?>
<!-- Generator: Adobe Illustrator 21.0.0, SVG Export Plug-In . SVG Version: 6.00 Build 0)  -->
<svg version="1.1" id="Layer_1" xmlns="http://www.w3.org/2000/svg" xmlns:xlink="http://www.w3.org/1999/xlink" x="0px" y="0px"
	 viewBox="0 0 1080 1080" style="enable-background:new 0 0 1080 1080;" xml:space="preserve">
<style type="text/css">
	.st0{fill:#805333;}
	.st1{fill:#13660A;}
	.st2{fill:#FFE077;}
	.st3{fill:#F4F4F4;}
	.st4{fill:#F9F9F9;}
	.st5{fill:#FFFFFF;}
	.st6{fill:#0F2603;}
	.st7{fill:#E29A6C;}
	.st8{fill:#FFDBBB;}
	.st9{fill:#7F5B53;}
	.st10{fill:#804537;}
	.st11{fill:#FE646F;}
	.st12{fill:#FFE177;}
	.st13{fill:#26A6FE;}
	.st14{fill:#2C3E50;}
	.st15{fill:#D79B7A;}
</style>
<path class="st0" d="M625,294.3c-2.3,0.2-4.5-1.3-4.9-3.6c-0.5-2.3,0.8-4.6,3-5.3c1.5-0.5,147.8-48.4,246.4-63.7
	c2.5-0.3,4.8,1.4,5.2,3.8c0.2,1.2-0.1,2.4-0.8,3.4c-0.7,1-1.8,1.6-3,1.8c-97.8,15.2-243.5,62.8-245,63.3
	C625.6,294.2,625.3,294.2,625,294.3z"/>
<title>Characters</title>
<path class="st1" d="M559.3,104c75.9,104.8,345.5,502.7,247,742.5c-2.5,6-5.2,11.9-8.1,17.7c2.9-5.8,5.6-11.7,8.1-17.7
	C904.8,606.7,635.2,208.8,559.3,104c-1.1-1.4-2.1-2.8-3.1-4.1c-1.7-2.3-3.3-4.4-4.7-6.4c0-0.1,0-0.1,0-0.1c-0.4-0.6-0.9-1.2-1.3-1.8
	c0-0.1-0.1-0.2-0.1-0.2c-0.5-0.7-1-1.3-1.4-1.9c-1.2-1.6-2.2-3-3.2-4.3c-3.4-4.6-5.4-7.1-5.5-7.2c-0.6,0-320.5,426.5-320.5,603.5
	S363,1002,540,1002c76.5,0,146.7-26.8,201.8-71.5c14.3-11.6,27.6-24.4,39.7-38.3c49.2-56.4,79-130.1,79-210.7
	C860.5,530.7,628.6,199.1,559.3,104z"/>
<path class="st2" d="M226.2,436.9c5.5,7.6,24.1,35,20.8,54C250.3,471.9,231.7,444.5,226.2,436.9c-0.1-0.1-0.2-0.2-0.2-0.3
	c-0.1-0.2-0.3-0.3-0.4-0.5c0,0,0,0,0,0c0,0-0.1-0.1-0.1-0.1c0,0,0,0,0,0c0-0.1-0.1-0.1-0.1-0.2c-0.1-0.1-0.2-0.2-0.3-0.3
	c-0.3-0.4-0.4-0.6-0.4-0.6c0,0-25.3,33.7-25.3,47.7s11.3,25.3,25.3,25.3c6,0,11.6-2.1,15.9-5.7c1.1-0.9,2.2-1.9,3.1-3
	c3.9-4.5,6.2-10.3,6.2-16.7C250,470.6,231.7,444.4,226.2,436.9z"/>
<path class="st3" d="M844.5,709.1c0,0,16,189-120.2,152.7c-26-6.9-55.7-5.4-88.9-15.5c-15.2,16.1-50.8-32-83.7-32
	c-36.9,0-110.2,43.5-109.6,32c-33.2,10.1-59.5,10.1-86.4,15.5c-145.6,29.3-120.2-152.7-120.2-152.7s-8.1-40.9-16-46.9
	c0.1,6.9,0.5,58.8,1.8,75.6c0.8,11.4,2,24.5,3.9,38.4c7.2,55.7,23.6,125.5,61.1,157.9c47,40.6,143.3,111,253.8,111
	c131.4,0,206.8-70.4,253.8-111c37.5-32.4,53.9-102.2,61.1-157.9c1.9-14,3.1-27.1,3.9-38.4c1.3-16.8,1.7-46.8,1.8-53.7
	C848.7,700.7,844.5,709.1,844.5,709.1z"/>
<g>
	<path class="st4" d="M779.6,823.7c14.3,31.4-19.6,39.3-70.9,23.8c-49.9-15.2-70.3-61.5-125.5-60.5c-17.2,1-30.3,1.2-42.3,0.7v-0.1
		c-0.5,0-1,0-1.5,0s-1,0-1.5,0v0.1c-12,0.4-25.1,0.3-42.3-0.7c-55.3-1-75.6,45.3-125.5,60.5c-51.4,15.6-85.2,7.7-70.9-23.8
		c0,0-17.3,16.3-18.2,31.8c-0.7,10.5,6.2,20.7,31.4,25.1c62,10.8,148.4-43.2,213.8-43.8c4.7,0,9.1-0.1,13.2-0.2
		c4.2,0.1,8.5,0.2,13.2,0.2c65.4,0.6,151.8,54.5,213.8,43.8c25.2-4.4,32-14.5,31.4-25.1C796.9,840,779.6,823.7,779.6,823.7z"/>
	<path class="st4" d="M494,787c-54,0-74.5,45.4-123.9,60.5c-51.4,15.6-85.2,7.7-70.9-23.8c0,0-17.3,16.3-18.2,31.8
		c-0.7,10.5,6.2,20.7,31.4,25.1c4.5,0.8,9.1,1.1,13.9,1.3c21.2-4.4,41.3-11.9,59.6-23.9C427.4,836.3,452.5,803.9,494,787z"/>
	<path class="st4" d="M544.3,836.7c2.7,0,5.3,0.1,8.3,0.1c65.4,0.6,151.8,54.5,213.8,43.8c18.6-3.2,27.1-9.6,30.1-17
		C712.5,892.6,628.4,817.5,544.3,836.7z"/>
</g>
<g>
	<g>
		<ellipse class="st5" cx="387" cy="686.8" rx="40.4" ry="76.8"/>
		<ellipse class="st6" cx="384.3" cy="699.8" rx="27.5" ry="53.8"/>
		<ellipse class="st5" cx="655.6" cy="686.8" rx="40.4" ry="76.8"/>
		<ellipse class="st6" cx="651.3" cy="699.8" rx="27.5" ry="53.8"/>
	</g>
</g>
<g>
	<path class="st2" d="M224.7,361.8v40c-38.5,0-69.6,31.1-69.6,69.6h-39.9C115.1,410.8,164.2,361.8,224.7,361.8z"/>
	<path class="st7" d="M244.6,580.9v378.6c0,5.5-2.2,10.5-5.8,14.1c-3.6,3.6-8.6,5.8-14.1,5.8c-11.6,0.2-19.9-10-19.9-21V586.8
		c0-4.4-3-8.2-7.3-9.3c-47.3-12.1-82.4-55-82.4-106.1h39.8l0,0c0,3.3,0.2,6.6,0.7,10c4,29.2,27.2,52.1,55.9,58.5l0.2,0
		C231,544.2,244.6,561.2,244.6,580.9z"/>
	<path class="st7" d="M334.2,471.7c-0.1,27.4-22.5,49.5-49.9,49.5c-4.2,0-6.4-4.7-3.9-8c8.7-11.6,13.9-26.1,13.9-41.8
		c0-17.4-6.9-34.8-19.1-47.9c-12.2-13-29.6-21.7-50.6-21.7v-40c4,0,8,0.2,12,0.6c47.9,5.1,87.6,42.2,95.9,89.6
		C333.7,458.7,334.3,465.3,334.2,471.7z"/>
</g>
<rect x="204.7" y="842.7" class="st8" width="39.8" height="11"/>
<rect x="204.7" y="862" class="st8" width="39.8" height="11"/>
<rect x="204.7" y="881.3" class="st8" width="39.8" height="11"/>
<path class="st9" d="M766.8,194.8c-0.5,0.5-1,1.1-1.5,1.7"/>
<path class="st9" d="M763.8,198.1c-0.5,0.5-1,1.1-1.5,1.7c-0.5,0.5-1,1.1-1.5,1.7"/>
<path class="st10" d="M878.4,272.5c-0.8-0.1-1.6-0.3-2.2-0.8l-46.7-32.3c-2.1-1.4-2.6-4.3-1.2-6.4c1.4-2.1,4.3-2.6,6.4-1.2
	l46.7,32.3c1.7,1.2,2.4,3.3,1.7,5.3C882.4,271.4,880.5,272.7,878.4,272.5z"/>
<g>
	<path class="st11" d="M826.1,74.2l17.5,1.6c1.2,0.2,2.2,1,2.7,2.1c0.4,1.1,0.3,2.4-0.5,3.3l-12.4,11.9"/>
	<path class="st12" d="M817.6,162.6c-3.1,7.6-7.6,14.4-13.4,20.2c-15.1,15.2-45.1,18.6-68.8,17.9c-7.1-0.2-14.1-1.1-21.1-2.5
		c5.9-4.6,11.4-9.6,16.6-15c14.6,2.1,33.1,2.5,49.2-4.3c10.3-4.1,18.3-12.6,21.9-23.2C807,158.5,812.2,160.8,817.6,162.6z"/>
	<path class="st12" d="M831.9,98.8c-9.6,16.4-11.1,21.5-9.6,34.8c0.9,9.9-0.8,19.9-4.7,29c-5.4-1.7-10.6-4.1-15.6-7
		c5.1-15.8-0.8-33.5-12-38.6c-2.9-1.4-6-2.5-9-3.4c3.3-22.2,23.8-38.7,43.5-41.3c3.5,3.8,6.1,8.2,7.6,13.1
		C834,89.7,833.8,94.6,831.9,98.8z"/>
	<path class="st12" d="M824.6,72.3c-19.7,2.6-40.2,19.1-43.5,41.3c-13.3-3.9-23.6-1.3-30.9,7.9l20.6-25.9c3.3-4.2,6.7-8.4,10.1-12.6
		c6.7-8.3,15.5-18.9,27.3-18.7C814.5,64.6,820.4,67.5,824.6,72.3z"/>
	<path class="st13" d="M802.1,155.6c-3.5,10.6-11.5,19-21.9,23.2c-16,6.9-34.6,6.4-49.2,4.3c-8.6-1.3-17-3.3-25.2-6.1l2.9-3.7
		c2.1-2.6,5.2-6.5,8.7-10.9l1.7-2.1c0.6-0.7,1.1-1.5,1.8-2.2c0.6-0.7,1.2-1.5,1.8-2.3l3.7-4.7c0.6-0.8,1.2-1.6,1.9-2.4
		c0.7-0.8,1.2-1.6,1.9-2.4c0.7-0.8,1.3-1.6,1.9-2.4c2.5-3.2,5-6.3,7.2-9.1l10.7-13.4c7.3-9.1,17.6-11.8,30.9-7.9
		c3.1,0.9,6.1,2,9,3.4C801.3,122.1,807.2,139.8,802.1,155.6z"/>
	<path class="st11" d="M731.1,183.1c-5.2,5.4-10.7,10.4-16.6,15c-10.7,8.3-22.2,15.5-34.3,21.4c-1.4,0.7-3.1,0.3-4.1-0.9
		c-1-1.2-1-3,0-4.2l18-22.6l11.8-14.8l0,0C714.1,179.8,722.5,181.8,731.1,183.1z"/>
	<path class="st14" d="M820.4,86.6c0.2,1.8-1.1,3.5-3,3.7s-3.5-1.1-3.7-3s1.1-3.5,3-3.7C818.5,83.4,820.2,84.8,820.4,86.6z"/>
	<g>
		<path class="st15" d="M794.1,251.6c-1.6,0.2-3.1-0.8-3.6-2.4c-0.5-1.5,0.2-3.2,1.7-4c0.3-0.1,0.5-0.3,0.7-0.4
			c-0.4-0.4-0.8-0.7-1.3-1c-1.6-0.9-2.2-2.9-1.3-4.6c0.9-1.6,2.9-2.2,4.6-1.3c2.8,1.3,4.7,4,5.1,7.1c0,1.7-0.8,4.2-4.6,6.2
			C794.9,251.5,794.5,251.6,794.1,251.6z"/>
		<path class="st15" d="M812.9,247c-1.6,0.2-3.1-0.8-3.6-2.4c-0.5-1.5,0.2-3.2,1.7-4c0.3-0.1,0.5-0.3,0.7-0.4
			c-0.4-0.4-0.8-0.7-1.3-1c-1-0.6-1.7-1.7-1.7-2.9c0-1.2,0.6-2.3,1.6-2.9c1-0.6,2.3-0.6,3.4-0.1c2.8,1.4,4.7,4,5,7.1
			c0,1.7-0.8,4.2-4.6,6.2C813.7,246.8,813.4,247,812.9,247z"/>
		<path class="st15" d="M775.9,247.4c-0.2,0-0.4,0-0.6,0c-1.8-0.1-3.3-1.7-3.2-3.5l0.8-14.1c0-1.2,0.7-2.3,1.8-2.9
			c1.1-0.6,2.4-0.5,3.4,0.2c1,0.7,1.6,1.8,1.5,3l-0.8,14.1C778.8,245.9,777.5,247.2,775.9,247.4z"/>
		<path class="st15" d="M794,243.7c-0.2,0-0.4,0-0.6,0c-0.9-0.1-1.7-0.4-2.3-1.1c-0.6-0.7-0.9-1.5-0.8-2.4l0.9-15.4
			c0.1-1.2,0.8-2.3,1.8-2.8c1.1-0.5,2.3-0.5,3.3,0.2c1,0.7,1.6,1.8,1.5,3l-0.9,15.4C796.9,242.2,795.7,243.5,794,243.7z"/>
		<path class="st15" d="M812.4,239.6c-0.8,0.1-1.5-0.1-2.2-0.5l-33.4-21.6c-3-2-3.9-5.9-2.1-9c1.7-2.9,7.6-12.7,10.1-15.8
			c0.7-1,1.9-1.4,3.1-1.3c1.2,0.2,2.2,1,2.6,2.1c0.4,1.1,0.2,2.4-0.5,3.3c-1.8,2.2-6.3,9.5-9.6,15.1l33.3,21.6
			c1.2,0.8,1.8,2.2,1.4,3.6C815,238.5,813.9,239.5,812.4,239.6z"/>
		<path class="st15" d="M793.6,244.3c-0.8,0.1-1.5-0.1-2.2-0.5L754.8,220c-3-2-3.9-5.9-2-9c1.3-2.1,5.6-9.3,8.5-13.6
			c0.6-1.1,1.8-1.7,3.1-1.6c1.2,0.1,2.3,0.8,2.9,1.9c0.5,1.1,0.4,2.4-0.4,3.4c-2.8,4.1-7,11.2-8.3,13.2l36.5,23.7
			c1.2,0.8,1.8,2.2,1.4,3.6C796.1,243.1,795,244.1,793.6,244.3L793.6,244.3z"/>
	</g>
</g>
</svg>
