<?xml version="1.0" encoding="utf-8"?>
<!-- Generator: Adobe Illustrator 21.0.0, SVG Export Plug-In . SVG Version: 6.00 Build 0)  -->
<svg version="1.1" id="Layer_1" xmlns="http://www.w3.org/2000/svg" xmlns:xlink="http://www.w3.org/1999/xlink" x="0px" y="0px"
	 viewBox="0 0 1080 1080" style="enable-background:new 0 0 1080 1080;" xml:space="preserve">
<style type="text/css">
	.st0{fill:url(#SVGID_1_);}
	.st1{fill:#E20000;}
	.st2{enable-background:new    ;}
	.st3{fill:#FFEB00;}
	.st4{fill:url(#SVGID_2_);}
	.st5{fill:url(#SVGID_3_);}
	.st6{fill:url(#SVGID_4_);}
	.st7{fill:#FF0000;}
	.st8{fill:#231F20;}
	.st9{fill:#FFFFFF;}
	.st10{fill:none;stroke:#231F20;stroke-width:8.0103;stroke-linecap:round;stroke-linejoin:round;stroke-miterlimit:10;}
	.st11{display:none;fill:#FF0000;}
	.st12{fill:#FFB600;}
	.st13{fill:none;stroke:#FFA300;stroke-width:1.0132;stroke-miterlimit:10;}
</style>
<linearGradient id="SVGID_1_" gradientUnits="userSpaceOnUse" x1="462.59" y1="778.4152" x2="835.11" y2="778.4152">
	<stop  offset="0" style="stop-color:#FF001E"/>
	<stop  offset="1" style="stop-color:#E6001E"/>
</linearGradient>
<path class="st0" d="M835.1,630c-0.9,23.1-4,46.1-9.4,68.3c-6.4,26.5-15.9,51.9-28.2,75.2C764.1,836.6,711,882.1,644,905.1
	c-4.6,1.6-9.3,3.1-13.9,4.5c-0.5,0.2-1.1,0.3-1.6,0.5c-2.1,0.6-4.1,1.2-6.2,1.8c-0.5,0.2-1.1,0.4-1.6,0.5c-2.1,0.6-4.3,1.1-6.4,1.7
	c-0.5,0.1-0.9,0.2-1.3,0.3c-2.2,0.6-4.4,1.2-6.6,1.7c-0.3,0.1-0.7,0.2-1,0.3c-2.3,0.6-4.6,1.1-6.9,1.6c-0.2,0.1-0.5,0.1-0.7,0.2
	c-2.4,0.5-4.7,1-7.1,1.5c-0.2,0-0.3,0.1-0.5,0.1c-2.4,0.5-4.9,1-7.3,1.4c0,0-0.1,0-0.2,0c-21,3.7-41.6,5.6-61.8,5.6
	c-20,0-39.4-1.8-58.3-5.5C653.5,886.9,791.2,697.8,835.1,630z"/>
<g>
	<g>
		<g>
			<path class="st1" d="M940.1,476.2l8.4-2.7l-0.9,8.3c-2.6,24.8-7.9,50.6-15.9,76.6l-8.1,1c0.9-2.8,1.8-5.7,2.6-8.5l-8.1,1.2
				l-8.1,1.2l2.1-8.1l2.1-8.1l-8.2,1.5l-2.1,7.9l-2.1,7.9l-8.1,1.2l-8.1,1.2c-0.8,2.5-1.6,5.1-2.4,7.6l-8.1,1c0.8-2.5,1.6-5,2.3-7.4
				l1.9-7.4l8.2-1.3l8.2-1.3l2-7.7l-8.2,1.5l-8.2,1.5c0.4-1.2,0.6-2.5,0.8-3.7l0.8-3.7l1.6-7.3l-8.3,1.9l-1.9,8.9
				c-0.3,1.5-0.6,3-1,4.5l-1.2,4.5l-2.4,9c-0.2,0.8-0.4,1.5-0.6,2.3l-0.7,2.3l-1.4,4.5l-8.1,1c7.3-23.6,11.9-46.8,13.7-69.2l8.4-2.7
				l-1.5,13.9c-0.2,2.3-0.7,4.7-1,7l-1.1,7l8.3-2l8.3-2l-0.6,3.7c-0.2,1.2-0.5,2.5-0.8,3.7l-1.6,7.5l8.3-1.7l1.6-7.7
				c0.3-1.3,0.6-2.6,0.8-3.8l0.6-3.8l8.3-2l8.3-2l1.3-7.9l-25.1,6.7L887,514c0.4-2.4,0.9-4.8,1-7.2l0.8-7.1l0.8-7.1l8.4-2.7
				L940.1,476.2z M938.5,491.5l0.8-7.1l-42,12.8l-0.8,7.3l25.2-7.2l8.4-2.4c-0.2,2.6-0.8,5.4-1.2,8l-1.3,8.1l-0.7,4
				c-0.2,1.3-0.6,2.7-0.8,4.1l-8.3,1.9l-8.3,1.9l-1.7,7.8l8.3-1.7l8.3-1.7l-0.9,4.1c-0.3,1.4-0.6,2.7-0.9,4.1l-2.2,8.3l8.2-1.3
				c2.8-9.9,4.6-19.6,6.7-29.4l2.3-14.5l0.6-3.6L938.5,491.5"/>
		</g>
		<g>
			<path class="st1" d="M923.7,559.4l8.1-1l-2.7,8.7c-8.6,26.1-19.9,52.6-33.6,78.7l-7.3-0.8l4.3-8.6l-7.4-0.6l-7.4-0.6l4.1-8.2
				c0.7-1.4,1.3-2.7,1.9-4.1l1.9-4.1l-7.6-0.3l-1.8,4c-0.6,1.3-1.2,2.7-1.9,4l-4,8l-7.4-0.6l-7.4-0.6l-3.8,7.6l-7.3-0.8l3.7-7.5
				l3.8-7.5l7.5,0.5l7.5,0.5c0.7-1.3,1.3-2.6,1.9-3.9l1.8-3.9l-7.6-0.3l-7.6-0.3l3.4-7.5c1.2-2.5,2.2-5,3.2-7.5l-7.8,0.1l-1.9,4.6
				l-2.1,4.6l-4.1,9.1l-1,2.3l-1.1,2.3l-2.3,4.5l-4.6,9.1l-7.3-0.8c12.4-23.6,22.3-47.5,29.5-71.1l8.1-1l-2.3,7.3l-0.6,1.8l-0.7,1.8
				l-1.3,3.6l-2.6,7.3c-0.4,1.2-0.9,2.4-1.3,3.6l-1.5,3.6l7.8-0.3l7.8-0.3l-3.1,7.7c-1,2.6-2,5.1-3.2,7.7l7.7,0.1
				c1.2-2.6,2.3-5.2,3.3-7.8l3.2-7.8l7.8-0.3l7.8-0.3l1.7-4.1c0.5-1.4,1-2.7,1.5-4.1l-23.7,1.3l-7.9,0.4l2.7-7.5l1.3-3.7l0.7-1.9
				l0.6-1.9l2.3-7.4l8.1-1L923.7,559.4z M896.7,627.9c9.5-20,17.7-40,24.3-60l-40.1,4l-0.6,1.9l-0.7,1.9l-1.4,3.8l23.9-1.9l8-0.6
				l-3,8.4c-0.5,1.4-1,2.8-1.5,4.2l-1.7,4.2l-3.4,8.4l-7.8,0.1l-7.8,0.1c-1.1,2.7-2.1,5.4-3.4,8l7.7,0.1l7.7,0.1l-3.8,8.4l-1.9,4.2
				c-0.6,1.4-1.2,2.8-2,4.2L896.7,627.9"/>
		</g>
		<g>
			<path class="st1" d="M888.1,645l7.3,0.8l-4.8,8.7c-14.3,26.1-30.9,51.8-49.6,76.6l-6.2-2.6l6.1-8.1l-6.3-2.4l-6.3-2.4
				c1-1.3,2-2.6,2.9-3.9l2.7-4l5.5-7.9l-6.6-2.1l-5.4,7.7l-2.7,3.9c-0.9,1.3-1.9,2.5-2.8,3.8l-6.3-2.4l-6.3-2.4l-5.4,7.3l-6.2-2.6
				l5.3-7.1c0.9-1.2,1.8-2.4,2.6-3.6l2.5-3.6l6.5,2.2l6.5,2.2l5.2-7.6l-6.6-2.1l-6.6-2.1l2.5-3.6c0.8-1.2,1.6-2.4,2.4-3.6l4.7-7.3
				l-6.8-1.7l-5.7,8.9c-0.9,1.5-2,3-3,4.4l-3.1,4.4l-3.1,4.4c-1,1.5-2,3-3.1,4.4l-6.5,8.7l-6.2-2.6c16.9-22.5,31.8-45.8,44.3-69.5
				l7.3,0.8l-8,14.5c-0.6,1.2-1.4,2.4-2.1,3.6l-2.2,3.6l-4.3,7.2l6.9,1.5l6.9,1.5c-1.5,2.5-3.2,5-4.7,7.5l-4.8,7.5l6.7,1.9l4.9-7.7
				c1.6-2.6,3.4-5.1,4.8-7.7l6.9,1.5l6.9,1.5l4.8-8.1l-21.1-4.1l-7-1.4l2.2-3.7c0.7-1.2,1.5-2.4,2.2-3.7l4.1-7.4l4.1-7.4l7.3,0.8
				L888.1,645z M875.1,668.3c3-4.9,5.7-9.9,8.4-14.8l-36.1-5.1l-4.2,7.6l21.4,3.6l7.1,1.2c-0.7,1.4-1.6,2.8-2.4,4.1l-2.5,4.1
				l-4.9,8.3c-1.6,2.8-3.4,5.5-5.2,8.2l-6.8-1.7l-6.8-1.7l-5,7.8l6.7,1.9l6.7,1.9c-0.9,1.4-1.7,2.7-2.7,4.1l-2.8,4l-5.6,8.1l6.5,2.2
				l5-7.2l2.5-3.6c0.8-1.2,1.7-2.4,2.4-3.6l9.4-14.6l1.2-1.8l1.1-1.8l2.2-3.7L875.1,668.3"/>
		</g>
		<g>
			<path class="st1" d="M687.8,873.3l3.1,5.6l-8.6,6.1c-25.9,18.3-52.7,34.8-80,48.9l-1.3-6.8l8.9-4.6l-1.5-6.7l-1.5-6.7l2.1-1.1
				l2.1-1.2l4.2-2.4l8.4-4.8l-1.8-6.5l-8.3,4.7l-4.1,2.3l-2.1,1.2l-2.1,1.1l-1.5-6.7l-1.5-6.7l-8,4.2l-1.3-6.8l7.8-4.1l1.9-1
				l1.9-1.1l3.8-2.2l1.7,6.6l1.7,6.6l8.1-4.6l-1.8-6.5l-1.8-6.5c1.3-0.7,2.6-1.4,3.8-2.2l3.8-2.3l7.6-4.7l-2.2-6.2l-9.3,5.7
				l-2.3,1.4l-2.3,1.3l-4.7,2.7l-9.4,5.3l-9.5,4.9l-1.3-6.8c24.6-12.8,48.8-27.8,72.1-44.7l3.1,5.6l-14.4,10.2
				c-1.2,0.9-2.4,1.7-3.6,2.5l-3.7,2.4l-7.3,4.8l2.4,6.1l2.4,6.1c-2.5,1.7-5.2,3.3-7.8,4.9l-7.8,4.8l2,6.4l8-4.9
				c2.7-1.6,5.3-3.2,7.9-5l2.4,6.1l2.4,6.1l8.2-5.4l-7.7-18l-2.6-6l3.8-2.5c1.3-0.8,2.5-1.6,3.7-2.5l7.4-5.2l7.4-5.2l3.1,5.6
				L687.8,873.3z M649.4,899.5c10-6.5,20.1-13,29.9-20.1l-14.7-28.8l-7.6,5.3l8.3,17.6l2.8,5.9c-1.4,1-2.8,1.9-4.2,2.8l-4.2,2.8
				l-8.4,5.5c-2.8,1.9-5.6,3.6-8.5,5.3l-2.2-6.2l-2.2-6.2l-8.2,5l2,6.4l2,6.4l-4.3,2.6c-1.4,0.8-2.9,1.6-4.3,2.5l-8.6,4.9l1.6,6.6
				l7.7-4.4c2.6-1.5,5.2-2.9,7.7-4.5L649.4,899.5"/>
		</g>
		<g>
			<path class="st1" d="M767,805.9l4.8,4.2l-7.6,7.4c-23,22.1-47.6,42.7-73.3,61.5l-3.1-5.6l8.3-6.3l-3.3-5.5l-3.3-5.5l7.9-6
				c1.3-1,2.6-2.1,3.9-3.1l3.9-3.1l-3.6-5.2l-3.8,3.1c-1.3,1-2.5,2.1-3.8,3l-7.8,5.9l-3.3-5.5l-3.3-5.5l-7.4,5.6l-3.1-5.6l7.2-5.5
				l7.2-5.5l3.5,5.4l3.5,5.4c1.3-0.9,2.5-2,3.7-3l3.7-3l-3.6-5.2l-3.6-5.2l7.1-5.7c2.4-1.9,4.6-3.9,7-5.9l-4-4.9l-4.2,3.6
				c-1.4,1.2-2.9,2.3-4.3,3.5l-8.6,7l-2.2,1.7c-0.7,0.6-1.5,1.1-2.2,1.7l-4.4,3.3L666,834l-3.1-5.6c23.2-17,45.3-35.9,65.9-56.1
				l4.8,4.2l-6.4,6.2c-1.1,1-2.1,2.1-3.2,3.1l-3.3,3l-6.6,6l-3.3,3c-1.1,1-2.2,1.9-3.4,2.9l4.1,4.8l4.1,4.8l-7.1,6.1
				c-2.4,2-4.7,4.1-7.1,6l3.8,5.1c2.5-2,4.9-4.1,7.3-6.2l7.2-6.2l4.1,4.8l4.1,4.8c1.3-1.1,2.5-2.2,3.8-3.3l3.7-3.4l-12.9-14
				l-4.3-4.7l6.7-6.2l3.4-3.1c1.1-1,2.2-2.1,3.3-3.2l6.5-6.4l4.8,4.2L767,805.9z M704.4,860.8c19.1-15,37.6-30.9,55.2-47.7
				l-23.1-21.8c-1.1,1.1-2.2,2.2-3.4,3.2l-3.4,3.1l13.4,13.5l4.5,4.5l-7.5,6.9l-3.8,3.4c-1.3,1.1-2.6,2.2-3.9,3.3l-7.7,6.7l-4-4.9
				l-4-4.9c-2.5,2.1-4.9,4.3-7.5,6.3l3.8,5.1l3.8,5.1l-7.9,6.4l-4,3.2c-1.3,1.1-2.6,2.2-4,3.2L704.4,860.8"/>
		</g>
		<g>
			<path class="st1" d="M834.9,728.5l6.2,2.6l-3.1,4.2c-0.5,0.7-1,1.4-1.6,2.1l-1.6,2c-19.2,24.6-40.3,48.4-63,70.7l-4.8-4.2
				l3.7-3.6c0.6-0.6,1.3-1.2,1.9-1.8l1.8-1.9l-4.9-4.1l-4.9-4.1l6.9-7.2l3.4-3.6c1.1-1.2,2.3-2.4,3.4-3.6l-5.2-3.7
				c-1.1,1.2-2.2,2.4-3.3,3.5l-3.4,3.5l-6.7,7l-4.9-4.1l-4.9-4.1l-1.6,1.7c-0.5,0.6-1.1,1.1-1.7,1.6l-3.3,3.2l-4.8-4.2l3.3-3.2
				c0.5-0.5,1.1-1.1,1.6-1.6l1.6-1.6l6.3-6.5l5.1,3.9l5.1,3.9l3.3-3.4c1.1-1.1,2.2-2.3,3.3-3.4l-5.2-3.7l-5.2-3.7l6.1-6.7l6.1-6.7
				l-5.5-3.4l-7.4,8.2l-3.7,4.1c-0.6,0.7-1.2,1.4-1.9,2l-1.9,2l-7.7,8c-1.3,1.3-2.5,2.7-3.9,4l-4,3.9l-4.8-4.2l3.9-3.8
				c1.3-1.3,2.5-2.6,3.8-3.9l7.5-7.8l1.9-1.9c0.6-0.6,1.2-1.3,1.8-2l3.6-4l7.2-8l6.9-8.2l3.5-4.1c0.6-0.7,1.2-1.3,1.7-2l1.6-2.1
				l6.6-8.3c1.1-1.4,2.2-2.8,3.3-4.2l3.1-4.2l6.2,2.6l-2.6,3.5c-0.4,0.6-0.8,1.2-1.3,1.7l-1.4,1.7l-5.4,6.8l-2.7,3.4
				c-0.9,1.1-1.8,2.3-2.7,3.4l-5.7,6.7l5.7,3.3l5.7,3.3l-6,7l-6.2,6.9l5.4,3.6l6.4-7l6.1-7.2l5.7,3.3l5.7,3.3l6.4-7.5l-17.4-9.3
				l-5.8-3.1c1-1.1,1.9-2.3,2.8-3.5l2.8-3.5l5.6-7l1.4-1.8c0.5-0.6,0.9-1.2,1.3-1.8l2.6-3.6l6.2,2.6L834.9,728.5z M817.6,750.6
				l11.1-14l-30.4-13.8l-5.7,7.2l17.8,8.8l5.9,2.9l-3.1,3.9c-1,1.3-2,2.6-3.2,3.9l-6.5,7.7l-6.5,7.7l-5.5-3.4l-5.5-3.4l-6.5,7.2
				l5.4,3.6l5.4,3.6l-6.8,7.5c-1.1,1.3-2.3,2.5-3.5,3.7l-3.5,3.7l5.1,3.9l6.3-6.5l6.1-6.7l6.1-6.7c1-1.1,2-2.2,3-3.4l2.9-3.4
				C809.9,759.8,813.8,755.2,817.6,750.6"/>
		</g>
		<g>
			<path class="st1" d="M601,927.2l1.3,6.8c-3,1.6-6.1,3.2-9.1,4.7c-27.4,13.7-55.1,25-82.5,33.9l0.6-7.6l9-3.1l0.4-7.5l0.4-7.5
				l8.6-3c2.9-0.9,5.7-2.2,8.6-3.2l0-7.4c-2.8,1.1-5.6,2.3-8.4,3.2l-8.4,2.9l0.4-7.5l0.4-7.5l-8,2.8l0.6-7.6l7.9-2.7l7.9-2.7
				l-0.2,7.4l-0.2,7.4c2.7-0.9,5.5-2.1,8.2-3.1l0-7.4l0-7.4l7.9-3.1l3.9-1.5c1.3-0.5,2.6-1.1,3.9-1.7l-0.3-7.2
				c-3.2,1.5-6.4,2.6-9.6,3.9l-9.6,3.8c-1.6,0.7-3.2,1.2-4.8,1.7l-4.8,1.7l-9.6,3.3l0.6-7.6c25-8.1,50-18.7,74.7-31.5l1.3,6.8
				c-2.5,1.3-5.1,2.7-7.6,4l-7.6,3.6l-7.6,3.7c-1.3,0.6-2.5,1.2-3.8,1.7l-3.8,1.7l0.5,7.1l0.5,7.1l-8,3.5c-1.3,0.6-2.7,1.2-4,1.7
				l-4,1.6l0.1,7.3l4.1-1.6c1.4-0.5,2.7-1.2,4.1-1.8l8.2-3.6l0.5,7.1l0.5,7.1l4.3-1.9c1.4-0.6,2.9-1.2,4.3-1.9l-2.1-21.1l-0.7-7
				l7.8-3.7l7.8-3.7c2.6-1.3,5.2-2.7,7.8-4.1l1.3,6.8L601,927.2z M529.3,958.9c21-7.7,42-16.7,62.9-27l-5.4-34.3l-8,3.8l2.7,20.9
				l0.9,7l-8.8,4.2c-1.5,0.7-2.9,1.3-4.4,2l-4.4,1.9l-8.8,3.8l-0.3-7.2l-0.3-7.2c-1.4,0.6-2.8,1.2-4.2,1.8l-4.2,1.6l0.1,7.3l0.1,7.3
				l-8.8,3.4c-2.9,1.1-5.9,2.4-8.8,3.3L529.3,958.9"/>
		</g>
		<g>
			<path class="st1" d="M397.5,947.5c-2.5,0-5,0.1-7.4,0l-3.5,8c2.5,0.1,5,0,7.5,0l7.6-0.2l-3.2,8l-3.2,8l4-0.1
				c1.3-0.1,2.7-0.2,4-0.3l9-24.1l3-8l7.4-0.5l3.7-0.3l1.9-0.1l1.9-0.2l7.5-0.9l-2.5,8L423,984.9l-2.5,8l-8.8,1
				c-26.2,2.6-51.6,2.6-75.5-0.1l4.2-8l7.9,0.7l4-8l4-8l7.6,0.6c1.2,0.1,2.6,0.2,3.9,0.2l3.9,0.1l3.7-8l-3.8-0.1
				c-1.3,0-2.5-0.1-3.8-0.2l-7.4-0.6l4-8l4-8l-7.1-0.6l4.2-8l6.9,0.6l6.9,0.6l-3.9,8l-3.9,8c1.2,0.1,2.4,0.2,3.7,0.2l3.7,0.1l3.7-8
				l3.7-8l7.1,0.2c2.3,0.1,4.8,0,7.2,0l3.4-8l-4.4,0.1l-4.3-0.1l-8.6-0.3l-2.2-0.1l-2.1-0.2l-4.2-0.4l-8.4-0.7l4.2-8
				c21.7,2.4,44.7,2.1,68.5-0.8l-2.5,8l-7.3,0.9l-1.8,0.2l-1.8,0.1l-3.6,0.3l-7.2,0.5c-1.2,0.1-2.4,0.2-3.6,0.2l-3.5,0.1l-3.2,8
				l-3.2,8L397.5,947.5z M390.8,963.6c-2.6,0-5.2,0.1-7.7,0l-3.5,8l-3.5,8l-8-0.2l-4-0.1c-1.3,0-2.7-0.1-3.9-0.2l-3.9,8
				c18.7,1.1,38.2,0.7,58.1-1.3l13.2-40l-1.9,0.2l-1.9,0.1l-3.8,0.3l-8.5,24l-2.8,8l-8.3,0.6c-1.4,0.1-2.8,0.2-4.1,0.3l-4.1,0.1
				l-8.1,0.2l3.4-8L390.8,963.6"/>
		</g>
		<g>
			<path class="st1" d="M474.4,938.2l-7.9,1.7l-1.7,7.9l8.1-1.7c1.4-0.3,2.7-0.5,4-0.9l4.1-1l-1.3,7.8l-1.3,7.8l8.5-2.2l3.5-23.2
				l1.2-7.7c2.6-0.7,5.2-1.3,7.8-2.1l7.8-2.4l7.8-2.4l-0.6,7.6l-3,37.8l-0.6,7.6l-9.1,2.8c-27.4,8.4-54.6,14.2-81,17.4l2.5-8
				c2.9-0.3,5.7-0.7,8.6-1l2.3-8l2.3-8l8.4-1.4l8.4-1.4l1.9-7.9l-8.2,1.4l-8.2,1.4l2.3-8l2.3-8c-2.6,0.3-5.1,0.6-7.7,0.9l2.5-8
				c2.5-0.3,5-0.6,7.5-0.9l7.6-1.3l-2.1,7.9l-2.1,7.9l8-1.3l1.9-7.9l1.9-7.9c1.3-0.2,2.6-0.5,3.8-0.7l3.9-0.8l7.7-1.6l1.5-7.8
				l-9.4,2c-1.6,0.3-3.1,0.7-4.7,1l-4.7,0.8l-9.3,1.5c-0.8,0.1-1.6,0.3-2.3,0.4l-2.3,0.3l-4.6,0.5l2.5-8
				c23.9-2.9,48.5-8.4,73.5-16.5l-0.6,7.6l-15.3,4.6c-2.6,0.8-5.1,1.4-7.6,2.1l-7.6,2l-1.3,7.8l-1.3,7.8l-4,1
				C477,937.7,475.7,937.9,474.4,938.2z M471.3,953.8l-8.3,1.8l-1.7,7.9l-1.7,7.9l-4.3,0.9c-1.4,0.3-2.9,0.6-4.3,0.8l-8.5,1.4
				l-2.1,7.9c10.1-1.5,20.5-3.9,30.8-6.1l15.6-4l3.9-1l3.9-1.2l7.8-2.4l3.9-38.1l-8,2.4l-2.9,23l-1,7.7c-2.9,0.9-5.8,1.6-8.7,2.4
				l-8.7,2.2l-4.4,1.1c-1.4,0.4-2.9,0.6-4.3,0.9l1.5-7.8L471.3,953.8"/>
		</g>
		<g>
			<path class="st1" d="M207.3,713.5c-1.7,22.4-0.7,43.8,3.1,63.8l-8.3,4.3c-0.4-2.1-0.8-4.1-1.2-6.1l-0.8-6.3l-0.8-6.3
				c-0.2-1-0.2-2.1-0.3-3.2l-0.2-3.3l-8.4,3.7l-8.4,3.7l-0.4-6.8c-0.1-1.1-0.2-2.3-0.2-3.4l0-3.5l-8.4,3.4l0,3.6
				c0,1.2,0.1,2.3,0.2,3.5l0.4,7l-8.4,3.7l-8.4,3.7l0.2,3.7c0.1,1.2,0.1,2.4,0.3,3.6l25.2-11.6l8.4-3.9l0.8,6.5l0.8,6.5
				c0.4,2.1,0.8,4.2,1.2,6.3l-8.3,4.3L143.5,812l-8.3,4.3c-0.5-2.5-1-4.9-1.4-7.4c-3.6-22.4-4.3-46.3-2.4-70.9l8.4-2.7l-0.4,8
				l8.4-2.9l8.4-2.9l-0.4,7.6c-0.2,2.6-0.1,5-0.1,7.5l8.4-3.2c0-2.5-0.1-4.9,0.1-7.4l0.4-7.5l8.4-2.9l8.4-2.9l0.4-7.2l8.4-2.7
				l-0.4,7l-0.4,7l-8.4,3.1l-8.4,3.1c-0.2,2.5-0.1,4.8-0.1,7.2l8.4-3.2l8.4-3.2l0,6.8l0,3.4c0,1.1,0.1,2.2,0.2,3.3l8.4-3.5
				c-0.3-2.7-0.2-5.5-0.2-8.3l0-8.3c0-1.4,0.1-2.8,0.1-4.2l0.2-4.3l0.4-8.5L207.3,713.5z M156.1,767.6l8.4-3.6
				c-0.1-1.2-0.2-2.4-0.2-3.6l0-3.7l-8.4,3.4l-8.4,3.4l0-7.7c0-2.6-0.1-5.1,0.1-7.7l-8.4,3.1c-0.5,18.4,0.5,36.3,3.1,53.5l41.9-20.9
				l-0.8-6.6L158,789.3l-8.4,4l-0.9-7.3c-0.2-1.2-0.2-2.4-0.3-3.7l-0.2-3.7l-0.5-7.5L156.1,767.6"/>
		</g>
		<g class="st2">
			<g>
				<path class="st1" d="M210.3,777.3c3.8,20,10.3,38.5,19.4,55.2l-7.8,5.7l-5.3-10.5c-0.5-0.9-0.8-1.8-1.2-2.7l-1.1-2.7l-2.3-5.5
					l-8.1,5.2l-8.1,5.2c-0.9-1.9-1.5-3.9-2.2-5.9l-2-6l-8.2,4.9l2.1,6.1c0.7,2,1.3,4.1,2.2,6.1l-8.1,5.2l-8.1,5.2l2.6,6.2l24.1-16
					l8-5.3l1.2,2.8c0.4,0.9,0.8,1.9,1.2,2.8l2.7,5.4l2.7,5.4l-7.8,5.7L167,878.5l-7.9,5.7l-3.2-6.3c-9.6-18.8-16.6-39.5-20.7-61.6
					l8.3-4.3l1.4,7.2l8.3-4.5l8.3-4.5l0.3,1.7l0.4,1.7l0.9,3.3l1.8,6.7l8.2-4.8l-1.7-6.5l-0.9-3.3l-0.4-1.6l-0.3-1.7l8.3-4.5
					l8.3-4.5l-1.2-6.4l8.3-4.3l1.2,6.3l0.3,1.6l0.4,1.5l0.8,3l-8.3,4.6l-8.3,4.6l1.7,6.4l8.2-4.8l8.2-4.8c0.3,1,0.5,2,0.8,3l1,2.9
					l2,5.9l8.1-5.1l-2.4-7.1l-0.6-1.8l-0.5-1.9l-1-3.7l-2-7.4l-1.5-7.7L210.3,777.3z M169.1,836.6l8.2-5.1l-2.1-6.3l-8.2,4.9
					l-8.2,4.9l-1.1-3.3c-0.3-1.1-0.6-2.3-0.9-3.4l-1.8-6.8l-8.3,4.6l1.6,6.1c0.5,2,1,4.1,1.7,6l4,11.7c3.1,7.6,6.1,15.2,9.9,22.2
					l39.6-28.1l-2.8-5.5l-24,16.5l-8,5.5c-0.5-1-1-2-1.4-3.1l-1.3-3.1l-2.6-6.3c-0.9-2.1-1.6-4.3-2.4-6.5L169.1,836.6"/>
			</g>
			<g>
				<path class="st1" d="M229.8,832.5c9.3,16.6,21.1,31.2,35.3,43.7l-7,6.8l-4.3-3.9c-0.7-0.7-1.5-1.3-2.1-2l-2-2.1l-4-4.2l-2-2.1
					c-0.7-0.7-1.2-1.5-1.9-2.2l-7.4,6.5l-7.4,6.5l-3.8-4.7c-1.3-1.6-2.6-3.1-3.8-4.8l-7.5,6.2c1.1,1.7,2.5,3.2,3.8,4.9l3.9,4.8
					l-7.4,6.5L205,899c0.7,0.8,1.4,1.7,2.1,2.5l2.2,2.3l21.8-19.7l7.3-6.6l4.1,4.3l2,2.1c0.7,0.7,1.5,1.3,2.2,2l4.4,4l-7,6.8
					l-34.8,34.3l-7,6.8l-5.1-4.6c-15.1-14.2-27.9-30.7-38.1-49l7.9-5.7l3.5,5.9l7.8-5.9l7.8-5.9l3.4,5.6c0.5,1,1.2,1.8,1.8,2.7
					l1.9,2.7l7.6-6.1l-1.8-2.6c-0.6-0.9-1.3-1.7-1.8-2.6l-3.3-5.5l7.8-5.9l7.8-5.9l-3.1-5.2l7.8-5.7l3.1,5.1l3.1,5.1l-7.7,6l-7.7,6
					c0.5,0.9,1.2,1.7,1.7,2.6l1.8,2.5l7.6-6.1l7.6-6.1l3.4,4.8c1.1,1.7,2.4,3.1,3.7,4.6l7.5-6.3l-2.3-2.8c-0.8-0.9-1.4-2-2.1-2.9
					l-4.2-5.9l-1-1.5c-0.3-0.5-0.6-1-0.9-1.6l-1.9-3.1l-3.8-6.2L229.8,832.5z M200.9,894l7.5-6.3c-1.3-1.7-2.8-3.2-3.9-5l-7.5,6.2
					l-7.5,6.2l-3.8-5.4l-1.9-2.7c-0.6-0.9-1.3-1.8-1.9-2.8l-7.7,6c8.7,13.3,18.8,25.4,30.3,36.3l35.3-33.8c-0.7-0.7-1.5-1.3-2.2-2.1
					l-2.1-2.2l-21.5,20l-7.2,6.7l-4.6-4.8l-2.3-2.4c-0.8-0.8-1.4-1.7-2.1-2.5l-4.2-5.1L200.9,894"/>
			</g>
			<g>
				<path class="st1" d="M310.5,905.1l3.5,1.4l-5.7,7.6l-2.8-1.1c-0.5-0.2-1-0.4-1.4-0.6l-1.4-0.7l-5.4-2.6l-2.7-1.3
					c-0.9-0.4-1.8-0.8-2.7-1.4l-5.2-3l-6.3,7.4l-6.3,7.4l-5.4-3.1l-5.1-3.4l-6.5,7.2l5.2,3.5l5.6,3.2l-6.3,7.4l-6.3,7.4l5.8,3.3
					l18.4-22.3l6.1-7.4c0.9,0.5,1.8,0.9,2.7,1.4l2.8,1.3l5.6,2.7l1.4,0.7c0.5,0.2,1,0.4,1.4,0.6l2.9,1.2l-5.7,7.6l-28.6,38.1
					l-5.7,7.6l-3.4-1.4c-0.6-0.2-1.1-0.5-1.7-0.7l-1.6-0.8c-19.8-9-37.7-20.5-53.3-34.3l7-6.8l2.5,2.3c0.4,0.4,0.8,0.8,1.3,1.1
					l1.3,1.1l6.8-6.9l6.8-6.9l5.2,4l2.6,2c0.9,0.7,1.7,1.4,2.6,2l6.6-7.1c-0.9-0.6-1.7-1.3-2.6-1.9l-2.5-2l-5.1-3.9l6.9-6.9l6.8-6.9
					l-1.2-0.9c-0.4-0.3-0.8-0.7-1.1-1l-2.3-2l7-6.8l2.2,2c0.4,0.3,0.7,0.7,1.1,1l1.2,0.9l4.7,3.7l-6.7,7l-6.7,7l2.5,1.9
					c0.8,0.6,1.6,1.3,2.5,1.9l6.6-7.1l6.6-7.1l5,3.3l5,3.4l6.4-7.3l-6.1-4.1l-3.1-2c-0.5-0.3-1-0.7-1.5-1l-1.4-1.1l-5.7-4.5
					c-0.9-0.8-2-1.5-2.8-2.3l-2.7-2.4l7-6.8l2.6,2.4c0.9,0.8,1.9,1.5,2.8,2.2l5.6,4.4l1.4,1.1c0.5,0.4,1,0.7,1.5,1l3,2l5.9,4
					l6.3,3.6l3.1,1.8c0.5,0.3,1,0.6,1.6,0.9l1.7,0.8l6.6,3.2C308.3,904.1,309.3,904.6,310.5,905.1z M255,951l-5.9-3.4l-5.9-3.4
					l6.4-7.3l6.4-7.3l-5.4-3.6l-6.5,7.2l-6.5,7.2l-5.6-3.8c-1-0.6-1.8-1.3-2.7-2l-2.6-2l-6.7,7l4.7,3.7l5,3.4l5,3.3
					c0.8,0.5,1.7,1.1,2.5,1.6l2.6,1.5c3.5,2,7,4.1,10.6,6l11.1,5.4l29.3-37.8l-5.7-2.8l-18,22.5l-6,7.5l-3.1-1.5
					C257.1,952,256,951.6,255,951"/>
			</g>
			<g>
				<path class="st1" d="M327.8,939.6l-6.5-1.7l-5.2,7.8l6.6,1.7c2.2,0.6,4.4,1.2,6.7,1.6l-4.8,7.9l-4.8,7.9l7.1,1.4l14.1-23.8
					l4.7-7.9l3.3,0.7c1.1,0.2,2.2,0.5,3.3,0.6l6.7,0.9l6.7,1l-4.2,8l-21,40l-4.2,8l-7.9-1.1c-23.6-3.3-45.8-9.2-66-17.7l5.7-7.6
					l6.7,2.7l5.6-7.7l5.6-7.7c1.1,0.4,2.1,0.9,3.2,1.3l3.3,1.1l6.7,2.2l5.3-7.8l-6.5-2.2l-3.3-1.1c-1.1-0.4-2.1-0.8-3.1-1.2l5.6-7.7
					l5.6-7.7l-6-2.4l5.7-7.6l5.8,2.4c1,0.4,1.9,0.8,2.9,1.2l3,1l-5.4,7.7l-5.4,7.7l6.4,2.1l5.3-7.8l5.3-7.8l3,1
					c1,0.3,2.1,0.6,3.1,0.8l6.3,1.7l5-7.9l-7.7-2c-1.3-0.3-2.5-0.8-3.7-1.2l-3.7-1.2l-3.7-1.2c-1.2-0.4-2.5-0.8-3.7-1.3l-7.1-2.9
					l5.7-7.6c18.4,7.6,38.6,12.8,60.2,15.3l-4.2,8l-13.1-1.9c-1.1-0.1-2.1-0.4-3.2-0.6l-3.2-0.6l-6.4-1.3l-4.8,7.9l-4.8,7.9
					C332.1,940.9,330,940.2,327.8,939.6z M317.8,955.4l-6.8-1.8l-5.1,7.8l-5.2,7.8c-1.2-0.3-2.4-0.6-3.5-1l-3.4-1.1l-6.8-2.3
					l-5.4,7.7l6.1,2l3,1c1,0.3,2,0.7,3.1,0.9l12.6,3.3l1.6,0.4l1.6,0.3l3.3,0.7l6.5,1.3c4.3,1,8.8,1.5,13.3,2.2l21.8-39.9l-6.9-1
					l-13.6,23.9l-4.5,8c-1.3-0.1-2.5-0.5-3.7-0.7l-3.6-0.7l-7.3-1.5c-2.5-0.4-4.8-1.2-7.1-1.7l5-7.9L317.8,955.4"/>
			</g>
		</g>
		<g>
			<path class="st1" d="M212.9,645.3l8.1-1c-7.3,23.6-11.9,46.8-13.7,69.2l-8.4,2.7l1.5-13.9c0.2-2.3,0.7-4.7,1-7l1.1-7l-8.3,2
				l-8.3,2l0.6-3.7c0.2-1.2,0.5-2.5,0.8-3.7l1.6-7.5l-8.3,1.7l-1.6,7.7c-0.3,1.3-0.6,2.6-0.8,3.8l-0.6,3.8l-8.3,2l-8.3,2l-1.3,7.9
				l25.1-6.7l8.4-2.2c-0.4,2.4-0.9,4.8-1,7.2l-0.8,7.1l-0.8,7.1l-8.4,2.7l-42.1,13.6l-8.4,2.7l0.9-8.3c2.6-24.8,7.9-50.6,15.9-76.6
				l8.1-1c-0.9,2.8-1.8,5.7-2.6,8.5l8.1-1.2l8.1-1.2l-2.1,8.1l-2.1,8.1l8.2-1.5l2.1-7.9l2.1-7.9l8.1-1.2l8.1-1.2
				c0.8-2.5,1.6-5.1,2.4-7.6l8.1-1c-0.8,2.5-1.6,5-2.3,7.4l-1.9,7.4l-8.2,1.3l-8.2,1.3l-2,7.7l8.2-1.5l8.2-1.5
				c-0.4,1.2-0.6,2.4-0.8,3.7l-0.8,3.7l-1.6,7.3l8.3-1.9l1.9-8.9c0.3-1.5,0.6-3,1-4.5l1.2-4.5l2.4-9c0.2-0.7,0.4-1.5,0.6-2.2
				l0.7-2.3L212.9,645.3z M170.5,688.7l1.7-7.8l-8.3,1.7l-8.3,1.7l0.9-4.1c0.3-1.4,0.6-2.7,0.9-4.1l2.2-8.3l-8.2,1.3
				c-2.8,9.9-4.6,19.6-6.7,29.4l-2.3,14.5l-0.6,3.6l-0.4,3.6l-0.8,7.1l42-12.8l0.8-7.3l-25.2,7.2l-8.4,2.4c0.2-2.6,0.8-5.4,1.2-8
				l1.3-8.1l0.7-4c0.2-1.4,0.6-2.7,0.8-4.1l8.3-1.9L170.5,688.7"/>
		</g>
		<g>
			<path class="st1" d="M288.6,501.2l6.2,2.6c-16.9,22.5-31.8,45.8-44.3,69.5l-7.3-0.8l8-14.5c0.6-1.2,1.4-2.4,2.1-3.6l2.2-3.6
				l4.3-7.2l-6.9-1.5l-6.9-1.5c1.5-2.5,3.2-5,4.7-7.5l4.8-7.5l-6.7-1.9l-4.9,7.7c-1.6,2.6-3.4,5.1-4.8,7.7l-6.9-1.5l-6.9-1.5
				l-4.8,8.1l21.1,4.1l7,1.4l-2.2,3.7c-0.7,1.2-1.5,2.4-2.2,3.7l-4.1,7.4l-4.1,7.4l-7.3-0.8l-36.6-4.2l-7.3-0.8l4.8-8.7
				c14.3-26,30.9-51.7,49.6-76.6l6.2,2.6l-6.1,8.1l6.3,2.4l6.3,2.4c-0.9,1.3-2,2.6-2.9,3.9l-2.7,4l-5.5,7.9l6.6,2.1l5.4-7.7l2.7-3.9
				c0.9-1.3,1.9-2.5,2.8-3.8l6.3,2.4l6.3,2.4l5.4-7.3l6.2,2.6l-5.3,7.1c-0.9,1.2-1.8,2.4-2.6,3.6l-2.5,3.6l-6.5-2.2l-6.5-2.2
				l-5.2,7.6l6.6,2.1l6.6,2.1l-2.5,3.6c-0.8,1.2-1.6,2.4-2.4,3.6l-4.7,7.3l6.8,1.7l5.7-8.9c0.9-1.5,2-2.9,3-4.4l3.1-4.4l3.1-4.4
				c1-1.5,2-3,3.1-4.4L288.6,501.2z M236.9,529.5l5-7.8l-6.7-1.9l-6.7-1.9c0.9-1.4,1.7-2.7,2.7-4.1l2.8-4l5.6-8.1l-6.5-2.2l-5,7.2
				l-2.5,3.6c-0.8,1.2-1.7,2.4-2.4,3.6l-9.4,14.6l-1.2,1.8l-1.1,1.8l-2.2,3.7l-4.4,7.4c-3,4.9-5.7,9.9-8.4,14.8l36.1,5l4.2-7.6
				l-21.4-3.6l-7.1-1.2c0.7-1.4,1.6-2.8,2.4-4.1l2.5-4.1l4.9-8.3c1.6-2.8,3.4-5.5,5.2-8.2l6.8,1.7L236.9,529.5"/>
		</g>
		<g>
			<path class="st1" d="M243.2,572.4l7.3,0.8c-12.4,23.6-22.3,47.5-29.5,71.1l-8.1,1l2.3-7.3l0.6-1.8l0.7-1.8l1.3-3.6l2.6-7.3
				c0.4-1.2,0.9-2.4,1.3-3.6l1.5-3.6l-7.8,0.3l-7.8,0.3l3.1-7.7c1-2.6,2-5.1,3.2-7.7l-7.7-0.1c-1.2,2.6-2.3,5.2-3.3,7.8l-3.2,7.9
				l-7.8,0.3l-7.8,0.3l-1.7,4.1c-0.5,1.4-1,2.7-1.5,4.1l23.7-1.3l7.9-0.4l-2.7,7.5l-1.3,3.7l-0.7,1.9l-0.6,1.9l-2.3,7.4l-8.1,1
				l-40.4,4.9l-8.1,1l2.7-8.7c8.6-26.1,19.9-52.5,33.6-78.7l7.3,0.8l-4.3,8.5l7.4,0.7l7.4,0.6l-4.1,8.2c-0.7,1.4-1.3,2.7-1.9,4.1
				l-1.9,4.1l7.6,0.3l1.8-4c0.6-1.3,1.2-2.7,1.9-4l4-8l7.4,0.6l7.4,0.6l3.8-7.6l7.3,0.8l-3.8,7.5l-3.7,7.5l-7.5-0.5l-7.5-0.5
				c-0.7,1.3-1.3,2.6-1.9,3.9l-1.8,3.9l7.6,0.3l7.6,0.3l-3.4,7.5c-1.2,2.5-2.2,5-3.2,7.5l7.8-0.1l1.9-4.6l2.1-4.6l4.1-9.1l1-2.3
				l1.1-2.3l2.3-4.5L243.2,572.4z M195.1,609.2c1.1-2.7,2.1-5.3,3.4-8l-7.7-0.1l-7.7-0.1l3.8-8.4l1.9-4.2c0.6-1.4,1.2-2.8,2-4.2
				l-7.5-0.5c-9.5,20-17.7,40-24.3,60l40.1-4l0.6-1.9l0.7-1.9l1.4-3.8l-23.9,1.9l-8,0.6l3-8.4c0.5-1.4,1-2.8,1.5-4.2l1.7-4.2
				l3.4-8.4l7.8-0.1L195.1,609.2"/>
		</g>
		<g class="st2">
			<g>
				<path class="st1" d="M414,377.6l3.1,5.6c-23.2,17-45.3,35.9-65.9,56.1l-4.8-4.2l6.4-6.2c1.1-1,2.1-2.1,3.2-3.1l3.3-3l6.6-6
					l3.3-3c1.1-1,2.2-1.9,3.4-2.9l-4.1-4.8l-4.1-4.8l7.1-6.1c2.4-2,4.7-4.1,7.1-6l-3.8-5.1c-2.5,2-4.9,4.1-7.3,6.2l-7.2,6.2
					l-4.1-4.8l-4.1-4.8c-1.3,1.1-2.5,2.2-3.8,3.3l-3.7,3.4l12.9,14l4.3,4.7l-6.7,6.2l-3.4,3.1c-1.1,1-2.2,2.1-3.3,3.2l-6.5,6.4
					l-4.8-4.2l-23.9-21l-4.8-4.2l7.6-7.4c23-22.1,47.6-42.7,73.3-61.5l3.1,5.6l-8.3,6.3l3.3,5.5l3.3,5.5l-7.9,6
					c-1.3,1-2.6,2.1-3.9,3.1l-3.9,3.1l3.6,5.2l3.8-3.1c1.3-1,2.5-2.1,3.8-3l7.8-5.9l3.3,5.5l3.3,5.5l7.4-5.6l3.1,5.6l-7.2,5.5
					l-7.2,5.5l-3.5-5.4l-3.5-5.4c-1.3,0.9-2.5,2-3.7,3l-3.7,3l3.6,5.2l3.6,5.2l-7.1,5.7c-2.4,1.9-4.6,3.9-7,5.9l4,4.9l4.2-3.6
					c1.4-1.2,2.9-2.3,4.3-3.5l8.6-7l2.2-1.7c0.7-0.6,1.5-1.1,2.2-1.7l4.4-3.3L414,377.6z M367,374l-3.8-5.1l7.9-6.4l4-3.2
					c1.3-1.1,2.6-2.2,4-3.2l-3.5-5.4c-19.1,15-37.6,30.9-55.2,47.7l23.1,21.8c1.1-1.1,2.2-2.2,3.4-3.2l3.4-3.1L337,400.3l-4.5-4.5
					l7.5-6.9l3.8-3.4c1.3-1.1,2.6-2.2,3.9-3.3l7.7-6.7l4,4.9l4,4.9c2.5-2.1,4.9-4.3,7.5-6.3L367,374"/>
			</g>
			<g>
				<path class="st1" d="M487.9,331.8l1.3,6.8c-24.6,12.8-48.8,27.8-72.1,44.7l-3.1-5.6l14.4-10.2c1.2-0.9,2.4-1.7,3.6-2.5l3.7-2.4
					l7.3-4.8l-2.4-6.1l-2.4-6.1c2.5-1.7,5.2-3.3,7.8-4.9l7.8-4.8l-2-6.4l-8,4.9c-2.7,1.6-5.3,3.2-7.9,5l-2.4-6.1l-2.4-6.1l-8.2,5.4
					l7.7,18l2.6,6l-3.8,2.5c-1.3,0.8-2.5,1.6-3.7,2.5l-7.4,5.2l-7.4,5.2l-3.1-5.6l-15.6-28.1l-3.1-5.6l8.6-6.1
					c25.9-18.3,52.7-34.8,80-48.9l1.3,6.8l-8.9,4.7l1.5,6.7l1.5,6.7l-2.1,1.1l-2.1,1.2l-4.2,2.4l-8.4,4.8l1.8,6.5l8.3-4.7l4.1-2.3
					l2.1-1.2l2.1-1.1l1.5,6.7l1.5,6.7l8-4.2l1.3,6.8l-7.8,4.1l-1.9,1l-1.9,1.1l-3.8,2.2l-1.7-6.6l-1.7-6.6l-8.1,4.6l1.8,6.5l1.8,6.5
					c-1.3,0.7-2.6,1.4-3.8,2.2l-3.8,2.3l-7.6,4.7l2.2,6.2l9.3-5.7l2.3-1.4l2.3-1.3l4.7-2.7l9.4-5.3L487.9,331.8z M454.3,305.4
					l8.6-4.9l-1.6-6.6l-7.7,4.4c-2.6,1.5-5.2,2.9-7.7,4.5l-15.3,9.4c-10,6.5-20.1,13-29.9,20.1l14.7,28.8l7.6-5.3l-8.3-17.6
					l-2.8-5.9c1.4-1,2.8-1.9,4.2-2.8l4.2-2.8l8.4-5.5c2.8-1.9,5.6-3.6,8.5-5.3l2.2,6.2l2.2,6.2l8.2-5l-2-6.4l-2-6.4l4.3-2.6
					C451.4,307,452.8,306.2,454.3,305.4"/>
			</g>
		</g>
		<g>
			<path class="st1" d="M346.5,435.2l4.8,4.2l-3.9,3.8c-1.3,1.3-2.5,2.6-3.8,3.9l-7.5,7.8l-1.9,1.9c-0.6,0.6-1.2,1.3-1.8,2l-3.6,4
				l-7.2,8l-6.9,8.2l-3.5,4.1c-0.6,0.7-1.2,1.3-1.7,2l-1.6,2.1l-6.6,8.3c-1.1,1.4-2.2,2.8-3.3,4.2l-3.1,4.2l-6.2-2.6l2.6-3.5
				c0.4-0.6,0.8-1.2,1.3-1.7l1.4-1.7l5.4-6.8l2.7-3.4c0.9-1.1,1.8-2.3,2.7-3.4l5.7-6.7l-5.7-3.3l-5.7-3.3l6-7l6.2-6.9l-5.4-3.6
				l-6.4,7l-6.1,7.2l-5.7-3.3l-5.7-3.3l-6.4,7.5l17.4,9.3l5.8,3.1c-1,1.1-1.9,2.3-2.8,3.5l-2.8,3.5l-5.6,7l-1.4,1.7
				c-0.5,0.6-0.9,1.2-1.3,1.8l-2.6,3.6l-6.2-2.6l-31-12.9l-6.2-2.6l3.1-4.2c0.5-0.7,1-1.4,1.6-2.1l1.6-2
				c19.2-24.6,40.3-48.4,63-70.7l4.8,4.2l-3.7,3.6c-0.6,0.6-1.2,1.2-1.9,1.8l-1.8,1.9l4.9,4.1l4.9,4.1l-6.9,7.2l-3.4,3.6
				c-1.1,1.2-2.3,2.4-3.4,3.6l5.2,3.7c1.1-1.2,2.2-2.4,3.3-3.5l3.4-3.5l6.7-7l4.9,4.1l4.9,4.1l1.6-1.7c0.5-0.5,1.1-1.1,1.7-1.6
				l3.3-3.2l4.8,4.2l-3.3,3.2c-0.5,0.5-1.1,1.1-1.6,1.6l-1.6,1.6l-6.3,6.5l-5.1-3.9l-5.1-3.9l-3.3,3.4c-1.1,1.2-2.2,2.3-3.3,3.4
				l5.2,3.7l5.2,3.7l-6.1,6.7l-6.1,6.7l5.5,3.4l7.4-8.2l3.7-4.1c0.6-0.7,1.2-1.4,1.9-2l1.9-2l7.7-8c1.3-1.3,2.5-2.7,3.9-4
				L346.5,435.2z M293.9,453.6l6.5-7.2l-5.4-3.6l-5.4-3.6l6.8-7.5c1.1-1.3,2.3-2.5,3.5-3.7l3.5-3.7l-5.1-3.9l-6.3,6.5l-6.1,6.7
				l-6.1,6.7c-1,1.1-2,2.2-3,3.4l-2.9,3.4c-3.9,4.6-7.8,9.1-11.6,13.7l-11.1,14l30.4,13.8l5.7-7.2l-17.8-8.8l-5.9-2.9l3.1-3.9
				c1-1.3,2.1-2.6,3.2-3.9l6.5-7.7l6.5-7.7l5.5,3.4L293.9,453.6"/>
		</g>
		<g>
			<path class="st1" d="M569.3,238.9l-0.6,7.6l-9,3.1l-0.4,7.5l-0.4,7.5l-8.6,3c-2.9,0.9-5.7,2.2-8.6,3.2l0,7.4
				c2.8-1.1,5.6-2.3,8.4-3.2l8.4-2.9l-0.4,7.5l-0.4,7.5l8.1-2.8l-0.6,7.6l-7.9,2.7l-7.9,2.7l0.2-7.4l0.2-7.4
				c-2.7,0.9-5.5,2.1-8.2,3.1l0,7.4l0,7.4l-7.9,3.1l-3.9,1.5c-1.3,0.5-2.6,1.1-3.9,1.7l0.3,7.2c3.2-1.5,6.4-2.6,9.6-3.9l9.6-3.7
				c1.6-0.7,3.2-1.2,4.8-1.7l4.8-1.7l9.6-3.3l-0.6,7.6c-25,8.1-50,18.7-74.7,31.5l-1.3-6.8c2.5-1.3,5.1-2.7,7.6-4l7.6-3.6l7.6-3.7
				c1.3-0.6,2.5-1.2,3.8-1.7l3.8-1.7l-0.5-7.1l-0.5-7.1l8-3.5c1.3-0.6,2.7-1.2,4-1.7l4-1.6l-0.1-7.3l-4.1,1.6
				c-1.4,0.6-2.7,1.2-4.1,1.8l-8.2,3.6l-0.5-7.1l-0.5-7.1l-4.3,1.9c-1.4,0.6-2.9,1.2-4.3,1.9l2.1,21.1l0.7,7l-7.8,3.7l-7.8,3.7
				c-2.6,1.3-5.2,2.7-7.8,4l-1.3-6.8l-6.4-33.9l-1.3-6.8c3-1.6,6.1-3.2,9.1-4.7C514.1,259.2,541.8,247.8,569.3,238.9z M541.7,263.5
				c2.9-1.1,5.9-2.4,8.8-3.3l0.2-7.4c-21,7.7-42,16.7-62.9,27l5.4,34.3l8-3.8l-2.7-20.9l-0.9-7l8.8-4.2c1.5-0.7,2.9-1.3,4.4-2
				l4.4-1.9l8.8-3.8l0.3,7.2l0.3,7.2c1.4-0.6,2.8-1.2,4.2-1.8l4.2-1.6l-0.1-7.3l-0.1-7.3L541.7,263.5"/>
		</g>
		<g>
			<path class="st1" d="M578.4,236.2c27.4-8.4,54.6-14.2,81-17.4l-2.5,8c-2.9,0.3-5.7,0.7-8.6,1l-2.3,8l-2.3,8l-8.4,1.4l-8.4,1.4
				l-1.9,7.9l8.2-1.4l8.2-1.4l-2.3,8l-2.3,8c2.6-0.3,5.1-0.6,7.7-0.9l-2.5,8c-2.5,0.3-5,0.6-7.5,0.9l-7.6,1.3l2.1-7.9l2.1-7.9
				l-8,1.3l-1.9,7.9l-1.9,7.9c-1.3,0.2-2.6,0.5-3.8,0.7l-3.9,0.8l-7.7,1.6l-1.5,7.8l9.4-2c1.6-0.3,3.1-0.7,4.7-1l4.6-0.8l9.3-1.5
				c0.8-0.1,1.6-0.3,2.3-0.4l2.3-0.3l4.6-0.5l-2.5,8c-23.9,2.9-48.5,8.4-73.5,16.5l0.6-7.6l15.3-4.6c2.6-0.8,5.1-1.4,7.6-2.1l7.6-2
				l1.3-7.8l1.3-7.8l4-1c1.3-0.3,2.6-0.6,3.9-0.9l7.9-1.7l1.7-7.9l-8.1,1.7c-1.4,0.3-2.7,0.5-4,0.9l-4.1,1l1.3-7.8l1.3-7.8l-8.5,2.2
				l-3.5,23.2l-1.2,7.7c-2.6,0.7-5.2,1.3-7.8,2.1l-7.8,2.4l-7.8,2.4l0.6-7.6l3-37.8l0.6-7.6L578.4,236.2z M637.5,237.1l2.1-7.9
				c-10.1,1.5-20.5,3.9-30.8,6.1l-15.6,4l-3.9,1l-3.9,1.2l-7.8,2.4l-3.9,38.1l8-2.4l2.9-23l1-7.7c2.9-0.9,5.8-1.6,8.7-2.4l8.7-2.2
				l4.4-1.1c1.4-0.4,2.9-0.6,4.3-0.9l-1.5,7.8l-1.5,7.8l8.3-1.7l1.7-7.9l1.7-7.9l4.3-0.9c1.4-0.3,2.9-0.6,4.3-0.8L637.5,237.1"/>
		</g>
		<g class="st2">
			<g>
				<path class="st1" d="M668.2,217.7c26.2-2.6,51.6-2.6,75.5,0.1l-4.2,8l-7.9-0.7l-4,8l-4,8l-7.6-0.6c-1.3-0.1-2.6-0.2-3.9-0.2
					l-3.9-0.1l-3.7,8l3.8,0.1c1.3,0,2.5,0.1,3.8,0.2l7.4,0.6l-4,8l-4,8l7.1,0.6l-4.2,8l-6.9-0.6l-6.9-0.6l3.9-8l3.9-8
					c-1.2-0.1-2.4-0.1-3.7-0.2l-3.7-0.1l-3.7,8l-3.7,8l-7.1-0.2c-2.3-0.1-4.8,0-7.2,0l-3.4,8l4.4-0.1l4.3,0.1l8.6,0.3l2.2,0.1
					l2.1,0.2l4.2,0.4l8.4,0.7l-4.2,8c-21.7-2.4-44.7-2.1-68.5,0.8l2.5-8l7.3-0.9l1.8-0.2l1.8-0.1l3.6-0.3l7.2-0.5
					c1.2-0.1,2.4-0.2,3.6-0.2l3.5-0.1l3.2-8l3.2-8l7.4-0.2c2.5,0,5-0.1,7.4,0l3.5-8c-2.5-0.1-5,0-7.5,0l-7.6,0.2l3.2-8l3.2-8l-4,0.1
					c-1.3,0.1-2.7,0.2-4,0.3l-9,24.1l-3,8l-7.4,0.5l-3.7,0.3l-1.8,0.1l-1.9,0.2l-7.5,0.9l2.5-8l12.3-39.9l2.5-8L668.2,217.7z
					 M719.8,232.5l3.9-8c-18.7-1.1-38.2-0.6-58.1,1.3l-13.2,40l1.9-0.2l1.9-0.1l3.8-0.3l8.5-24.1l2.8-8l8.3-0.6
					c1.4-0.1,2.8-0.2,4.1-0.3l4.1-0.1l8.1-0.2l-3.4,8l-3.4,8c2.6,0,5.2-0.1,7.7,0l3.5-8l3.5-8l8,0.2l4,0.1
					C717.2,232.3,718.5,232.3,719.8,232.5"/>
			</g>
			<g>
				<path class="st1" d="M751.6,218.9c23.6,3.3,45.7,9.2,66,17.7l-5.7,7.6l-6.7-2.7l-5.6,7.7l-5.6,7.7c-1.1-0.4-2.1-0.9-3.2-1.3
					l-3.3-1.1l-6.7-2.2l-5.3,7.8l6.5,2.2l3.3,1.1c1.1,0.4,2.1,0.8,3.1,1.2l-5.6,7.7l-5.6,7.7l6,2.4l-5.7,7.6l-5.8-2.4
					c-1-0.4-1.9-0.8-2.9-1.2l-3-1l5.4-7.7l5.4-7.7l-6.4-2.1l-5.3,7.8l-5.3,7.8l-3-1c-1-0.3-2.1-0.6-3.1-0.8l-6.3-1.7l-5,7.9l7.7,2
					c1.3,0.3,2.5,0.8,3.7,1.2l3.7,1.2l3.7,1.2c1.2,0.4,2.5,0.8,3.7,1.3l7.1,2.9l-5.7,7.6c-18.4-7.6-38.6-12.8-60.2-15.3l4.2-8
					l13.1,1.9c1.1,0.1,2.1,0.4,3.2,0.6l3.2,0.6l6.4,1.3l4.8-7.9l4.8-7.9c2.3,0.4,4.3,1.1,6.5,1.6l6.5,1.7l5.2-7.8l-6.6-1.7
					c-2.2-0.6-4.4-1.2-6.7-1.6l4.8-7.9l4.8-7.9l-7.1-1.4L739,269l-4.7,7.9l-3.3-0.7c-1.1-0.2-2.2-0.5-3.3-0.6l-6.7-0.9l-6.7-1l4.2-8
					l21-40l4.2-8L751.6,218.9z M792.9,246.7l5.4-7.7l-6.1-2l-3-1c-1-0.3-2-0.7-3.1-0.9l-12.6-3.3l-1.6-0.4l-1.6-0.3l-3.3-0.7
					l-6.5-1.3c-4.3-1-8.8-1.5-13.3-2.2l-21.8,39.9l6.9,1l13.6-23.9l4.5-7.9c1.3,0.1,2.5,0.4,3.7,0.7l3.6,0.7l7.3,1.5
					c2.5,0.4,4.8,1.2,7.1,1.7l-5,7.9l-5,7.9l6.8,1.8l5.1-7.8l5.2-7.8c1.2,0.3,2.4,0.6,3.5,1l3.4,1.1L792.9,246.7"/>
			</g>
		</g>
		<g class="st2">
			<g>
				<path class="st1" d="M882.7,278.3c15.1,14.2,27.9,30.7,38.1,49l-7.9,5.7l-3.5-5.9l-7.8,5.9L894,339l-3.4-5.6
					c-0.5-1-1.2-1.8-1.8-2.7l-1.9-2.7l-7.6,6.1l1.8,2.6c0.6,0.9,1.3,1.7,1.8,2.6l3.3,5.5l-7.8,5.9l-7.8,5.9l3.2,5.2l-7.9,5.7
					l-3.1-5.1l-3.1-5.1l7.7-6l7.7-6c-0.5-0.9-1.2-1.7-1.7-2.6l-1.8-2.5l-7.6,6.1l-7.6,6.1l-3.4-4.8c-1.1-1.7-2.4-3.1-3.7-4.6
					l-7.5,6.3l2.3,2.8c0.8,0.9,1.4,2,2.1,2.9l4.2,5.9l1,1.5c0.3,0.5,0.6,1,0.9,1.5l1.9,3.1l3.8,6.2l-7.8,5.7
					c-9.3-16.6-21.1-31.2-35.3-43.7l7-6.8l4.3,3.9c0.7,0.7,1.5,1.3,2.1,2l2,2.1l4,4.2l2,2.1c0.7,0.7,1.2,1.5,1.9,2.2l7.4-6.5
					l7.4-6.5l3.8,4.7c1.3,1.6,2.6,3.1,3.8,4.8l7.5-6.2c-1.1-1.7-2.5-3.2-3.8-4.9l-3.9-4.8l7.4-6.4l7.4-6.5c-0.7-0.8-1.4-1.7-2.1-2.5
					l-2.2-2.3l-21.8,19.7l-7.3,6.6l-4.1-4.3l-2-2.1c-0.7-0.7-1.5-1.3-2.2-2l-4.4-4l7-6.8l34.8-34.3l7-6.8L882.7,278.3z M898.3,327.4
					l7.7-6c-8.7-13.3-18.8-25.4-30.3-36.3l-35.3,33.8c0.7,0.7,1.5,1.3,2.2,2.1l2.1,2.2l21.5-20l7.2-6.7l4.6,4.8l2.3,2.4
					c0.8,0.8,1.4,1.7,2.1,2.5l4.2,5.1l-7.5,6.3l-7.5,6.3c1.3,1.6,2.8,3.2,3.9,5l7.5-6.2l7.5-6.2l3.8,5.4l1.9,2.7
					C897,325.6,897.7,326.4,898.3,327.4"/>
			</g>
			<g>
				<path class="st1" d="M824.3,239.4c19.8,9,37.7,20.5,53.3,34.3l-7,6.8l-2.5-2.3c-0.4-0.4-0.8-0.8-1.3-1.1l-1.3-1l-6.8,6.9
					l-6.8,6.9l-5.2-4l-2.6-2c-0.9-0.7-1.7-1.4-2.6-2l-6.6,7.1c0.9,0.6,1.7,1.3,2.6,1.9l2.5,2l5.1,3.9l-6.9,6.9l-6.8,6.9l1.2,0.9
					c0.4,0.3,0.8,0.7,1.1,1l2.3,2l-7,6.8l-2.2-2c-0.4-0.3-0.7-0.7-1.1-1l-1.2-0.9l-4.7-3.7l6.7-7l6.7-7l-2.5-1.9
					c-0.8-0.6-1.6-1.3-2.5-1.9l-6.6,7.1l-6.6,7.1l-5-3.3l-5-3.4l-6.4,7.3l6.1,4.1l3.1,2c0.5,0.3,1,0.7,1.5,1l1.4,1.1l5.7,4.5
					c0.9,0.8,2,1.5,2.8,2.3l2.7,2.4l-7,6.8l-2.6-2.4c-0.9-0.8-1.9-1.5-2.8-2.2l-5.6-4.4l-1.4-1.1c-0.5-0.4-1-0.7-1.5-1l-3-2l-6-4
					l-6.3-3.6l-3.1-1.8c-0.5-0.3-1-0.6-1.6-0.9l-1.7-0.8l-6.6-3.2c-1.1-0.5-2.2-1.1-3.3-1.6l-3.5-1.4l5.7-7.6l2.8,1.1
					c0.5,0.2,1,0.4,1.4,0.6l1.4,0.7l5.4,2.6l2.7,1.3c0.9,0.4,1.8,0.8,2.7,1.4l5.2,3l6.3-7.4l6.3-7.4l5.4,3.1l5.1,3.4l6.5-7.2
					l-5.2-3.5l-5.6-3.2l6.3-7.4l6.3-7.4l-5.8-3.3l-18.4,22.3l-6.1,7.4c-0.9-0.5-1.8-0.9-2.7-1.4l-2.8-1.3l-5.6-2.7l-1.4-0.7
					c-0.5-0.2-1-0.4-1.4-0.6l-2.9-1.2l5.7-7.6l28.6-38.1l5.7-7.6l3.4,1.4c0.6,0.2,1.1,0.5,1.7,0.7L824.3,239.4z M853.4,278.9l6.7-7
					l-4.7-3.7l-5-3.4l-5-3.3c-0.8-0.5-1.7-1.1-2.5-1.6l-2.6-1.5c-3.5-2-7-4.1-10.6-6l-11.1-5.4l-29.3,37.8l5.7,2.8l18-22.5l6-7.5
					l3.1,1.5c1,0.5,2.1,1,3.1,1.6l5.9,3.4l5.9,3.4l-6.4,7.3l-6.4,7.3l5.4,3.6l6.5-7.2l6.5-7.2l5.6,3.8c1,0.6,1.8,1.3,2.7,2
					L853.4,278.9"/>
			</g>
		</g>
		<g>
			<path class="st1" d="M946.2,402.6c3.6,22.4,4.3,46.3,2.4,70.9l-8.4,2.7l0.4-8l-8.4,2.9l-8.4,2.9l0.4-7.6c0.2-2.6,0.1-5,0.1-7.5
				l-8.4,3.2c0,2.5,0.1,4.9-0.1,7.4l-0.4,7.5l-8.4,2.9l-8.4,2.9l-0.4,7.1l-8.4,2.7l0.4-7l0.4-7l8.4-3.1l8.4-3.1
				c0.2-2.5,0.1-4.8,0.1-7.2l-8.4,3.2l-8.4,3.2l0-6.8l0-3.4c0-1.1-0.1-2.2-0.2-3.3l-8.4,3.5c0.3,2.7,0.2,5.5,0.2,8.3l0,8.3
				c0.1,1.4-0.1,2.8-0.1,4.2l-0.2,4.3l-0.4,8.5l-8.4,2.7c1.7-22.4,0.7-43.8-3.1-63.8l8.3-4.3c0.4,2.1,0.8,4.1,1.2,6.1l0.8,6.3
				l0.8,6.3c0.2,1,0.2,2.1,0.3,3.2l0.2,3.3l8.4-3.7l8.4-3.7l0.4,6.8c0.1,1.1,0.2,2.3,0.2,3.4l0,3.5l8.4-3.4l0-3.6
				c0-1.2-0.1-2.3-0.2-3.5l-0.4-7l8.4-3.7l8.4-3.7l-0.2-3.7c-0.1-1.2-0.1-2.4-0.3-3.6L897.6,441l-8.4,3.9l-0.8-6.5l-0.8-6.5
				c-0.4-2.1-0.8-4.2-1.2-6.3l8.3-4.3l41.7-21.7l8.3-4.3C945.3,397.7,945.8,400.1,946.2,402.6z M932.5,463.3l8.4-3.1
				c0.5-18.4-0.5-36.4-3.1-53.5l-41.9,20.9l0.8,6.6l25.2-12.1l8.4-4l0.9,7.3c0.2,1.2,0.2,2.5,0.3,3.7l0.2,3.7l0.5,7.5l-8.4,3.5
				l-8.4,3.5c0.1,1.2,0.2,2.4,0.2,3.6l0,3.7l8.4-3.4l8.4-3.4l0,7.7C932.6,458.2,932.7,460.7,932.5,463.3"/>
		</g>
		<g>
			<path class="st1" d="M924.1,333.6c9.6,18.8,16.6,39.5,20.7,61.6l-8.3,4.3l-1.4-7.2l-8.3,4.5l-8.3,4.5l-0.3-1.7l-0.4-1.7l-0.9-3.3
				l-1.8-6.7l-8.2,4.8l1.7,6.5l0.9,3.3l0.4,1.6l0.3,1.7l-8.3,4.5l-8.3,4.5l1.2,6.4l-8.3,4.3l-1.2-6.3l-0.3-1.6l-0.4-1.5l-0.8-3
				l8.3-4.6l8.3-4.6l-1.7-6.4l-8.2,4.8l-8.2,4.8c-0.3-1-0.5-2-0.8-3l-1-2.9l-2-5.9l-8.1,5.1l2.4,7.1l0.6,1.8l0.5,1.9l1,3.7l2,7.4
				l1.5,7.7l-8.3,4.3c-3.8-20-10.3-38.5-19.4-55.2l7.8-5.7l5.3,10.5c0.5,0.9,0.8,1.8,1.2,2.7l1.1,2.7l2.3,5.5l8.1-5.2l8.1-5.2
				c0.9,1.9,1.5,3.9,2.2,5.9l2,6l8.2-4.9l-2.1-6.1c-0.7-2-1.3-4.1-2.2-6l8.1-5.2l8.1-5.2l-2.6-6.2l-24.1,16.1l-8,5.3l-1.2-2.8
				c-0.4-0.9-0.8-1.9-1.2-2.8l-2.7-5.4l-2.7-5.4l7.9-5.7l39.2-28.7l7.9-5.7L924.1,333.6z M925.1,390l8.3-4.6l-1.6-6.1
				c-0.5-2-1-4.1-1.7-6l-4-11.7c-3.1-7.6-6.1-15.2-9.9-22.2l-39.6,28.1l2.8,5.5l24-16.5l8-5.5c0.5,1,1,2,1.4,3.1l1.3,3.1l2.6,6.3
				c0.9,2.1,1.6,4.3,2.4,6.5l-8.1,5.1l-8.2,5.1l2.1,6.3l8.2-4.9l8.2-4.9l1.1,3.3c0.3,1.1,0.6,2.3,0.9,3.4L925.1,390"/>
		</g>
	</g>
</g>
<title>Characters</title>
<path class="st3" d="M315.6,283.2c-12.6,23.6-17,32.6-17.7,34C303.5,304.9,313.6,286.8,315.6,283.2z"/>
<path class="st3" d="M338.7,265.5c2.4-0.5,4.8-0.8,7.3-0.7c4.8,0,9.5,1,13.7,2.9C358.2,267.3,349,263.8,338.7,265.5z"/>
<path class="st3" d="M712.1,471.2c-10.3,39.1-34.8,79.9-67.2,112c-38.8,38.3-84.5,60.6-132.4,64.5c-3.4,0.2-6.9,0.4-10.3,0.6
	c-1.1,0-2.2,0.1-3.3,0.1c-2.2,0.1-4.5,0.2-6.7,0.2h-4.3c-1.8,0-3.6-0.1-5.4-0.1c-1.7-0.1-3.3-0.1-5-0.2c-1.5,0-2.9-0.1-4.3-0.2
	c-1.9-0.1-3.8-0.2-5.7-0.4c-0.9-0.1-1.7-0.2-2.6-0.3c-7.9-0.7-15.7-1.8-23.2-3.3c-0.2,0-0.3-0.1-0.5-0.1c-4.1-0.8-8.1-1.7-12.1-2.7
	c-47-12-86.3-38.6-114.4-78.3c-47.8-67.7-54.3-161.8-16.9-245.5l55.1,26.1c3.3-23.9,8.7-47.2,16.3-69.7c2.5,2.4,4.7,5.2,6.4,8.4
	c2.5,3.9,28.7,41.7,96.3,40.5c24.6-0.5,45.9-15.7,63.9-38.1c0.7-0.8,1.3-1.6,1.9-2.4c1-1.3,2-2.5,2.9-3.8c0.7-0.9,1.3-1.8,2-2.7
	c1.1-1.4,2.1-2.9,3.1-4.4c0.8-1.2,1.5-2.3,2.3-3.5c1-1.5,2-3.1,3-4.7c0.6-1,1.3-2.1,1.9-3.1c0.8-1.4,1.6-2.7,2.4-4.1
	c0.5-1,1.1-2,1.7-3c1.3-2.1,2.4-4.3,3.6-6.5c0.5-1.1,1.1-2.1,1.6-3.2c0.8-1.4,1.5-2.9,2.2-4.3c0.6-1.1,1.1-2.3,1.7-3.4
	c0.7-1.7,1.5-3.3,2.3-5c0.7-1.4,1.3-2.9,2-4.3c0.8-1.7,1.5-3.5,2.3-5.2c0.5-1.1,1-2.2,1.5-3.4c0.6-1.5,1.3-3,1.9-4.5
	c0.4-1.1,0.9-2.2,1.3-3.3c1-2.3,1.9-4.7,2.8-7c0.4-1.1,0.8-2.1,1.2-3.2c0.6-1.6,1.1-3.2,1.7-4.7c0.4-1.1,0.8-2.2,1.2-3.3
	c0.6-1.9,1.3-3.7,1.9-5.5c0.4-1.1,0.8-2.3,1.2-3.5c0.7-1.9,1.3-3.7,1.9-5.6c0.4-1,0.7-2,1-3c0.5-1.7,1-3.3,1.5-4.9
	c0.3-0.9,0.5-1.7,0.8-2.6c0.7-2.3,1.3-4.6,2-6.8c0.2-0.8,0.5-1.6,0.7-2.4c0.5-1.7,1-3.3,1.4-4.9c0.3-0.8,0.5-1.6,0.7-2.4
	c0.6-2,1.1-4,1.6-6c0.1-0.4,0.2-0.8,0.3-1.2c0.5-2,1-4,1.5-5.9c0.2-0.7,0.3-1.3,0.5-2c0.4-1.6,0.7-3.2,1.1-4.7
	c0.1-0.5,0.2-1,0.3-1.5c0.4-1.9,0.8-3.8,1.2-5.6c0.1-0.4,0.2-0.9,0.3-1.3c0.3-1.4,0.6-2.8,0.9-4.1c0.1-0.4,0.2-0.9,0.3-1.4
	c0.3-1.7,0.6-3.3,0.9-4.8c0.7-3.8,2-7.4,3.8-10.7c5.5-9.8,15.6-16.6,27.3-17.6c3.9-0.4,7.8,0,11.4,0.9c1.8,0.4,3.6,1.1,5.3,1.8
	c8.5,3.8,15.4,10.9,18.7,20.1C726.7,258,738.8,370.6,712.1,471.2z"/>
<linearGradient id="SVGID_2_" gradientUnits="userSpaceOnUse" x1="369.46" y1="238.08" x2="402.16" y2="238.08">
	<stop  offset="0" style="stop-color:#FF001E"/>
	<stop  offset="1" style="stop-color:#E6001E"/>
</linearGradient>
<path class="st4" d="M370,273.7c0,0-0.2-0.1-0.5-0.4c8.3-24.6,19.3-48.2,32.7-70.8L370,273.7z"/>
<linearGradient id="SVGID_3_" gradientUnits="userSpaceOnUse" x1="789.25" y1="457.135" x2="809.24" y2="457.135">
	<stop  offset="0" style="stop-color:#FF001E"/>
	<stop  offset="1" style="stop-color:#E6001E"/>
</linearGradient>
<path class="st5" d="M809.2,487.4c-7.5-17.8-14.5-40.2-20-60.6c5.5,19.3,11.1,36,15.5,48.3c0.3,1,0.7,1.9,1,2.8
	c0.7,1.8,1.3,3.5,1.9,5.1C808.2,484.6,808.7,486.1,809.2,487.4z"/>
<linearGradient id="SVGID_4_" gradientUnits="userSpaceOnUse" x1="817.74" y1="531.505" x2="829.33" y2="531.505">
	<stop  offset="0" style="stop-color:#FF001E"/>
	<stop  offset="1" style="stop-color:#E6001E"/>
</linearGradient>
<path class="st6" d="M829.3,553.2c-2.2-10.9-5.8-26.2-11.6-43.4C822.7,523.8,826.5,538.1,829.3,553.2z"/>
<path class="st7" d="M835.5,620.4c0,2-0.1,4-0.3,5.2c0,1.5-0.1,2.9-0.1,4.4c-43.9,67.8-181.6,256.8-372.5,291.4
	c-41.2-7.9-79.7-24.4-114.2-49.3c-6.5-4.7-12.9-9.7-19.2-15.1c-45.9-39.1-80.9-92.7-101.2-154.9c-20.2-61.8-24.9-129.4-13.5-195.4
	c3.2-18.9,7.8-38.4,13.8-59.4c2.8-9.4,10.7-16.8,20.9-18.4c4.8-0.7,9.8,0,14.3,1.9l66.6,27.2c11,4.5,22.9-4.4,21.6-16.3
	c-2.8-25.6-3.7-56.1,0.1-89.4c0.3-2.9,0.7-5.8,1.1-8.8l479.2,226.6c1.2,8.6,2.1,17.5,2.8,26.7v0.3c0,0.6,0.1,1.1,0.1,1.7
	C835.4,606.2,835.5,613.3,835.5,620.4z"/>
<g>
	<ellipse class="st8" cx="389.6" cy="718.2" rx="39.8" ry="75.7"/>
	<path class="st9" d="M402,741.2c0,18-7.5,32.6-16.7,32.6s-16.7-14.6-16.7-32.6s7.5-32.6,16.7-32.6C394.6,708.6,402,723.2,402,741.2
		z"/>
	<ellipse class="st8" cx="654.4" cy="718.2" rx="39.8" ry="75.7"/>
	<ellipse class="st9" cx="650.1" cy="741.2" rx="16.7" ry="32.6"/>
</g>
<path class="st10" d="M374.5,624.3c0,0,12,31.5,44.5,20.7"/>
<path class="st10" d="M666.8,624.3c0,0-12,31.5-44.5,20.7"/>
<path class="st11" d="M1290,520h10v-10v-10h10v-10h-90h-10v10v50v10h10h10h10v-10v-30h10v10v10h10h10v10h-10h-10v10v10h-40v10h100
	v-10h-50v-10h10h10v-10v-10h10v10v10h10h10v-10h-10v-10v-10h-10h-10v-10H1290z M1270,530h-10v-10v-10h-10h-10h-10v10v30h-10v-50h70
	v10h-10h-10v10V530z"/>
<g>
	<g>
		<g>
			<path class="st12" d="M358.8,806.5l-3.7-3.3l-4.5,4.9l3.7,3.3l1.9,1.7l1.9,1.6l7.7,6.4l-4.1,5.2l-4.1,5.2l4,3.4
				c1.3,1.1,2.7,2.3,4.1,3.3l11.7-16l3.9-5.3l7.5,5.9c2.5,1.9,5,4,7.5,5.9l7.7,5.6l-3.4,5.8l-16.8,28.8l-3.4,5.8l-9-6.6
				c-26.8-20.2-52.3-42.4-76-66l5.1-4.2l3.8,3.9c1.3,1.3,2.6,2.5,3.9,3.8l5-4.4l5-4.4l7.6,7.2c2.5,2.4,5,4.8,7.7,7.1l4.6-4.7
				c-2.6-2.2-5-4.6-7.5-7l-7.4-7l5-4.4l5-4.4c-1.2-1.1-2.4-2.2-3.5-3.4l-3.4-3.5l5.1-4.2l3.3,3.4c1.1,1.1,2.3,2.2,3.4,3.3l6.9,6.6
				l-4.8,4.6l-4.8,4.6c2.4,2.3,4.8,4.6,7.3,6.8l4.6-4.7l4.6-4.7l7.1,6.3l3.6,3.2l1.8,1.6l1.8,1.5l4.3-5c-0.7-0.6-1.5-1.2-2.2-1.9
				l-2.2-1.9l-4.4-3.9l-4.4-3.9c-1.4-1.3-2.9-2.6-4.3-3.9l-8.5-8l-4.2-4l-4.1-4.1l5.1-4.2c21.3,21.4,44.6,41.1,69,58.9l-3.4,5.8
				l-7.5-5.5c-2.5-1.8-4.9-3.8-7.4-5.7l-7.3-5.7c-1.2-0.9-2.4-1.9-3.6-2.9l-3.6-3l-4.1,5.2l-4.1,5.2l-7.5-6.3l-1.9-1.6L358.8,806.5z
				 M352,818.1l-1.9-1.7l-3.8-3.4l-4.5,4.9l-4.5,4.9l-8-7.1c-2.7-2.3-5.3-4.8-7.9-7.3l-4.8,4.6c18.7,17.5,38.3,34,58.7,49.5
				l17.7-28.1c-2.6-1.9-5.1-4-7.7-6l-11.2,16.4l-3.7,5.5l-8.4-6.6c-1.4-1.1-2.8-2.2-4.2-3.4l-4.1-3.4l-8.2-6.9l4.3-5l4.3-5
				L352,818.1"/>
		</g>
		<g>
			<path class="st12" d="M441.1,867.1l-8.1-5.2l-2.6,6.3l8.3,5.3c1.4,0.9,2.8,1.7,4.2,2.6l4.2,2.5l-2.2,6.5l-2.2,6.5l8.9,5.2l5.9-20
				l2-6.7l2,1.2l2,1.1l4.1,2.2l8.1,4.5c1.4,0.7,2.7,1.5,4.1,2.2l4.1,2.1l-1.4,7l-6.9,34.9l-1.4,7l-4.8-2.4c-1.6-0.8-3.2-1.7-4.8-2.6
				c-28.8-15.3-57-33.1-84.1-52.9l3.4-5.8l8.8,6.4l3.2-5.9l3.2-5.9l8.6,5.9l8.6,5.9l2.8-6.2l-8.4-5.8l-8.4-5.8l3.2-5.9l3.2-5.9
				l-7.9-5.8l3.4-5.8l7.7,5.6l7.8,5.4l-3,6l-3,6l8.2,5.6l2.8-6.2l2.8-6.2c2.6,1.7,5.3,3.4,7.9,5.1l8,5.1l2.4-6.4l-9.7-6.2l-4.9-3.1
				c-1.6-1-3.2-2.2-4.8-3.2l-9.5-6.5c-0.8-0.5-1.6-1.1-2.4-1.6l-2.3-1.7l-4.7-3.4l3.4-5.8l4.6,3.3l2.3,1.7c0.8,0.5,1.6,1.1,2.3,1.6
				l9.3,6.4c1.6,1.1,3.1,2.1,4.7,3.2l4.7,3l9.4,6l1.2,0.8l1.2,0.7l2.4,1.4l4.8,2.8l4.8,2.8c1.6,0.9,3.2,1.9,4.8,2.8l9.7,5.3l4.8,2.7
				l4.9,2.4l-1.4,7l-4-2c-1.3-0.6-2.7-1.4-4-2.1l-8-4.3l-4-2.2l-2-1.1l-2-1.2l-7.9-4.7l-2.2,6.5l-2.2,6.5l-4.1-2.4
				C443.8,868.8,442.4,868,441.1,867.1z M436.3,879.9l-8.5-5.5l-2.6,6.3l-2.6,6.3c-3-1.9-6-3.8-8.9-5.7l-8.8-6l-3,6l7.9,5.4
				c1.3,0.9,2.6,1.8,4,2.6l4,2.6l8,5.1l4,2.5c1.3,0.9,2.7,1.6,4,2.4l16.2,9.6l16.4,9l7.9-34.4l-8.4-4.6l-5.3,20.3l-1.8,6.8l-4.6-2.5
				l-2.3-1.3l-2.3-1.3l-9.1-5.4l-4.5-2.7c-1.5-0.9-3-1.8-4.5-2.7l2.4-6.4L436.3,879.9"/>
		</g>
		<g>
			<path class="st12" d="M525,910l-8.5-3.5l-0.6,7.4l8.7,3.6l4.4,1.8c1.5,0.6,2.9,1.2,4.4,1.7l-0.1,7.5l-0.1,7.5l9.1,3.4l-0.2-22.9
				L542,909l8.3,3.1l8.3,2.7l8.3,2.7l0.7,7.8l3.3,39.1l0.7,7.8l-9.7-3.2c-29.2-9.6-58.5-21.9-87.5-36.7l1.4-7l9.4,4.8l1.2-7.1
				l1.2-7.1l4.5,2.3l4.5,2.1l9.1,4.2l0.8-7.3l-8.9-4.1l-4.4-2l-4.4-2.2l1.2-7.1l1.2-7.1l-8.4-4.2l1.4-7l8.2,4.1l4.1,2.1l4.1,1.9
				l-1,7.2l-1,7.2l8.7,4l0.8-7.3l0.8-7.3c2.8,1.3,5.5,2.6,8.3,3.7l8.3,3.4l0.4-7.5l-10.1-4.2c-3.4-1.5-6.7-3.1-10.1-4.6l-5-2.3
				l-2.5-1.2c-0.8-0.4-1.7-0.8-2.5-1.2l-10-5l1.4-7c26,13.3,52.5,24.1,78.8,32.4l0.7,7.8l-16.2-5.3l-16.2-6l-0.1,7.5l-0.1,7.5
				c-1.4-0.5-2.8-1.1-4.3-1.7L525,910z M524.3,924.9l-8.9-3.7l-0.5,7.4l-0.6,7.4c-3.1-1.2-6.2-2.7-9.3-4.1l-9.3-4.3l-1,7.2
				c5.5,2.5,11.1,5.1,16.6,7.6l16.7,6.9c2.8,1.2,5.6,2.2,8.3,3.2l8.3,3.1c2.8,1,5.6,2.1,8.3,3.1l8.3,2.7l-2.3-38.8l-8.5-2.8
				l0.8,23.1l0.3,7.7l-9.3-3.5l-9.3-3.5c-1.6-0.6-3.1-1.2-4.7-1.9l-4.7-1.9l0.4-7.5L524.3,924.9"/>
		</g>
		<g>
			<path class="st12" d="M664.4,984l2.7,8.2c-1.5-0.1-3.1-0.3-4.7-0.5l-4.7-0.6c-3.5-0.5-7-0.9-10.6-1.4l-10.7-1.8
				c-7.1-1.1-14.3-2.7-21.5-4.2c-3.6-0.7-7.2-1.6-10.8-2.5l-10.8-2.7c-3.6-1-7.3-2.1-10.9-3.1l-5.4-1.6l-2.7-0.8
				c-0.2,0-0.3-0.1-0.5-0.1c-0.7-0.2-1.5-0.5-2.3-0.7l-0.7-7.8l2.4,0.8l2.4,0.7l4.7,1.4l-0.9-7.9l-0.9-7.9l9.1,2.6
				c1.5,0.5,3,0.8,4.5,1.2l4.5,1.1l-1.3-8l-4.4-1.1c-1.5-0.4-2.9-0.7-4.4-1.2l-8.9-2.5l-0.9-7.9l-0.9-7.9l-4.2-1.2l-2.1-0.6
				l-2.1-0.7l-0.7-7.8c0.7,0.2,1.4,0.5,2.1,0.7l2.1,0.6l4.1,1.2l8.3,2.4l1.1,7.9l1.1,7.9c1.5,0.4,2.9,0.8,4.3,1.1l4.3,1.1l-1.3-8
				l-1.3-8l8.2,2c2.7,0.6,5.5,1.2,8.2,1.7l-1.7-8.1l-5-1c-0.8-0.2-1.7-0.3-2.5-0.5l-2.5-0.6l-10-2.5l-2.5-0.6l-2.5-0.7l-5-1.5
				l-5-1.4c-1.1-0.3-2.2-0.6-3.3-1c-0.6-0.2-1.2-0.4-1.8-0.6l-0.7-7.8c0.6,0.2,1.1,0.4,1.6,0.5c1.1,0.3,2.2,0.6,3.3,1l4.9,1.4
				l4.9,1.4l2.5,0.7l2.4,0.6l9.8,2.4l2.4,0.6c0.8,0.2,1.6,0.3,2.4,0.5l4.8,1c13,2.9,25.7,4.6,38.3,6l2.7,8.2
				c-1.3-0.1-2.6-0.3-3.9-0.4l-3.9-0.5l-7.8-1c-5.2-0.8-10.5-1.8-15.8-2.6l1.9,8.1l1.9,8.1l-8.4-1.7c-2.8-0.6-5.6-1.1-8.4-1.8l1.5,8
				c2.9,0.7,5.7,1.2,8.6,1.8l8.6,1.8l1.9,8.1l1.9,8.1l8.9,1.5l-6.2-24.5l-2.1-8.2c2.7,0.4,5.4,0.9,8.1,1.3l8,1l4,0.5
				c1.3,0.2,2.7,0.4,4,0.4l2.7,8.2L664.4,984z M589.9,970c22.1,5.9,44,10.3,65.4,12.9l-12.4-41.1l-8.2-1l6.8,24.6l2.3,8.2
				c-3-0.4-6-1-9.1-1.5l-9.1-1.5l-9.2-1.9l-1.7-8.1l-1.7-8.1c-2.9-0.6-5.8-1.2-8.8-1.9l1.5,8l1.5,8l-9.2-2.3l-4.6-1.1
				c-1.5-0.4-3.1-0.7-4.6-1.2L589.9,970"/>
		</g>
		<g>
			<path class="st12" d="M751.2,982.8l4.5,8.2c-2.8,0.4-5.6,0.8-8.4,1.2c-25.5,2.9-52.4,2.9-80.3,0.1l-2.7-8.2l9,0.8l-2.9-8.3
				l-2.9-8.3c2.9,0.2,5.8,0.6,8.6,0.6l8.5,0.4l-3.2-8.3l-8.3-0.4c-2.8-0.1-5.6-0.4-8.4-0.6l-2.9-8.3l-2.9-8.3l-8.1-0.7l-2.7-8.2
				l7.9,0.7c2.6,0.2,5.3,0.5,7.8,0.6l3.1,8.3l3.1,8.3l8.1,0.3l-3.2-8.3l-3.2-8.3l3.9,0.2c1.3,0,2.5,0,3.8,0l7.6,0l-3.6-8.3l-9.3,0
				c-1.5,0-3.1-0.1-4.7-0.1l-4.7-0.2c-6.3-0.1-12.7-0.9-19.1-1.4l-2.7-8.2c6.2,0.5,12.5,1.2,18.6,1.3l4.6,0.2
				c1.5,0.1,3.1,0.2,4.6,0.1l9,0c3,0.1,6-0.2,8.9-0.3l4.4-0.2l2.2-0.1c0.7,0,1.4-0.1,2.2-0.2l8.7-0.8l2.2-0.2l2.1-0.3l4.2-0.6
				l4.5,8.2c-2.3,0.3-4.6,0.7-7,1l-7.1,0.7l-3.6,0.3l-1.8,0.2c-0.6,0-1.2,0.1-1.8,0.1l-7.3,0.3l3.8,8.3l3.8,8.3l-3.8,0.2
				c-1.3,0.1-2.6,0-3.9,0l-7.8,0l3.4,8.3l8,0c1.3,0,2.7,0,4,0l3.9-0.2l3.8,8.3l3.8,8.3l8.2-0.4l-12-24.8l-4-8.3
				c0.6,0,1.2-0.1,1.9-0.1l1.8-0.2l3.7-0.3l7.3-0.7c2.4-0.3,4.8-0.7,7.1-1l4.5,8.2L751.2,982.8z M682.5,985.5
				c20.9,1.2,41.2,0.7,60.5-1.6l-21.8-41.2l-7.5,0.7l12.6,24.8l4.2,8.3l-4.1,0.4l-2.1,0.2c-0.7,0.1-1.4,0.1-2.1,0.1l-8.4,0.4
				l-4.2,0.2c-1.4,0.1-2.8,0-4.3,0.1l-3.6-8.3l-3.6-8.3l-8.2,0l3.4,8.3l3.4,8.3c-1.4,0-2.8,0-4.3,0l-4.4-0.2l-8.7-0.4L682.5,985.5"
				/>
		</g>
		<g>
			<path class="st12" d="M957.4,726.7c0.3,3.3,0.5,6.5,0.8,9.7l0.2,2.4l0.1,2.4l0.2,4.8c0.2,3.2,0.2,6.4,0.2,9.5
				c0.1,12.6-0.6,25-2,37l-8.8-4c0.4-2.6,0.6-5.2,0.8-7.9l-8.8-3.9l-8.8-3.9l0.3-3.8c0.1-1.3,0.2-2.6,0.2-3.8
				c0.1-2.6,0.3-5.1,0.4-7.7l-8.8-3.5c0,2.6-0.2,5-0.4,7.6c-0.1,1.2-0.1,2.5-0.2,3.8l-0.3,3.7l-8.8-3.9l-8.8-3.9
				c-0.2,2.4-0.4,4.7-0.7,7l-8.8-4c0.3-2.3,0.5-4.6,0.7-6.9l0.3-3.5c0.1-1.2,0.1-2.3,0.2-3.5l8.8,3.7l8.8,3.7
				c0.1-2.5,0.3-4.9,0.4-7.4l-8.8-3.5l-8.8-3.5l0.1-7.1l-0.1-7.2l-8.8-3.2c0.2,11.8-0.3,23.2-1.6,34.3l-8.8-4
				c2.6-21.6,2.1-44.7-1.4-68.6l8.7,2.3l1.7,14.6l0.2,1.8l0.1,1.8l0.3,3.6l0.3,3.6l0.2,3.6l8.8,3l8.8,3l0.2,3.7l0.1,1.9l0,1.8
				l0.1,7.4l8.8,3.4l-0.1-7.6l0-1.9l-0.1-1.9l-0.2-3.8l8.8,3l8.8,3l-0.2-4l-0.3-4l-26.4-8.4l-8.8-2.8l-0.3-3.7L896,709l-0.2-1.9
				l-0.9-7.5c-0.3-2.5-0.6-5-0.9-7.5l8.7,2.3l43.7,11.4l8.7,2.3c0.4,2.9,0.7,5.8,1.1,8.8L957.4,726.7z M949.5,772.7
				c1.1-18.8,0.5-38.2-2.1-58.2l-43.8-12.3l0.9,7.7l26.3,7.9l8.8,2.6l0.2,2.1l0.2,2.1l0.3,4.1l0.3,4.1l0.2,4.1l0.2,4.1l0.1,2l0,2
				l-8.8-3.2l-8.8-3.2l0.1,7.7l8.8,3.3l8.8,3.4l-0.2,8c-0.1,2.7-0.3,5.3-0.4,7.9L949.5,772.7"/>
		</g>
		<g>
			<path class="st12" d="M948.1,788.5l8.8,4c-0.3,2.7-0.6,5.3-1,8c-3.5,23.7-10.2,46-19.7,66.2l-8.3-5.6c1-2.2,2.1-4.4,3-6.7
				l-8.4-5.5l-8.4-5.5l2.7-6.5l2.4-6.7l-8.5-5.2l-2.4,6.5l-2.6,6.4l-8.4-5.5l-8.4-5.5c-0.9,2-1.8,4-2.7,6l-8.3-5.6
				c0.9-1.9,1.8-3.8,2.6-5.8l2.4-5.9l8.5,5.3l8.5,5.3l2.3-6.4l-8.5-5.2l-8.5-5.2c0.4-1,0.7-2,1-3.1l1-3.1c0.3-1,0.7-2.1,1-3.1
				l0.9-3.2l-8.6-4.9c-2.9,10.3-6.5,20.2-10.9,29.5l-8.3-5.6c8.6-18.2,14.2-38.4,16.8-60.1l8.8,4c-0.3,2.2-0.5,4.4-0.9,6.6l-1.1,6.5
				l-1.3,6.4c-0.4,2.2-1,4.2-1.5,6.3l8.7,4.7l8.6,4.7c-0.5,2.2-1.1,4.4-1.7,6.5l-0.9,3.2c-0.3,1.1-0.7,2.1-1,3.2l8.6,5
				c0.3-1.1,0.7-2.2,1-3.3l0.9-3.3c0.6-2.2,1.3-4.4,1.8-6.7l8.6,4.7l8.7,4.7c0.5-2.4,1.2-4.7,1.6-7.1l-26.1-13.6l-8.7-4.5l1.3-6.6
				l1.1-6.7c0.4-2.2,0.6-4.5,0.9-6.8l8.8,4L948.1,788.5z M941.7,822.8c2.2-8.6,4.1-17.4,5.4-26.4l-43.7-21l-1.1,6.9l26.2,13.1
				l8.7,4.4l-1.5,7.4c-0.5,2.5-1.1,4.9-1.7,7.3c-0.6,2.4-1.2,4.8-1.9,7.2l-8.6-4.9l-8.6-4.9l-0.9,3.4c-0.3,1.1-0.7,2.2-1.1,3.3
				l8.6,5l8.6,5l-1.1,3.5c-0.4,1.2-0.8,2.3-1.2,3.5l-2.5,6.8l8.5,5.3C936.7,839.6,939.4,831.3,941.7,822.8"/>
		</g>
		<g class="st2">
			<g>
				<path class="st12" d="M927.8,861.2l8.3,5.6c-1,2.3-2.2,4.5-3.3,6.7c-10.2,19.8-23.3,37.6-38.9,53l-7.4-6.9
					c1.7-1.6,3.4-3.4,5-5.1l-7.5-6.8l-7.5-6.8l2.4-2.5c0.8-0.8,1.5-1.7,2.3-2.6c1.5-1.7,3-3.4,4.4-5.2l-7.8-6.5
					c-1.4,1.8-2.9,3.4-4.3,5.1c-0.7,0.8-1.5,1.7-2.2,2.5l-2.3,2.4l-7.5-6.7l-7.6-6.8c-1.5,1.6-2.9,3.1-4.5,4.6l-7.4-6.9
					c1.5-1.4,2.9-2.9,4.4-4.5l2.2-2.3c0.7-0.8,1.4-1.6,2.1-2.3l7.7,6.6l7.6,6.6c1.4-1.7,2.9-3.3,4.2-5l-7.8-6.5l-7.8-6.5
					c1.3-1.6,2.6-3.2,3.9-4.9l3.7-5l-7.9-6.3c-5.9,8.3-12.5,16-19.7,23.1l-7.4-6.9c7.1-6.9,13.5-14.5,19.2-22.5
					c5.7-8.1,10.7-16.7,15-25.8l8.3,5.6c-3.5,7.5-7.5,14.6-12,21.5l8,6.2l8,6.2L870,861l-3.8,5.1l7.8,6.4l3.9-5.3l3.7-5.4l8,6.2
					l8,6.1c1.3-1.9,2.4-3.9,3.7-5.8L877,850.2l-8.1-6c1.1-1.8,2.1-3.6,3.2-5.4l1.5-2.7l1.4-2.8c0.9-1.9,2-3.7,2.8-5.7l8.3,5.6
					L927.8,861.2z M911.7,889.4c4.8-6.9,9-14.2,12.9-21.7L883.3,839l-1.5,2.9l-1.6,2.8l24.6,17.7l8.2,5.9c-1.2,2.1-2.3,4.1-3.6,6.1
					c-1.3,2-2.4,4-3.7,6l-3.9,5.8l-7.9-6.3l-7.9-6.3l-4,5.4l7.8,6.4l7.8,6.4c-1.4,1.9-2.9,3.7-4.4,5.5c-1.4,1.8-3,3.6-4.5,5.3
					l7.6,6.6C901.9,903,907,896.3,911.7,889.4"/>
			</g>
			<g>
				<path class="st12" d="M886.5,919.6l7.4,6.9l-2.6,2.5l-1.3,1.3l-1.4,1.2c-16.2,14.9-35,27.3-55.9,37.1l-6.2-7.7l6.7-3.3l-6.3-7.7
					l-6.3-7.7c2.1-1.1,4.2-2.2,6.3-3.3c2.1-1.1,4.1-2.3,6.1-3.5l-6.6-7.5c-2,1.2-3.9,2.4-6,3.4c-2.1,1.1-4.1,2.2-6.2,3.3l-6.3-7.7
					l-6.3-7.7l-6,2.9l-6.2-7.7l5.9-2.9c2-1,3.8-2,5.7-3l6.4,7.6l6.4,7.6c2-1,3.9-2.2,5.9-3.4l-6.6-7.5l-6.6-7.5l2.8-1.6l2.7-1.7
					c1.8-1.1,3.6-2.3,5.3-3.5l-6.8-7.4c-8.5,5.9-17.6,11.1-27.3,15.6l-6.2-7.7c18.8-8.8,35.5-20.4,49.6-34.2l7.4,6.9
					c-5.8,5.7-12,11.1-18.6,15.9l7,7.3l7,7.3c-1.7,1.3-3.5,2.5-5.3,3.8c-1.7,1.3-3.6,2.4-5.4,3.6l6.7,7.4c1.9-1.2,3.8-2.4,5.6-3.7
					c1.8-1.3,3.7-2.5,5.4-3.9l7,7.3l7,7.3c1.8-1.4,3.7-2.8,5.5-4.2l-21.3-21.5l-7.1-7.2l4.8-4c1.6-1.4,3.1-2.8,4.7-4.2l1.2-1
					l1.1-1.1l2.2-2.2l7.4,6.9L886.5,919.6z M839.9,954.1c15.2-8.3,29-18.2,41.4-29.6l-36.6-34.8c-1.6,1.4-3.2,2.9-4.8,4.3l21.6,21.2
					l7.2,7.1l-5.4,4.5c-1.9,1.5-3.8,2.9-5.6,4.3c-1.9,1.4-3.9,2.8-5.8,4.1l-6.8-7.4l-6.8-7.4c-1.8,1.3-3.8,2.5-5.7,3.8l6.7,7.4
					l6.7,7.4l-3,1.9l-3.1,1.8c-2.1,1.2-4.1,2.5-6.3,3.6L839.9,954.1"/>
			</g>
			<g>
				<path class="st12" d="M826.6,960.9l6.2,7.7l-7.1,3.1l-4,1.7c-0.7,0.3-1.3,0.6-2,0.9l-2.1,0.8l-8.3,3.1c-2.7,1.1-5.6,1.9-8.5,2.8
					c-2.9,0.9-5.7,1.8-8.6,2.6c-11.8,3-23.8,5.8-36.4,7.4l-4.5-8.2c2.7-0.4,5.5-0.7,8.2-1.2l-4.7-8.2l-4.7-8.2l7.6-1.5l3.8-0.7
					c0.6-0.1,1.3-0.2,1.9-0.4l1.9-0.5L760,954l-1.8,0.4c-0.6,0.1-1.2,0.3-1.9,0.4l-3.7,0.7l-7.5,1.4l-4.7-8.2l-4.7-8.2
					c-2.4,0.4-4.9,0.7-7.3,1.1l-4.5-8.2c2.4-0.4,4.8-0.6,7.1-1l6.9-1.4l4.9,8.2l4.9,8.2l3.6-0.7c0.6-0.1,1.2-0.2,1.8-0.4l1.8-0.4
					l-5.1-8.1l-5.1-8.1l6.7-1.7l3.4-0.8c1.1-0.3,2.2-0.7,3.3-1l-5.4-8c-2.6,0.9-5.4,1.5-8.1,2.2l-4.1,1c-1.4,0.3-2.7,0.7-4.1,1
					l-8.5,1.6l-2.1,0.4c-0.7,0.1-1.5,0.2-2.2,0.3l-4.3,0.6l-4.5-8.2c22.7-3.1,43.5-9.5,62.4-18.1l6.2,7.7l-5.9,2.6l-3,1.3
					c-1,0.4-2,0.9-3,1.2l-6.1,2.3c-2,0.7-4.1,1.5-6.2,2.1l5.5,8l5.5,8l-6.7,2c-1.1,0.3-2.2,0.7-3.4,1l-3.4,0.9l5.2,8.1l3.5-0.9
					c1.2-0.3,2.3-0.7,3.4-1l6.8-2.1l5.5,8l5.6,8c2.4-0.7,4.7-1.6,7-2.4l-17.1-23.8l-5.7-7.9l6.3-2.3c1.1-0.4,2.1-0.8,3.1-1.3l3-1.3
					l6.1-2.6l6.2,7.7L826.6,960.9z M767.3,980c18.5-3.7,36-9.1,52.3-16.1l-30.1-39.1l-3.1,1.4c-1,0.4-2.1,0.9-3.2,1.3l17.6,23.6
					l5.9,7.9l-7.1,2.6c-2.4,0.9-4.7,1.8-7.2,2.5l-7.3,2.2l-5.4-8l-5.4-8c-1.2,0.3-2.3,0.7-3.5,1.1l-3.6,0.9l5.2,8.1l5.2,8.1
					l-7.6,1.9l-1.9,0.5c-0.6,0.1-1.3,0.3-1.9,0.4l-3.9,0.8L767.3,980"/>
			</g>
		</g>
		<g>
			<path class="st12" d="M209.6,544.6l1.3,4.6l-8.5-1.3c-1.5-5-2.5-10-3.6-15l-0.8-3.7c-0.3-1.2-0.6-2.5-0.8-3.7l-1.3-7.4l-8.7-2.1
				l-8.7-2.1l-1.3-7.8c-0.3-2.6-0.6-5.1-0.9-7.7l-8.8-2.5c0.3,2.6,0.6,5.2,0.9,7.8l1.4,7.9l-8.7-2.1l-8.7-2.1l1.4,8.3l26,5.7
				l8.7,1.9c0.2,1.3,0.5,2.5,0.8,3.8l0.9,3.8l1.7,7.7c0.5,2.5,1.3,5.1,2,7.7l-8.5-1.3l-42.7-6.7l-8.5-1.3c-0.8-3-1.7-6.1-2.3-9
				c-6.5-27.1-10.1-53.5-10.6-78.9l8.8,3.2l0,4.1l0.2,4.2l8.8,3l8.8,3l0.5,8.1l0.3,4l0.1,2l0.2,2.1l8.8,2.6l-0.2-2l-0.1-2l-0.3-3.9
				l-0.5-7.9l8.8,3l8.8,3l-0.2-3.8l0-3.7l8.8,3.2l0,3.6l0.2,3.7l0.5,7.3l-8.8-2.8l-8.8-2.8l0.2,3.9c0,0.6,0.1,1.3,0.1,1.9l0.2,2
				l8.8,2.6l8.8,2.6l0.9,7.5c0.3,2.5,0.6,5,0.9,7.5l8.7,2.3c-0.4-3-0.7-6.1-1.1-9.1l-0.5-4.6c-0.2-1.5-0.4-3-0.4-4.5l-0.6-9
				l-0.3-4.5c-0.1-1.5,0-2.9-0.1-4.4l8.8,3.2c0,1.4,0,2.8,0.1,4.3l0.3,4.4l0.5,8.7c0,1.4,0.3,2.9,0.4,4.4l0.5,4.4
				c0.4,3,0.7,5.9,1.1,8.9l1.6,9l0.8,4.5c0.1,0.8,0.2,1.5,0.4,2.3l0.5,2.3l2,9.1C208.9,541.5,209.2,543,209.6,544.6z M150.9,499.2
				l8.7,2.3c-0.4-2.7-0.6-5.3-1-8l-8.8-2.5l-8.8-2.5l-1-8.4l-0.2-2.1l-0.1-2.1l-0.3-4.1l-8.8-2.8l0.2,3.7c0.1,1.2,0.1,2.4,0.3,3.7
				l0.9,7.5c0.6,5,1.1,9.9,2,15c0.9,5.1,1.7,10.1,2.7,15.2l3.4,15.4l42.9,7.6l-1.8-7.8l-25.9-5.1l-8.6-1.7l-1-4.3
				c-0.3-1.4-0.7-2.9-0.9-4.3l-1.5-8.5l-1.5-8.5L150.9,499.2"/>
		</g>
		<g>
			<path class="st12" d="M210.9,549.2c6.5,24.4,15.9,49.3,28.1,74l-7.8,0.6c-2.4-5.1-4.8-10.2-7.2-15.2c-0.6-1.3-1.1-2.5-1.7-3.8
				l-1.6-3.8l-3.2-7.6l-8.2-0.2l-8.2-0.2c-1.2-2.7-2.1-5.3-3.1-8l-3-8l-8.3-0.6l3.1,8.2c1,2.7,2,5.5,3.2,8.2l-8.2-0.2l-8.1-0.2
				l3.6,8.6l24.2,0l8.1,0l1.6,3.9c0.5,1.3,1.1,2.6,1.7,3.9l3.7,7.8c1.2,2.6,2.4,5.2,3.7,7.8l-7.8,0.6l-39,3l-7.8,0.6
				c-1.5-3-2.9-6.1-4.4-9.2c-13-27.5-23.2-55.1-30.4-82.3l8.5,1.3l2.4,8.9l8.5,1.1l8.5,1.1c0.4,1.4,0.8,2.8,1.2,4.2l1.4,4.3l2.8,8.5
				l8.4,0.8l-2.7-8.4l-1.4-4.2c-0.4-1.4-0.8-2.8-1.2-4.2l8.5,1.1l8.5,1.1l-2.2-7.9l8.5,1.3l2.1,7.7c0.4,1.3,0.7,2.6,1.1,3.9l1.3,3.9
				l-8.4-1l-8.4-1l2.6,8.2l8.4,0.8l8.4,0.8l1.3,3.9c0.4,1.3,1,2.6,1.4,3.9l2.9,7.8l8.2,0.4l-3.6-9.5l-0.4-1.2l-0.4-1.2l-0.8-2.4
				l-1.5-4.7l-1.5-4.7c-0.5-1.6-1.1-3.2-1.5-4.7l-2.6-9.4L210.9,549.2z M173.5,583.9l8.2,0.4l-3.1-8.4l-8.3-0.6l-8.3-0.6
				c-0.5-1.5-1.1-2.9-1.6-4.4l-1.4-4.4l-2.8-8.7l-8.4-1l2.5,7.8l1.3,3.9c0.4,1.3,0.8,2.6,1.3,3.9l5.9,15.7l0.7,2l0.8,2l1.7,3.9
				l3.3,7.9c2.1,5.2,4.7,10.5,7.1,15.7l39.5-2l-3.8-8l-24,0.6l-8,0.2c-0.7-1.5-1.3-2.9-1.9-4.4l-1.9-4.4l-3.7-8.8
				c-1.3-2.9-2.3-5.9-3.4-8.8L173.5,583.9"/>
		</g>
		<g>
			<path class="st12" d="M239,623.2c12.3,24.7,27.3,49.2,44.6,72.8l-6.6,2.5l-5.2-7.3l-2.6-3.7l-1.3-1.8c-0.4-0.6-0.8-1.2-1.2-1.8
				l-4.9-7.4l-2.5-3.7c-0.8-1.2-1.7-2.5-2.4-3.7l-7.2,1.7l-7.2,1.7l-4.8-7.9c-1.6-2.6-3.3-5.2-4.8-7.9l-7.4,1.4
				c1.6,2.7,3.3,5.4,4.9,8.1l4.9,8.1l-7.2,1.7l-7.2,1.7c0.8,1.4,1.8,2.8,2.7,4.2l2.8,4.2l21.1-5.8l7-1.9l5,7.6
				c0.4,0.6,0.8,1.3,1.3,1.9l1.3,1.9l2.7,3.8l5.3,7.5l-6.6,2.5L230.4,716l-6.6,2.5l-6.3-8.8c-18.7-26.4-35.1-53.6-48.7-81.1l7.8-0.6
				l4.6,8.9l7.7-0.8l7.7-0.8l4.4,8.6l4.8,8.5l7.5-1.2l-4.7-8.3l-4.3-8.4l7.7-0.8l7.7-0.8l-4.1-8l7.8-0.6l4,7.8l4,7.8l-7.6,1l-7.6,1
				l4.6,8.1l7.5-1.2l7.5-1.2l4.4,7.7c1.5,2.6,3.1,5.1,4.7,7.7l7.3-1.6c-7.8-12.5-14.5-25.1-21-37.8L239,623.2z M215.8,669.4l7.3-1.6
				c-1.7-2.8-3.4-5.5-5-8.2l-7.4,1.4l-7.4,1.4l-4.9-8.7l-4.9-8.7l-7.6,1c11.3,20.8,24.2,41.4,38.4,61.5l33.9-11.5l-2.7-3.8l-1.4-1.9
				c-0.5-0.6-0.9-1.3-1.3-1.9l-20.7,6.4l-6.9,2.1l-5.7-8.5l-2.8-4.3c-0.9-1.4-1.9-2.8-2.8-4.3l-5.3-8.6L215.8,669.4"/>
		</g>
		<g>
			<path class="st12" d="M290.3,737.3c-1.1-1.2-2-2.5-3.1-3.7l-6.1,3.2c1,1.3,2.1,2.5,3.1,3.8l3.3,3.7l6.5,7.4l-5.8,3.6l-5.8,3.6
				l3.4,3.9l3.6,3.8l16.9-11.2l5.6-3.7l6.5,6.9l3.2,3.5c1.1,1.1,2.2,2.3,3.3,3.4l6.7,6.8l-5.1,4.2l-25.7,21.2l-5.1,4.2l-7.9-7.9
				c-1.5-1.5-3-3-4.4-4.5l-4.3-4.6l-8.5-9.2l-2.1-2.3l-2-2.3l-4.1-4.7l-8.2-9.4c-2.7-3.2-5.2-6.4-7.9-9.5c-2.6-3.2-5.2-6.4-7.8-9.6
				l-7.5-9.7l-3.7-4.9l-1.9-2.4l-1.8-2.5l6.6-2.5c2,2.9,4.2,5.7,6.4,8.5l6.5-2.7l6.5-2.7l6.2,8.1c2,2.7,4.2,5.4,6.4,8l6.2-3
				c-2.1-2.6-4.3-5.2-6.3-7.8l-6.1-7.9l6.5-2.7l6.5-2.7c-1.9-2.5-3.9-5-5.7-7.6l6.6-2.5c1.7,2.5,3.7,5,5.6,7.4l5.6,7.4l-6.4,2.9
				l-6.4,2.9c1.9,2.6,4.1,5.1,6.1,7.7l6.2-3l6.2-3l5.9,7.3c1,1.2,2,2.4,3,3.6l3.1,3.5l5.9-3.4c-1.3-1.4-2.5-2.9-3.8-4.3l-3.6-4.4
				l-7.2-8.8c-0.6-0.7-1.2-1.5-1.8-2.2l-1.7-2.3l-3.4-4.5l-3.5-4.5l-1.7-2.2l-1.6-2.3l6.6-2.5l1.6,2.2l1.7,2.2l3.4,4.4l3.4,4.4
				l1.7,2.2c0.5,0.7,1.1,1.5,1.7,2.2l7.1,8.6l3.5,4.3c1.2,1.4,2.5,2.8,3.7,4.2l7.4,8.4c1.2,1.4,2.5,2.8,3.8,4.2l3.8,4.1l3.8,4.1
				c1.3,1.4,2.5,2.8,3.9,4.1l8,8l-5.1,4.2c-8.8-8.7-17.3-17.7-25.4-26.9l-5.8,3.6l-5.8,3.6l-6.4-7.3L290.3,737.3z M275.7,751.1
				l5.9-3.4l-3.3-3.8c-1.1-1.3-2.1-2.6-3.2-3.9l-6.1,3.2l-6.1,3.2l-6.7-8.1c-2.2-2.7-4.5-5.4-6.6-8.2l-6.4,2.9
				c15.4,19.6,32.1,38.7,49.8,56.9l26.5-20.4c-1.1-1.2-2.3-2.3-3.4-3.5l-3.3-3.6l-16.4,11.7l-5.5,3.9l-7.3-7.8l-3.6-3.9l-3.5-4l-7-8
				L275.7,751.1"/>
		</g>
		<g>
			<path class="st12" d="M566.7,249.8c29.2,12.6,58.2,27.6,86.4,45.1l-2.4,6.4c-1.5-1-3.1-1.9-4.6-2.8l-4.6-2.8l-2.2,6.5l-2.2,6.5
				l-8.9-5.2l-2.2-1.3l-2.2-1.2l-4.5-2.5l-1.8,6.8l4.4,2.4l2.2,1.2l2.2,1.3l8.7,5.1l-2.2,6.5l-2.2,6.5l4.1,2.4
				c1.4,0.8,2.8,1.6,4.1,2.5l-2.4,6.4c-1.3-0.9-2.7-1.6-4-2.4l-4-2.4l-8.1-4.8l2-6.7l2-6.7l-2.1-1.3l-2.1-1.2l-4.3-2.3L614,319
				l-1.8,6.8l-8.2-4.5c-1.4-0.7-2.7-1.5-4.1-2.2l-4.1-2.1l-1.4,7l5,2.5l5,2.7l9.9,5.4c1.7,0.9,3.3,1.9,4.9,2.8l4.9,2.9l4.9,2.9
				l2.5,1.4l1.2,0.7l1.2,0.8l-2.4,6.4l-1.2-0.8l-1.2-0.7l-2.4-1.4l-4.8-2.8l-4.8-2.8c-1.6-0.9-3.2-1.9-4.8-2.8l-9.7-5.3l-4.8-2.6
				l-4.9-2.4l-9.8-4.9c-0.8-0.4-1.6-0.8-2.4-1.2l-2.5-1.1l-4.9-2.2c-3.3-1.5-6.5-3-9.8-4.5l-9.9-4.1l0.3-7.5
				c5.4,2.3,10.8,4.4,16.2,6.9l8.1,3.7l4,1.8l4,2l1.2-7.1l1.2-7.1l8.4,4.2l4.2,2.1c1.4,0.7,2.8,1.5,4.2,2.2l1.6-6.9
				c-1.4-0.8-2.8-1.6-4.3-2.3l-4.3-2.2l-8.6-4.3l1.2-7.1l1.2-7.1l-4.5-2.3l-4.6-2.1l-2.9,21.6l-1,7.2l-8.3-3.8
				c-2.8-1.3-5.5-2.6-8.3-3.7l-8.3-3.4l0.3-7.5l1.7-37.3l0.3-7.5L566.7,249.8z M630.2,297l2-6.7c-21.7-12.4-43.8-23.5-66.1-33.1
				l-2.8,36.9c2.8,1.1,5.7,2.5,8.5,3.8l2.3-21.8l0.8-7.3l9.3,4.3l4.6,2.1l4.6,2.3l9.2,4.6l-1.4,7l-1.4,7l4.4,2.2
				c1.5,0.7,2.9,1.6,4.4,2.3l1.6-6.9l1.6-6.9l9.2,5l4.6,2.5l2.3,1.3L630.2,297"/>
		</g>
		<g class="st2">
			<g>
				<path class="st12" d="M506,227.6c16.9,5.2,34,11.3,51,18.2l-0.3,7.5l-4.8-2c-1.6-0.6-3.2-1.3-4.8-1.9l-0.1,7.5l-0.1,7.5
					l-9.1-3.4l-9.1-3.4l0.3,7.7l8.9,3.3l8.9,3.3l-0.1,7.5l-0.1,7.5c1.4,0.5,2.8,1.1,4.3,1.7l4.3,1.8l-0.3,7.5l-4.2-1.7
					c-1.4-0.6-2.8-1.2-4.2-1.7l-8.3-3.1l-0.1-7.6l-0.1-7.6L529,273l0.3,7.7l0.3,7.7l-8.3-2.7l-8.3-2.7l0.7,7.8
					c13.5,4.3,27,9,40.5,14.7l-0.3,7.5c-13.2-5.5-26.4-10.1-39.5-14.3c-0.5-0.2-1.1-0.4-1.6-0.5c-1.1-0.3-2.2-0.6-3.3-1l-4.9-1.4
					c-3.3-0.9-6.6-1.9-9.8-2.8l-9.8-2.3l-4.9-1.2c-0.8-0.2-1.6-0.4-2.4-0.6l-2.4-0.5l-1.7-8.1c10.6,2.3,21.3,4.9,32.1,8.1l-0.9-7.9
					l-0.9-7.9l4.2,1.2l2.1,0.6l2.1,0.7l8.5,2.8l-0.5-7.8l-8.7-2.9l-2.2-0.7l-2.2-0.6l-4.3-1.2l-0.9-7.9l-0.9-7.9l-9.1-2.6l3.2,23.8
					l1.1,7.9c-1.4-0.4-2.8-0.8-4.1-1.2l-4.1-1l-8.2-2c-2.7-0.7-5.5-1.4-8.2-1.8l-1.7-8.1l-8.4-40.4l-1.7-8.1
					c3.2,0.6,6.4,1.4,9.6,2.1C481.7,220.6,493.8,223.8,506,227.6z M537.6,253.4l-0.1-7.6l-8.4-3.1c-1.4-0.5-2.8-1-4.2-1.4l-4.2-1.4
					l-8.3-2.7c-2-0.6-4-1.3-6-2c-0.8-0.2-1.5-0.5-2.3-0.7l-16.6-4.7c-0.7-0.2-1.4-0.4-2.1-0.6l-2.1-0.5l-4.1-1l-8.2-2l7.4,40.2
					l8.4,2l-3.8-24l-1.3-8l4.6,1.1c1.5,0.4,3.1,0.9,4.6,1.3l9.3,2.6l4.6,1.3l2.3,0.7l2.3,0.8l0.7,7.8l0.7,7.8l8.9,2.9l-0.5-7.8
					l-0.5-7.8l9.3,3.1L537.6,253.4"/>
			</g>
			<g>
				<path class="st12" d="M473.4,280.4l1.7,8.1c-25.9-5.4-51.1-7.9-75.1-7.7l-3.6-8.3l7.4,0l3.7,0c1.2,0,2.5,0,3.8,0.1
					c5.1,0.3,10.1,0.5,15.2,0.8l-2.9-8.3l-2.9-8.3l8.1,0.8l8.1,0.8l-2.5-8.2l-8.3-0.8l-8.3-0.8l-2.9-8.3l-2.9-8.3
					c-2.9-0.2-5.7-0.3-8.6-0.5l9.2,24.8l3.1,8.3l-7.8-0.4c-1.3-0.1-2.6-0.1-3.8-0.1l-3.8,0l-7.6,0l-3.6-8.3l-18.2-41.4l-3.6-8.3l9,0
					c26.9,0.3,55.1,3.4,83.8,9.4l1.7,8.1l-9.3-1.8l1.9,8.1l1.9,8.1l-4.5-0.9c-1.5-0.3-3-0.6-4.4-0.8l-8.8-1.3l2.3,8.2l8.6,1.3
					c1.4,0.2,2.9,0.5,4.4,0.8l4.4,0.8l1.9,8.1l1.9,8.1l8.3,1.6l1.7,8.1l-8.1-1.6l-4.1-0.8c-1.4-0.3-2.7-0.5-4-0.7l-2.1-8.2l-2.1-8.2
					l-8.4-1.3l2.3,8.2l2.3,8.2c-2.7-0.4-5.4-0.8-8-1.2l-7.9-0.8l2.7,8.2l4.8,0.5c1.6,0.2,3.2,0.3,4.9,0.6l9.8,1.5l4.9,0.7
					c1.6,0.3,3.3,0.6,5,0.9L473.4,280.4z M427,225.7c3,0.4,6,0.9,9,1.3l9,1.3l-2.1-8.2l-16.2-2.4c-0.7-0.1-1.3-0.2-2-0.3l-2-0.2
					l-4-0.4l-8-0.8c-5.3-0.6-10.5-0.8-15.8-1.1l-7.8-0.4c-2.6-0.1-5.1,0-7.7-0.1l17.2,41.4l3.9,0c1.3,0,2.6,0,3.9,0.1l-9.8-24.8
					l-3.2-8.3l8.8,0.5c2.9,0.2,5.8,0.3,8.8,0.5l8.9,0.9l2.7,8.2l2.7,8.2l8.5,0.9l-2.5-8.2L427,225.7"/>
			</g>
		</g>
		<g class="st2">
			<g>
				<path class="st12" d="M327,282.5l5.4,8l-3.9,1.1c-1.3,0.4-2.5,0.9-3.8,1.3l-7.6,2.6l-1.9,0.7l-1.8,0.8l-3.6,1.5l-3.6,1.5
					l-1.8,0.8c-0.6,0.2-1.2,0.5-1.8,0.8l-6.9,3.5l-3.5,1.7c-1.1,0.6-2.2,1.3-3.3,1.9l-6.6,3.9c-1.1,0.6-2.1,1.4-3.2,2.1l-3.1,2.2
					l-6.8-7.4l5.1-3.5l5.4-3.2l5.4-3.2c1.8-1,3.8-1.9,5.7-2.9l-6.3-7.7l-6.3-7.7l6-3c1-0.5,2.1-0.9,3.1-1.4l3.1-1.3l-6-7.8l-3.2,1.4
					c-1.1,0.5-2.2,0.9-3.2,1.4l-6.1,3.1l-6.3-7.7l-6.3-7.7c-2.1,1.1-4.3,2.1-6.4,3.3l19.3,22.8l6.4,7.6l-5.5,3.3l-5.5,3.3l-5.2,3.6
					l-6.8-7.4L221.3,258l-6.8-7.4l6.1-4.2c18.9-12.1,40.2-21.6,63.4-28.3l5.4,8l-3.8,1.1c-0.6,0.2-1.3,0.4-1.9,0.5l-1.8,0.6l5.5,8
					l5.5,8l-7,2.4l-3.5,1.2c-1.2,0.4-2.3,0.8-3.4,1.3l5.9,7.9c1.1-0.5,2.2-0.9,3.4-1.3l3.4-1.2l6.8-2.4l5.6,8l5.5,8l1.6-0.6
					c0.6-0.2,1.1-0.3,1.7-0.5l3.4-1l5.4,8l-3.3,0.9c-0.5,0.2-1.1,0.3-1.6,0.5l-1.6,0.6l-6.4,2.2l-5.7-7.9l-5.7-7.9l-3.3,1.2
					c-1.1,0.4-2.2,0.8-3.3,1.2l5.9,7.9l5.9,7.9l-6.1,2.6l-3.1,1.3c-1,0.4-2.1,0.8-3,1.3l6.2,7.7c0.6-0.3,1.2-0.6,1.8-0.8l1.9-0.8
					l3.7-1.6l3.7-1.6l1.9-0.8l1.9-0.7l7.8-2.7c1.3-0.4,2.6-0.9,3.9-1.3L327,282.5z M272.3,252.2l-6-7.8l6.8-2.9
					c1.1-0.5,2.3-0.9,3.5-1.3l3.6-1.3l-5.7-7.9c-16.9,6.1-32.7,13.7-47.2,22.9l33.6,37.2l5.7-3.4l-19.8-22.6l-6.6-7.5l6.2-3.7
					c2.1-1.2,4.3-2.2,6.5-3.3l6.5-3.3l6.2,7.7l6.2,7.7c1-0.6,2.2-1,3.2-1.4l3.3-1.4L272.3,252.2"/>
			</g>
			<g>
				<path class="st12" d="M396.3,272.5l3.6,8.3l-2.3,0l-2.2,0.1l-4.4,0.2c-2.9,0.2-5.9,0.2-8.8,0.5l-8.6,0.9l-4.3,0.4
					c-1.4,0.1-2.8,0.4-4.2,0.6l-8.4,1.3l-2.1,0.3l-2,0.4l-4.1,0.9c-2.7,0.6-5.4,1.1-8.1,1.8l-7.9,2.2l-5.4-8
					c4.3-1.2,8.5-2.5,13.1-3.4l6.7-1.5c1.1-0.2,2.2-0.5,3.4-0.7l3.4-0.5l-4.7-8.2l-4.7-8.2l7.2-1.1l3.6-0.6l3.7-0.4l-4.4-8.2
					l-3.8,0.4l-3.7,0.6l-7.4,1.2l-4.7-8.2l-4.7-8.2l-3.9,0.6c-1.3,0.2-2.5,0.5-3.8,0.8l14.7,24.5l4.9,8.1l-6.8,1.5
					c-2.3,0.5-4.6,0.9-6.8,1.6l-6.6,1.9l-5.4-8l-27-40.2l-5.4-8l7.8-2.2c2.9-0.9,5.9-1.4,8.9-2.1l9-2c1.5-0.4,3.1-0.5,4.6-0.8
					l4.7-0.7l9.3-1.5l9.6-1l4.8-0.5c1.6-0.1,3.2-0.4,4.8-0.4l9.8-0.5l4.9-0.2c0.8,0,1.6-0.1,2.5-0.1l2.5,0l3.6,8.3
					c-2.9-0.1-5.8,0.2-8.6,0.3l3.8,8.3l3.8,8.3l-8.2,0.4c-1.4,0.1-2.7,0.1-4.1,0.2l-4,0.4l4.2,8.3l3.9-0.4c1.3-0.1,2.7-0.2,4-0.2
					l8-0.4l3.8,8.3l3.8,8.3c2.6-0.1,5.1-0.3,7.7-0.2l3.6,8.3c-2.6-0.1-5,0.1-7.5,0.2l-7.5,0.4l-4-8.3l-4-8.3
					c-1.3,0.1-2.6,0.1-3.9,0.2l-3.8,0.4l4.2,8.3l4.2,8.3l-7.3,0.7l-3.6,0.4l-3.5,0.6l4.5,8.2c1.4-0.2,2.8-0.5,4.3-0.6l4.4-0.4
					l8.9-0.9c3-0.2,6.1-0.3,9.1-0.5l4.5-0.2l2.3-0.1L396.3,272.5z M349.4,224.1l4.1-0.4c1.4-0.1,2.8-0.2,4.2-0.2l-4-8.3
					c-19.8,1.3-38.8,4.3-56.8,8.9l26.1,40.4c2.2-0.7,4.6-1.1,6.9-1.7l-15.2-24.4l-5.1-8.1l7.7-1.7c1.3-0.3,2.5-0.6,3.9-0.8l4-0.6
					l7.9-1.3l4.5,8.2l4.5,8.2l3.8-0.6l3.9-0.4l-4.4-8.2l-4.4-8.2L349.4,224.1"/>
			</g>
			<g>
				<path class="st12" d="M269.2,309.5l6.8,7.4l-3.1,2.1c-1,0.7-2.1,1.4-3.1,2.2l-5.8,4.7l-2.9,2.3l-2.7,2.5l-5.5,5.1
					c-1,0.8-1.7,1.8-2.6,2.7l-2.5,2.7l-2.5,2.7l-1.3,1.4c-0.4,0.5-0.8,1-1.2,1.4l-4.6,5.8c-0.8,1-1.6,1.9-2.3,2.9l-2.1,3.1l-7.9-6.3
					c2.2-3.4,4.9-6.5,7.4-9.7l1.9-2.4l0.9-1.2l1-1.1l4.2-4.5l-7.6-6.8l-7.5-6.8l2.2-2.3c0.7-0.8,1.4-1.6,2.2-2.3l4.7-4.4l-7.3-7
					l-4.8,4.5c-0.8,0.7-1.5,1.5-2.3,2.3l-2.2,2.4l-7.6-6.8l-7.5-6.7l-4.7,5l23,19.9l7.6,6.6l-1.1,1.1l-1,1.2l-1.9,2.4l-3.9,4.9
					c-1.4,1.6-2.5,3.4-3.7,5.1l-7.9-6.3l-39.7-31.4l-7.9-6.3c1.4-2,2.7-4.1,4.3-5.9c13.3-17.4,29.4-32.6,47.8-45.3l6.8,7.4l-6,4.1
					l7,7.3l7,7.3c-1.8,1.4-3.6,2.9-5.4,4.3l-5.4,4.3l7.2,7.1l5.3-4.2c1.8-1.4,3.5-2.8,5.3-4.2l7,7.3l7,7.3l5.4-3.7l6.8,7.4l-5.2,3.6
					c-1.7,1.3-3.3,2.6-4.9,3.9l-7.1-7.2l-7.1-7.2l-5.2,4.1l7.2,7.1l7.2,7.1c-1.6,1.3-3.1,2.8-4.6,4.2l-4.6,4.3l7.4,6.9l5.6-5.2
					l2.8-2.6l3-2.4l6-4.8c1-0.8,2.1-1.5,3.1-2.3L269.2,309.5z M215.7,301.5l4.9-4.6l-7.3-7l-7.3-7c1.7-1.6,3.4-3.2,5.2-4.7l5.5-4.4
					l-7.1-7.2l-4.9,4l-1.2,1l-1.2,1.1l-2.3,2.1l-4.6,4.3c-1.5,1.4-3.1,2.8-4.5,4.4l-8.5,9.2l-7.8,9.8l39.2,32l4-5l-23.2-19.6
					l-7.8-6.5l2.2-2.7l1.1-1.4l1.2-1.3l4.8-5.1l2.4-2.6c0.8-0.9,1.6-1.7,2.4-2.5l7.4,6.9L215.7,301.5"/>
			</g>
		</g>
		<g>
			<path class="st12" d="M225.8,352.2l7.9,6.3l-4.2,6.1c-0.4,0.5-0.7,1-1,1.6l-0.9,1.6l-1.9,3.2l-1.9,3.2l-1,1.6
				c-0.3,0.6-0.6,1.1-0.8,1.7l-3.3,6.8c-0.5,1.1-1.1,2.2-1.6,3.4l-1.4,3.5l-2.9,7.1l-0.4,0.9l-0.3,0.9l-0.6,1.8l-1.2,3.7l-1.2,3.7
				c-0.4,1.2-0.8,2.4-1.1,3.7l-8.6-4.9l0.4-1.6l0.5-1.5l1-3l2-6c0.6-2.1,1.4-3.9,2.2-5.9l2.4-5.8l-8.4-5.5l-8.4-5.5
				c0.4-1,0.8-2.1,1.3-3l1.4-2.9l2.9-5.8l-8.3-5.7l-2.9,6l-1.5,3c-0.5,1-0.9,2.1-1.3,3.1l-8.4-5.5l-8.4-5.5l-2.7,6.5l25.4,15.9
				l8.5,5.3c-0.8,2-1.7,3.9-2.3,6l-2,6.2l-1,3.1l-0.5,1.5l-0.4,1.6l-8.6-4.9l-43-24.3l-8.6-4.9l0.5-1.9l0.6-1.8l1.2-3.6
				c6.9-21.9,16.8-42.1,29.5-60l7.9,6.3l-4.1,5.9l8,6.2l8,6.1c-0.6,1-1.3,1.9-1.9,2.9l-1.7,3l-3.5,6l8.2,5.9l3.4-5.8l1.7-2.9
				c0.5-1,1.2-1.9,1.9-2.8l8,6.2l8,6.1l3.6-5.3l7.9,6.3l-3.5,5.1c-0.6,0.9-1.2,1.7-1.7,2.6l-1.6,2.7l-8.1-6l-8.1-6l-3.3,5.7l8.2,5.9
				l8.2,5.9c-0.5,0.9-1.1,1.8-1.6,2.7l-1.4,2.8l-2.8,5.7l8.3,5.6l3.4-6.9c0.3-0.6,0.6-1.2,0.9-1.7l1-1.7l1.9-3.3l1.9-3.3l1-1.7
				c0.3-0.6,0.6-1.1,1-1.6L225.8,352.2z M177.1,356.2l3-6.1l-8.3-5.7l-8.3-5.7l1.6-3.2c0.6-1,1.2-2,1.8-3.1l3.6-6.1l-8.1-6l-3.2,5.5
				c-1,1.8-2.2,3.6-3.1,5.5l-5.6,11.5c-1.7,4-3.3,8-4.9,11.9c-0.4,1-0.8,2-1.2,3l-1,3.1l-2,6.2l42.8,25.1l2.1-6.3l-25.5-15.5
				l-8.5-5.2c0.7-2.4,1.7-4.5,2.6-6.8l2.7-6.7c0.5-1.1,0.9-2.2,1.4-3.3l1.6-3.2l8.3,5.6L177.1,356.2"/>
		</g>
		<g>
			<path class="st12" d="M199.4,408.1l8.6,4.9c-5.5,20.1-8.1,41.9-7.7,64.8l-8.8-3.2l0-7c0-2.3-0.1-4.7,0.1-7l0.4-6.8l0.2-3.4
				c0.1-1.1,0.1-2.3,0.3-3.4l-8.8-3.9l-8.8-3.9l0.8-7l0.8-7l-8.7-4.2l-0.8,7.2l-0.8,7.2l-8.8-3.9l-8.8-3.9c-0.2,1.2-0.2,2.5-0.3,3.8
				l-0.2,3.9l26.4,11.1l8.8,3.7l-0.4,7c-0.2,2.3-0.1,4.7-0.1,7.1l0,7.2l-8.8-3.2l-44-15.9l-8.8-3.2l-0.1-8.4
				c0.1-25.2,3.3-49.2,9.5-71.5l8.6,4.9l-1.9,7.4l8.6,4.7l8.6,4.7c-0.6,2.4-1.2,4.7-1.7,7.1l-1.3,7.3l8.7,4.4l1.3-7.1
				c0.5-2.4,1.1-4.6,1.7-6.9l8.7,4.7l8.6,4.7l1.7-6.6l8.6,4.9l-1.6,6.4c-0.5,2.2-1.1,4.3-1.6,6.4l-8.7-4.5l-8.7-4.5l-1.3,7l8.7,4.4
				l8.7,4.4l-1.2,6.6l-0.8,6.8l8.8,4l0.5-4.2l0.2-2.1c0.1-0.7,0.2-1.3,0.4-2l1.5-8.1l0.7-4l1-3.9L199.4,408.1z M158.1,424.1l0.9-7.3
				l-8.7-4.2l-8.7-4.2l1.4-7.5l1.4-7.5l-8.7-4.5c-3.7,17.6-5.5,36.1-5.7,55.2l44.1,16.7c0-2.5-0.1-4.9,0.1-7.3L147.6,443l-8.8-3.5
				l0.4-7.9l0.2-3.9c0.1-1.3,0.1-2.6,0.3-3.9l0.9-7.7l8.8,4L158.1,424.1"/>
		</g>
		<g>
			<path class="st12" d="M934.5,627c9.9,27.5,16.8,54.7,20.7,81.2l-8.7-2.3l-1.5-8.7l-8.7-2.1l-8.7-2.1l-1.4-8.3
				c-0.2-1.4-0.6-2.8-0.9-4.2l-0.9-4.2l-8.6-1.7l0.9,4.1c0.3,1.4,0.7,2.7,0.9,4.1l1.4,8.1l-8.7-2.1l-8.7-2.1l1.3,7.8l-8.7-2.3
				l-1.3-7.6l-1.3-7.6l8.7,1.9l8.7,1.9c-0.2-1.3-0.6-2.7-0.8-4l-0.9-4l-8.6-1.7l-8.6-1.7l-1.7-7.7c-0.5-2.5-1.3-5.1-2-7.7l-8.5-1.3
				l1.3,4.7c0.4,1.6,0.7,3.1,1.1,4.7l2.1,9.3l0.5,2.3c0.2,0.8,0.3,1.5,0.4,2.3l0.8,4.6l1.6,9.2l-8.7-2.3
				c-3.6-23.9-10.1-48.5-19.5-73.2l8.2,0.4l2.8,7.6c0.5,1.3,1,2.5,1.4,3.8l1.2,3.8l2.5,7.6l1.2,3.8c0.4,1.3,0.7,2.5,1,3.8l8.5,1.1
				l8.5,1.1l2.2,7.9c0.7,2.6,1.5,5.3,2,7.9l8.6,1.5c-0.5-2.7-1.4-5.4-2.1-8.1l-2.2-8.1l8.5,1.1l8.5,1.1c-0.4-1.4-0.8-2.8-1.2-4.2
				l-1.4-4.3l-25.3-2.9l-8.4-1l-2.5-7.8l-1.3-3.9c-0.4-1.3-0.9-2.6-1.4-3.9l-2.9-7.8l8.2,0.4l41.1,1.9l8.2,0.4L934.5,627z
				 M934.8,686.6l8.7,1.9c-4.1-20.4-9.8-41.2-17.3-62.1l-41.5-2.8c0.5,1.3,1,2.7,1.5,4l1.3,4l25.1,2.3l8.4,0.8l2.8,8.7l1.4,4.4
				c0.4,1.4,0.8,2.9,1.2,4.3l2.4,8.7l-8.5-1.3l-8.5-1.3c0.7,2.8,1.6,5.5,2.1,8.3l8.6,1.5l8.6,1.5l1.9,8.6l1,4.3
				C934.2,683.7,934.5,685.2,934.8,686.6"/>
		</g>
		<g>
			<path class="st12" d="M891.3,535.5c15.9,27.1,29.3,54.8,39.7,82.3l-8.2-0.4c-1.1-3-2.2-6-3.5-9l-8.1-0.2l-8.2-0.2l-3.6-8.6
				l-1.8-4.3c-0.6-1.4-1.2-2.9-1.9-4.3l-8,0.2c0.7,1.4,1.3,2.8,1.8,4.2l1.8,4.2l3.5,8.4l-8.1-0.2l-8.2-0.2c1.2,2.7,2.1,5.3,3.1,8
				l-8.2-0.4c-1-2.6-1.9-5.2-3-7.8l-3.3-7.8l8.1,0l8.1,0l-1.7-4.1c-0.6-1.4-1.1-2.7-1.8-4.1l-8,0.2l-8,0.2l-3.7-7.8
				c-1.2-2.6-2.4-5.2-3.7-7.8l-7.8,0.6c1.6,3.2,3,6.4,4.5,9.5l2.2,4.8l1.1,2.4l1,2.4l4,9.5c0.7,1.6,1.4,3.2,2,4.8l1.8,4.8l-8.2-0.4
				l-1.7-4.6c-0.6-1.5-1.3-3.1-1.9-4.6l-3.9-9.3l-1-2.3l-1.1-2.3l-2.2-4.6c-1.5-3.1-2.9-6.2-4.4-9.3c-6.3-12.3-12.9-24.7-20.4-36.8
				l7.3-1.6c1.5,2.5,3.1,5,4.6,7.5l4.3,7.5l4.3,7.5l3.9,7.6l7.7-0.8l7.7-0.8l4.1,8c1.3,2.7,2.5,5.3,3.8,8l7.9-0.4
				c-1.3-2.7-2.5-5.5-3.9-8.2l-4.2-8.2l7.7-0.8l7.7-0.8l-4.4-8.6l-22.8,3l-7.6,1l-4.4-7.7l-4.4-7.7c-1.5-2.6-3.1-5.1-4.7-7.7
				l7.3-1.6l36.4-7.8l7.3-1.6C887.7,529.5,889.5,532.5,891.3,535.5z M907.5,599.5l8.1,0c-9-20.9-19.5-41.9-31.6-62.6l-36.9,6.8
				l4.5,7.9l22.5-3.5l7.5-1.2l4.9,8.7l4.5,8.8l4.5,8.7l-7.8,0.6l-7.8,0.6c1.4,2.8,2.6,5.6,4,8.4l7.9-0.4l7.9-0.4l4.1,8.8
				c0.7,1.5,1.3,2.9,1.9,4.4L907.5,599.5"/>
		</g>
		<g>
			<path class="st12" d="M829.1,447.7c21.1,25.4,40.2,51.8,56.7,78.8l-7.3,1.6l-5.4-8.8L866,521l-7.2,1.7c-0.8-1.4-1.8-2.8-2.7-4.2
				l-2.8-4.2l-5.5-8.3l-6.9,2.1l5.4,8.2l2.7,4.1c0.9,1.4,1.8,2.7,2.7,4.1l-7.2,1.7l-7.2,1.7l4.8,7.9l-7.3,1.6l-4.7-7.7
				c-0.8-1.3-1.6-2.5-2.5-3.8l-2.5-3.8l7-1.9l7-1.9l-5.3-8l-6.9,2.1l-6.9,2.1c-0.4-0.6-0.8-1.3-1.3-1.9l-1.3-1.9l-2.7-3.7l-5.4-7.5
				l-6.6,2.5l6.5,9.1c1.1,1.5,2.2,3,3.2,4.6l3.1,4.6l6.2,9.3c2,3.1,3.8,6.2,5.8,9.4l-7.3,1.6c-14.9-24.3-32.2-48.2-51.8-70.8
				l5.9-3.4l3,3.5c1,1.2,1.9,2.4,2.9,3.5l5.8,7.1c4,4.7,7.5,9.5,11.2,14.3l6.5-2.7l6.5-2.7c1.9,2.5,3.9,5,5.7,7.6l5.5,7.7l6.8-2.3
				l-5.6-7.9c-1.8-2.6-3.9-5.2-5.8-7.8l6.5-2.7l6.5-2.7l-6.2-8.1l-19.1,8.6l-6.4,2.9c-1.8-2.5-3.9-4.9-5.8-7.3l-5.9-7.3
				c-1-1.2-2-2.4-3-3.6l-3.1-3.5l5.9-3.4l29.7-16.9l5.9-3.4l3.6,4.2C826.8,444.8,828,446.3,829.1,447.7z M860.4,512.5l7-1.9
				c-13.4-20.4-28.2-40.4-44.4-59.6l-30.4,16.1l6.1,7.4l18.7-9.1l6.2-3c2.2,2.7,4.5,5.4,6.6,8.2l6.3,8.3c2.1,2.8,4.3,5.5,6.2,8.3
				l-6.6,2.5l-6.7,2.5l5.8,8l6.8-2.3l6.8-2.3l3,4.2l1.5,2.1c0.5,0.7,0.9,1.4,1.4,2.1L860.4,512.5"/>
		</g>
		<g>
			<path class="st12" d="M751.5,368c25.2,22.2,48.9,46.1,70.5,71.2l-5.9,3.4l-7.1-8.1l-5.8,3.6l-5.8,3.6l-3.4-3.9l-3.5-3.8l-7.1-7.6
				l-5.5,3.9l6.9,7.4l3.5,3.7l3.3,3.8l-5.8,3.6l-5.8,3.6l6.4,7.3l-5.9,3.4l-6.2-7.1l-3.1-3.6l-3.2-3.5l5.6-3.7l5.6-3.7l-6.8-7.3
				l-5.5,3.9l-5.5,3.9l-3.2-3.5c-1.1-1.1-2.2-2.3-3.3-3.4l-6.7-6.8l-5.1,4.2l8.2,8.2c1.4,1.4,2.7,2.8,4,4.2l3.9,4.2l3.9,4.2
				c1.3,1.4,2.7,2.8,3.9,4.3l7.6,8.7l-5.9,3.4l-7.4-8.4c-1.2-1.4-2.5-2.8-3.8-4.2l-3.8-4.1l-3.8-4.1c-1.3-1.4-2.5-2.8-3.9-4.1l-8-8
				l-4-4l-4.1-3.9l-8.2-7.8c-1.3-1.3-2.8-2.5-4.2-3.8l-4.2-3.8l-4.2-3.8l-2.1-1.9c-0.7-0.6-1.5-1.2-2.2-1.8l4.3-5l1.8,1.5l1.7,1.5
				l3.5,3.1l7,6.2c2.4,2,4.6,4.2,6.8,6.3l6.8,6.4l5-4.4l5-4.4c1.2,1.1,2.4,2.2,3.5,3.4l3.4,3.5l6.9,6.9l5.3-4.1l-7-7.1l-3.5-3.5
				c-1.2-1.2-2.4-2.3-3.6-3.5l5-4.4l5-4.4l-7.6-7.2l-14.4,13.7l-4.8,4.6c-2.3-2.2-4.6-4.4-7-6.5l-7.2-6.4l-3.6-3.2l-1.8-1.6
				l-1.8-1.5l4.3-5l21.4-25.2l4.3-5l2.2,1.8l2.1,1.9L751.5,368z M796,430.2l5.6-3.7l-6.5-7l-3.3-3.5l-1.6-1.7l-1.7-1.7L775.2,399
				c-4.6-4.4-9.3-8.8-13.9-13.2l-3.5-3.3l-3.6-3.2l-7.2-6.4l-22.3,24.4l7.3,6.5l13.9-14.2l4.6-4.7c2.7,2.4,5.3,4.9,7.9,7.3l7.8,7.4
				c1.3,1.2,2.6,2.4,3.9,3.7l3.8,3.8l-5.1,4.2l-5.1,4.2l7.2,7.3l5.3-4.1l5.3-4.1c1.2,1.3,2.5,2.5,3.8,3.8l3.6,3.9L796,430.2"/>
		</g>
		<g>
			<path class="st12" d="M662.4,300.9c28,17.9,55.1,38,80.6,59.8l-4.3,5l-8.4-7l-4.1,5.2l-4.1,5.2l-4-3.4c-1.3-1.1-2.7-2.3-4.1-3.3
				l-8.3-6.5l-3.7,5.5l8.1,6.3c1.4,1,2.7,2.1,4,3.2l3.9,3.3l-4.1,5.2l-4.1,5.2l7.5,6.3l-4.3,5l-7.3-6.1l-3.7-3.1
				c-1.2-1-2.4-2.1-3.7-3l3.9-5.3l3.9-5.3l-7.9-6.2l-3.7,5.5l-3.7,5.5c-2.5-1.9-5-4-7.5-5.9l-7.7-5.6l-3.4,5.8l4.7,3.4l2.3,1.7
				c0.8,0.6,1.6,1.1,2.3,1.7l9.2,7.2l4.6,3.6c1.5,1.2,3,2.5,4.5,3.7l9,7.5l-4.3,5c-23.1-19.6-47.6-37.5-72.9-53.3l2.4-6.4l15.5,9.9
				l15.3,10.4l3.2-5.9l3.2-5.9l7.9,5.8l7.9,5.8l3.5-5.6l-8.1-5.9l-8.1-5.9l3.2-5.9l3.2-5.9l-8.6-5.9l-8.9,18.1l-3,6l-7.8-5.4
				c-2.6-1.7-5.3-3.4-7.9-5.1l-7.9-5.1l2.4-6.4l11.9-32.1l2.4-6.4L662.4,300.9z M718,357l3.9-5.3l-15.1-11.8c-1.3-1-2.6-1.9-3.8-2.9
				l-3.9-2.8l-7.7-5.6l-3.9-2.8c-1.3-0.9-2.6-1.8-3.9-2.7l-7.9-5.4c-2.6-1.8-5.2-3.6-7.9-5.4l-8-5.1l-12.9,31.5
				c2.7,1.7,5.4,3.5,8.1,5.2l8.3-18.5l2.8-6.2l8.8,6l8.8,6l8.6,6.3l-3.4,5.8l-3.4,5.8l8.3,6l3.5-5.6l3.5-5.6
				c2.9,2.1,5.6,4.4,8.5,6.6L718,357"/>
		</g>
	</g>
</g>
<path class="st3" d="M369.2,273.9c-7.6,22.5-13,45.7-16.3,69.7l-55.1-26.1c0,0,0-0.1,0.1-0.2c0.7-1.5,5.1-10.4,17.7-34
	c0.1-0.1,0.2-0.3,0.2-0.4c5-8.8,13.3-15.2,22.8-17.4c0,0,0,0,0,0c10.3-1.7,19.5,1.8,21,2.1c0,0,0,0,0,0
	C363.2,269.1,366.5,271.3,369.2,273.9z"/>
<path class="st13" d="M338.7,265.5c-9.6,2.1-17.9,8.6-22.8,17.4C322,271.3,330.7,266.8,338.7,265.5z"/>
<path class="st13" d="M369.5,273.3c-0.1,0.2-0.1,0.4-0.2,0.6c-2.8-2.7-6-4.8-9.5-6.3C362,268.1,367.7,272,369.5,273.3z"/>
<path class="st13" d="M776,371.9c0.5,2.5,5.5,26.5,13.2,54.6c-0.9-3.1-1.8-6.2-2.6-9.5c-0.4-1.6-0.8-3.1-1.3-4.7
	C781.9,399.5,778.7,385.9,776,371.9z"/>
<path class="st13" d="M809.2,487.4c3.2,7.5,6,14.9,8.4,22c-1.3-3.6-2.6-7.3-4.1-10.9c-0.2-0.5-0.3-0.9-0.5-1.4
	c0-0.1-0.2-0.5-0.5-1.3c-0.2-0.5-0.5-1.2-0.8-2s-0.7-1.7-1.1-2.8C810.2,489.9,809.7,488.7,809.2,487.4z"/>
<path class="st13" d="M832.1,570.2c-0.8-5.7-1.7-11.3-2.8-16.8C831.4,563.9,832.1,570.2,832.1,570.2z"/>
<path class="st7" d="M829.4,553.5c0-0.1,0-0.2,0-0.3c-2.2-10.9-5.8-26.2-11.6-43.4c0-0.1-0.1-0.3-0.1-0.4c-1.3-3.6-2.6-7.3-4.1-10.9
	c-0.2-0.5-0.3-0.9-0.5-1.4c0-0.1-0.2-0.5-0.5-1.3c-0.2-0.5-0.5-1.2-0.8-2s-0.7-1.7-1.1-2.8c-0.4-1.1-0.9-2.3-1.4-3.6
	c-7.5-17.8-14.5-40.2-20-60.6c0-0.1-0.1-0.2-0.1-0.3c-0.9-3.1-1.8-6.2-2.6-9.5c-0.4-1.6-0.8-3.1-1.3-4.7
	c-3.4-12.8-6.6-26.5-9.2-40.5c0-0.1,0-0.2,0-0.2s0,0,0,0c-1.6-8.5-3-17-4.2-25.6c-0.5-3.5-0.9-7.1-1.3-10.6
	c-0.6-5.3-1.1-10.6-1.4-15.8c-0.4-5.2-0.6-10.5-0.7-15.6c-0.1-6.9,0-13.6,0.5-20.3c1-14.9,3.4-29,7.9-41.6c0.2-0.5,0.3-1,0.5-1.5
	c1.4-5.1,1.3-10.5-0.5-15.5c-0.3-1-0.7-2-1.2-2.9c-0.7-1.4-1.5-2.8-2.5-4.1c-2.9-3.9-6.7-6.8-11.1-8.6c-1-0.4-2-0.7-3-1
	c-1-0.3-2-0.5-3.1-0.6c-1.6-0.2-3.2-0.3-4.8-0.2h-0.8c-0.1,0-0.1,0-0.2,0h-0.9c-0.2,0-0.4,0-0.7,0.1H748c-0.3,0-0.5,0.1-0.8,0.1
	c-0.2,0-0.3,0-0.5,0.1c-0.3,0-0.6,0.1-1,0.1c-0.2,0-0.3,0-0.5,0.1c-0.4,0.1-0.8,0.1-1.3,0.2c-0.1,0-0.3,0-0.4,0.1
	c-1.2,0.2-2.5,0.4-3.9,0.7c-0.2,0-0.4,0.1-0.6,0.1c-0.5,0.1-1.1,0.2-1.6,0.3c-0.3,0.1-0.6,0.1-0.8,0.2c-0.5,0.1-1,0.2-1.6,0.3
	c-0.3,0.1-0.6,0.1-1,0.2c-0.5,0.1-1,0.2-1.6,0.4c-0.3,0.1-0.7,0.2-1.1,0.3c-0.6,0.1-1.1,0.3-1.7,0.4c-0.4,0.1-0.7,0.2-1.1,0.3
	c-0.6,0.2-1.2,0.3-1.9,0.5c-0.4,0.1-0.7,0.2-1.1,0.3c-0.7,0.2-1.4,0.4-2.2,0.7c-0.3,0.1-0.6,0.2-0.9,0.3c-1,0.3-2.1,0.7-3.2,1
	c-0.1,0-0.2,0.1-0.3,0.1c-1,0.3-2,0.7-3,1c-0.4,0.1-0.8,0.3-1.1,0.4c-0.8,0.3-1.5,0.6-2.3,0.9c-0.4,0.2-0.9,0.4-1.4,0.5
	c-0.7,0.3-1.4,0.6-2.2,0.9l-1.5,0.6c-0.7,0.3-1.5,0.6-2.2,0.9c-0.5,0.2-1,0.4-1.5,0.7c-0.7,0.3-1.5,0.7-2.2,1
	c-0.5,0.2-1,0.5-1.6,0.7c-0.8,0.4-1.6,0.8-2.4,1.1c-0.5,0.2-1,0.5-1.5,0.7c-0.9,0.5-1.8,0.9-2.7,1.4c-0.4,0.2-0.8,0.4-1.2,0.6
	c-1.3,0.7-2.7,1.4-4,2.2c-0.3,0.2-0.5,0.3-0.8,0.5c-1.1,0.6-2.2,1.2-3.3,1.9c-0.5,0.3-1,0.6-1.5,0.9c-0.9,0.5-1.7,1.1-2.6,1.6
	c-0.6,0.4-1.1,0.7-1.7,1.1c-0.8,0.5-1.7,1.1-2.5,1.6c-0.6,0.4-1.2,0.8-1.8,1.2c-0.8,0.6-1.6,1.1-2.5,1.7c-0.6,0.4-1.2,0.9-1.9,1.3
	c-0.3,0.2-0.7,0.5-1,0.7c-8.9,6.4-21.5,2.9-25.8-7.2c0-0.1-0.1-0.1-0.1-0.2c-0.3-0.8-0.7-1.6-1-2.4c-0.2-0.6-0.5-1.1-0.7-1.7
	c-0.3-0.8-0.6-1.6-1-2.4c-0.2-0.6-0.5-1.1-0.7-1.7l-0.9-2.4c-0.2-0.6-0.4-1.1-0.7-1.7c-0.3-0.8-0.6-1.6-0.9-2.4
	c-0.2-0.5-0.4-1.1-0.6-1.6c-0.3-0.8-0.6-1.6-0.9-2.4c-0.2-0.5-0.4-1.1-0.6-1.6c-0.3-0.8-0.6-1.6-0.9-2.4c-0.2-0.5-0.4-1.1-0.6-1.6
	c-0.3-0.8-0.6-1.6-0.9-2.4c-0.2-0.5-0.3-1-0.5-1.5c-0.3-0.8-0.6-1.7-0.9-2.5c-0.2-0.4-0.3-0.9-0.5-1.3c-0.3-0.9-0.6-1.7-0.9-2.6
	c-0.1-0.3-0.2-0.7-0.3-1c-1.5-4.6-3-9.2-4.4-13.7c-0.1-0.2-0.1-0.4-0.2-0.5c-0.3-1-0.6-1.9-0.9-2.8c-0.1-0.3-0.2-0.7-0.3-1
	c-0.3-0.9-0.5-1.8-0.8-2.6c-0.1-0.4-0.2-0.8-0.3-1.2c-0.2-0.9-0.5-1.7-0.7-2.5c-0.1-0.4-0.2-0.8-0.3-1.2c-0.2-0.8-0.5-1.7-0.7-2.5
	c-0.1-0.4-0.2-0.8-0.3-1.2c-0.2-0.8-0.5-1.7-0.7-2.5c-0.1-0.4-0.2-0.8-0.3-1.2c-0.2-0.8-0.4-1.7-0.7-2.5c-0.1-0.4-0.2-0.8-0.3-1.1
	c-0.2-0.8-0.4-1.7-0.6-2.5c-0.1-0.4-0.2-0.7-0.3-1.1c-0.2-0.8-0.4-1.7-0.6-2.5c-0.1-0.3-0.1-0.6-0.2-0.9c-0.2-0.9-0.4-1.8-0.7-2.7
	c0-0.2-0.1-0.3-0.1-0.5c-1.3-5.4-2.5-10.7-3.6-15.7c0-0.1-0.1-0.3-0.1-0.4c-0.2-0.9-0.4-1.7-0.5-2.6c0-0.2-0.1-0.5-0.1-0.7
	c-0.2-0.8-0.3-1.6-0.5-2.4c-0.1-0.3-0.1-0.6-0.2-0.8c-0.2-0.8-0.3-1.5-0.5-2.2c-0.1-0.3-0.1-0.6-0.2-0.9c-0.1-0.7-0.3-1.5-0.4-2.2
	c-0.1-0.3-0.1-0.6-0.2-0.9c-0.1-0.7-0.3-1.5-0.4-2.2c0-0.3-0.1-0.5-0.1-0.8c-0.1-0.7-0.3-1.5-0.4-2.2c0-0.2-0.1-0.5-0.1-0.7
	c-0.1-0.7-0.3-1.5-0.4-2.2c0-0.2-0.1-0.4-0.1-0.6c-0.1-0.8-0.3-1.5-0.4-2.3c0-0.1,0-0.2-0.1-0.3c-0.8-4.3-1.4-8.4-2-12.2
	c0-0.1,0-0.2,0-0.2c-0.1-0.7-0.2-1.3-0.3-2c0-0.1,0-0.3-0.1-0.4c-0.1-0.6-0.2-1.2-0.3-1.7c0-0.2-0.1-0.4-0.1-0.6
	c-0.1-0.5-0.2-1.1-0.2-1.6c0-0.2-0.1-0.4-0.1-0.6c-0.1-0.5-0.1-1-0.2-1.5c0-0.2-0.1-0.4-0.1-0.6c-0.1-0.5-0.1-1-0.2-1.4
	c0-0.2-0.1-0.4-0.1-0.6c-0.1-0.5-0.1-0.9-0.2-1.4c0-0.2,0-0.4-0.1-0.5c-0.1-0.5-0.1-0.9-0.2-1.4v-0.4c-0.1-0.5-0.1-1-0.2-1.4
	c0-0.1,0-0.1,0-0.2c-0.1-0.5-0.1-1-0.2-1.5c-0.2-1.6-0.3-3-0.5-4.3v-0.1c0-0.4-0.1-0.7-0.1-1.1c0-0.1,0-0.1,0-0.2
	c0-0.3-0.1-0.6-0.1-0.9v-0.4c0-0.3,0-0.5-0.1-0.7v-0.4c0-0.2,0-0.4-0.1-0.6v-0.4c0-0.2,0-0.4-0.1-0.6v-1.5c0-0.1,0-0.2,0-0.2v-0.8
	c0-0.1,0-0.1,0-0.2c0-0.1,0-0.1,0-0.2c0-0.2,0-0.3,0-0.3c-0.1-1.1-0.2-2.2-0.4-3.3c-0.6-3.3-1.9-6.4-3.7-9.1
	c-2.4-3.7-5.7-6.7-9.7-8.8c-2-1-4.1-1.8-6.3-2.3c-1.1-0.2-2.2-0.4-3.2-0.5c-1.6-0.2-3.3-0.2-4.9,0c-3.3,0.3-6.5,1.2-9.5,2.8
	c-0.5,0.3-1,0.5-1.5,0.8c-3.1,1.9-6.2,3.8-9.2,5.7c-0.6,0.3-1.1,0.7-1.7,1c-3.1,1.9-6.1,3.9-9.1,5.9c-0.1,0.1-0.2,0.2-0.4,0.2
	c-6.4,4.2-12.7,8.6-18.8,13c-25,18.1-47.3,37.5-67.1,58.3c-19.8,20.8-36.9,42.9-51.3,66.2c-1,1.6-1.9,3.2-2.9,4.7c0,0,0,0,0,0
	L370,273.7c0,0-0.2-0.1-0.5-0.4c-7.7,22.7-13.2,46.1-16.5,70.3l479.3,227.5C831.5,565.4,830.4,558.9,829.4,553.5z"/>
</svg>
