<?xml version="1.0" encoding="utf-8"?>
<!-- Generator: Adobe Illustrator 21.0.0, SVG Export Plug-In . SVG Version: 6.00 Build 0)  -->
<svg version="1.1" id="Layer_1" xmlns="http://www.w3.org/2000/svg" xmlns:xlink="http://www.w3.org/1999/xlink" x="0px" y="0px"
	 viewBox="0 0 1080 1080" style="enable-background:new 0 0 1080 1080;" xml:space="preserve">
<style type="text/css">
	.st0{fill:#A4D8DD;}
	.st1{fill:url(#SVGID_1_);}
	.st2{fill:#BBF5FF;}
	.st3{fill:#FFFFFF;}
	.st4{fill:#003556;}
</style>
<g>
	<g>
		<path class="st0" d="M999.4,429.1H768.8c-99.5,0-185.9,56.7-228.8,139.5c-42.8-82.8-129.3-139.5-228.8-139.5H80.6
			c-15.8,0-28.6,12.8-28.6,28.6c0,46.7,22.5,88.2,57.2,114.3c0,0,0,0,0,0.1c0,69.9,50.4,128.2,116.8,140.5
			c12.3,66.4,70.6,116.8,140.5,116.8h59.1c47.3,0,85.8,38.5,85.8,85.8c0,15.8,12.8,28.6,28.6,28.6s28.6-12.8,28.6-28.6
			c0-47.3,38.5-85.8,85.8-85.8h59.1c69.9,0,128.2-50.4,140.5-116.8c66.4-12.3,116.8-70.6,116.8-140.5c0,0,0,0,0-0.1
			c34.7-26.1,57.2-67.6,57.2-114.3C1028,441.9,1015.2,429.1,999.4,429.1z M511.4,800.9c-23.9-18-53.6-28.7-85.8-28.7h-59.1
			c-37.3,0-69.1-23.9-80.9-57.2h23.7c15.8,0,28.6-12.8,28.6-28.6s-12.8-28.6-28.6-28.6h-57.2c-38.1,0-70.4-24.9-81.6-59.3
			c7.9,1.4,16.1,2.1,24.4,2.1h57.2c15.8,0,28.6-12.8,28.6-28.6s-12.8-28.6-28.6-28.6H195c-37.3,0-69.1-23.9-80.9-57.2h197.2
			c110.4,0,200.2,89.8,200.2,200.2V800.9z M827.8,657.9h-57.2c-15.8,0-28.6,12.8-28.6,28.6s12.8,28.6,28.6,28.6h23.7
			c-11.8,33.3-43.6,57.2-80.9,57.2h-59.1c-32.2,0-61.9,10.7-85.8,28.7V686.4c0-110.4,89.8-200.2,200.2-200.2h197.2
			c-11.8,33.3-43.6,57.2-80.9,57.2h-57.2c-15.8,0-28.6,12.8-28.6,28.6s12.8,28.6,28.6,28.6H885c8.3,0,16.5-0.8,24.4-2.1
			C898.2,632.9,865.9,657.9,827.8,657.9z"/>
	</g>
</g>
<title>Characters</title>
<linearGradient id="SVGID_1_" gradientUnits="userSpaceOnUse" x1="540" y1="874.6847" x2="540" y2="655.3048" gradientTransform="matrix(1 0 0 -1 0 1040.54)">
	<stop  offset="0" style="stop-color:#FFC342"/>
	<stop  offset="1" style="stop-color:#FFAE00"/>
</linearGradient>
<path class="st1" d="M793.7,297.3c-5.3-3.2-11.1-5.4-17.2-6.4c20.6-11.2,30.8-35,24.8-57.6c-0.9-3.6-3.7-6.3-7.3-7.3
	c-4.3-1.1-8.7-1.7-13.1-1.7c-1.8,0-3.6,0.1-5.3,0.3c16.8-16.4,20.1-42.1,8-62.2c-1.9-3.2-5.3-5.1-9-5c-6.2,0.1-12.4,1.4-18.1,3.8
	c2.5-4.3,4.3-8.9,5.4-13.6c4-17.6-1.6-36.1-14.8-48.4c-2.7-2.5-6.5-3.4-10-2.3c-7.8,2.4-15,6.7-20.8,12.5
	c-7.8-19-26.3-31.3-46.8-31.2h-1.7c-3.7,0.1-7,2.2-8.7,5.5c-8.4,16-7.8,35.2,1.8,50.6c1.5,2.3,3.1,4.6,5,6.6
	c-7.7,2.7-14.7,7.2-20.3,13.2c-2.5,2.7-3.4,6.5-2.3,10c3.8,12.2,12,22.6,23.1,29c-0.3,1-0.5,2.1-0.5,3.2c0.3,12.8,5.3,25,14.2,34.2
	c-0.6,0.9-1,1.9-1.3,2.9c-3.3,12.4-1.8,25.5,4.2,36.8c-0.8,0.7-1.5,1.5-2.1,2.4c-6.6,11-8.7,24.1-6.1,36.6c-1,0.4-1.9,1-2.7,1.8
	c-9.3,8.8-15,20.7-15.9,33.5c-1.1,0.2-2.1,0.5-3.1,1c-11.4,5.8-20.2,15.8-24.5,27.8c-1.1-0.1-2.1-0.1-3.2,0.1
	c-27.4,5.3-45.4,31.9-40,59.3c0.8,4.3,2.2,8.5,4.2,12.5c-32.4,8.7-66.6,8.7-99,0c12.2-25.2,1.7-55.4-23.5-67.6
	c-3.9-1.9-8.1-3.3-12.4-4.1c-1.1-0.2-2.1-0.2-3.2-0.1c-4.4-12-13.1-22-24.5-27.8c-1-0.5-2-0.8-3.1-1c-0.9-12.8-6.6-24.7-15.9-33.5
	c-0.8-0.7-1.7-1.3-2.7-1.8c2.7-12.5,0.5-25.6-6.1-36.6c-0.6-0.9-1.2-1.7-2.1-2.4c6-11.3,7.5-24.5,4.3-36.9c-0.3-1-0.7-2-1.3-2.9
	c8.9-9.2,14-21.4,14.2-34.2c0-1.1-0.1-2.1-0.5-3.2c11.1-6.4,19.3-16.8,23.1-29c1.1-3.5,0.2-7.3-2.3-10c-5.6-6-12.6-10.5-20.3-13.2
	c14-15.8,16.7-38.6,6.7-57.2c-1.7-3.2-5-5.3-8.7-5.5h-1.7c-20.5-0.1-39,12.3-46.8,31.2c-5.8-5.8-13-10.1-20.8-12.5
	c-3.5-1.1-7.3-0.2-10,2.3c-17.2,16-21.1,41.7-9.4,62.1c-5.8-2.4-11.9-3.6-18.1-3.8c-3.7-0.1-7.1,1.8-9,5c-12.1,20.1-8.8,45.9,8,62.2
	c-1.8-0.2-3.5-0.3-5.3-0.3c-4.4,0-8.8,0.6-13.1,1.7c-3.6,0.9-6.3,3.7-7.3,7.3c-6,22.6,4.2,46.5,24.8,57.6
	c-6.1,1.1-11.9,3.2-17.3,6.4c-3.2,1.9-5.1,5.3-5,9c0.4,23.5,16.9,43.6,39.8,48.5c-5.6,2.7-10.6,6.4-14.9,11c-2.5,2.7-3.4,6.5-2.3,10
	c6.5,21.3,26.2,35.8,48.5,35.8c1,0,2.1,0,3.2-0.1c-4.6,4.1-8.5,9.1-11.3,14.6c-1.7,3.3-1.5,7.2,0.5,10.3c9.3,14.4,25.3,23.1,42.4,23
	c0.9,0,1.8,0,2.7-0.1c4.9-0.2,9.8-1.2,14.5-2.9c-3.3,5.3-5.6,11.1-6.9,17.2c-0.7,3.6,0.6,7.3,3.3,9.7c21.1,18.3,53,16.1,71.4-5
	c3.8-4.3,6.8-9.3,8.9-14.7c5.9,1.7,11.9,3.2,17.9,4.4c-3.9,3.8-7.3,8.1-10.1,12.9c-2.8,4.9-1.1,11.2,3.9,14
	c4.9,2.8,11.1,1.1,13.9-3.7c10.6-18.3,34-24.6,52.3-14c5.8,3.4,10.7,8.2,14,14c2.9,4.9,9.2,6.5,14.1,3.7c4.8-2.8,6.5-9.1,3.7-13.9
	c-2.7-4.7-6.1-9.1-10.1-12.9c6.1-1.2,12.1-2.6,17.9-4.4c7.6,19.3,26.3,32,47.1,32l0,0c12.2,0,24-4.4,33.2-12.4
	c2.8-2.4,4.1-6.1,3.3-9.7c-1.2-6.1-3.6-11.9-6.9-17.2c4.6,1.7,9.5,2.7,14.4,2.9c0.9,0,1.8,0,2.7,0.1c17.2,0,33.2-8.6,42.5-23.1
	c2-3.1,2.2-7,0.5-10.3c-2.8-5.5-6.7-10.5-11.3-14.6c1,0.1,2.1,0.1,3.2,0.1l0,0c22.3,0,41.9-14.5,48.4-35.8c1.1-3.5,0.2-7.3-2.3-10
	c-4.2-4.5-9.3-8.2-14.9-11c22.9-5,39.4-25.1,39.8-48.5C798.7,302.7,796.8,299.2,793.7,297.3z M398,330.7c9.5,13.6,6.1,32.4-7.5,41.9
	c-0.8,0.6-1.7,1.1-2.6,1.6c-9.5-13.6-6.1-32.4,7.5-41.9C396.3,331.8,397.1,331.2,398,330.7L398,330.7z M364.7,303.6
	c4.1-7.4,11.2-12.8,19.5-14.7c5.4,15.7-3,32.8-18.7,38.2c-1,0.3-1.9,0.6-2.9,0.8C359.9,319.9,360.6,311.1,364.7,303.6z M352.4,276.5
	c-0.5,0-1,0-1.5,0c-0.4-8.5,2.8-16.8,8.8-22.8c5.6-5.7,13.3-8.8,21.3-8.8c0.5,0,1,0,1.5,0c0.4,8.5-2.8,16.8-8.8,22.8
	C368.1,273.3,360.4,276.5,352.4,276.5L352.4,276.5z M385,112.7c4.5-7.2,11.8-12.2,20.2-13.7c2.3,8.2,1.1,17-3.4,24.2
	c-4.5,7.2-11.8,12.2-20.2,13.7C379.3,128.7,380.5,119.9,385,112.7z M390.8,159.2c8.3-1.9,17-0.2,24,4.6
	c-5.3,9.5-15.4,15.4-26.3,15.4l0,0c-6.1,0-12.1-1.9-17.2-5.4C375.5,166.4,382.5,161.1,390.8,159.2z M368.6,204.2
	c7.4-4.1,16.3-4.9,24.3-2.2c-3.8,16.2-19.9,26.2-36.1,22.5c-1-0.2-2-0.5-2.9-0.8C355.8,215.4,361.2,208.3,368.6,204.2z M342.8,118.8
	c13.1,7.3,18.8,23.2,13.4,37.1c-1.2,2.1-2.3,4.1-3.4,6.3c-14.5-8.1-19.6-26.5-11.5-40.9C341.7,120.5,342.2,119.6,342.8,118.8z
	 M311.4,178.7c14.6,3.4,24.4,16.9,23.1,31.8c-0.6,2.4-1.1,4.8-1.6,7.2c-16.2-3.8-26.2-20-22.3-36.2
	C310.8,180.6,311.1,179.6,311.4,178.7z M297.6,244.9c0.5,0,1,0,1.5,0c14.5,0,26.9,10.3,29.5,24.6c0.1,2.4,0.2,4.7,0.4,7
	c-0.5,0-0.9,0-1.4,0c-8,0-15.6-3.2-21.3-8.8C300.4,261.6,297.2,253.4,297.6,244.9z M317.3,331.8c-7.4-4.1-12.8-11.2-14.7-19.5
	c14.2-4.9,29.8,1.5,36.5,14.9c0.8,2.3,1.5,4.5,2.4,6.8C333.5,336.6,324.7,335.9,317.3,331.8L317.3,331.8z M352.4,391.2
	c-10.9,0-21-5.9-26.3-15.4c12.5-8.7,29.5-6.7,39.7,4.7c1.2,1.8,2.5,3.6,3.8,5.4C364.5,389.3,358.5,391.1,352.4,391.2L352.4,391.2z
	 M388.9,438.9c-8.5,0.5-16.8-2.7-22.8-8.7c9.6-11.8,26.5-14.7,39.4-6.6c1.7,1.4,3.5,2.8,5.3,4.2
	C405.3,434.4,397.4,438.5,388.9,438.9L388.9,438.9z M422.9,367.2c12.9,10.5,14.8,29.4,4.4,42.3c-0.6,0.8-1.3,1.5-2,2.2
	c-12.9-10.5-14.8-29.4-4.4-42.3C421.5,368.6,422.2,367.9,422.9,367.2z M443.9,473.7c-8,2.8-16.9,2-24.3-2.1
	c5.9-13.9,21.1-21.2,35.7-17.2c2.1,0.9,4.3,1.8,6.5,2.7C458.4,464.9,451.9,470.9,443.9,473.7L443.9,473.7z M471.3,437.5
	c-15.3-6.5-22.4-24.2-15.8-39.5c0.4-0.9,0.8-1.8,1.3-2.7c15.3,6.5,22.4,24.2,15.9,39.4C472.3,435.7,471.8,436.6,471.3,437.5z
	 M780.9,244.8c0.5,0,1,0,1.5,0c0.4,8.5-2.8,16.8-8.8,22.8c-5.6,5.7-13.3,8.8-21.3,8.8c-0.5,0-0.9,0-1.4,0c0.2-2.3,0.3-4.7,0.4-7
	C753.9,255.2,766.4,244.8,780.9,244.8L780.9,244.8z M749.1,193.4c4.1-7.4,11.2-12.8,19.5-14.7c5.4,15.7-3,32.8-18.7,38.2
	c-0.9,0.3-1.9,0.6-2.9,0.8c-0.5-2.4-1-4.8-1.6-7.2C745,204.6,746.3,198.6,749.1,193.4z M722.5,138.4c1.9-8.3,7.2-15.4,14.7-19.5
	c9.5,13.6,6.2,32.4-7.5,41.9c-0.8,0.6-1.6,1.1-2.5,1.6c-1.1-2.1-2.3-4.2-3.4-6.3C721.6,150.4,721.2,144.2,722.5,138.4z M706.3,267.7
	c-6-6-9.2-14.3-8.8-22.8c0.5,0,1,0,1.5,0c8,0,15.6,3.2,21.3,8.8c6,6,9.2,14.3,8.8,22.8c-0.5,0-1,0-1.5,0
	C719.6,276.5,711.9,273.3,706.3,267.7z M717.4,327.9c-16.2-3.8-26.2-19.9-22.5-36.1c0.2-1,0.5-2,0.8-2.9
	c16.2,3.8,26.2,19.9,22.5,36.1C718,326,717.7,327,717.4,327.9z M726.1,223.7c-15.7,5.4-32.8-3-38.2-18.7c-0.3-1-0.6-1.9-0.8-2.9
	c15.7-5.4,32.8,3,38.2,18.7C725.6,221.8,725.9,222.7,726.1,223.7z M674.7,99c16.4,2.9,27.2,18.6,24.3,34.9c-0.2,1-0.4,2-0.7,2.9
	c-16.4-2.9-27.2-18.6-24.3-34.9C674.2,101,674.5,100,674.7,99z M665.2,163.8c13.6-9.5,32.4-6.2,41.9,7.5c0.6,0.8,1.1,1.7,1.6,2.6
	c-13.6,9.5-32.4,6.2-41.9-7.5C666.3,165.5,665.7,164.7,665.2,163.8z M681.9,330.8c14.5,8.1,19.7,26.4,11.7,40.9
	c-0.5,0.9-1,1.7-1.6,2.6c-14.5-8.1-19.7-26.4-11.6-40.9C680.9,332.4,681.4,331.6,681.9,330.8L681.9,330.8z M608.7,437.5
	c-8-14.5-2.8-32.8,11.8-40.9c0.9-0.5,1.8-0.9,2.7-1.3c8,14.5,2.7,32.8-11.8,40.8C610.5,436.7,609.6,437.1,608.7,437.5L608.7,437.5z
	 M636.1,473.7c-8-2.8-14.5-8.8-17.8-16.5c2.2-0.9,4.4-1.8,6.6-2.8c14.5-3.9,29.7,3.4,35.6,17.2C653,475.6,644.1,476.4,636.1,473.7
	L636.1,473.7z M665.9,390c-0.5,8.5-4.5,16.4-11.1,21.8c-11.7-11.7-11.7-30.8,0-42.5c0.7-0.7,1.5-1.4,2.2-2
	C663.1,373.2,666.3,381.5,665.9,390L665.9,390z M692.7,439c-0.5,0-1.1,0-1.6,0c-8.5-0.5-16.4-4.5-21.8-11.1c1.8-1.4,3.5-2.8,5.3-4.2
	c12.9-8,29.7-5.2,39.3,6.5C708.3,435.9,700.7,439,692.7,439L692.7,439z M734.4,390.4c-2.2,0.5-4.5,0.8-6.8,0.8l0,0
	c-6.1,0-12.1-1.9-17.2-5.4c1.3-1.8,2.6-3.5,3.8-5.4c10.1-11.4,27.2-13.4,39.7-4.7C749.8,383.1,742.7,388.5,734.4,390.4L734.4,390.4z
	 M762.6,331.8c-7.4,4.1-16.2,4.9-24.2,2.2c0.8-2.2,1.6-4.5,2.4-6.8c6.7-13.4,22.4-19.8,36.6-14.9C775.4,320.6,770,327.6,762.6,331.8
	L762.6,331.8z"/>
<path class="st2" d="M781.5,892.2c-12.1,13.9-25.4,26.7-39.7,38.3C686.7,975.2,616.5,1002,540,1002c-177,0-320.5-143.5-320.5-320.5
	S539.4,78,540,78l0,0c0.1,0.1,2.1,2.6,5.5,7.2c1,1.3,2,2.7,3.2,4.3c0.4,0.6,0.9,1.2,1.4,1.9c0,0,0.1,0.1,0.1,0.2
	c0.4,0.6,0.9,1.2,1.3,1.8c0,0,0,0,0,0.1c1.4,2,3,4.1,4.7,6.4c1,1.3,2,2.7,3,4.1C640.3,215.8,941.6,661,781.5,892.2z"/>
<g>
	<g>
		<ellipse class="st3" cx="405.7" cy="746.6" rx="40.4" ry="76.8"/>
		<ellipse class="st4" cx="400.1" cy="763.9" rx="26.3" ry="51.4"/>
		<ellipse class="st3" cx="674.3" cy="746.6" rx="40.4" ry="76.8"/>
		<ellipse class="st4" cx="668.7" cy="763.9" rx="24.9" ry="48.8"/>
	</g>
</g>
<path class="st2" d="M781.5,892.2C941.6,661,640.3,215.8,559.3,104c69.3,95.1,301.2,426.7,301.2,577.5
	C860.5,762.1,830.7,835.8,781.5,892.2z"/>
</svg>
