<?xml version="1.0" encoding="utf-8"?>
<!-- Generator: Adobe Illustrator 21.0.0, SVG Export Plug-In . SVG Version: 6.00 Build 0)  -->
<svg version="1.1" id="Layer_1" xmlns="http://www.w3.org/2000/svg" xmlns:xlink="http://www.w3.org/1999/xlink" x="0px" y="0px"
	 viewBox="0 0 1080 1080" style="enable-background:new 0 0 1080 1080;" xml:space="preserve">
<style type="text/css">
	.st0{fill:#F4D4DE;}
	.st1{fill:#F7E0E6;}
	.st2{fill:none;stroke:#231F20;stroke-width:12.0387;stroke-linecap:round;stroke-linejoin:round;stroke-miterlimit:10;}
	.st3{fill:#D96282;}
	.st4{fill:none;stroke:#231F20;stroke-width:10.6446;stroke-linecap:round;stroke-linejoin:round;stroke-miterlimit:10;}
	.st5{fill:none;stroke:#231F20;stroke-width:7.4377;stroke-linecap:round;stroke-linejoin:round;stroke-miterlimit:10;}
	.st6{fill:#FF5A5A;}
	.st7{fill:#FFFFFF;stroke:#000000;stroke-miterlimit:10;}
</style>
<title>Characters</title>
<path class="st0" d="M860.5,681.5c0,113.7-59.2,213.6-148.6,270.5C999.7,762.8,542.7,82.1,540,78
	C541.8,79.7,860.5,504.8,860.5,681.5z"/>
<path class="st1" d="M711.9,952c0,0-0.1,0.1-0.1,0.1c-4.3,2.7-8.6,5.3-13,7.9c-0.1,0-0.1,0.1-0.2,0.1c-46.8,26.7-100.9,42-158.6,42
	c-177,0-320.5-143.5-320.5-320.5S539.4,78,540,78c0,0,0,0,0,0C542.7,82.1,999.7,762.8,711.9,952z"/>
<g>
	<g>
		<path class="st2" d="M629.2,733.6c0-38.8,16.5-70.3,36.9-70.3s36.9,31.5,36.9,70.3"/>
		<path class="st2" d="M380.1,733.6c0-38.8,16.5-70.3,36.9-70.3s36.9,31.5,36.9,70.3"/>
	</g>
	<g>
		<ellipse class="st3" cx="399.2" cy="771.1" rx="31" ry="13.6"/>
		<ellipse class="st3" cx="680.8" cy="771.1" rx="31" ry="13.6"/>
	</g>
	<path class="st4" d="M622.8,706"/>
	<g>
		<path class="st5" d="M411.4,611.1c0,0-30.6-6.2-38.3,24.6"/>
		<path class="st5" d="M668.6,611.1c0,0,30.6-6.2,38.4,24.6"/>
	</g>
</g>
<g>
	<ellipse class="st6" cx="406.7" cy="247.6" rx="14.1" ry="44.7"/>
	
		<ellipse transform="matrix(0.7071 -0.7071 0.7071 0.7071 -55.9848 386.2608)" class="st6" cx="438.3" cy="260.7" rx="44.7" ry="14.1"/>
	<ellipse class="st6" cx="451.4" cy="292.4" rx="44.7" ry="14.1"/>
	
		<ellipse transform="matrix(0.7071 -0.7071 0.7071 0.7071 -100.7149 404.8302)" class="st6" cx="438.3" cy="324" rx="14.1" ry="44.7"/>
	<ellipse class="st6" cx="406.7" cy="337.1" rx="14.1" ry="44.7"/>
	
		<ellipse transform="matrix(0.7071 -0.7071 0.7071 0.7071 -119.2135 360.1294)" class="st6" cx="375.1" cy="324" rx="44.7" ry="14.1"/>
	<ellipse class="st6" cx="362" cy="292.4" rx="44.7" ry="14.1"/>
	
		<ellipse transform="matrix(0.7071 -0.7071 0.7071 0.7071 -74.4833 341.5601)" class="st6" cx="375.1" cy="260.7" rx="14.1" ry="44.7"/>
</g>
<path class="st7" d="M540,78"/>
</svg>
