<?xml version="1.0" encoding="utf-8"?>
<!-- Generator: Adobe Illustrator 21.0.0, SVG Export Plug-In . SVG Version: 6.00 Build 0)  -->
<svg version="1.1" id="Layer_1" xmlns="http://www.w3.org/2000/svg" xmlns:xlink="http://www.w3.org/1999/xlink" x="0px" y="0px"
	 viewBox="0 0 1080 1080" style="enable-background:new 0 0 1080 1080;" xml:space="preserve">
<style type="text/css">
	.st0{fill:#00B6C4;}
	.st1{fill:#083C66;}
	.st2{fill:#FFFFFF;}
	.st3{fill:#0F2603;}
	.st4{fill:#7F5B53;}
	.st5{fill:#B6E2FF;}
	.st6{fill:#FFEE55;}
	.st7{fill:#FFB715;}
	.st8{fill:#FC001F;}
	.st9{fill:#EFF6F7;}
	.st10{fill:none;stroke:#231F20;stroke-width:8.0103;stroke-linecap:round;stroke-linejoin:round;stroke-miterlimit:10;}
	.st11{fill:#967471;}
	.st12{fill:#00A863;}
</style>
<title>Characters</title>
<path class="st0" d="M559.3,104c75.9,104.8,345.5,502.7,247,742.5c-2.5,6-5.2,11.9-8.1,17.7c2.9-5.8,5.6-11.7,8.1-17.7
	C904.8,606.7,635.2,208.8,559.3,104c-1.1-1.4-2.1-2.8-3.1-4.1c-1.7-2.3-3.3-4.4-4.7-6.4c0-0.1,0-0.1,0-0.1c-0.4-0.6-0.9-1.2-1.3-1.8
	c0-0.1-0.1-0.2-0.1-0.2c-0.5-0.7-1-1.3-1.4-1.9c-1.2-1.6-2.2-3-3.2-4.3c-3.4-4.6-5.4-7.1-5.5-7.2c-0.6,0-320.5,426.5-320.5,603.5
	S363,1002,540,1002c76.5,0,146.7-26.8,201.8-71.5c14.3-11.6,27.6-24.4,39.7-38.3c49.2-56.4,79-130.1,79-210.7
	C860.5,530.7,628.6,199.1,559.3,104z"/>
<path class="st1" d="M452.9,795.4L452.9,795.4l-2.3-1.9c-66.3-53.8-112.7-128.2-131.9-211.4l-3-13l0,0l25.3,24
	c51.8,49.3,88.8,112.2,106.6,181.4L452.9,795.4z"/>
<g>
	<g>
		<ellipse class="st2" cx="387" cy="686.8" rx="40.4" ry="76.8"/>
		<ellipse class="st3" cx="384.3" cy="699.8" rx="27.5" ry="53.8"/>
		<ellipse class="st2" cx="655.6" cy="686.8" rx="40.4" ry="76.8"/>
		<ellipse class="st3" cx="651.3" cy="699.8" rx="27.5" ry="53.8"/>
	</g>
</g>
<path class="st4" d="M766.8,194.8c-0.5,0.5-1,1.1-1.5,1.7"/>
<path class="st4" d="M763.8,198.1c-0.5,0.5-1,1.1-1.5,1.7c-0.5,0.5-1,1.1-1.5,1.7"/>
<g>
	<path class="st1" d="M144.4,642.3l-31.6,57.6c-12.6,35.9-15,75.6-5.3,114.5l156.1,2.5c7.2,0.1,12.6-6.6,10.8-13.6l-55.1-220.4
		l-14.6,8.1C180.8,604.1,160.6,621.8,144.4,642.3L144.4,642.3z"/>
	<path class="st5" d="M235.3,737.2l-102.6-107c-10-10.5-27.2-8.5-34.7,3.9l-13.9,23.1c-6.2,10.4-2.9,23.9,7.5,30.1l21.1,12.6
		l106.5,63.9C216.4,752,223.6,740.1,235.3,737.2z"/>
	<ellipse transform="matrix(0.9702 -0.2424 0.2424 0.9702 -176.6779 80.9702)" class="st6" cx="240.7" cy="758.5" rx="22" ry="22"/>
</g>
<g>
	<path class="st1" d="M923,642.3c-16.1-20.5-36.4-38.2-60.3-51.4l-14.6-8.1L793,803.2c-1.7,7,3.6,13.8,10.8,13.6l156.1-2.5
		c9.7-38.9,7.3-78.6-5.3-114.5L923,642.3L923,642.3z"/>
	<path class="st5" d="M848.1,763.8l106.5-63.9l21.1-12.6c10.4-6.2,13.8-19.7,7.5-30.1L969.3,634c-7.5-12.4-24.7-14.4-34.7-3.9
		L832,737.1C843.9,740.1,851,752,848.1,763.8z"/>
	
		<ellipse transform="matrix(0.2424 -0.9702 0.9702 0.2424 -109.4246 1376.811)" class="st6" cx="826.8" cy="758.5" rx="22" ry="22"/>
</g>
<g>
	<path id="Shape_5_" class="st7" d="M281.2,1050.4c165.9-29.3,133-237.9,125.5-276.1c-0.6-3.4-3.7-5.8-7.1-5.6
		c-18.1,0.7-74.6-0.2-113.5-35.9c-2.8-2.5-7-2.5-9.7,0c-38.9,35.7-95.4,36.6-113.5,35.8c-3.5-0.1-6.5,2.3-7.1,5.6
		C148.3,812.5,115.3,1021.1,281.2,1050.4L281.2,1050.4z"/>
	<path id="Shape_6_" class="st8" d="M382.6,903.2c-3.4,25.2-12.1,49.4-25.9,70.6c-14.7,21.5-36.4,37.2-61.5,44.3v-82.1
		c15.9-4.7,28.2-17.2,33-33h54.4V903.2z"/>
	<path id="Shape_7_" class="st9" d="M385.8,875.2c-0.6,9.4-1.6,18.7-3.1,28h-54.4c2.8-9.1,2.8-18.9,0-28H385.8z"/>
	<path id="Shape_8_" class="st8" d="M385.8,875.2h-57.5c-4.7-15.9-17.2-28.2-33-33v-68.6c26.8,14.2,56.6,22,86.9,22.9
		C385.9,822.6,387.1,848.9,385.8,875.2z"/>
	<path id="Shape_9_" class="st9" d="M295.2,773.6v68.6c-9.1-2.8-18.9-2.8-28,0v-68.6c4.8-2.6,9.5-5.6,14.1-8.9
		C285.7,767.9,290.4,770.9,295.2,773.6z"/>
	<path id="Shape_10_" class="st9" d="M295.2,936.2v82.1c-4.6,1.4-9.3,2.8-14.1,3.6c-4.7-1-9.4-2.2-14.1-3.6v-82.1
		C276.3,938.9,286.1,938.9,295.2,936.2z"/>
	<path id="Shape_11_" class="st8" d="M267.2,936.2v82.1c-25.1-7.1-46.9-22.8-61.5-44.3c-13.8-21.3-22.7-45.4-25.9-70.6h54.4
		C239,919.1,251.3,931.4,267.2,936.2z"/>
	<path id="Shape_12_" class="st8" d="M267.2,773.6v68.6c-15.9,4.7-28.2,17.2-33,33h-57.5c-1.3-26.2-0.1-52.6,3.7-78.6
		C210.7,795.6,240.4,787.7,267.2,773.6L267.2,773.6z"/>
	<path id="Shape_13_" class="st7" d="M330.3,889.1c0,4.8-0.7,9.5-2,14.1c-4.7,15.9-17.2,28.2-33,33c-9.1,2.8-18.9,2.8-28,0
		c-15.9-4.7-28.2-17.2-33-33c-2.8-9.1-2.8-18.9,0-28c4.7-15.9,17.2-28.2,33-33c9.1-2.8,18.9-2.8,28,0c15.9,4.7,28.2,17.2,33,33
		C329.7,879.7,330.3,884.5,330.3,889.1z"/>
	<path id="Shape_14_" class="st9" d="M232.1,889.1c0,4.8,0.7,9.5,2,14.1h-54.4c-1.6-9.3-2.5-18.6-3.1-28h57.5
		C232.8,879.7,232.1,884.5,232.1,889.1z"/>
</g>
<path class="st10" d="M373.7,587c0,0,12,31.5,44.5,20.7"/>
<path class="st10" d="M666,587c0,0-12,31.5-44.5,20.7"/>
<g>
	<g>
		<path class="st7" d="M749.1,698.9l17.4,59.9l39.6,50.5c12-2.8,26.1-3.8,40.5-0.1c8-29.6-4.9-66.7-13.6-83.6
			c-8.8-17.1-35.8-52.1-60.3-59.5C767.4,679.8,758.3,690.7,749.1,698.9L749.1,698.9z"/>
	</g>
	<g>
		<path class="st7" d="M796.6,790.9l9.5,18.4c12-2.8,26.1-3.8,40.5-0.1c2.1-7.9,2.8-16.4,2.4-24.8c-1.1-0.2-2.1-0.3-3.2-0.4
			c-13.7-1.3-27.2,0.6-39,3.7C803.3,788.6,799.9,789.7,796.6,790.9L796.6,790.9z"/>
	</g>
	<g>
		<path class="st1" d="M779.9,758.4c-2.3,1.2-5.1,0.3-6.3-2c-1.2-2.3-0.3-5.1,2-6.3l50.8-26.3l0,0c2.3-1.2,5.1-0.3,6.3,2
			c1.2,2.3,0.3,5.1-2,6.3L779.9,758.4C779.9,758.4,779.9,758.4,779.9,758.4z"/>
	</g>
	<g>
		<path class="st1" d="M766.9,733.3c-1.8,0.9-4,0.6-5.5-0.8c-1.8-1.8-1.9-4.8,0-6.7l37.8-38.2c1.8-1.8,4.8-1.9,6.7,0
			c1.8,1.8,1.9,4.8,0,6.7l-37.8,38.2C767.8,732.8,767.3,733.1,766.9,733.3z"/>
	</g>
	<g>
		<path class="st1" d="M845.8,774.8c-0.4,0.2-0.9,0.4-1.4,0.5l-53,8.6c-2.6,0.4-5-1.3-5.4-3.9c-0.4-2.6,1.3-5,3.9-5.4l53-8.6
			c2.6-0.4,5,1.3,5.4,3.9C848.7,771.9,847.6,773.9,845.8,774.8z"/>
	</g>
	<g>
		<path class="st9" d="M869.8,819.5c29.2-50.6-34-172.9-92.1-178.4c-0.3,9.2-2.1,17.4-5,24.9c28.9,18.1,46.9,44.8,55.7,61.9
			c8.7,16.9,21,51.4,18.2,81.2C854.4,811.1,862.2,814.4,869.8,819.5z"/>
	</g>
	<g>
		<path class="st9" d="M849.1,784.3c0.4,8.5-0.3,16.9-2.4,24.8c7.7,2,15.5,5.3,23.1,10.4c4.3-7.4,6.5-16.3,7.2-26.1
			c-7.9-4.4-16.1-7.1-24.3-8.6C851.5,784.6,850.3,784.4,849.1,784.3L849.1,784.3z"/>
	</g>
	<g>
		<path class="st11" d="M784.4,863.5l-26.6-2.8l-10.3,21.8l84.2,162.7c0.5,0.9,1.6,1.3,2.5,0.8l33.5-17.3c0.9-0.5,1.3-1.6,0.8-2.5
			L784.4,863.5z"/>
	</g>
	<g>
		<path class="st7" d="M737.2,817.2L722.4,849l15.8,30.5c1.8,3.4,6,4.7,9.4,3l36.9-19c3.4-1.8,4.8-6,3-9.4l-15.8-30.5L737.2,817.2z"
			/>
	</g>
	<g>
		<path class="st7" d="M593.3,758.6c-7.8,24.1,4.8,66.6,13.6,83.7c8.7,16.9,26.2,47.1,60.3,59.5c5.3-13.9,14.3-24.8,23.6-32.9
			L670,809.7l-36.3-51.2C621.8,761.2,607.7,762.3,593.3,758.6z"/>
	</g>
	<g>
		<path class="st7" d="M647,886.6c6.2,5.8,13,11.1,20.1,15.2c5.3-13.9,14.3-24.8,23.6-32.9l-9.5-18.4c-2.8,2-5.7,4.1-8.6,6.5
			C663.3,864.7,653.9,874.6,647,886.6L647,886.6z"/>
	</g>
	<path class="st11" d="M749.1,698.9c-7.2,6.4-14.5,11-20.3,14.1c-1.5,0.8-16.2,8.4-17.4,9l8.6,61.9l45.5,42.9l0,0l0,0l6.2-3.2l0,0
		l11.2-5.8c5.8-3,13.9-6.3,23.2-8.5l0,0c0,0,0,0,0,0L749.1,698.9z"/>
	<g>
		<path class="st1" d="M664.5,817.9C664.5,817.9,664.5,817.9,664.5,817.9l-50.8,26.1c-2.3,1.2-5.1,0.3-6.3-2c-1.2-2.3-0.3-5.1,2-6.3
			l0,0l50.8-26.1c2.3-1.2,5.1-0.3,6.3,2C667.7,813.9,666.8,816.7,664.5,817.9z"/>
	</g>
	<g>
		<path class="st1" d="M651.5,792.9c-0.4,0.2-0.9,0.4-1.4,0.5l-53,8.6c-2.6,0.4-5-1.3-5.4-3.9c-0.4-2.6,1.3-5,3.9-5.4l53-8.6
			c2.6-0.4,5,1.3,5.4,3.9C654.4,790,653.3,792,651.5,792.9z"/>
	</g>
	<g>
		<path class="st1" d="M639.7,881.2c-1.8,0.9-4,0.6-5.5-0.8c-1.8-1.8-1.9-4.8,0-6.7l37.8-38.2c1.8-1.8,4.8-1.9,6.7,0
			c1.8,1.8,1.9,4.8,0,6.7l-37.8,38.2C640.5,880.7,640.1,881,639.7,881.2L639.7,881.2z"/>
	</g>
	<g>
		<path class="st7" d="M749.5,854.3c7.4-3.8,11-7.1,14.9,0.5l4.5,8.8c1.8,3.4,0.4,7.6-3,9.4l18.4-9.5c3.4-1.8,4.8-6,3-9.4
			l-15.8-30.5l-6.2,3.2l-36.9,19l-6.2,3.2l7.9,15.3L749.5,854.3z"/>
	</g>
	<path class="st11" d="M784.4,863.5l84.2,162.7c0.5,0.9,0.1,2.1-0.8,2.5l-16.8,8.7L779.9,900c-2.8-5.5-3.4-9-8.7-6.3l-14.2,7.3
		l-9.6-18.5L784.4,863.5z"/>
	<g>
		<path class="st9" d="M611.5,839.9c-8.8-17.1-20.2-47.2-18.2-81.3c-7.7-1.9-15.5-5.2-23.1-10.3c-29.2,50.6,34,172.9,92.1,178.4
			c0.3-9.2,2.1-17.4,4.9-24.9C641.2,886.8,620.2,856.8,611.5,839.9z"/>
	</g>
	<g>
		<path class="st9" d="M636.8,917.4c8.4,5.2,17,8.5,25.4,9.3c0.3-9.2,2.1-17.4,4.9-24.9c-7.1-4.1-13.9-9.4-20.1-15.2
			c-1.1,2-2.2,4-3.2,6C640.3,900.1,637.8,908.4,636.8,917.4z"/>
	</g>
	<g>
		<path class="st7" d="M674.5,741l24.2,1.7l12.7-20.7l-7.8-15.1c-4.3-8.3-14.6-11.6-22.9-7.3L674,703c-8.3,4.3-11.6,14.6-7.3,22.9
			L674.5,741L674.5,741z"/>
	</g>
	<path class="st11" d="M674.5,741c-1.2,0.7-15.9,8.3-17.4,9c-5.9,2.9-13.9,6.2-23.3,8.4l28.6,55.3l18.9,36.7l0,0l0,0l9.5,18.4
		c0.9-0.8,1.8-1.6,2.7-2.3c4.5-3.7,9-6.8,13-9.1c1.6-1,3.2-1.8,4.6-2.6l11.2-5.8l6.2-3.2l-20.8-55.6L674.5,741z"/>
	<g>
		<path class="st9" d="M738.4,774.4l-27-52.4l-36.9,19l27,52.4l27,52.4l36.9-19L738.4,774.4z"/>
	</g>
	<g>
		<path class="st12" d="M690.1,818.6l-0.2,0.1c-2.3,1.2-5.1,0.3-6.3-2c-1.2-2.3-0.3-5.1,2-6.3l0.2-0.1c2.3-1.2,5.1-0.3,6.3,2
			C693.3,814.6,692.4,817.4,690.1,818.6z"/>
	</g>
	<g>
		<path class="st8" d="M678.6,796.4l-0.2,0.1c-2.3,1.2-5.1,0.3-6.3-2c-1.2-2.3-0.3-5.1,2-6.3l0.2-0.1c2.3-1.2,5.1-0.3,6.3,2
			C681.8,792.3,680.9,795.2,678.6,796.4z"/>
	</g>
	<g>
		<path class="st8" d="M701.8,840.8l-0.2,0.1c-2.3,1.2-5.1,0.3-6.3-2c-1.2-2.3-0.3-5.1,2-6.3l0.2-0.1c2.3-1.2,5.1-0.3,6.3,2
			C705,836.8,704.1,839.6,701.8,840.8z"/>
	</g>
	<g>
		<path class="st12" d="M667.1,774.1l-0.2,0.1c-2.3,1.2-5.1,0.3-6.3-2c-1.2-2.3-0.3-5.1,2-6.3l0.2-0.1c2.3-1.2,5.1-0.3,6.3,2
			C670.3,770,669.4,772.9,667.1,774.1z"/>
	</g>
	<g>
		<path class="st12" d="M765.8,779.5l-0.2,0.1c-2.3,1.2-5.1,0.3-6.3-2c-1.2-2.3-0.3-5.1,2-6.3l0.2-0.1c2.3-1.2,5.1-0.3,6.3,2
			C769,775.5,768.1,778.3,765.8,779.5z"/>
	</g>
	<g>
		<path class="st8" d="M754.3,757.2l-0.2,0.1c-2.3,1.2-5.1,0.3-6.3-2c-1.2-2.3-0.3-5.1,2-6.3l0.2-0.1c2.3-1.2,5.1-0.3,6.3,2
			C757.5,753.2,756.6,756.1,754.3,757.2z"/>
	</g>
	<g>
		<path class="st8" d="M777.1,801.9l-0.2,0.1c-2.3,1.2-5.1,0.3-6.3-2c-1.2-2.3-0.3-5.1,2-6.3l0.2-0.1c2.3-1.2,5.1-0.3,6.3,2
			C780.3,797.9,779.4,800.7,777.1,801.9z"/>
	</g>
	<g>
		<path class="st12" d="M742.8,735l-0.2,0.1c-2.3,1.2-5.1,0.3-6.3-2c-1.2-2.3-0.3-5.1,2-6.3l0.2-0.1c2.3-1.2,5.1-0.3,6.3,2
			C746,730.9,745.1,733.8,742.8,735z"/>
	</g>
	<g>
		<path class="st9" d="M719.9,829.1l36.9-19l8.6,16.7l-36.9,19L719.9,829.1z"/>
	</g>
	<path class="st7" d="M667.8,728.1l36.9-19l6.6,12.9l-36.9,19L667.8,728.1z"/>
	<polygon class="st12" points="665.1,764.2 660,766.8 659.7,772.6 664.5,775.7 669.6,773 669.9,767.3 	"/>
	<polygon class="st8" points="676.6,786.5 671.5,789.1 671.2,794.9 676,798 681.1,795.3 681.4,789.6 	"/>
	<polygon class="st8" points="699.6,831.1 694.5,833.7 694.2,839.4 699,842.5 704.1,839.9 704.4,834.2 	"/>
	<polygon class="st8" points="752.3,747.4 747.2,750 747,755.8 751.8,758.8 756.9,756.2 757.2,750.5 	"/>
	<polygon class="st8" points="775.3,792 770.2,794.6 770,800.3 774.8,803.4 779.9,800.8 780.2,795.1 	"/>
	<polygon class="st12" points="740.8,725.1 735.7,727.7 735.5,733.5 740.3,736.6 745.4,733.9 745.6,728.2 	"/>
	<polygon class="st12" points="763.8,769.7 758.7,772.3 758.5,778 763.3,781.1 768.4,778.5 768.7,772.8 	"/>
	<polygon class="st12" points="688.1,808.8 683,811.4 682.7,817.1 687.5,820.2 692.6,817.6 692.9,811.9 	"/>
</g>
</svg>
