<svg id="Layer_1" data-name="Layer 1" xmlns="http://www.w3.org/2000/svg" viewBox="0 0 200 100"><defs><style>.cls-1{fill:#006cfa;}.cls-2{fill:#fff;}</style></defs><title>ourstory</title><rect class="cls-1" width="200" height="100"/><path class="cls-2" d="M100,60a8.29,8.29,0,0,0,8.28-8.28c0-.71,0-2.6-3.28-10-.84-1.89-1.64-3.58-2.17-4.66l-.73-1.47c-.39-.78-.84-1.65-2.11-1.65s-1.71.88-2.11,1.65l-.73,1.47c-.53,1.08-1.33,2.77-2.17,4.66-3.28,7.38-3.28,9.27-3.28,10A8.29,8.29,0,0,0,100,60Zm-4.19-8.28c0-1.53,2-6.5,4.19-11.08,2.16,4.59,4.19,9.55,4.19,11.08a4.19,4.19,0,0,1-8.37,0Z"/><path class="cls-2" d="M111.61,50.16a2.12,2.12,0,0,0-2.11,2.11,9.5,9.5,0,0,1-19,0,2.11,2.11,0,1,0-4.23,0,13.73,13.73,0,1,0,27.45,0A2.12,2.12,0,0,0,111.61,50.16Z"/></svg>