<?xml version="1.0" encoding="utf-8"?>
<!-- Generator: Adobe Illustrator 21.0.0, SVG Export Plug-In . SVG Version: 6.00 Build 0)  -->
<svg version="1.1" id="Layer_1" xmlns="http://www.w3.org/2000/svg" xmlns:xlink="http://www.w3.org/1999/xlink" x="0px" y="0px"
	 viewBox="0 0 1440 1024" style="enable-background:new 0 0 1440 1024;" xml:space="preserve">
<style type="text/css">
	.st0{display:none;}
	.st1{display:inline;}
	.st2{fill:url(#SVGID_1_);}
	.st3{fill:#FFFFFF;}
	.st4{opacity:0.31;}
	.st5{opacity:0.2;fill:#FFFFFF;enable-background:new    ;}
	.st6{display:none;fill:#F29200;}
	.st7{display:none;fill:#FFD130;}
	.st8{display:none;fill:#FABA02;}
	.st9{display:inline;fill:#F29200;}
	.st10{display:inline;fill:#FFD130;}
	.st11{display:inline;fill:#FABA02;}
</style>
<g class="st0">
	<g class="st1">
		
			<linearGradient id="SVGID_1_" gradientUnits="userSpaceOnUse" x1="720" y1="1026" x2="720" y2="2" gradientTransform="matrix(1 0 0 -1 0 1026)">
			<stop  offset="0" style="stop-color:#00C2FF"/>
			<stop  offset="0.8646" style="stop-color:#BDFFFF;stop-opacity:0.4583"/>
			<stop  offset="1" style="stop-color:#BDFFFF;stop-opacity:0"/>
		</linearGradient>
		<rect y="0" class="st2" width="1440" height="1024"/>
	</g>
</g>
<polygon class="st3" points="425,735.8 484.4,743.8 522,787.9 591.5,776.4 644.3,824.9 575.6,791.6 526.3,795.9 473.5,752.5 "/>
<polygon class="st3" points="189.7,403.4 251.2,375.1 314.2,395.4 373.6,343.3 454.7,358.5 368.5,367.2 322.9,401.2 246.9,390.3 "/>
<polygon class="st3" points="1072.2,436.7 1096.1,422.9 1122.9,428 1144.6,404.1 1177.9,406.3 1143.2,414.2 1126.5,429.4 
	1094.6,428.7 "/>
<g class="st4">
	<path class="st3" d="M1186.6,885.7c0,0-419.2-18.8-556-36.9l78.9-1.4c0,0,44.2-104.2,112.9-101.4c68.8,2.9,95.6,64.4,95.6,64.4
		s45.6-14.5,60.8,39.1c0,0,30.4-31.9,54.3,16.7L1186.6,885.7z"/>
	<path class="st3" d="M631.3,848.8c0,0,131-2.2,254.8,5.8s300.4,31.1,300.4,31.1S786.2,869,631.3,848.8z"/>
	<path class="st5" d="M936.1,849.5c0,0-23.2-97-105-102.8s-120.9,99.9-120.9,99.9S877.5,859.6,936.1,849.5z"/>
	<path class="st5" d="M923.8,811.1c0,0,47.1-13.8,57.9,49.2c-10.1-0.7-19.5-2.9-29-5.8C945.5,850.2,923.8,811.1,923.8,811.1z"/>
	<path class="st5" d="M981,847.3c0,0,15.2-11.6,29.7-5.8c9.4,4.3,17.4,13,21,22.4c-8.7,0-18.1-0.7-26.8-2.2
		C995.5,860.3,987.5,854.5,981,847.3z"/>
	<path class="st5" d="M721.1,824.9c0,0,29.7,10.9,116.6,21.7c86.9,10.9,94.1-9.4,94.1-9.4l-13-27.5h1.4c0,0,19.5,34.7,34,41.3
		c14.5,6.5,78.9,14.5,78.9,14.5L994,864c0,0-186.1-16.7-283.8-16.7L721.1,824.9z"/>
</g>
<g class="st4">
	<path class="st3" d="M831.9,808.9l-244-8.7l48.5-5.8c0,0,34-47.1,62.3-27.5c0,0,5.8-31.1,37.6-34s42,69.5,42,69.5s3.6-8.7,13.8,0
		L831.9,808.9z"/>
	<path class="st3" d="M831.9,808.9c0,0-135.4-21-242.5-8.7L831.9,808.9z"/>
	<path class="st5" d="M726.9,790.8c0,0-18.1-29-45.6-26.8c-27.5,2.2-44.9,31.1-44.9,31.1S701.5,790.1,726.9,790.8z"/>
	<path class="st5" d="M700.8,764.1c0,0,13.8-33.3,39.8-29c26.1,4.3,35.5,55,36.2,64.4c0,0-27.5-2.2-35.5-6.5
		C733.4,788.7,713.1,766.9,700.8,764.1z"/>
</g>
<g class="st4">
	<path class="st3" d="M1301,320.1c0,0-419.2-18.8-556-36.9l78.9-1.4c0,0,44.2-104.2,112.9-101.4c68.8,2.9,95.6,64.4,95.6,64.4
		s45.6-14.5,60.8,39.1c0,0,30.4-31.9,54.3,16.7L1301,320.1z"/>
	<path class="st3" d="M745.7,283.2c0,0,131-2.2,254.8,5.8s300.4,31.1,300.4,31.1S900.6,303.5,745.7,283.2z"/>
	<path class="st5" d="M1050.5,283.9c0,0-23.2-97-105-102.8c-81.8-5.8-120.9,99.9-120.9,99.9S991.8,294.1,1050.5,283.9z"/>
	<path class="st5" d="M1038.2,245.6c0,0,47.1-13.8,57.9,49.2c-10.1-0.7-19.5-2.9-29-5.8C1059.9,284.7,1038.2,245.6,1038.2,245.6z"/>
	<path class="st5" d="M1095.4,281.8c0,0,15.2-11.6,29.7-5.8c9.4,4.3,17.4,13,21,22.4c-8.7,0-18.1-0.7-26.8-2.2
		C1109.8,294.8,1101.9,289,1095.4,281.8z"/>
	<path class="st5" d="M835.5,259.3c0,0,29.7,10.9,116.6,21.7s94.1-9.4,94.1-9.4l-13-27.5h1.4c0,0,19.5,34.7,34,41.3
		c14.5,6.5,78.9,15.2,78.9,15.2l-39.1-1.4c0,0-186.1-16.7-283.8-16.7L835.5,259.3z"/>
</g>
<g class="st4">
	<path class="st3" d="M946.2,243.4l-244-8.7l48.5-5.8c0,0,34-47.1,62.3-27.5c0,0,5.8-31.1,37.6-34c31.9-2.9,42,69.5,42,69.5
		s3.6-8.7,13.8,0L946.2,243.4z"/>
	<path class="st3" d="M946.2,243.4c0,0-135.4-21-242.5-8.7L946.2,243.4z"/>
	<path class="st5" d="M841.3,225.3c0,0-18.1-29-45.6-26.8c-27.5,2.2-44.9,31.1-44.9,31.1S815.9,224.6,841.3,225.3z"/>
	<path class="st5" d="M815.2,198.5c0,0,13.8-33.3,39.8-29s35.5,55,36.2,64.4c0,0-27.5-2.2-35.5-6.5S827.5,201.4,815.2,198.5z"/>
</g>
<g class="st4">
	<path class="st3" d="M288.2,563.5l178.8,3.6l-34.7-5.8c0,0-23.2-36.2-44.9-23.2c-2.2-13.8-12.3-24.6-26.1-26.1
		c-23.2-2.9-34,49.2-34,49.2s-2.2-6.5-10.1-0.7L288.2,563.5z"/>
	<path class="st3" d="M288.2,563.5c0,0,99.9-10.1,178.1,3.6L288.2,563.5z"/>
	<path class="st5" d="M365.6,554.8c0,0,14.5-20.3,34.7-17.4c20.3,2.9,31.9,24.6,31.9,24.6S384.4,554.8,365.6,554.8z"/>
	<path class="st5" d="M385.9,536c0,0-8.7-24.6-27.5-22.4c-18.8,2.2-28.2,39.1-29,45.6c8.7,0,18.1-1.4,26.8-3.6
		C361.3,553.4,377.2,537.5,385.9,536z"/>
</g>
<path class="st6" d="M1203.9,842.2c-6.6,36.5-33.1,63.4-62.8,67.2l-0.5,2.6l-16.9-3.1l-0.4-0.1c-36.1-6.9-58.9-47.4-50.9-90.7
	c8-43.3,43.5-73.1,79.7-66.8l0.5,0.1l16.9,3.1l-0.5,2.6C1195.5,771.2,1210.6,805.7,1203.9,842.2z"/>
<path class="st6" d="M1149.2,750.8L1149.2,750.8z"/>
<path class="st6" d="M1120.4,908.3L1120.4,908.3z"/>
<ellipse transform="matrix(0.1798 -0.9837 0.9837 0.1798 126.6116 1817.8109)" class="st7" cx="1153.4" cy="833" rx="80" ry="70.3"/>
<ellipse transform="matrix(0.1798 -0.9837 0.9837 0.1798 127.1903 1818.8318)" class="st8" cx="1154.3" cy="833.1" rx="67.4" ry="59.2"/>
<path class="st6" d="M1212.6,843.8c-6.6,36.6-38.2,61.5-70.4,55.6c-1.4-0.2-2.7-0.6-4.1-0.9c30.7,3.2,59.9-21.2,66.3-56.2
	c6.4-35-12.2-68.1-42.1-76.1c1.4,0.1,2.8,0.3,4.1,0.6C1198.6,772.7,1219.3,807.2,1212.6,843.8z"/>
<path class="st6" d="M1156,854.3c-0.4,1.7-0.2,3.4,0.7,4.9c0.8,1.3,1.8,2.5,3,3.4c1.1,0.8,2.2,1.6,3.5,2.1c1.2,0.5,1.9,0.8,2.3,0.9
	c0.3,0.1,0.5,0.3,0.7,0.6c0.1,0.2,0.2,0.4,0.1,0.7c-0.1,0.2-0.3,0.4-0.5,0.5c-0.3,0.1-0.6,0.2-0.9,0.1l-40.3-7.3
	c-0.3,0-0.6-0.2-0.8-0.4c-0.2-0.2-0.3-0.4-0.3-0.6c0-0.2,0.1-0.4,0.3-0.6c0.3-0.2,0.6-0.3,0.9-0.3c0.4,0.1,1.2,0,2.5-0.1
	c1.4-0.1,2.7-0.4,4-0.9c1.4-0.5,2.8-1.2,4-2.1c1.3-1.1,2.2-2.6,2.4-4.3l5-27.9c0.3-1.3-0.4-2.6-1.6-3.1c-0.1,0-0.7-0.2-1.6-0.6
	l-2.8-1.1l-2.9-1.1c-0.9-0.3-1.4-0.5-1.6-0.6c-0.6-0.2-0.8-0.5-0.8-0.9c0.1-0.4,0.5-0.7,1.2-0.9c2.8-0.8,5.6-1.7,8.3-2.7
	s5.5-2.1,8.2-3.3c2.7-1.2,5.3-2.4,7.8-3.7c2.5-1.3,4.8-2.6,7-3.9c0.4-0.3,0.9-0.3,1.3-0.2c0.4,0.2,0.6,0.6,0.5,1.2L1156,854.3z"/>
<path class="st8" d="M1162.2,852c-0.4,1.6-0.2,3.3,0.6,4.7c0.7,1.3,1.6,2.4,2.7,3.3c1,0.8,2,1.5,3.2,2c1,0.5,1.7,0.8,2.1,0.9
	c0.3,0.1,0.5,0.3,0.6,0.5c0.1,0.2,0.1,0.4,0.1,0.6c-0.1,0.2-0.3,0.4-0.5,0.5c-0.3,0.1-0.6,0.2-0.8,0.1l-36.8-6.7
	c-0.3,0-0.6-0.2-0.7-0.4c-0.1-0.2-0.2-0.4-0.2-0.6c0-0.2,0.1-0.4,0.3-0.6c0.2-0.2,0.5-0.3,0.8-0.3c0.3,0.1,1.1,0,2.2-0.1
	c1.3-0.1,2.5-0.3,3.7-0.8c1.4-0.5,2.6-1.2,3.7-2.1c1.2-1.1,2-2.6,2.2-4.2l4.9-27.1c0.3-1.2-0.3-2.5-1.5-3c-0.1,0-0.6-0.2-1.4-0.5
	l-2.6-1l-2.6-1c-0.8-0.3-1.3-0.5-1.4-0.6c-0.5-0.2-0.8-0.5-0.7-0.9s0.4-0.7,1.1-0.9c2.5-0.8,5.1-1.7,7.7-2.7s5.1-2.1,7.5-3.3
	c2.4-1.2,4.8-2.4,7.1-3.7c2.3-1.3,4.5-2.5,6.5-3.8c0.3-0.3,0.8-0.3,1.2-0.2c0.4,0.2,0.6,0.5,0.4,1.1L1162.2,852z"/>
<path class="st6" d="M93.8,624.4c8.6,25,1.4,51-15.8,63.7l0.6,1.8l-11.6,4l-0.3,0.1c-24.9,8.2-53.1-9.1-63.2-38.8
	s1.7-60.7,26.4-69.3l0.3-0.1l11.6-4l0.6,1.8C63.9,583.1,85.3,599.3,93.8,624.4z"/>
<path class="st6" d="M28,586.5L28,586.5z"/>
<path class="st6" d="M64.7,694.6L64.7,694.6z"/>
<ellipse transform="matrix(0.9467 -0.322 0.322 0.9467 -201.7237 52.9452)" class="st7" cx="59.2" cy="636.2" rx="50.1" ry="57.1"/>
<ellipse transform="matrix(0.9467 -0.322 0.322 0.9467 -201.6227 53.133)" class="st8" cx="59.8" cy="636" rx="42.2" ry="48.1"/>
<path class="st6" d="M99.8,622.4c8.6,25.1-2.4,51.6-24.5,59.1c-0.9,0.3-1.9,0.6-2.9,0.8c20.2-8.7,29.9-34,21.7-58
	c-8.2-24.1-31.3-38.2-52.6-32.8c0.9-0.4,1.8-0.7,2.8-1.1C66.4,583,91.2,597.3,99.8,622.4z"/>
<path class="st6" d="M68.2,648.6c0.3,1.2,1.1,2.2,2.1,2.8c0.9,0.6,2,0.9,3,1.1c1,0.2,1.9,0.2,2.9,0.1c0.9-0.1,1.5-0.2,1.7-0.2
	c0.2,0,0.4,0,0.6,0.1c0.1,0.1,0.2,0.2,0.3,0.4c0,0.2,0,0.3-0.1,0.5c-0.1,0.2-0.3,0.3-0.5,0.4l-27.7,9.5c-0.2,0.1-0.4,0.1-0.7,0
	c-0.2-0.1-0.3-0.2-0.4-0.3c-0.1-0.1-0.1-0.3,0-0.5c0.1-0.2,0.3-0.4,0.5-0.5c0.3-0.1,0.7-0.4,1.5-0.9c0.8-0.6,1.5-1.2,2.2-2
	c0.7-0.8,1.3-1.7,1.7-2.7c0.4-1.1,0.5-2.4,0-3.5l-6.5-19.1c-0.3-0.9-1.2-1.5-2.1-1.4c-0.1,0-0.5,0.1-1.2,0.2l-2.1,0.3l-2.2,0.3
	c-0.7,0.1-1.1,0.2-1.2,0.2c-0.4,0.1-0.7-0.1-0.8-0.3c-0.1-0.3,0.1-0.6,0.4-1c1.5-1.5,2.9-3,4.2-4.6c1.4-1.6,2.7-3.2,4-4.9
	c1.3-1.7,2.4-3.3,3.5-5c1.1-1.7,2.1-3.3,3-4.9c0.1-0.3,0.4-0.5,0.8-0.6c0.3,0,0.6,0.1,0.7,0.6L68.2,648.6z"/>
<path class="st8" d="M71.3,645c0.3,1.1,1,2.1,2,2.8c0.9,0.5,1.8,0.9,2.8,1.1c0.9,0.2,1.8,0.2,2.7,0.2c0.8-0.1,1.3-0.1,1.6-0.2
	c0.2,0,0.4,0,0.6,0.1c0.1,0.1,0.2,0.2,0.2,0.4c0,0.2,0,0.3-0.1,0.5c-0.1,0.2-0.3,0.3-0.5,0.4l-25.2,8.6c-0.2,0.1-0.4,0.1-0.6,0
	c-0.2-0.1-0.3-0.2-0.4-0.3c-0.1-0.1-0.1-0.3,0-0.4c0.1-0.2,0.2-0.4,0.4-0.5c0.2-0.1,0.7-0.4,1.4-0.8c0.7-0.5,1.4-1.1,2-1.8
	c0.7-0.8,1.2-1.6,1.6-2.6c0.4-1.1,0.3-2.3-0.1-3.4l-6.3-18.6c-0.2-0.9-1.1-1.4-2-1.4c-0.1,0-0.4,0.1-1,0.1l-2,0.3l-2,0.3
	c-0.6,0.1-1,0.1-1.1,0.1c-0.4,0-0.6-0.1-0.7-0.3s0-0.6,0.4-0.9c1.3-1.4,2.6-2.8,3.8-4.4c1.2-1.5,2.4-3.1,3.5-4.7
	c1.1-1.6,2.2-3.2,3.2-4.8s1.9-3.1,2.7-4.6c0.1-0.3,0.4-0.5,0.7-0.5c0.3,0,0.5,0.1,0.7,0.5L71.3,645z"/>
<g class="st0">
	<path class="st9" d="M1401,479.2c-4,14.8-15.9,24.9-28.2,25.4l-0.3,1.1l-6.8-1.9l-0.2,0c-14.6-4.1-22.5-21.6-17.7-39.1
		c4.8-17.5,20.5-28.5,35.1-24.6l0.2,0.1l6.8,1.9l-0.3,1.1C1400.1,449.8,1405.1,464.5,1401,479.2z"/>
	<path class="st9" d="M1381.8,439.7L1381.8,439.7z"/>
	<path class="st9" d="M1364.3,503.4L1364.3,503.4z"/>
	
		<ellipse transform="matrix(0.2644 -0.9644 0.9644 0.2644 558.7572 1679.8735)" class="st10" cx="1380.6" cy="473.6" rx="33" ry="29"/>
	
		<ellipse transform="matrix(0.2644 -0.9644 0.9644 0.2644 558.9296 1680.2982)" class="st11" cx="1381" cy="473.7" rx="27.8" ry="24.4"/>
	<path class="st9" d="M1404.5,480.2c-4,14.8-17.9,23.9-30.9,20.4c-0.6-0.2-1.1-0.3-1.6-0.5c12.5,2.4,25.4-6.6,29.2-20.7
		c3.9-14.2-2.6-28.4-14.6-32.8c0.6,0.1,1.1,0.2,1.7,0.4C1401.3,450.5,1408.6,465.4,1404.5,480.2z"/>
	<path class="st9" d="M1380.9,482.5c-0.2,0.7-0.2,1.4,0.1,2c0.3,0.6,0.6,1.1,1.1,1.5c0.4,0.4,0.9,0.7,1.4,1c0.5,0.2,0.8,0.4,0.9,0.5
		c0.1,0.1,0.2,0.1,0.3,0.3c0,0.1,0,0.2,0,0.3c0,0.1-0.1,0.2-0.2,0.2c-0.1,0-0.3,0.1-0.4,0l-16.3-4.4c-0.1,0-0.2-0.1-0.3-0.2
		c-0.1-0.1-0.1-0.2-0.1-0.3c0-0.1,0.1-0.2,0.1-0.2c0.1-0.1,0.2-0.1,0.4-0.1c0.1,0,0.5,0,1,0.1c0.6,0,1.1-0.1,1.7-0.2
		c0.6-0.1,1.2-0.4,1.7-0.7c0.6-0.4,1-1,1.2-1.7l3.1-11.3c0.2-0.5-0.1-1.1-0.6-1.3c-0.1,0-0.3-0.1-0.6-0.3l-1.1-0.5l-1.1-0.5
		c-0.4-0.2-0.6-0.3-0.6-0.3c-0.2-0.1-0.3-0.3-0.3-0.4s0.2-0.3,0.5-0.3c1.2-0.2,2.3-0.5,3.5-0.8s2.3-0.7,3.5-1.1
		c1.1-0.4,2.3-0.8,3.3-1.3c1.1-0.4,2.1-0.9,3-1.3c0.2-0.1,0.4-0.1,0.5,0c0.2,0.1,0.2,0.3,0.2,0.5L1380.9,482.5z"/>
	<path class="st11" d="M1383.5,481.8c-0.2,0.6-0.2,1.3,0.1,2c0.2,0.5,0.6,1,1,1.4c0.4,0.4,0.8,0.7,1.2,0.9c0.4,0.2,0.7,0.4,0.8,0.4
		c0.1,0.1,0.2,0.1,0.2,0.2c0,0.1,0,0.2,0,0.3c0,0.1-0.1,0.2-0.2,0.2c-0.1,0-0.2,0.1-0.3,0l-14.9-4.1c-0.1,0-0.2-0.1-0.3-0.2
		c-0.1-0.1-0.1-0.2-0.1-0.3c0-0.1,0.1-0.2,0.1-0.2c0.1-0.1,0.2-0.1,0.3-0.1c0.1,0,0.4,0,0.9,0c0.5,0,1-0.1,1.5-0.2
		c0.6-0.1,1.1-0.4,1.6-0.7c0.5-0.4,0.9-1,1.1-1.7l3-10.9c0.2-0.5,0-1-0.5-1.3c0,0-0.2-0.1-0.5-0.3l-1-0.5l-1-0.5
		c-0.3-0.2-0.5-0.2-0.6-0.3c-0.2-0.1-0.3-0.2-0.3-0.4s0.2-0.3,0.5-0.3c1.1-0.2,2.2-0.5,3.2-0.9c1.1-0.3,2.2-0.7,3.2-1.1
		c1-0.4,2.1-0.8,3.1-1.3c1-0.4,1.9-0.9,2.8-1.3c0.2-0.1,0.3-0.1,0.5,0c0.2,0.1,0.2,0.2,0.1,0.5L1383.5,481.8z"/>
</g>
<g class="st0">
	<path class="st9" d="M1066.9,130.4c-0.2,8.7-5.3,16-12.1,18l0,0.6l-4-0.1l-0.1,0c-8.6-0.3-15.4-8.8-15.2-19.1
		c0.2-10.4,7.4-18.6,16-18.5l0.1,0l4,0.1l0,0.6C1062.2,114.3,1067,121.7,1066.9,130.4z"/>
	<path class="st9" d="M1050.7,111.3L1050.7,111.3z"/>
	<path class="st9" d="M1049.9,148.9L1049.9,148.9z"/>
	
		<ellipse transform="matrix(2.045006e-02 -0.9998 0.9998 2.045006e-02 903.068 1182.0693)" class="st10" cx="1054.8" cy="130.2" rx="18.8" ry="16.5"/>
	
		<ellipse transform="matrix(2.045006e-02 -0.9998 0.9998 2.045006e-02 903.2749 1182.2887)" class="st11" cx="1055" cy="130.2" rx="15.8" ry="13.9"/>
	<path class="st9" d="M1068.9,130.5c-0.2,8.8-6.6,15.7-14.2,15.6c-0.3,0-0.7,0-1-0.1c7.2-0.4,13.1-7.2,13.3-15.5
		s-5.4-15.4-12.6-16.1c0.3,0,0.7,0,1,0C1063,114.5,1069.1,121.7,1068.9,130.5z"/>
	<path class="st9" d="M1056.2,135c0,0.4,0.1,0.8,0.3,1.1c0.2,0.3,0.5,0.5,0.8,0.7c0.3,0.2,0.6,0.3,0.9,0.4c0.3,0.1,0.5,0.1,0.6,0.1
		c0.1,0,0.1,0,0.2,0.1c0,0,0.1,0.1,0,0.2c0,0.1,0,0.1-0.1,0.1c-0.1,0-0.1,0.1-0.2,0.1l-9.6-0.2c-0.1,0-0.1,0-0.2-0.1
		c0,0-0.1-0.1-0.1-0.1c0-0.1,0-0.1,0-0.1c0.1-0.1,0.1-0.1,0.2-0.1c0.1,0,0.3,0,0.6-0.1c0.3-0.1,0.6-0.2,0.9-0.4
		c0.3-0.2,0.6-0.4,0.8-0.6c0.3-0.3,0.4-0.7,0.4-1.1l0.1-6.7c0-0.3-0.2-0.6-0.5-0.7c0,0-0.2,0-0.4-0.1l-0.7-0.1l-0.7-0.1
		c-0.2,0-0.3-0.1-0.4-0.1c-0.1,0-0.2-0.1-0.2-0.2c0-0.1,0.1-0.2,0.2-0.3c0.6-0.3,1.2-0.6,1.8-0.9c0.6-0.3,1.2-0.7,1.8-1.1
		c0.6-0.4,1.1-0.8,1.7-1.2s1-0.8,1.5-1.2c0.1-0.1,0.2-0.1,0.3-0.1c0.1,0,0.2,0.1,0.2,0.3L1056.2,135z"/>
	<path class="st11" d="M1057.5,134.3c0,0.4,0.1,0.8,0.3,1.1c0.2,0.3,0.5,0.5,0.8,0.7c0.3,0.2,0.5,0.3,0.8,0.3
		c0.3,0.1,0.4,0.1,0.5,0.1c0.1,0,0.1,0.1,0.2,0.1c0,0,0,0.1,0,0.1c0,0.1,0,0.1-0.1,0.1c-0.1,0-0.1,0.1-0.2,0.1l-8.8-0.2
		c-0.1,0-0.1,0-0.2-0.1c0,0-0.1-0.1-0.1-0.1c0-0.1,0-0.1,0-0.1c0-0.1,0.1-0.1,0.2-0.1c0.1,0,0.3,0,0.5-0.1c0.3-0.1,0.6-0.2,0.8-0.3
		c0.3-0.2,0.6-0.4,0.8-0.6c0.2-0.3,0.4-0.7,0.4-1.1l0.1-6.5c0-0.3-0.2-0.6-0.5-0.6c0,0-0.1,0-0.3-0.1l-0.6-0.1l-0.6-0.1
		c-0.2,0-0.3-0.1-0.3-0.1c-0.1,0-0.2-0.1-0.2-0.2s0.1-0.2,0.2-0.2c0.6-0.3,1.1-0.6,1.7-0.9c0.6-0.3,1.1-0.7,1.6-1.1
		c0.5-0.4,1-0.7,1.5-1.1c0.5-0.4,0.9-0.8,1.4-1.1c0.1-0.1,0.2-0.1,0.3-0.1c0.1,0,0.1,0.1,0.1,0.2L1057.5,134.3z"/>
</g>
<g class="st0">
	<path class="st9" d="M417.2,238.9c1.4,8.6-2.4,16.6-8.7,19.8l0.1,0.6l-4,0.6l-0.1,0c-8.5,1.3-16.8-5.9-18.4-16.1
		c-1.6-10.2,3.9-19.6,12.4-21.1l0.1,0l4-0.6l0.1,0.6C409.7,223.8,415.8,230.3,417.2,238.9z"/>
	<path class="st9" d="M397.8,223L397.8,223z"/>
	<path class="st9" d="M403.8,260.1L403.8,260.1z"/>
	
		<ellipse transform="matrix(0.9874 -0.1585 0.1585 0.9874 -33.0497 67.2767)" class="st10" cx="405.2" cy="240.8" rx="16.5" ry="18.8"/>
	
		<ellipse transform="matrix(0.9874 -0.1585 0.1585 0.9874 -33.0416 67.31)" class="st11" cx="405.4" cy="240.8" rx="13.9" ry="15.8"/>
	<path class="st9" d="M419.2,238.6c1.4,8.6-3.6,16.6-11.2,17.9c-0.3,0.1-0.6,0.1-1,0.1c7.1-1.7,11.6-9.4,10.3-17.7
		c-1.3-8.3-8.1-14.1-15.3-13.6c0.3-0.1,0.6-0.1,1-0.2C410.5,223.9,417.8,229.9,419.2,238.6z"/>
	<path class="st9" d="M407.5,245.4c0,0.4,0.2,0.8,0.5,1c0.3,0.2,0.6,0.4,0.9,0.5c0.3,0.1,0.6,0.2,0.9,0.2c0.3,0,0.5,0,0.6,0
		c0.1,0,0.1,0,0.2,0.1c0,0,0.1,0.1,0.1,0.1c0,0.1,0,0.1-0.1,0.2c-0.1,0.1-0.1,0.1-0.2,0.1l-9.5,1.5c-0.1,0-0.1,0-0.2,0
		c-0.1,0-0.1-0.1-0.1-0.1c0-0.1,0-0.1,0-0.2c0-0.1,0.1-0.1,0.2-0.1c0.1,0,0.3-0.1,0.5-0.2c0.3-0.1,0.6-0.3,0.8-0.5
		c0.3-0.2,0.5-0.5,0.7-0.8c0.2-0.3,0.3-0.8,0.2-1.1l-1.1-6.6c0-0.3-0.3-0.6-0.6-0.6c0,0-0.2,0-0.4,0l-0.7,0l-0.7,0
		c-0.2,0-0.4,0-0.4,0c-0.1,0-0.2-0.1-0.2-0.1c0-0.1,0-0.2,0.2-0.3c0.6-0.4,1.1-0.8,1.6-1.3c0.5-0.4,1.1-0.9,1.6-1.4
		c0.5-0.5,1-1,1.4-1.4c0.5-0.5,0.9-1,1.3-1.4c0.1-0.1,0.2-0.1,0.3-0.1c0.1,0,0.2,0.1,0.2,0.2L407.5,245.4z"/>
	<path class="st11" d="M408.7,244.4c0,0.4,0.2,0.7,0.5,1c0.3,0.2,0.5,0.4,0.9,0.5c0.3,0.1,0.6,0.2,0.9,0.2c0.3,0,0.4,0,0.5,0
		c0.1,0,0.1,0,0.2,0.1c0,0,0.1,0.1,0.1,0.1c0,0.1,0,0.1-0.1,0.1c0,0.1-0.1,0.1-0.2,0.1l-8.7,1.4c-0.1,0-0.1,0-0.2,0
		c0,0-0.1-0.1-0.1-0.1c0,0,0-0.1,0-0.1c0-0.1,0.1-0.1,0.2-0.1c0.1,0,0.2-0.1,0.5-0.2c0.3-0.1,0.5-0.3,0.8-0.5
		c0.3-0.2,0.5-0.5,0.7-0.8c0.2-0.3,0.2-0.7,0.2-1.1l-1-6.4c0-0.3-0.3-0.5-0.6-0.6c0,0-0.1,0-0.3,0l-0.7,0l-0.7,0c-0.2,0-0.3,0-0.4,0
		c-0.1,0-0.2-0.1-0.2-0.1c0-0.1,0-0.2,0.2-0.3c0.5-0.4,1-0.8,1.5-1.2c0.5-0.4,1-0.9,1.4-1.3c0.4-0.5,0.9-0.9,1.3-1.4
		c0.4-0.5,0.8-0.9,1.1-1.4c0.1-0.1,0.2-0.1,0.3-0.1c0.1,0,0.2,0.1,0.2,0.2L408.7,244.4z"/>
</g>
<g class="st0">
	<path class="st9" d="M733.3,454.5c1.4,8.6-2.4,16.6-8.7,19.8l0.1,0.6l-4,0.6l-0.1,0c-8.5,1.3-16.8-5.9-18.4-16.1
		c-1.6-10.2,3.9-19.6,12.4-21.1l0.1,0l4-0.6l0.1,0.6C725.9,439.4,731.9,445.9,733.3,454.5z"/>
	<path class="st9" d="M714,438.5L714,438.5z"/>
	<path class="st9" d="M720,475.7L720,475.7z"/>
	
		<ellipse transform="matrix(0.9874 -0.1585 0.1585 0.9874 -63.2209 120.1161)" class="st10" cx="721.4" cy="456.4" rx="16.5" ry="18.8"/>
	
		<ellipse transform="matrix(0.9874 -0.1585 0.1585 0.9874 -63.2127 120.1494)" class="st11" cx="721.6" cy="456.4" rx="13.9" ry="15.8"/>
	<path class="st9" d="M735.4,454.1c1.4,8.6-3.6,16.6-11.2,17.9c-0.3,0.1-0.6,0.1-1,0.1c7.1-1.7,11.6-9.4,10.3-17.7
		c-1.3-8.3-8.1-14.1-15.3-13.6c0.3-0.1,0.6-0.1,1-0.2C726.7,439.5,734,445.5,735.4,454.1z"/>
	<path class="st9" d="M723.6,460.9c0,0.4,0.2,0.8,0.5,1c0.3,0.2,0.6,0.4,0.9,0.5c0.3,0.1,0.6,0.2,0.9,0.2c0.3,0,0.5,0,0.6,0
		c0.1,0,0.1,0,0.2,0.1c0,0,0.1,0.1,0.1,0.1c0,0.1,0,0.1-0.1,0.2c-0.1,0.1-0.1,0.1-0.2,0.1l-9.5,1.5c-0.1,0-0.1,0-0.2,0
		c-0.1,0-0.1-0.1-0.1-0.1c0-0.1,0-0.1,0-0.2c0-0.1,0.1-0.1,0.2-0.1c0.1,0,0.3-0.1,0.5-0.2c0.3-0.1,0.6-0.3,0.8-0.5
		c0.3-0.2,0.5-0.5,0.7-0.8c0.2-0.3,0.3-0.8,0.2-1.1l-1.1-6.6c0-0.3-0.3-0.6-0.6-0.6c0,0-0.2,0-0.4,0l-0.7,0l-0.7,0
		c-0.2,0-0.4,0-0.4,0c-0.1,0-0.2-0.1-0.2-0.1c0-0.1,0-0.2,0.2-0.3c0.6-0.4,1.1-0.8,1.6-1.3s1.1-0.9,1.6-1.4c0.5-0.5,1-1,1.4-1.4
		c0.5-0.5,0.9-1,1.3-1.4c0.1-0.1,0.2-0.1,0.3-0.1c0.1,0,0.2,0.1,0.2,0.2L723.6,460.9z"/>
	<path class="st11" d="M724.8,459.9c0,0.4,0.2,0.7,0.5,1c0.3,0.2,0.5,0.4,0.9,0.5c0.3,0.1,0.6,0.2,0.9,0.2c0.3,0,0.4,0,0.5,0
		c0.1,0,0.1,0,0.2,0.1c0,0,0.1,0.1,0.1,0.1c0,0.1,0,0.1-0.1,0.1c0,0.1-0.1,0.1-0.2,0.1l-8.7,1.4c-0.1,0-0.1,0-0.2,0
		c0,0-0.1-0.1-0.1-0.1c0,0,0-0.1,0-0.1c0-0.1,0.1-0.1,0.2-0.1c0.1,0,0.2-0.1,0.5-0.2c0.3-0.1,0.5-0.3,0.8-0.5
		c0.3-0.2,0.5-0.5,0.7-0.8c0.2-0.3,0.2-0.7,0.2-1.1l-1-6.4c0-0.3-0.3-0.5-0.6-0.6c0,0-0.1,0-0.3,0l-0.7,0l-0.7,0c-0.2,0-0.3,0-0.4,0
		c-0.1,0-0.2-0.1-0.2-0.1c0-0.1,0-0.2,0.2-0.3c0.5-0.4,1-0.8,1.5-1.2s1-0.9,1.4-1.3c0.4-0.5,0.9-0.9,1.3-1.4
		c0.4-0.5,0.8-0.9,1.1-1.4c0.1-0.1,0.2-0.1,0.3-0.1c0.1,0,0.2,0.1,0.2,0.2L724.8,459.9z"/>
</g>
<g class="st0">
	<path class="st9" d="M769.4,811.6c-3.2,8.1-10.5,13.2-17.5,12.7l-0.2,0.6l-3.8-1.5l-0.1,0c-8-3.2-11.5-13.6-7.7-23.2
		c3.8-9.6,13.3-14.9,21.4-11.9l0.1,0l3.8,1.5l-0.2,0.6C770.6,794.8,772.6,803.5,769.4,811.6z"/>
	<path class="st9" d="M760.8,788.1L760.8,788.1z"/>
	<path class="st9" d="M747.1,823.1L747.1,823.1z"/>
	
		<ellipse transform="matrix(0.3634 -0.9316 0.9316 0.3634 -269.4226 1220.1566)" class="st10" cx="758.1" cy="807.2" rx="18.8" ry="16.5"/>
	
		<ellipse transform="matrix(0.3634 -0.9316 0.9316 0.3634 -269.3675 1220.3933)" class="st11" cx="758.3" cy="807.3" rx="15.8" ry="13.9"/>
	<path class="st9" d="M771.3,812.4c-3.2,8.2-11.6,12.5-18.7,9.7c-0.3-0.1-0.6-0.2-0.9-0.4c6.9,2.1,14.8-2.2,17.8-10
		c3-7.8,0.2-16.3-6.3-19.4c0.3,0.1,0.6,0.2,0.9,0.3C771.3,795.3,774.5,804.2,771.3,812.4z"/>
	<path class="st9" d="M757.8,812.3c-0.2,0.4-0.2,0.8-0.1,1.2c0.1,0.3,0.3,0.6,0.5,0.9c0.2,0.2,0.4,0.5,0.7,0.6
		c0.2,0.2,0.4,0.3,0.5,0.3c0.1,0,0.1,0.1,0.1,0.2c0,0.1,0,0.1,0,0.2c0,0-0.1,0.1-0.1,0.1c-0.1,0-0.1,0-0.2,0l-9-3.5
		c-0.1,0-0.1-0.1-0.2-0.1c0,0,0-0.1,0-0.2c0-0.1,0-0.1,0.1-0.1c0.1,0,0.1,0,0.2,0c0.1,0,0.3,0.1,0.6,0.1c0.3,0,0.7,0,1,0
		c0.4,0,0.7-0.1,1-0.3c0.4-0.2,0.6-0.5,0.8-0.9l2.4-6.2c0.1-0.3,0-0.6-0.2-0.8c0,0-0.1-0.1-0.3-0.2l-0.6-0.4l-0.6-0.4
		c-0.2-0.1-0.3-0.2-0.3-0.2c-0.1-0.1-0.2-0.2-0.1-0.2c0-0.1,0.1-0.1,0.3-0.2c0.7-0.1,1.4-0.1,2-0.3c0.7-0.1,1.4-0.2,2-0.4
		c0.7-0.2,1.3-0.3,2-0.5c0.6-0.2,1.2-0.4,1.8-0.6c0.1,0,0.2,0,0.3,0c0.1,0.1,0.1,0.2,0.1,0.3L757.8,812.3z"/>
	<path class="st11" d="M759.3,812c-0.2,0.4-0.2,0.7-0.1,1.1c0.1,0.3,0.3,0.6,0.5,0.9c0.2,0.2,0.4,0.4,0.6,0.6
		c0.2,0.2,0.4,0.3,0.4,0.3c0.1,0,0.1,0.1,0.1,0.2c0,0,0,0.1,0,0.1c0,0-0.1,0.1-0.1,0.1c-0.1,0-0.1,0-0.2,0l-8.2-3.2
		c-0.1,0-0.1-0.1-0.2-0.1c0,0,0-0.1,0-0.2c0-0.1,0-0.1,0.1-0.1c0.1,0,0.1,0,0.2,0c0.1,0,0.2,0,0.5,0.1c0.3,0,0.6,0,0.9,0
		c0.3,0,0.7-0.2,0.9-0.3c0.3-0.2,0.6-0.5,0.7-0.9l2.3-6c0.1-0.3,0-0.6-0.2-0.8c0,0-0.1-0.1-0.3-0.2l-0.6-0.3l-0.6-0.3
		c-0.2-0.1-0.3-0.2-0.3-0.2c-0.1-0.1-0.2-0.2-0.1-0.2c0-0.1,0.1-0.1,0.3-0.2c0.6-0.1,1.3-0.2,1.9-0.3c0.6-0.1,1.3-0.3,1.9-0.4
		c0.6-0.2,1.2-0.3,1.8-0.5c0.6-0.2,1.2-0.4,1.7-0.6c0.1,0,0.2,0,0.3,0c0.1,0.1,0.1,0.1,0.1,0.3L759.3,812z"/>
</g>
</svg>
