<svg id="Layer_1" data-name="Layer 1" xmlns="http://www.w3.org/2000/svg" viewBox="0 0 24 24"><defs><style>.cls-1{fill:#0055b2;}.cls-2{fill:#fff;}.cls-3{fill:#006cfa;}</style></defs><title>cards</title><rect class="cls-1" x="6.09" y="6.26" width="14.07" height="9.28"/><rect class="cls-2" x="3.84" y="8.46" width="14.07" height="9.28"/><path class="cls-3" d="M5.19,18.75H16.45A2.26,2.26,0,0,0,18.7,16.5h.11a2.26,2.26,0,0,0,2.25-2.25V7.5a2.26,2.26,0,0,0-2.25-2.25H7.55A2.26,2.26,0,0,0,5.3,7.5H5.19A2.26,2.26,0,0,0,2.94,9.75V16.5A2.22,2.22,0,0,0,5.19,18.75ZM17.57,12H4.07V10.87h13.5Zm-10-5.63H18.81A1.13,1.13,0,0,1,19.93,7.5v6.75a1.13,1.13,0,0,1-1.13,1.13H18.7V9.75A2.26,2.26,0,0,0,16.45,7.5h-10A1.13,1.13,0,0,1,7.55,6.37ZM5.19,8.62H16.45a1.13,1.13,0,0,1,1.13,1.13H4.07A1.09,1.09,0,0,1,5.19,8.62Zm12.38,4.5V16.5a1.13,1.13,0,0,1-1.13,1.13H5.19A1.13,1.13,0,0,1,4.07,16.5V13.13Z"/><path class="cls-3" d="M12.34,15.94h3.38a.56.56,0,1,0,0-1.13H12.34a.56.56,0,1,0,0,1.13Z"/></svg>