<svg id="Layer_1" data-name="Layer 1" xmlns="http://www.w3.org/2000/svg" viewBox="0 0 24 24"><defs><style>.cls-1{fill:#0086ff;}</style></defs><title>download</title><path class="cls-1" d="M11.23,14V5.09a.77.77,0,1,1,1.54,0V14l2.53-2.53a.74.74,0,0,1,1.07.08.81.81,0,0,1,0,1l-3.84,3.84a.74.74,0,0,1-1.07,0L7.62,12.54a.75.75,0,0,1,.08-1.07.81.81,0,0,1,1,0ZM5.09,15.84a.73.73,0,0,1,.77-.77.73.73,0,0,1,.77.77v2.3H17.37v-2.3a.77.77,0,1,1,1.54,0v2.3a1.54,1.54,0,0,1-1.54,1.54H6.63a1.54,1.54,0,0,1-1.54-1.54Z"/></svg>