<svg id="Layer_1" data-name="Layer 1" xmlns="http://www.w3.org/2000/svg" viewBox="0 0 1440 1024"><defs><style>.cls-1{fill:#f29200;}.cls-2{fill:#ffd130;}.cls-3{fill:#faba02;}</style></defs><title>floatingcoins</title><path class="cls-1" d="M1203.95,842.22c-6.61,36.5-33.07,63.39-62.81,67.18l-.47,2.62L1123.79,909l-.43-.08c-36.07-6.92-58.86-47.4-50.88-90.72S1116,745,1152.16,751.38l.47.08,16.88,3.06-.48,2.64C1195.53,771.21,1210.63,805.71,1203.95,842.22Z"/><ellipse class="cls-2" cx="1153.43" cy="832.98" rx="80.04" ry="70.33" transform="translate(126.61 1817.81) rotate(-79.64)"/><ellipse class="cls-3" cx="1154.34" cy="833.14" rx="67.4" ry="59.22" transform="translate(127.19 1818.83) rotate(-79.64)"/><path class="cls-1" d="M1212.59,843.8c-6.64,36.63-38.21,61.53-70.38,55.65q-2.06-.37-4.07-.92c30.71,3.16,59.85-21.18,66.25-56.23s-12.23-68.12-42.05-76.05q2.07.21,4.13.58C1198.58,772.71,1219.3,807.18,1212.59,843.8Z"/><path class="cls-1" d="M1156,854.33a6.89,6.89,0,0,0,.67,4.9,11.91,11.91,0,0,0,3,3.41,16.34,16.34,0,0,0,3.49,2.11c1.15.51,1.91.81,2.27.93a1.45,1.45,0,0,1,.71.56.72.72,0,0,1,.06.66,1.08,1.08,0,0,1-.49.51,1.32,1.32,0,0,1-.91.1l-40.35-7.31a1.32,1.32,0,0,1-.82-.41,1.06,1.06,0,0,1-.28-.65.72.72,0,0,1,.29-.58,1.47,1.47,0,0,1,.88-.27,18.16,18.16,0,0,0,2.45-.05,16.34,16.34,0,0,0,4-.91,11.88,11.88,0,0,0,4-2.14,6.89,6.89,0,0,0,2.44-4.32l5-27.86a2.71,2.71,0,0,0-1.64-3.12,15.76,15.76,0,0,1-1.55-.58l-2.85-1.06-2.88-1.07c-.89-.31-1.4-.52-1.55-.58-.57-.24-.83-.55-.76-.92s.45-.67,1.16-.9q4.17-1.19,8.35-2.74t8.2-3.28q4-1.78,7.76-3.72t7-3.89A1.4,1.4,0,0,1,1165,801c.45.18.61.56.5,1.17Z"/><path class="cls-3" d="M1162.21,852a7,7,0,0,0,.57,4.74,11,11,0,0,0,2.73,3.28,14.38,14.38,0,0,0,3.15,2c1,.47,1.74.76,2.07.87a1.31,1.31,0,0,1,.65.55.74.74,0,0,1,.05.62,1,1,0,0,1-.46.5,1.16,1.16,0,0,1-.83.11l-36.81-6.67a1.16,1.16,0,0,1-.74-.4,1,1,0,0,1-.24-.62.74.74,0,0,1,.27-.57,1.31,1.31,0,0,1,.8-.29,14.65,14.65,0,0,0,2.24-.08,14.29,14.29,0,0,0,3.67-.76,11,11,0,0,0,3.7-2.1,7,7,0,0,0,2.21-4.23l4.9-27.07a2.61,2.61,0,0,0-1.48-3,12.8,12.8,0,0,1-1.36-.55l-2.59-1-2.62-1a14.53,14.53,0,0,1-1.39-.55q-.78-.34-.69-.87c.06-.35.42-.65,1.07-.88q3.82-1.2,7.65-2.75t7.53-3.33q3.64-1.78,7.14-3.69t6.48-3.81a1.23,1.23,0,0,1,1.21-.16c.42.16.55.53.44,1.13Z"/><path class="cls-1" d="M93.84,624.4c8.56,25,1.42,51-15.78,63.65l.61,1.8-11.57,4-.3.1c-24.86,8.22-53.12-9.08-63.2-38.83S5.3,594.42,30,585.82l.32-.11,11.57-4,.62,1.81C63.93,583.1,85.32,599.34,93.84,624.4Z"/><ellipse class="cls-2" cx="59.17" cy="636.19" rx="50.15" ry="57.08" transform="translate(-201.72 52.95) rotate(-18.79)"/><ellipse class="cls-3" cx="59.79" cy="635.98" rx="42.23" ry="48.06" transform="translate(-201.62 53.13) rotate(-18.79)"/><path class="cls-1" d="M99.77,622.38c8.59,25.12-2.43,51.59-24.51,59.1q-1.41.48-2.85.84c20.22-8.7,29.92-34,21.73-58s-31.27-38.18-52.6-32.76q1.36-.59,2.77-1.07C66.35,583,91.23,597.25,99.77,622.38Z"/><path class="cls-1" d="M68.18,648.6a4.92,4.92,0,0,0,2.12,2.82,8.49,8.49,0,0,0,3,1.1,11.65,11.65,0,0,0,2.9.1c.89-.08,1.47-.16,1.74-.21a1,1,0,0,1,.64.1.51.51,0,0,1,.27.39.77.77,0,0,1-.13.49.94.94,0,0,1-.53.38l-27.67,9.46a.94.94,0,0,1-.66,0,.76.76,0,0,1-.4-.31.51.51,0,0,1,0-.46,1,1,0,0,1,.45-.48,13,13,0,0,0,1.51-.88,11.65,11.65,0,0,0,2.2-2,8.47,8.47,0,0,0,1.73-2.71,4.92,4.92,0,0,0,0-3.54l-6.53-19.1a1.93,1.93,0,0,0-2.11-1.37,11.24,11.24,0,0,1-1.17.18l-2.14.33-2.16.33c-.66.12-1.05.16-1.17.18-.44.05-.71-.05-.79-.31s.05-.57.41-1q2.18-2.19,4.25-4.6t4-4.89q1.89-2.5,3.54-5t3-4.87a1,1,0,0,1,.77-.56c.34,0,.58.14.72.55Z"/><path class="cls-3" d="M71.25,645a5,5,0,0,0,2,2.75,7.85,7.85,0,0,0,2.84,1.1,10.25,10.25,0,0,0,2.66.16c.81-.07,1.35-.13,1.59-.17a.93.93,0,0,1,.59.12.52.52,0,0,1,.25.37.75.75,0,0,1-.11.47.83.83,0,0,1-.48.36l-25.24,8.63a.83.83,0,0,1-.6,0,.75.75,0,0,1-.36-.31.52.52,0,0,1,0-.45.93.93,0,0,1,.4-.46,10.45,10.45,0,0,0,1.37-.82,10.19,10.19,0,0,0,2-1.75,7.84,7.84,0,0,0,1.58-2.59,5,5,0,0,0-.09-3.4l-6.35-18.56a1.86,1.86,0,0,0-2-1.36,9.13,9.13,0,0,1-1,.13l-2,.28-2,.28a10.36,10.36,0,0,1-1.06.14q-.61.06-.73-.3c-.08-.24,0-.55.36-.92q2-2.07,3.81-4.37t3.53-4.69q1.65-2.37,3.17-4.78t2.72-4.62a.87.87,0,0,1,.7-.52c.32,0,.53.14.67.55Z"/><path class="cls-1" d="M1401,479.25c-4,14.76-15.86,24.87-28.21,25.36l-.29,1.06-6.83-1.86-.18,0c-14.57-4.13-22.49-21.59-17.67-39.1s20.5-28.5,35.13-24.59l.19.05L1390,442l-.29,1.07C1400.12,449.77,1405.09,464.48,1401,479.25Z"/><ellipse class="cls-2" cx="1380.61" cy="473.65" rx="33.02" ry="29.01" transform="translate(558.76 1679.87) rotate(-74.67)"/><ellipse class="cls-3" cx="1380.98" cy="473.75" rx="27.8" ry="24.43" transform="translate(558.93 1680.3) rotate(-74.67)"/><path class="cls-1" d="M1404.54,480.21c-4,14.82-17.9,23.92-30.91,20.35q-.83-.23-1.64-.52c12.51,2.39,25.35-6.56,29.24-20.74s-2.59-28.43-14.56-32.76q.84.16,1.68.39C1401.32,450.49,1408.6,465.4,1404.54,480.21Z"/><path class="cls-1" d="M1380.9,482.51a2.84,2.84,0,0,0,.1,2,4.91,4.91,0,0,0,1.09,1.51,6.74,6.74,0,0,0,1.36,1c.46.25.76.4.9.46a.6.6,0,0,1,.27.26.3.3,0,0,1,0,.27.44.44,0,0,1-.22.19.55.55,0,0,1-.38,0l-16.32-4.45a.55.55,0,0,1-.32-.2.44.44,0,0,1-.09-.28.3.3,0,0,1,.14-.23.61.61,0,0,1,.37-.08,7.49,7.49,0,0,0,1,.07,6.74,6.74,0,0,0,1.69-.23,4.9,4.9,0,0,0,1.71-.74,2.84,2.84,0,0,0,1.16-1.69l3.07-11.27a1.12,1.12,0,0,0-.56-1.34,6.5,6.5,0,0,1-.62-.29l-1.13-.54-1.14-.54-.62-.29c-.23-.12-.32-.26-.28-.4s.21-.26.51-.33q1.75-.34,3.53-.83t3.49-1.05q1.72-.59,3.32-1.25t3-1.35a.58.58,0,0,1,.55,0c.18.09.23.25.16.5Z"/><path class="cls-3" d="M1383.54,481.79a2.88,2.88,0,0,0,.06,2,4.54,4.54,0,0,0,1,1.45,5.93,5.93,0,0,0,1.22.94c.41.23.69.38.82.43a.54.54,0,0,1,.25.25.3.3,0,0,1,0,.26.43.43,0,0,1-.21.19.48.48,0,0,1-.35,0l-14.89-4.06a.48.48,0,0,1-.29-.19.43.43,0,0,1-.07-.26.3.3,0,0,1,.13-.22.54.54,0,0,1,.34-.09,6,6,0,0,0,.92,0,5.9,5.9,0,0,0,1.54-.18,4.53,4.53,0,0,0,1.6-.73,2.88,2.88,0,0,0,1.06-1.66l3-10.95a1.08,1.08,0,0,0-.5-1.29,5.28,5.28,0,0,1-.54-.27l-1-.5-1-.51a6,6,0,0,1-.55-.28q-.31-.17-.25-.38c0-.14.19-.25.47-.33q1.61-.36,3.24-.86t3.21-1.1q1.56-.6,3.07-1.26t2.8-1.33a.51.51,0,0,1,.5,0c.17.08.21.24.14.48Z"/><path class="cls-1" d="M1066.85,130.42c-.16,8.72-5.3,16-12.06,18V149l-4-.08h-.1c-8.63-.25-15.44-8.79-15.22-19.15s7.35-18.61,16-18.49h.11l4,.08V112C1062.23,114.25,1067,121.69,1066.85,130.42Z"/><ellipse class="cls-2" cx="1054.78" cy="130.17" rx="18.82" ry="16.54" transform="translate(903.07 1182.07) rotate(-88.83)"/><ellipse class="cls-3" cx="1055" cy="130.17" rx="15.85" ry="13.92" transform="translate(903.27 1182.29) rotate(-88.83)"/><path class="cls-1" d="M1068.92,130.46c-.17,8.75-6.56,15.72-14.25,15.56q-.49,0-1-.06c7.25-.42,13.1-7.16,13.27-15.54s-5.4-15.35-12.62-16.07q.49,0,1,0C1063,114.49,1069.1,121.71,1068.92,130.46Z"/><path class="cls-1" d="M1056.18,135a1.62,1.62,0,0,0,.34,1.11,2.8,2.8,0,0,0,.81.68,3.84,3.84,0,0,0,.89.36l.56.13a.34.34,0,0,1,.19.1.17.17,0,0,1,0,.15.25.25,0,0,1-.09.14.31.31,0,0,1-.21.06l-9.64-.18a.31.31,0,0,1-.21-.07.25.25,0,0,1-.09-.14.17.17,0,0,1,0-.15.35.35,0,0,1,.19-.1,4.27,4.27,0,0,0,.57-.1,3.84,3.84,0,0,0,.9-.36,2.79,2.79,0,0,0,.84-.64,1.62,1.62,0,0,0,.4-1.09l.13-6.66a.64.64,0,0,0-.5-.66l-.38-.08-.7-.14-.71-.14-.38-.08c-.14,0-.21-.1-.21-.18s.08-.17.24-.25q.92-.43,1.84-.95t1.78-1.07q.87-.56,1.66-1.16t1.49-1.17a.33.33,0,0,1,.3-.09c.11,0,.16.11.16.25Z"/><path class="cls-3" d="M1057.53,134.26a1.64,1.64,0,0,0,.31,1.08,2.59,2.59,0,0,0,.76.66,3.38,3.38,0,0,0,.81.35l.51.12a.31.31,0,0,1,.17.1.17.17,0,0,1,0,.14.25.25,0,0,1-.09.13.27.27,0,0,1-.19.06l-8.79-.17a.27.27,0,0,1-.19-.07.25.25,0,0,1-.08-.14.17.17,0,0,1,0-.14.31.31,0,0,1,.17-.1,3.45,3.45,0,0,0,.52-.1,3.36,3.36,0,0,0,.82-.31,2.59,2.59,0,0,0,.78-.63,1.64,1.64,0,0,0,.35-1.07l.12-6.47a.61.61,0,0,0-.46-.64l-.34-.08-.64-.14-.65-.14-.34-.08q-.19,0-.19-.18c0-.08.07-.17.22-.25q.84-.42,1.67-.93t1.62-1.06q.78-.55,1.52-1.12t1.36-1.13a.29.29,0,0,1,.27-.08c.1,0,.15.1.15.24Z"/><path class="cls-1" d="M417.15,238.91c1.4,8.61-2.36,16.64-8.66,19.82l.1.62-4,.65-.1,0c-8.54,1.29-16.77-5.89-18.39-16.12s3.91-19.62,12.43-21.05l.11,0,4-.65.1.62C409.72,223.83,415.77,230.3,417.15,238.91Z"/><ellipse class="cls-2" cx="405.23" cy="240.83" rx="16.54" ry="18.82" transform="matrix(0.99, -0.16, 0.16, 0.99, -33.05, 67.28)"/><ellipse class="cls-3" cx="405.44" cy="240.79" rx="13.92" ry="15.85" transform="translate(-33.04 67.31) rotate(-9.12)"/><path class="cls-1" d="M419.2,238.59c1.4,8.64-3.65,16.63-11.24,17.85q-.49.08-1,.12c7.05-1.71,11.61-9.39,10.28-17.66s-8.05-14.14-15.29-13.56q.48-.12,1-.19C410.51,223.93,417.81,229.94,419.2,238.59Z"/><path class="cls-1" d="M407.48,245.36a1.62,1.62,0,0,0,.53,1,2.8,2.8,0,0,0,.92.52,3.84,3.84,0,0,0,.94.19l.58,0a.34.34,0,0,1,.2.07.17.17,0,0,1,.07.14.25.25,0,0,1-.07.15.31.31,0,0,1-.19.09l-9.52,1.54a.31.31,0,0,1-.21,0,.25.25,0,0,1-.11-.12.17.17,0,0,1,0-.15.35.35,0,0,1,.17-.13,4.27,4.27,0,0,0,.54-.2,3.84,3.84,0,0,0,.82-.52,2.79,2.79,0,0,0,.71-.78,1.62,1.62,0,0,0,.2-1.15L402,239.48a.64.64,0,0,0-.61-.56h-2.22c-.15,0-.23-.06-.24-.14s0-.18.19-.29q.83-.59,1.64-1.26t1.56-1.37q.75-.71,1.43-1.43T405,233a.33.33,0,0,1,.28-.14c.11,0,.18.08.2.22Z"/><path class="cls-3" d="M408.67,244.36a1.64,1.64,0,0,0,.5,1,2.59,2.59,0,0,0,.86.51,3.38,3.38,0,0,0,.86.2l.53,0a.31.31,0,0,1,.19.07.17.17,0,0,1,.06.13.25.25,0,0,1-.06.15.27.27,0,0,1-.18.09L402.74,248a.27.27,0,0,1-.2,0,.25.25,0,0,1-.1-.12.17.17,0,0,1,0-.15.31.31,0,0,1,.15-.13,3.45,3.45,0,0,0,.49-.19,3.36,3.36,0,0,0,.75-.46,2.59,2.59,0,0,0,.66-.76,1.64,1.64,0,0,0,.16-1.11l-1-6.38a.61.61,0,0,0-.56-.55h-.34l-.65,0-.66,0h-.35q-.2,0-.22-.14c0-.08,0-.18.17-.28q.75-.57,1.48-1.21t1.41-1.33q.67-.68,1.29-1.38t1.14-1.35a.29.29,0,0,1,.26-.13c.11,0,.16.07.19.21Z"/><path class="cls-1" d="M733.32,454.48c1.4,8.61-2.36,16.64-8.66,19.82l.1.62-4,.65-.1,0c-8.54,1.29-16.77-5.89-18.39-16.12s3.91-19.62,12.43-21.05l.11,0,4-.65.1.62C725.88,439.4,731.94,445.86,733.32,454.48Z"/><ellipse class="cls-2" cx="721.4" cy="456.39" rx="16.54" ry="18.82" transform="translate(-63.22 120.12) rotate(-9.12)"/><ellipse class="cls-3" cx="721.61" cy="456.35" rx="13.92" ry="15.85" transform="translate(-63.21 120.15) rotate(-9.12)"/><path class="cls-1" d="M735.36,454.15c1.4,8.64-3.65,16.63-11.24,17.85q-.49.08-1,.12c7.05-1.71,11.61-9.39,10.28-17.66s-8.05-14.14-15.29-13.56q.48-.12,1-.19C726.68,439.49,734,445.51,735.36,454.15Z"/><path class="cls-1" d="M723.64,460.92a1.62,1.62,0,0,0,.53,1,2.8,2.8,0,0,0,.92.52,3.84,3.84,0,0,0,.94.19l.58,0a.34.34,0,0,1,.2.07.17.17,0,0,1,.07.14.25.25,0,0,1-.07.15.31.31,0,0,1-.19.09l-9.52,1.54a.31.31,0,0,1-.21,0,.25.25,0,0,1-.11-.12.17.17,0,0,1,0-.15.35.35,0,0,1,.17-.13,4.27,4.27,0,0,0,.54-.2,3.84,3.84,0,0,0,.82-.52,2.79,2.79,0,0,0,.71-.78,1.62,1.62,0,0,0,.2-1.15L718.17,455a.64.64,0,0,0-.61-.56h-2.22c-.15,0-.23-.06-.24-.14s0-.18.19-.29q.83-.59,1.64-1.26t1.56-1.37q.75-.71,1.43-1.43t1.26-1.41a.33.33,0,0,1,.28-.14c.11,0,.18.08.2.22Z"/><path class="cls-3" d="M724.84,459.93a1.64,1.64,0,0,0,.5,1,2.59,2.59,0,0,0,.86.51,3.38,3.38,0,0,0,.86.2l.53,0a.31.31,0,0,1,.19.07.17.17,0,0,1,.06.13.25.25,0,0,1-.06.15.27.27,0,0,1-.18.09l-8.68,1.41a.27.27,0,0,1-.2,0,.25.25,0,0,1-.1-.12.17.17,0,0,1,0-.15.31.31,0,0,1,.15-.13,3.45,3.45,0,0,0,.49-.19,3.36,3.36,0,0,0,.75-.46,2.59,2.59,0,0,0,.66-.76,1.64,1.64,0,0,0,.16-1.11l-1-6.38a.61.61,0,0,0-.56-.55h-.34l-.65,0-.66,0h-.35q-.2,0-.22-.14c0-.08,0-.18.17-.28q.75-.57,1.48-1.21t1.41-1.33q.67-.68,1.29-1.38t1.14-1.35a.29.29,0,0,1,.26-.13c.11,0,.16.07.19.21Z"/><path class="cls-1" d="M769.39,811.62c-3.16,8.13-10.46,13.16-17.5,12.7l-.23.58-3.76-1.46-.1,0c-8-3.21-11.47-13.57-7.69-23.22s13.31-14.94,21.38-11.86l.1,0,3.76,1.46-.23.59C770.61,794.85,772.56,803.49,769.39,811.62Z"/><ellipse class="cls-2" cx="758.14" cy="807.23" rx="18.82" ry="16.54" transform="translate(-269.42 1220.16) rotate(-68.69)"/><ellipse class="cls-3" cx="758.34" cy="807.31" rx="15.85" ry="13.92" transform="translate(-269.37 1220.39) rotate(-68.69)"/><path class="cls-1" d="M771.31,812.37c-3.17,8.16-11.57,12.5-18.73,9.7q-.46-.18-.9-.39c6.95,2.1,14.76-2.22,17.81-10s.22-16.27-6.31-19.44q.47.14.93.32C771.25,795.33,774.49,804.21,771.31,812.37Z"/><path class="cls-1" d="M757.77,812.27a1.62,1.62,0,0,0-.06,1.16,2.8,2.8,0,0,0,.53.92,3.84,3.84,0,0,0,.71.64l.48.32a.34.34,0,0,1,.14.16.17.17,0,0,1,0,.15.25.25,0,0,1-.14.1.31.31,0,0,1-.22,0l-9-3.49a.31.31,0,0,1-.17-.13.25.25,0,0,1,0-.16.17.17,0,0,1,.09-.12.35.35,0,0,1,.22,0,4.27,4.27,0,0,0,.57.1,3.84,3.84,0,0,0,1,0,2.79,2.79,0,0,0,1-.32,1.62,1.62,0,0,0,.76-.89l2.41-6.21a.64.64,0,0,0-.24-.79l-.33-.2-.61-.37-.62-.38-.33-.2c-.12-.08-.17-.16-.14-.25s.13-.13.31-.16q1-.09,2-.26t2-.39q1-.23,2-.51t1.8-.58a.33.33,0,0,1,.31,0c.1.06.12.16.06.29Z"/><path class="cls-3" d="M759.31,812a1.64,1.64,0,0,0-.08,1.12,2.59,2.59,0,0,0,.48.88,3.38,3.38,0,0,0,.64.61l.44.29a.31.31,0,0,1,.12.16.17.17,0,0,1,0,.15.25.25,0,0,1-.13.09.27.27,0,0,1-.2,0l-8.2-3.18a.27.27,0,0,1-.15-.13.25.25,0,0,1,0-.15.17.17,0,0,1,.09-.12.31.31,0,0,1,.2,0,3.45,3.45,0,0,0,.52.08,3.36,3.36,0,0,0,.88,0,2.59,2.59,0,0,0,.95-.32,1.64,1.64,0,0,0,.7-.88l2.34-6a.61.61,0,0,0-.21-.76l-.29-.19-.55-.35-.56-.35-.3-.19q-.17-.11-.12-.23c0-.08.13-.13.29-.16q.94-.11,1.89-.29t1.89-.43q.92-.25,1.81-.53t1.67-.59a.29.29,0,0,1,.29,0c.09.06.1.15.05.28Z"/></svg>