<svg id="Layer_1" data-name="Layer 1" xmlns="http://www.w3.org/2000/svg" viewBox="0 0 24 24"><defs><style>.cls-1{fill:#a4d8ff;}.cls-2{fill:#ec6e62;}.cls-3{fill:#656766;}.cls-4{fill:#fff;}</style></defs><title>free</title><path class="cls-1" d="M15.41,8.93H8.59a.67.67,0,0,1-.68-.68V7.4a.67.67,0,0,1,.68-.68h6.82a.67.67,0,0,1,.68.68v.85C16,8.68,15.75,8.93,15.41,8.93Z"/><path class="cls-1" d="M15.41,11.83H8.59a.67.67,0,0,1-.68-.68V10.3a.67.67,0,0,1,.68-.68h6.82a.67.67,0,0,1,.68.68v.85C16,11.49,15.75,11.83,15.41,11.83Z"/><path class="cls-2" d="M19.44,8.8l-2-3.38A.85.85,0,0,0,16.78,5H3.5a.67.67,0,0,0-.65.65v7a.64.64,0,0,0,.65.65H16.78a.85.85,0,0,0,.68-.38l2-3.38A.75.75,0,0,0,19.44,8.8ZM17.12,10a.76.76,0,1,1,.76-.76A.76.76,0,0,1,17.12,10Z"/><path class="cls-3" d="M13.44,19.39a1.29,1.29,0,0,1-.38,0,2,2,0,0,1-1.25-.68,2.77,2.77,0,0,1-.38-2.47,3,3,0,0,1,1.52-1.71,4.34,4.34,0,0,1,2-.42h.91a7.91,7.91,0,0,0,.95,0,8.09,8.09,0,0,0,2.32-.46,2,2,0,0,0,1-.68,2,2,0,0,0,.08-1.78,2.37,2.37,0,0,0-1.21-1.21,5.26,5.26,0,0,0-1.71-.34.36.36,0,1,1,0-.72,6.06,6.06,0,0,1,2,.38,3.26,3.26,0,0,1,1.59,1.59,2.76,2.76,0,0,1-.15,2.51,2.57,2.57,0,0,1-1.33.95,7.38,7.38,0,0,1-2.54.49h-1a6.7,6.7,0,0,0-.87,0,3.63,3.63,0,0,0-1.67.34,2.37,2.37,0,0,0-1.14,1.29,2,2,0,0,0,.23,1.75,1.18,1.18,0,0,0,.8.42,2.11,2.11,0,0,0,2-.95.41.41,0,0,1,.53-.11.37.37,0,0,1,.11.53A2.87,2.87,0,0,1,13.44,19.39Z"/><path class="cls-4" d="M5.43,8.27V9H6.65v.42H5.43v1.1H5V7.82H6.76v.42H5.43Z"/><path class="cls-4" d="M9.46,8.73a.77.77,0,0,1-.57.84l.72,1H9l-.65-.91H7.79v.91H7.33V7.85h1A1.56,1.56,0,0,1,9.19,8,.81.81,0,0,1,9.46,8.73Zm-.61.38A.51.51,0,0,0,9,8.73a.4.4,0,0,0-.15-.38.86.86,0,0,0-.49-.11H7.79v.95h.57A.62.62,0,0,0,8.85,9.11Z"/><path class="cls-4" d="M12,7.85v.42H10.56V9h1.29v.42H10.56v.72H12v.42H10.1V7.85Z"/><path class="cls-4" d="M14.54,7.85v.42H13.1V9h1.29v.42H13.1v.72h1.48v.42H12.64V7.85Z"/></svg>