<svg width="101" height="27" viewBox="0 0 101 27" fill="none" xmlns="http://www.w3.org/2000/svg">
<g clip-path="url(#clip0_1:15)">
<path d="M15.4799 6.58053C14.9449 5.34048 14.3452 4.01776 13.6806 2.64544C13.4375 2.13288 13.2268 1.703 13.0809 1.40539C12.8702 0.975505 12.627 0.49602 12.1732 0.231476V0L12.0921 0.181874C11.8814 0.0826699 11.6383 0.016534 11.3465 0.016534C10.2929 0.016534 9.93628 0.760563 9.59588 1.40539C9.45 1.703 9.23928 2.11635 8.99614 2.64544C8.55849 3.55481 7.89391 4.97673 7.19691 6.58053C4.48996 12.7973 4.48996 14.3846 4.48996 14.9963C4.48996 18.8487 7.56973 21.9737 11.3303 21.9737C15.107 21.9737 18.1706 18.8322 18.1706 14.9963C18.1868 14.3846 18.1868 12.7973 15.4799 6.58053ZM11.3465 18.5181C9.43379 18.5181 7.8777 16.9308 7.8777 14.9798C7.8777 13.6901 9.56347 9.50704 11.3303 5.63809C13.1133 9.50704 14.7991 13.6901 14.7991 14.9798C14.7991 16.9308 13.2592 18.5181 11.3465 18.5181Z" fill="white"/>
<path d="M20.9424 13.6571C19.986 13.6571 19.1918 14.4507 19.1918 15.4427C19.1918 19.8573 15.6744 23.4452 11.3465 23.4452C7.01862 23.4452 3.5012 19.8573 3.5012 15.4427C3.5012 14.4672 2.72316 13.6571 1.7506 13.6571C0.778045 13.6571 0 14.4507 0 15.4427C0 21.8083 5.08971 27 11.3465 27.0165C17.5871 27.0165 22.6768 21.8249 22.693 15.4427C22.693 14.4507 21.8987 13.6571 20.9424 13.6571Z" fill="white"/>
<path d="M39.3075 6.56398C40.4259 7.15921 41.3337 8.06858 41.9496 9.19289C42.5818 10.3668 42.906 11.6895 42.8735 13.0122C42.8897 14.3515 42.5656 15.6577 41.9496 16.8316C41.3337 17.9559 40.4097 18.8983 39.3075 19.5101C38.1566 20.1549 36.8275 20.4856 35.3038 20.4856H29.2253V5.60501H35.3038C36.8275 5.60501 38.1566 5.91916 39.3075 6.56398ZM37.33 15.4593C37.9297 14.8806 38.2377 14.0704 38.2377 12.9957C38.2377 11.921 37.9297 11.1108 37.33 10.5321C36.7302 9.95345 35.9035 9.67237 34.8824 9.67237H33.7963V16.319H34.8824C35.9198 16.3356 36.7302 16.038 37.33 15.4593Z" fill="white"/>
<path d="M50.8161 9.17636C51.4482 8.77954 52.1777 8.5646 52.9233 8.54807V13.5248H51.6265C50.7675 13.5248 50.1353 13.6736 49.7139 13.9877C49.2924 14.3019 49.0979 14.8475 49.0979 15.6246V20.4856H44.5107V8.63074H49.0817V10.8132C49.5518 10.1519 50.1353 9.58971 50.8161 9.17636Z" fill="white"/>
<path d="M56.5218 19.8904C55.614 19.4109 54.8522 18.6834 54.3335 17.774C53.7824 16.7985 53.5068 15.6742 53.5392 14.5499C53.5068 13.4256 53.7824 12.3013 54.3335 11.3258C54.8522 10.4164 55.614 9.68893 56.5218 9.20944C58.5155 8.23394 60.8334 8.23394 62.8272 9.20944C63.7511 9.68893 64.5129 10.4164 65.0154 11.3258C65.5665 12.3013 65.8421 13.4256 65.8097 14.5499C65.8421 15.6742 65.5665 16.7985 65.0154 17.774C64.4967 18.6834 63.7349 19.4109 62.8272 19.8904C60.8334 20.8824 58.4993 20.8824 56.5218 19.8904ZM60.7362 16.0876C61.0279 15.7404 61.1738 15.2443 61.1738 14.5665C61.1738 13.8886 61.0279 13.3925 60.7362 13.0453C60.2499 12.4336 59.3746 12.3509 58.7748 12.8469C58.71 12.8965 58.6452 12.9627 58.5803 13.0453C58.2886 13.3925 58.1427 13.9051 58.1427 14.5665C58.1427 15.2278 58.2886 15.7404 58.5641 16.0876C59.0666 16.6993 59.9419 16.782 60.5416 16.2695C60.6227 16.2199 60.6875 16.1537 60.7362 16.0876Z" fill="white"/>
<path d="M73.0714 8.96142C73.6712 8.63074 74.3357 8.4654 75.0165 8.48193C75.8918 8.4654 76.7347 8.72994 77.4641 9.20943C78.226 9.72198 78.8257 10.466 79.1823 11.3092C79.62 12.3344 79.8307 13.4421 79.8145 14.5499C79.8469 15.6577 79.62 16.7655 79.1823 17.7906C78.8095 18.6503 78.226 19.3778 77.4641 19.8904C76.7347 20.3699 75.8756 20.6179 75.0165 20.6013C74.3357 20.6179 73.6712 20.4525 73.0714 20.1219C72.5365 19.8242 72.1151 19.3778 71.8233 18.8322V26.1237H67.2523V8.59767H71.8233V10.2511C72.0989 9.70545 72.5365 9.25903 73.0714 8.96142ZM74.7086 13.0949C74.0602 12.417 72.9904 12.4005 72.3096 13.0618C72.2934 13.0784 72.2772 13.0949 72.2772 13.0949C71.9692 13.4421 71.8071 13.9381 71.8071 14.5664C71.8071 15.1947 71.9692 15.6908 72.2772 16.038C72.9255 16.7159 73.9953 16.7324 74.6761 16.071C74.6923 16.0545 74.7086 16.038 74.7086 16.038C75.0165 15.6908 75.1786 15.1947 75.1786 14.5664C75.1786 13.9381 75.0165 13.4421 74.7086 13.0949Z" fill="white"/>
<path d="M85.8281 4.94366V20.4856H81.2571V4.94366H85.8281Z" fill="white"/>
<path d="M101 8.63074L93.5599 26.1568H88.5513L91.4689 19.8904L86.6386 8.63074H91.7445L93.9328 14.6326L95.9589 8.63074H101Z" fill="white"/>
</g>
<defs>
<clipPath id="clip0_1:15">
<rect width="101" height="27" fill="white"/>
</clipPath>
</defs>
</svg>
