<?xml version="1.0" encoding="utf-8"?>
<!-- Generator: Adobe Illustrator 21.0.0, SVG Export Plug-In . SVG Version: 6.00 Build 0)  -->
<svg version="1.1" id="Layer_1" xmlns="http://www.w3.org/2000/svg" xmlns:xlink="http://www.w3.org/1999/xlink" x="0px" y="0px"
	 viewBox="0 0 24 24" style="enable-background:new 0 0 24 24;" xml:space="preserve">
<style type="text/css">
	.st0{fill:#0086FF;}
	.st1{fill:#A4D8FF;}
</style>
<g id="Mobile_Phone">
	<path id="Rectangle_1__x28_Stroke_x29_" class="st0" d="M5.4,4.3c0-1.3,1-2.4,2.4-2.4h8.5c1.3,0,2.4,1,2.4,2.4v15.3
		c0,1.3-1,2.4-2.4,2.4H7.7c-1.3,0-2.4-1-2.4-2.4V4.3z M7.7,3.3c-0.6,0-1,0.4-1,1v15.3c0,0.6,0.5,1,1,1h8.5c0.6,0,1-0.5,1-1V4.3
		c0-0.6-0.5-1-1-1H7.7z"/>
	<path id="Rectangle_2__x28_Stroke_x29_" class="st0" d="M8.1,2.3c0.1-0.2,0.3-0.3,0.5-0.3h6.8c0.3,0,0.4,0.1,0.5,0.3
		c0.1,0.2,0.1,0.4,0,0.6l-0.6,1.2c-0.3,0.5-0.8,0.9-1.4,0.9h-4c-0.6,0-1.1-0.3-1.4-0.9L8,2.9C7.9,2.7,7.9,2.5,8.1,2.3z M9.6,3.3
		l0.2,0.3c0,0.1,0.1,0.1,0.2,0.1H14c0.1,0,0.2-0.1,0.2-0.1l0.2-0.3C14.4,3.3,9.6,3.3,9.6,3.3z"/>
	<path id="Vector_1__x28_Stroke_x29_" class="st0" d="M9.6,18.8c0-0.3,0.3-0.7,0.7-0.7h3.4c0.3,0,0.7,0.3,0.7,0.7
		c0,0.4-0.3,0.7-0.7,0.7h-3.4C10,19.5,9.6,19.2,9.6,18.8z"/>
</g>
<path class="st1" d="M15.4,8.9H8.6c-0.3,0-0.7-0.3-0.7-0.7V7.4c0-0.3,0.3-0.7,0.7-0.7h6.8c0.3,0,0.7,0.3,0.7,0.7v0.9
	C16,8.7,15.8,8.9,15.4,8.9z"/>
<path class="st1" d="M15.4,11.8H8.6c-0.3,0-0.7-0.3-0.7-0.7v-0.9c0-0.3,0.3-0.7,0.7-0.7h6.8c0.3,0,0.7,0.3,0.7,0.7v0.9
	C16,11.5,15.8,11.8,15.4,11.8z"/>
<path class="st1" d="M15.4,14.6H8.6c-0.3,0-0.7-0.3-0.7-0.7v-0.9c0-0.3,0.3-0.7,0.7-0.7h6.8c0.3,0,0.7,0.3,0.7,0.7V14
	C16,14.4,15.8,14.6,15.4,14.6z"/>
</svg>
