<svg id="Layer_1" data-name="Layer 1" xmlns="http://www.w3.org/2000/svg" viewBox="0 0 24 24"><defs><style>.cls-1{fill:#006cfa;}</style></defs><title>password</title><path class="cls-1" d="M4.65,9.17h0a.28.28,0,0,1,.28.28v5.09a.28.28,0,0,1-.28.28h0a.28.28,0,0,1-.28-.28V9.46A.28.28,0,0,1,4.65,9.17Z"/><path class="cls-1" d="M7.48,12h0a.28.28,0,0,1-.28.28H2.11A.28.28,0,0,1,1.83,12h0a.28.28,0,0,1,.28-.28H7.2A.28.28,0,0,1,7.48,12Z"/><path class="cls-1" d="M6.65,10h0a.28.28,0,0,1,0,.4L3.06,14a.28.28,0,0,1-.4,0h0a.28.28,0,0,1,0-.4L6.25,10A.28.28,0,0,1,6.65,10Z"/><path class="cls-1" d="M2.66,10h0a.28.28,0,0,1,.4,0l3.6,3.6a.28.28,0,0,1,0,.4h0a.28.28,0,0,1-.4,0l-3.6-3.6A.28.28,0,0,1,2.66,10Z"/><path class="cls-1" d="M12,9.17h0a.28.28,0,0,1,.28.28v5.09a.28.28,0,0,1-.28.28h0a.28.28,0,0,1-.28-.28V9.46A.28.28,0,0,1,12,9.17Z"/><path class="cls-1" d="M14.83,12h0a.28.28,0,0,1-.28.28H9.46A.28.28,0,0,1,9.17,12h0a.28.28,0,0,1,.28-.28h5.09A.28.28,0,0,1,14.83,12Z"/><path class="cls-1" d="M14,10h0a.28.28,0,0,1,0,.4L10.4,14a.28.28,0,0,1-.4,0h0a.28.28,0,0,1,0-.4L13.6,10A.28.28,0,0,1,14,10Z"/><path class="cls-1" d="M10,10h0a.28.28,0,0,1,.4,0L14,13.6a.28.28,0,0,1,0,.4h0a.28.28,0,0,1-.4,0L10,10.4A.28.28,0,0,1,10,10Z"/><path class="cls-1" d="M19.35,9.17h0a.28.28,0,0,1,.28.28v5.09a.28.28,0,0,1-.28.28h0a.28.28,0,0,1-.28-.28V9.46A.28.28,0,0,1,19.35,9.17Z"/><path class="cls-1" d="M22.17,12h0a.28.28,0,0,1-.28.28H16.8a.28.28,0,0,1-.28-.28h0a.28.28,0,0,1,.28-.28h5.09A.28.28,0,0,1,22.17,12Z"/><path class="cls-1" d="M21.34,10h0a.28.28,0,0,1,0,.4L17.75,14a.28.28,0,0,1-.4,0h0a.28.28,0,0,1,0-.4l3.6-3.6A.28.28,0,0,1,21.34,10Z"/><path class="cls-1" d="M17.35,10h0a.28.28,0,0,1,.4,0l3.6,3.6a.28.28,0,0,1,0,.4h0a.28.28,0,0,1-.4,0l-3.6-3.6A.28.28,0,0,1,17.35,10Z"/></svg>