<?xml version="1.0" encoding="utf-8"?>
<!-- Generator: Adobe Illustrator 21.0.0, SVG Export Plug-In . SVG Version: 6.00 Build 0)  -->
<svg version="1.1" id="Layer_1" xmlns="http://www.w3.org/2000/svg" xmlns:xlink="http://www.w3.org/1999/xlink" x="0px" y="0px"
	 viewBox="0 0 685 498" style="enable-background:new 0 0 685 498;" xml:space="preserve">
<style type="text/css">
	.st0{clip-path:url(#SVGID_2_);}
	.st1{opacity:0.31;}
	.st2{opacity:0.31;fill:#FFFFFF;enable-background:new    ;}
	.st3{opacity:0.2;fill:#FFFFFF;enable-background:new    ;}
	.st4{clip-path:url(#SVGID_4_);}
	.st5{fill:#F29200;}
	.st6{fill:#FFD130;}
	.st7{fill:#FABA02;}
	.st8{clip-path:url(#SVGID_6_);}
	.st9{clip-path:url(#SVGID_8_);}
	.st10{clip-path:url(#SVGID_10_);}
	.st11{clip-path:url(#SVGID_12_);}
	.st12{clip-path:url(#SVGID_14_);}
	.st13{clip-path:url(#SVGID_16_);}
</style>
<g>
	<defs>
		<polygon id="SVGID_1_" points="10.2,219.4 647.2,228.4 649.6,446.5 12.6,437.4 		"/>
	</defs>
	<clipPath id="SVGID_2_">
		<use xlink:href="#SVGID_1_"  style="overflow:visible;"/>
	</clipPath>
	<g class="st0">
		<g class="st1">
			<path class="st2" d="M656.1,372.8c0,0-439.8,17.9-584.5,11.2l82.4-8.6c0,0,36.8-113,109-116.1c72.2-3.1,105.7,58.8,105.7,58.8
				s46.4-19.2,67.1,35.4c0,0,28.9-36,58.2,12.5L656.1,372.8z"/>
			<path class="st2" d="M72.4,383.9c0,0,136.8-14,266.9-16.8c130.1-2.8,316.8,5.6,316.8,5.6S236.1,391.2,72.4,383.9z"/>
			<path class="st3" d="M391,357.4c0,0-32.9-99.4-119-98.1c-86,1.3-117.4,115.3-117.4,115.3S330.6,373.2,391,357.4z"/>
			<path class="st3" d="M374.7,318.3c0,0,48-18.6,65,46.3c-10.7,0.2-20.7-1.3-30.8-3.5C400.9,357.3,374.7,318.3,374.7,318.3z"/>
			<path class="st3" d="M437.7,351.1c0,0,14.8-13.5,30.5-8.7c10.2,3.7,19.3,12.1,24,21.6c-9.1,0.8-19,0.9-28.2,0.1
				C454,363.4,445.2,358.1,437.7,351.1z"/>
			<path class="st3" d="M164.1,350.9c0,0,32,8.7,123.8,12.3s97.5-18.3,97.5-18.3l-16.1-27.6l1.5-0.1c0,0,23.6,34.6,39.3,40.1
				c15.7,5.5,83.8,8.8,83.8,8.8l-41,2c0,0-196-0.7-298.1,8L164.1,350.9z"/>
		</g>
		<g class="st1">
			<path class="st2" d="M278.4,324.3L22.6,337.1l50.2-10.4c0,0,31.3-52.3,62.6-34.4c0,0,3.3-33.1,36.3-39
				c33-5.9,50.1,68.9,50.1,68.9s3-9.4,14.4-1.2L278.4,324.3z"/>
			<path class="st2" d="M278.4,324.3c0,0-143.4-9.8-254.3,12.7L278.4,324.3z"/>
			<path class="st3" d="M167.1,314.8c0,0-21.5-28.7-50.1-23.9c-28.6,4.7-44.1,36.6-44.1,36.6S140.5,316.3,167.1,314.8z"/>
			<path class="st3" d="M137.4,289.1c0,0,11.4-36.1,39-33.9c27.6,2.2,42,54.4,43.6,64.1c0,0-29,0.2-37.7-3.6
				C173.7,311.9,150.5,291,137.4,289.1z"/>
		</g>
	</g>
</g>
<g>
	<defs>
		
			<rect id="SVGID_3_" x="194" y="295.6" transform="matrix(0.9845 -0.1752 0.1752 0.9845 -54.0729 44.8753)" width="66.4" height="66.4"/>
	</defs>
	<clipPath id="SVGID_4_">
		<use xlink:href="#SVGID_3_"  style="overflow:visible;"/>
	</clipPath>
	<g class="st4">
		<path class="st5" d="M249.9,324.7c2.6,14.8-3.6,28.8-14.4,34.5l0.2,1.1l-6.9,1.2l-0.2,0c-14.7,2.5-29.1-9.7-32.2-27.4
			c-3.1-17.6,6.2-34,20.9-36.7l0.2,0l6.9-1.2l0.2,1.1C236.7,298.8,247.3,309.8,249.9,324.7z"/>
		<path class="st6" d="M257.5,323.3c-3.1-17.7-18.3-29.8-33.8-27.1c-15.5,2.7-25.6,19.3-22.5,37c3.1,17.7,18.3,29.8,33.8,27.1
			C250.6,357.6,260.6,341,257.5,323.3z"/>
		<path class="st7" d="M253.4,324c-2.6-14.9-15.4-25.1-28.5-22.8c-13.1,2.3-21.6,16.3-18.9,31.2c2.6,14.9,15.4,25.1,28.5,22.8
			C247.6,352.9,256.1,338.9,253.4,324z"/>
		<path class="st5" d="M253.4,324c2.7,14.9-5.9,28.8-18.9,31.2c-0.6,0.1-1.1,0.2-1.7,0.2c12.1-3.1,19.8-16.5,17.3-30.8
			c-2.5-14.3-14.3-24.2-26.8-23c0.5-0.1,1.1-0.3,1.7-0.4C238.1,298.9,250.8,309.1,253.4,324z"/>
		<path class="st5" d="M233.4,336.1c0.1,0.7,0.4,1.3,0.9,1.8c0.5,0.4,1,0.7,1.6,0.9c0.5,0.2,1.1,0.3,1.6,0.3c0.5,0,0.8,0,1,0
			c0.1,0,0.2,0,0.4,0.1c0,0,0.1,0.1,0.1,0.1c0,0,0,0.1,0,0.1c0,0.1,0,0.2-0.1,0.3c-0.1,0.1-0.2,0.2-0.3,0.2l-16.4,2.9
			c-0.1,0-0.3,0-0.4,0c-0.1,0-0.2-0.1-0.2-0.2c0,0,0-0.1,0-0.1c0,0,0-0.1,0-0.1c0.1-0.1,0.2-0.2,0.3-0.2c0.2,0,0.5-0.2,0.9-0.4
			c0.5-0.2,1-0.6,1.4-0.9c0.5-0.4,0.9-0.8,1.2-1.4c0.4-0.6,0.5-1.3,0.3-2l-2-11.3c0-0.3-0.2-0.5-0.4-0.7c-0.2-0.2-0.4-0.3-0.7-0.3
			c-0.1,0-0.3,0-0.7,0l-1.2,0h-1.2c-0.4,0-0.6,0-0.7,0c-0.3,0-0.4-0.1-0.4-0.2c0-0.1,0.1-0.3,0.3-0.5c0.9-0.7,1.9-1.4,2.8-2.2
			c0.9-0.8,1.8-1.6,2.7-2.4c0.9-0.8,1.7-1.7,2.4-2.5c0.8-0.8,1.5-1.7,2.1-2.5c0.1-0.1,0.1-0.1,0.2-0.2c0.1,0,0.2-0.1,0.3-0.1
			c0.2,0,0.3,0.1,0.4,0.4L233.4,336.1z"/>
		<path class="st7" d="M235.4,334.3c0.1,0.7,0.4,1.3,0.9,1.7c0.4,0.4,1,0.7,1.5,0.9c0.5,0.2,1,0.3,1.5,0.3c0.5,0,0.8,0,0.9,0
			c0.1,0,0.2,0,0.3,0.1c0,0,0.1,0.1,0.1,0.1c0,0,0,0.1,0,0.1c0,0.1,0,0.2-0.1,0.3c-0.1,0.1-0.2,0.1-0.3,0.2l-15,2.7
			c-0.1,0-0.2,0-0.3,0c-0.1,0-0.1-0.1-0.2-0.2c0,0,0-0.1,0-0.1c0,0,0-0.1,0-0.1c0.1-0.1,0.2-0.2,0.3-0.2c0.1,0,0.4-0.2,0.8-0.3
			c0.5-0.2,0.9-0.5,1.3-0.8c0.5-0.4,0.8-0.8,1.1-1.3c0.3-0.6,0.4-1.3,0.2-1.9l-2-11c0-0.2-0.1-0.5-0.3-0.6c-0.2-0.2-0.4-0.3-0.7-0.3
			c0,0-0.2,0-0.6,0l-1.1,0l-1.1,0c-0.4,0-0.6,0-0.6,0c-0.2,0-0.4-0.1-0.4-0.2c0-0.1,0.1-0.3,0.3-0.5c0.9-0.7,1.7-1.4,2.5-2.1
			c0.8-0.8,1.6-1.5,2.4-2.3c0.8-0.8,1.5-1.6,2.2-2.4c0.7-0.8,1.4-1.6,1.9-2.4c0-0.1,0.1-0.1,0.2-0.2c0.1,0,0.2-0.1,0.2-0.1
			c0.2,0,0.3,0.1,0.3,0.4L235.4,334.3z"/>
	</g>
</g>
<g>
	<defs>
		
			<rect id="SVGID_5_" x="137.7" y="67.2" transform="matrix(0.9845 -0.1752 0.1752 0.9845 -17.6339 34.6837)" width="100" height="100"/>
	</defs>
	<clipPath id="SVGID_6_">
		<use xlink:href="#SVGID_5_"  style="overflow:visible;"/>
	</clipPath>
	<g class="st8">
		<path class="st5" d="M221.9,111.1c4,22.4-5.5,43.4-21.7,51.9l0.3,1.6l-10.3,1.8l-0.3,0c-22.2,3.7-43.9-14.7-48.5-41.2
			c-4.6-26.6,9.4-51.2,31.5-55.3l0.3-0.1l10.3-1.8l0.3,1.6C202,72.1,218,88.7,221.9,111.1z"/>
		<path class="st6" d="M233.4,109.1c-4.7-26.7-27.5-44.9-50.9-40.8c-23.4,4.1-38.6,29.1-33.9,55.7c4.7,26.7,27.5,44.9,50.9,40.8
			C222.9,160.7,238.1,135.7,233.4,109.1z"/>
		<path class="st7" d="M227.2,110.1c-4-22.4-23.1-37.8-42.9-34.3c-19.7,3.5-32.5,24.5-28.5,46.9c4,22.4,23.1,37.8,42.9,34.3
			S231.2,132.6,227.2,110.1z"/>
		<path class="st5" d="M227.2,110.1c4,22.4-8.8,43.4-28.5,46.9c-0.8,0.1-1.7,0.3-2.5,0.3c18.3-4.7,29.8-24.9,26-46.4
			c-3.8-21.5-21.5-36.5-40.3-34.7c0.8-0.2,1.7-0.4,2.5-0.5C204,72.3,223.3,87.7,227.2,110.1z"/>
		<path class="st5" d="M197,128.2c0.1,1,0.6,2,1.4,2.7c0.7,0.6,1.5,1,2.4,1.3c0.8,0.3,1.6,0.4,2.5,0.5c0.8,0,1.3,0.1,1.5,0
			c0.2,0,0.4,0.1,0.5,0.2c0.1,0,0.1,0.1,0.1,0.2c0,0.1,0,0.1,0,0.2c0,0.1-0.1,0.3-0.2,0.4c-0.1,0.1-0.3,0.2-0.5,0.3l-24.7,4.4
			c-0.2,0-0.4,0-0.6-0.1c-0.1-0.1-0.2-0.2-0.3-0.3c0-0.1,0-0.1,0-0.2c0-0.1,0-0.1,0.1-0.2c0.1-0.2,0.3-0.3,0.4-0.3
			c0.2,0,0.7-0.3,1.4-0.6c0.8-0.4,1.5-0.8,2.1-1.4c0.7-0.6,1.4-1.3,1.8-2.1c0.5-0.9,0.7-2,0.5-3l-3-17.1c-0.1-0.4-0.2-0.8-0.5-1
			c-0.3-0.3-0.7-0.4-1.1-0.4c-0.1,0-0.4,0-1,0l-1.9,0l-1.9,0c-0.6,0-0.9,0-1,0c-0.4,0-0.6-0.1-0.6-0.4c0-0.2,0.1-0.5,0.5-0.8
			c1.4-1,2.8-2.2,4.2-3.3c1.4-1.2,2.7-2.4,4-3.6c1.3-1.3,2.5-2.5,3.7-3.8c1.2-1.3,2.2-2.5,3.2-3.7c0.1-0.1,0.2-0.2,0.3-0.3
			s0.3-0.1,0.4-0.1c0.3,0,0.5,0.2,0.5,0.6L197,128.2z"/>
		<path class="st7" d="M200.1,125.6c0.1,1,0.6,1.9,1.3,2.6c0.7,0.6,1.4,1,2.3,1.3c0.7,0.3,1.5,0.4,2.2,0.5c0.7,0,1.2,0.1,1.4,0.1
			c0.2,0,0.3,0.1,0.5,0.2c0.1,0,0.1,0.1,0.1,0.2c0,0.1,0,0.1,0,0.2c0,0.1-0.1,0.3-0.2,0.4c-0.1,0.1-0.3,0.2-0.5,0.2l-22.5,4
			c-0.2,0-0.4,0-0.5-0.1c-0.1-0.1-0.2-0.2-0.3-0.3c0-0.1,0-0.1,0-0.2c0-0.1,0-0.1,0.1-0.2c0.1-0.2,0.2-0.3,0.4-0.3
			c0.2,0,0.6-0.2,1.3-0.5c0.7-0.3,1.4-0.7,1.9-1.2c0.7-0.5,1.3-1.2,1.7-2c0.5-0.9,0.6-1.9,0.4-2.9l-3-16.6c0-0.4-0.2-0.7-0.5-1
			c-0.3-0.3-0.6-0.4-1-0.4c-0.1,0-0.4,0-0.9,0l-1.7,0l-1.7,0c-0.5,0-0.8,0-0.9,0c-0.3,0-0.5-0.1-0.6-0.4c0-0.2,0.1-0.5,0.4-0.7
			c1.3-1,2.6-2.1,3.8-3.2c1.2-1.1,2.5-2.3,3.6-3.5c1.1-1.2,2.2-2.4,3.3-3.6c1.1-1.2,2-2.4,2.9-3.6c0.1-0.1,0.2-0.2,0.3-0.3
			c0.1-0.1,0.2-0.1,0.4-0.1c0.3,0,0.4,0.2,0.5,0.6L200.1,125.6z"/>
	</g>
</g>
<g>
	<defs>
		
			<rect id="SVGID_7_" x="403.4" y="166" transform="matrix(0.2588 -0.9659 0.9659 0.2588 119.9743 654.7009)" width="166.4" height="166.4"/>
	</defs>
	<clipPath id="SVGID_8_">
		<use xlink:href="#SVGID_7_"  style="overflow:visible;"/>
	</clipPath>
	<g class="st9">
		<path class="st5" d="M542.6,264.1c-9.8,36.5-38.9,61.6-69.4,62.9l-0.7,2.6l-16.9-4.5l-0.4-0.1c-36-10.1-55.8-53.1-44-96.4
			c11.7-43.3,50.3-70.6,86.5-61.1l0.5,0.1l16.9,4.5l-0.7,2.6C540,191.3,552.5,227.6,542.6,264.1z"/>
		<path class="st6" d="M561.3,269.1c11.7-43.5-9.8-87.1-47.9-97.4c-38.2-10.3-78.7,16.6-90.4,60.1c-11.7,43.5,9.7,87.1,48,97.4
			C509.1,339.5,549.5,312.6,561.3,269.1z"/>
		<path class="st7" d="M551.2,266.4c9.9-36.6-8.2-73.3-40.4-82c-32.2-8.7-66.3,14-76.1,50.6c-9.9,36.6,8.2,73.3,40.4,82
			C507.3,325.7,541.4,303,551.2,266.4z"/>
		<path class="st5" d="M551.3,266.4c-9.8,36.6-44,59.3-76.1,50.6c-1.4-0.4-2.7-0.8-4.1-1.3c30.9,5.8,62.6-16.5,72-51.5
			c9.4-35.1-6.7-70.2-36.3-80.8c1.4,0.3,2.8,0.6,4.1,0.9C543,193,561.1,229.8,551.3,266.4z"/>
		<path class="st5" d="M492.9,272.3c-0.5,1.7-0.4,3.4,0.3,5c0.7,1.4,1.6,2.7,2.7,3.7c1,0.9,2.1,1.8,3.4,2.4c1.1,0.6,1.9,1,2.2,1.1
			c0.3,0.1,0.5,0.4,0.7,0.6c0.1,0.1,0.1,0.2,0.1,0.3s0,0.2-0.1,0.3c-0.1,0.2-0.3,0.4-0.5,0.5c-0.3,0.1-0.6,0.1-0.9,0l-40.4-10.8
			c-0.3-0.1-0.6-0.2-0.8-0.5c-0.2-0.2-0.2-0.4-0.2-0.7c0-0.1,0.1-0.2,0.1-0.3c0.1-0.1,0.1-0.2,0.2-0.2c0.3-0.2,0.6-0.2,0.9-0.2
			c0.4,0.1,1.2,0.1,2.5,0.2c1.4,0,2.8-0.2,4.2-0.6c1.5-0.3,2.9-1,4.2-1.8c1.4-1,2.4-2.5,2.8-4.2l7.5-27.9c0.2-0.6,0.2-1.3-0.1-1.9
			c-0.2-0.6-0.7-1.1-1.3-1.4c-0.1,0-0.7-0.3-1.5-0.7L476,234l-2.8-1.3c-0.9-0.4-1.4-0.6-1.5-0.7c-0.6-0.3-0.8-0.6-0.7-1
			c0.1-0.4,0.5-0.6,1.2-0.8c2.9-0.6,5.8-1.3,8.7-2.1c2.9-0.8,5.8-1.7,8.6-2.6c2.8-1,5.6-2,8.2-3.1c2.6-1.1,5.1-2.2,7.5-3.4
			c0.2-0.1,0.4-0.2,0.7-0.2c0.2,0,0.5,0,0.7,0.1c0.4,0.2,0.6,0.6,0.4,1.2L492.9,272.3z"/>
		<path class="st7" d="M499.4,270.5c-0.5,1.6-0.4,3.3,0.2,4.9c0.6,1.3,1.4,2.5,2.5,3.6c0.9,0.9,1.9,1.7,3,2.3c1,0.6,1.7,0.9,2,1.1
			c0.3,0.1,0.5,0.3,0.6,0.6c0,0.1,0.1,0.2,0.1,0.3c0,0.1,0,0.2-0.1,0.3c-0.1,0.2-0.3,0.4-0.5,0.5c-0.3,0.1-0.6,0.1-0.9,0l-36.8-9.9
			c-0.3-0.1-0.6-0.2-0.7-0.5c-0.1-0.2-0.2-0.4-0.2-0.7c0-0.1,0.1-0.2,0.1-0.3c0.1-0.1,0.1-0.2,0.2-0.2c0.2-0.2,0.5-0.2,0.8-0.2
			c0.3,0.1,1.1,0.1,2.3,0.1c1.3,0,2.5-0.1,3.8-0.5c1.4-0.3,2.8-1,3.9-1.8c1.3-1,2.2-2.5,2.6-4.1l7.2-27.1c0.2-0.6,0.2-1.2-0.1-1.8
			c-0.2-0.6-0.6-1.1-1.2-1.4c-0.1,0-0.6-0.3-1.3-0.7l-2.6-1.2l-2.6-1.2c-0.8-0.4-1.2-0.6-1.4-0.7c-0.5-0.3-0.7-0.6-0.6-0.9
			c0.1-0.4,0.5-0.6,1.2-0.8c2.7-0.6,5.3-1.3,8-2.1c2.7-0.8,5.3-1.8,7.9-2.8c2.6-1,5.1-2,7.6-3.1c2.5-1.1,4.8-2.2,6.9-3.3
			c0.2-0.1,0.4-0.2,0.6-0.2c0.2,0,0.4,0,0.6,0.1c0.4,0.2,0.5,0.6,0.4,1.2L499.4,270.5z"/>
	</g>
</g>
<g>
	<defs>
		
			<rect id="SVGID_9_" x="466.7" y="378.2" transform="matrix(0.2396 -0.9709 0.9709 0.2396 -17.5127 790.1373)" width="58" height="56"/>
	</defs>
	<clipPath id="SVGID_10_">
		<use xlink:href="#SVGID_9_"  style="overflow:visible;"/>
	</clipPath>
	<g class="st10">
		<path class="st5" d="M514.6,410.9c-3.2,12.8-12.9,21.8-23.2,22.6l-0.2,0.9l-5.7-1.4l-0.2,0c-12.2-3.1-19-17.9-15.2-33.1
			c3.8-15.2,16.7-25,28.9-22.1l0.2,0l5.7,1.4l-0.2,0.9C513.5,385.6,517.8,398.1,514.6,410.9z"/>
		<path class="st6" d="M520.9,412.5c3.8-15.2-3.6-30.2-16.5-33.4c-12.9-3.2-26.5,6.5-30.2,21.8c-3.8,15.2,3.6,30.2,16.5,33.4
			C503.6,437.4,517.1,427.7,520.9,412.5z"/>
		<path class="st7" d="M517.5,411.6c3.2-12.8-3-25.4-13.9-28.1c-10.9-2.7-22.3,5.5-25.5,18.3c-3.2,12.8,3.1,25.4,13.9,28.1
			C502.9,432.6,514.3,424.4,517.5,411.6z"/>
		<path class="st5" d="M517.5,411.6c-3.2,12.8-14.6,21-25.5,18.3c-0.5-0.1-0.9-0.2-1.4-0.4c10.4,1.7,21-6.3,24.1-18.6
			c3.1-12.3-2.5-24.3-12.5-27.7c0.5,0.1,0.9,0.2,1.4,0.3C514.5,386.2,520.7,398.8,517.5,411.6z"/>
		<path class="st5" d="M497.9,414.2c-0.2,0.6-0.1,1.2,0.1,1.7c0.2,0.5,0.6,0.9,0.9,1.3c0.3,0.3,0.7,0.6,1.2,0.8
			c0.4,0.2,0.6,0.3,0.8,0.4c0.1,0,0.2,0.1,0.2,0.2c0,0,0,0.1,0,0.1c0,0,0,0.1,0,0.1c0,0.1-0.1,0.1-0.2,0.2c-0.1,0-0.2,0.1-0.3,0
			l-13.6-3.4c-0.1,0-0.2-0.1-0.3-0.2c0-0.1-0.1-0.1-0.1-0.2c0,0,0-0.1,0-0.1c0,0,0-0.1,0.1-0.1c0.1-0.1,0.2-0.1,0.3-0.1
			c0.1,0,0.4,0,0.8,0c0.5,0,0.9-0.1,1.4-0.2c0.5-0.1,1-0.4,1.4-0.7c0.5-0.4,0.8-0.9,1-1.5l2.4-9.8c0.1-0.2,0.1-0.5,0-0.7
			c-0.1-0.2-0.2-0.4-0.5-0.5c0,0-0.2-0.1-0.5-0.2l-0.9-0.4l-1-0.4c-0.3-0.1-0.5-0.2-0.5-0.2c-0.2-0.1-0.3-0.2-0.2-0.3
			c0-0.1,0.2-0.2,0.4-0.3c1-0.2,2-0.5,2.9-0.8c1-0.3,1.9-0.6,2.9-1c0.9-0.4,1.9-0.8,2.8-1.2c0.9-0.4,1.7-0.8,2.5-1.2
			c0.1,0,0.1-0.1,0.2-0.1c0.1,0,0.2,0,0.2,0c0.2,0.1,0.2,0.2,0.2,0.4L497.9,414.2z"/>
		<path class="st7" d="M500.1,413.6c-0.2,0.6-0.1,1.2,0.1,1.7c0.2,0.5,0.5,0.9,0.8,1.2c0.3,0.3,0.7,0.6,1,0.8
			c0.3,0.2,0.6,0.3,0.7,0.3c0.1,0,0.2,0.1,0.2,0.2c0,0,0,0.1,0,0.1c0,0,0,0.1,0,0.1c0,0.1-0.1,0.1-0.2,0.2c-0.1,0-0.2,0.1-0.3,0
			l-12.5-3.1c-0.1,0-0.2-0.1-0.2-0.2c0-0.1-0.1-0.1-0.1-0.2c0,0,0-0.1,0-0.1c0,0,0-0.1,0.1-0.1c0.1-0.1,0.2-0.1,0.3-0.1
			c0.1,0,0.4,0,0.8,0c0.4,0,0.9-0.1,1.3-0.2c0.5-0.1,0.9-0.4,1.3-0.7c0.4-0.4,0.7-0.9,0.9-1.5l2.3-9.5c0.1-0.2,0.1-0.4,0-0.6
			c-0.1-0.2-0.2-0.4-0.4-0.5c0,0-0.2-0.1-0.5-0.2l-0.9-0.4l-0.9-0.4c-0.3-0.1-0.4-0.2-0.5-0.2c-0.2-0.1-0.2-0.2-0.2-0.3
			c0-0.1,0.2-0.2,0.4-0.3c0.9-0.2,1.8-0.5,2.7-0.8c0.9-0.3,1.8-0.7,2.7-1c0.9-0.4,1.7-0.8,2.5-1.2c0.8-0.4,1.6-0.8,2.3-1.2
			c0.1,0,0.1-0.1,0.2-0.1c0.1,0,0.2,0,0.2,0c0.1,0.1,0.2,0.2,0.1,0.4L500.1,413.6z"/>
	</g>
</g>
<g>
	<path class="st5" d="M320.5,228.2c0,7.7-4.4,14.2-10.4,16.1v0.6h-3.6h-0.1c-7.6-0.1-13.8-7.5-13.8-16.7c0-9.2,6.2-16.6,13.8-16.6
		h0.1h3.6v0.6C316.2,214,320.5,220.5,320.5,228.2z"/>
	<path class="st6" d="M324.5,228.2c0-9.2-6.5-16.7-14.6-16.7c-8.1,0-14.6,7.4-14.7,16.6c0,9.2,6.5,16.7,14.6,16.7
		C317.9,244.9,324.4,237.4,324.5,228.2z"/>
	<path class="st7" d="M322.3,228.2c0-7.7-5.5-14-12.3-14c-6.8,0-12.3,6.3-12.3,14c0,7.7,5.5,14,12.3,14
		C316.8,242.2,322.3,236,322.3,228.2z"/>
	<path class="st5" d="M322.3,228.2c0,7.7-5.5,14-12.3,14c-0.3,0-0.6,0-0.9,0c6.4-0.5,11.5-6.6,11.5-14c0-7.4-5-13.5-11.4-14
		c0.3,0,0.6,0,0.9,0C316.8,214.2,322.4,220.5,322.3,228.2z"/>
	<path class="st5" d="M311.1,232.5c0,0.4,0.1,0.7,0.3,1c0.2,0.2,0.5,0.4,0.7,0.6c0.2,0.1,0.5,0.2,0.8,0.3c0.3,0.1,0.4,0.1,0.5,0.1
		c0.1,0,0.1,0,0.2,0.1c0,0,0,0,0,0.1c0,0,0,0,0,0.1c0,0,0,0.1-0.1,0.1c-0.1,0-0.1,0.1-0.2,0.1h-8.5c-0.1,0-0.1,0-0.2-0.1
		c0,0-0.1-0.1-0.1-0.1c0,0,0,0,0-0.1c0,0,0,0,0-0.1c0,0,0.1-0.1,0.2-0.1c0.1,0,0.2,0,0.5-0.1c0.3-0.1,0.5-0.2,0.8-0.3
		c0.3-0.1,0.5-0.3,0.7-0.6c0.2-0.3,0.4-0.6,0.3-1v-5.9c0-0.1,0-0.3-0.1-0.4c-0.1-0.1-0.2-0.2-0.3-0.2c0,0-0.1,0-0.3-0.1l-0.6-0.1
		l-0.6-0.1c-0.2,0-0.3-0.1-0.3-0.1c-0.1,0-0.2-0.1-0.2-0.2c0-0.1,0.1-0.2,0.2-0.2c0.5-0.3,1.1-0.6,1.6-0.9c0.5-0.3,1.1-0.6,1.6-1
		c0.5-0.3,1-0.7,1.5-1.1c0.5-0.4,0.9-0.7,1.3-1.1c0,0,0.1-0.1,0.1-0.1c0,0,0.1,0,0.1,0c0.1,0,0.1,0.1,0.1,0.2L311.1,232.5z"/>
	<path class="st7" d="M312.3,231.8c0,0.3,0.1,0.7,0.3,0.9c0.2,0.2,0.4,0.4,0.7,0.6c0.2,0.1,0.5,0.2,0.7,0.3c0.2,0.1,0.4,0.1,0.5,0.1
		c0.1,0,0.1,0,0.2,0.1c0,0,0,0,0,0.1c0,0,0,0,0,0.1c0,0,0,0.1-0.1,0.1c0,0-0.1,0.1-0.2,0.1h-7.8c-0.1,0-0.1,0-0.2-0.1
		c0,0-0.1-0.1-0.1-0.1c0,0,0,0,0-0.1c0,0,0,0,0-0.1c0,0,0.1-0.1,0.2-0.1c0.1,0,0.2,0,0.5-0.1c0.3-0.1,0.5-0.2,0.7-0.3
		c0.3-0.1,0.5-0.3,0.7-0.6c0.2-0.3,0.3-0.6,0.3-0.9v-5.7c0-0.1,0-0.3-0.1-0.4c-0.1-0.1-0.2-0.2-0.3-0.2c0,0-0.1,0-0.3-0.1l-0.6-0.1
		l-0.6-0.1c-0.2,0-0.3-0.1-0.3-0.1c-0.1,0-0.2-0.1-0.2-0.2s0.1-0.2,0.2-0.2c0.5-0.3,1-0.5,1.5-0.8s1-0.6,1.4-1
		c0.5-0.3,0.9-0.7,1.3-1c0.4-0.3,0.8-0.7,1.2-1c0,0,0.1-0.1,0.1-0.1c0,0,0.1,0,0.1,0c0.1,0,0.1,0.1,0.1,0.2L312.3,231.8z"/>
</g>
<g>
	<defs>
		
			<rect id="SVGID_11_" x="359.7" y="44.3" transform="matrix(0.2822 -0.9594 0.9594 0.2822 209.6821 418.813)" width="50" height="50"/>
	</defs>
	<clipPath id="SVGID_12_">
		<use xlink:href="#SVGID_11_"  style="overflow:visible;"/>
	</clipPath>
	<g class="st11">
		<path class="st5" d="M401.4,74.2c-3.2,10.9-12.1,18.2-21.3,18.4l-0.2,0.8l-5-1.5l-0.1,0c-10.8-3.3-16.4-16.3-12.5-29.3
			c3.8-12.9,15.6-20.8,26.4-17.7l0.1,0l5,1.5l-0.2,0.8C401.2,52.3,404.6,63.3,401.4,74.2z"/>
		<path class="st6" d="M407,75.8c3.8-13-2.3-26.2-13.7-29.6c-11.4-3.4-23.8,4.4-27.6,17.4c-3.8,13,2.3,26.2,13.7,29.6
			C390.8,96.6,403.2,88.8,407,75.8z"/>
		<path class="st7" d="M404,74.9c3.2-10.9-1.9-22.1-11.5-24.9c-9.6-2.8-20,3.7-23.2,14.6c-3.2,10.9,1.9,22.1,11.5,24.9
			C390.4,92.4,400.8,85.9,404,74.9z"/>
		<path class="st5" d="M404,74.9c-3.2,10.9-13.6,17.5-23.2,14.6c-0.4-0.1-0.8-0.3-1.2-0.4c9.2,2,18.9-4.5,22-15
			c3.1-10.5-1.5-21.1-10.3-24.5c0.4,0.1,0.8,0.2,1.2,0.3C402.1,52.8,407.2,64,404,74.9z"/>
		<path class="st5" d="M386.4,76.3c-0.2,0.5-0.2,1,0.1,1.5c0.2,0.4,0.4,0.8,0.8,1.1c0.3,0.3,0.6,0.5,1,0.8c0.3,0.2,0.6,0.3,0.7,0.4
			c0.1,0,0.2,0.1,0.2,0.2c0,0,0,0.1,0,0.1s0,0.1,0,0.1c0,0.1-0.1,0.1-0.2,0.1c-0.1,0-0.2,0-0.3,0l-12-3.5c-0.1,0-0.2-0.1-0.2-0.2
			c0-0.1-0.1-0.1-0.1-0.2c0,0,0-0.1,0-0.1c0,0,0-0.1,0.1-0.1c0.1,0,0.2-0.1,0.3-0.1c0.1,0,0.4,0,0.8,0.1c0.4,0,0.8,0,1.2-0.1
			c0.5-0.1,0.9-0.3,1.3-0.5c0.4-0.3,0.8-0.7,0.9-1.2l2.4-8.3c0.1-0.2,0.1-0.4,0-0.6c-0.1-0.2-0.2-0.3-0.4-0.4c0,0-0.2-0.1-0.5-0.2
			l-0.8-0.4l-0.8-0.4c-0.3-0.1-0.4-0.2-0.5-0.2c-0.2-0.1-0.2-0.2-0.2-0.3c0-0.1,0.2-0.2,0.4-0.2c0.9-0.2,1.8-0.3,2.6-0.6
			c0.9-0.2,1.8-0.5,2.6-0.7c0.9-0.3,1.7-0.6,2.5-0.9c0.8-0.3,1.6-0.6,2.3-1c0.1,0,0.1-0.1,0.2-0.1c0.1,0,0.1,0,0.2,0
			c0.1,0.1,0.2,0.2,0.1,0.4L386.4,76.3z"/>
		<path class="st7" d="M388.4,75.8c-0.2,0.5-0.2,1,0,1.5c0.2,0.4,0.4,0.8,0.7,1.1c0.3,0.3,0.6,0.5,0.9,0.7c0.3,0.2,0.5,0.3,0.6,0.3
			c0.1,0,0.1,0.1,0.2,0.2c0,0,0,0.1,0,0.1c0,0,0,0.1,0,0.1c0,0.1-0.1,0.1-0.2,0.1c-0.1,0-0.2,0-0.3,0l-11-3.2
			c-0.1,0-0.2-0.1-0.2-0.1c0-0.1-0.1-0.1-0.1-0.2c0,0,0-0.1,0-0.1c0,0,0-0.1,0.1-0.1c0.1,0,0.2-0.1,0.2-0.1c0.1,0,0.3,0,0.7,0
			c0.4,0,0.8,0,1.1-0.1c0.4-0.1,0.8-0.3,1.2-0.5c0.4-0.3,0.7-0.7,0.8-1.2l2.4-8.1c0.1-0.2,0.1-0.4,0-0.5c-0.1-0.2-0.2-0.3-0.4-0.4
			c0,0-0.2-0.1-0.4-0.2l-0.8-0.4l-0.8-0.4c-0.2-0.1-0.4-0.2-0.4-0.2c-0.2-0.1-0.2-0.2-0.2-0.3c0-0.1,0.1-0.2,0.3-0.2
			c0.8-0.2,1.6-0.4,2.4-0.6c0.8-0.2,1.6-0.5,2.4-0.8c0.8-0.3,1.6-0.6,2.3-0.9c0.8-0.3,1.4-0.6,2.1-0.9c0.1,0,0.1-0.1,0.2-0.1
			c0.1,0,0.1,0,0.2,0c0.1,0.1,0.2,0.2,0.1,0.4L388.4,75.8z"/>
	</g>
</g>
<g>
	<defs>
		
			<rect id="SVGID_13_" x="315.3" y="447.9" transform="matrix(0.2822 -0.9594 0.9594 0.2822 -206.5862 646.4734)" width="26.8" height="26.8"/>
	</defs>
	<clipPath id="SVGID_14_">
		<use xlink:href="#SVGID_13_"  style="overflow:visible;"/>
	</clipPath>
	<g class="st12">
		<path class="st5" d="M337.7,463.9c-1.7,5.8-6.5,9.8-11.4,9.9l-0.1,0.4l-2.7-0.8l-0.1,0c-5.8-1.8-8.8-8.8-6.7-15.7
			c2.1-6.9,8.4-11.2,14.2-9.5l0.1,0l2.7,0.8l-0.1,0.4C337.5,452.2,339.4,458.1,337.7,463.9z"/>
		<path class="st6" d="M340.7,464.8c2.1-7-1.2-14.1-7.3-15.9c-6.1-1.8-12.7,2.4-14.8,9.3c-2.1,7,1.2,14.1,7.3,15.9
			C332,475.9,338.6,471.7,340.7,464.8z"/>
		<path class="st7" d="M339.1,464.3c1.7-5.9-1-11.8-6.2-13.4c-5.1-1.5-10.7,2-12.5,7.8c-1.7,5.9,1,11.8,6.2,13.4
			C331.7,473.7,337.3,470.2,339.1,464.3z"/>
		<path class="st5" d="M339.1,464.3c-1.7,5.9-7.3,9.4-12.5,7.8c-0.2-0.1-0.4-0.1-0.6-0.2c5,1.1,10.1-2.4,11.8-8
			c1.7-5.6-0.8-11.3-5.5-13.1c0.2,0,0.4,0.1,0.7,0.2C338,452.5,340.8,458.5,339.1,464.3z"/>
		<path class="st5" d="M329.6,465c-0.1,0.3-0.1,0.6,0,0.8c0.1,0.2,0.2,0.4,0.4,0.6c0.2,0.2,0.3,0.3,0.5,0.4c0.2,0.1,0.3,0.2,0.4,0.2
			c0,0,0.1,0.1,0.1,0.1c0,0,0,0,0,0.1c0,0,0,0,0,0.1c0,0-0.1,0.1-0.1,0.1c0,0-0.1,0-0.2,0l-6.5-1.9c-0.1,0-0.1,0-0.1-0.1
			c0,0,0-0.1,0-0.1c0,0,0,0,0-0.1c0,0,0,0,0,0c0,0,0.1,0,0.1,0c0.1,0,0.2,0,0.4,0c0.2,0,0.5,0,0.7-0.1c0.2,0,0.5-0.1,0.7-0.3
			c0.2-0.2,0.4-0.4,0.5-0.7l1.3-4.5c0-0.1,0-0.2,0-0.3c0-0.1-0.1-0.2-0.2-0.2c0,0-0.1,0-0.2-0.1l-0.4-0.2l-0.5-0.2
			c-0.1-0.1-0.2-0.1-0.2-0.1c-0.1,0-0.1-0.1-0.1-0.2c0-0.1,0.1-0.1,0.2-0.1c0.5-0.1,0.9-0.2,1.4-0.3c0.5-0.1,0.9-0.2,1.4-0.4
			c0.5-0.1,0.9-0.3,1.3-0.5c0.4-0.2,0.8-0.3,1.2-0.5c0,0,0.1,0,0.1,0c0,0,0.1,0,0.1,0c0.1,0,0.1,0.1,0.1,0.2L329.6,465z"/>
		<path class="st7" d="M330.7,464.8c-0.1,0.3-0.1,0.5,0,0.8c0.1,0.2,0.2,0.4,0.4,0.6c0.1,0.1,0.3,0.3,0.5,0.4
			c0.2,0.1,0.3,0.2,0.3,0.2c0,0,0.1,0.1,0.1,0.1c0,0,0,0,0,0.1c0,0,0,0,0,0.1c0,0,0,0.1-0.1,0.1c0,0-0.1,0-0.1,0l-5.9-1.7
			c0,0-0.1,0-0.1-0.1c0,0,0-0.1,0-0.1c0,0,0,0,0,0c0,0,0,0,0,0c0,0,0.1,0,0.1,0c0.1,0,0.2,0,0.4,0c0.2,0,0.4,0,0.6-0.1
			c0.2,0,0.4-0.1,0.6-0.3c0.2-0.2,0.4-0.4,0.4-0.7l1.3-4.3c0-0.1,0-0.2,0-0.3c0-0.1-0.1-0.2-0.2-0.2c0,0-0.1,0-0.2-0.1l-0.4-0.2
			l-0.4-0.2c-0.1-0.1-0.2-0.1-0.2-0.1c-0.1,0-0.1-0.1-0.1-0.2c0-0.1,0.1-0.1,0.2-0.1c0.4-0.1,0.9-0.2,1.3-0.3
			c0.4-0.1,0.9-0.3,1.3-0.4c0.4-0.2,0.8-0.3,1.2-0.5c0.4-0.2,0.8-0.3,1.1-0.5c0,0,0.1,0,0.1,0c0,0,0.1,0,0.1,0
			c0.1,0,0.1,0.1,0.1,0.2L330.7,464.8z"/>
	</g>
</g>
<g>
	<defs>
		<rect id="SVGID_15_" x="157" y="63" width="516" height="204"/>
	</defs>
	<clipPath id="SVGID_16_">
		<use xlink:href="#SVGID_15_"  style="overflow:visible;"/>
	</clipPath>
	<g class="st13">
		<g class="st1">
			<path class="st2" d="M673,128.8c0,0-180.5-8.1-239.4-15.9l34-0.6c0,0,19-44.9,48.6-43.7c29.6,1.2,41.2,27.8,41.2,27.8
				s19.6-6.2,26.2,16.8c0,0,13.1-13.7,23.4,7.2L673,128.8z"/>
			<path class="st2" d="M433.9,112.9c0,0,56.4-0.9,109.8,2.5c53.3,3.4,129.4,13.4,129.4,13.4S500.6,121.6,433.9,112.9z"/>
			<path class="st3" d="M565.1,113.2c0,0-10-41.8-45.2-44.3c-35.2-2.5-52.1,43-52.1,43S539.9,117.6,565.1,113.2z"/>
			<path class="st3" d="M559.8,96.7c0,0,20.3-5.9,25,21.2c-4.4-0.3-8.4-1.2-12.5-2.5C569.2,113.5,559.8,96.7,559.8,96.7z"/>
			<path class="st3" d="M584.4,112.3c0,0,6.6-5,12.8-2.5c4.1,1.9,7.5,5.6,9,9.7c-3.7,0-7.8-0.3-11.5-0.9
				C590.7,117.9,587.3,115.4,584.4,112.3z"/>
			<path class="st3" d="M472.5,102.6c0,0,12.8,4.7,50.2,9.4c37.4,4.7,40.5-4.1,40.5-4.1l-5.6-11.9h0.6c0,0,8.4,15,14.7,17.8
				c6.2,2.8,34,6.6,34,6.6l-16.8-0.6c0,0-80.1-7.2-122.2-7.2L472.5,102.6z"/>
		</g>
		<g class="st1">
			<path class="st2" d="M520.2,95.8L415.2,92l20.9-2.5c0,0,14.6-20.3,26.8-11.9c0,0,2.5-13.4,16.2-14.7
				c13.7-1.2,18.1,29.9,18.1,29.9s1.6-3.7,5.9,0L520.2,95.8z"/>
			<path class="st2" d="M520.2,95.8c0,0-58.3-9-104.4-3.7L520.2,95.8z"/>
			<path class="st3" d="M475,88c0,0-7.8-12.5-19.6-11.5C443.5,77.3,436,89.8,436,89.8S464.1,87.6,475,88z"/>
			<path class="st3" d="M463.8,76.4c0,0,5.9-14.3,17.1-12.5c11.2,1.9,15.3,23.7,15.6,27.8c0,0-11.8-0.9-15.3-2.8
				C477.8,87,469.1,77.7,463.8,76.4z"/>
		</g>
	</g>
</g>
</svg>
