<svg id="Layer_1" data-name="Layer 1" xmlns="http://www.w3.org/2000/svg" viewBox="0 0 24 24"><defs><style>.cls-1{fill:#fff;}.cls-2{fill:#84462d;}.cls-3{fill:#0c7367;}.cls-4{fill:#fcf1e2;}</style></defs><title>soothing</title><rect class="cls-1" x="3.84" y="8.46" width="14.07" height="9.28"/><g id="Multicolor"><path class="cls-2" d="M11.77,9.06h-.62a8.12,8.12,0,0,0-1,1.08,16.4,16.4,0,0,0-2.65,6.39,8.61,8.61,0,0,1,3.41-.73,19.55,19.55,0,0,1,.77-5.38,5.22,5.22,0,0,1,.46-1A4,4,0,0,0,11.77,9.06Z"/><path class="cls-3" d="M11.77,9.06a7.36,7.36,0,0,0-4.36,1.09,3.29,3.29,0,0,1,2.18-2.4,4.15,4.15,0,0,0-3.93.87c1.4-2.5,3.32-3,5.67-1.75-.15-.71-.88-1.28-2-1.75,1.72-.09,2.93.31,3.27,1.53a2.13,2.13,0,0,1,2.62,0,2,2,0,0,0-1.75.87C15.29,7.92,16,9.25,16.14,11a4.41,4.41,0,0,0-2.62-1.75,3.28,3.28,0,0,1,0,2.62A5.16,5.16,0,0,0,11.77,9.06Z"/><path class="cls-4" d="M12,15.85h-.27l-.55,0h-.52l-.54,0-.52.07L9.1,16l-.53.14-.47.14c-.18.06-.35.14-.52.22s-.29.12-.42.19-.35.21-.52.32-.25.15-.36.24a6.25,6.25,0,0,0-.52.47c-.09.08-.18.16-.27.25a6.37,6.37,0,0,0-.69.88h14C18,17.47,15.06,16.08,12,15.85Z"/></g></svg>