<svg id="Capa_1" data-name="Capa 1" xmlns="http://www.w3.org/2000/svg" xmlns:xlink="http://www.w3.org/1999/xlink" viewBox="0 0 277.43 316.29"><defs><style>.cls-1{fill:#ffb125;}.cls-2{fill:url(#linear-gradient);}.cls-3{fill:url(#linear-gradient-2);}.cls-4{fill:url(#linear-gradient-3);}</style><linearGradient id="linear-gradient" x1="179.35" y1="274.64" x2="332.65" y2="274.64" gradientUnits="userSpaceOnUse"><stop offset="0" stop-color="#fed130"/><stop offset="1" stop-color="#fec030"/></linearGradient><linearGradient id="linear-gradient-2" x1="169.38" y1="138.05" x2="342.62" y2="138.05" gradientUnits="userSpaceOnUse"><stop offset="0" stop-color="#ffb125"/><stop offset="1" stop-color="#ffa225"/></linearGradient><linearGradient id="linear-gradient-3" x1="165.9" y1="419.48" x2="346.78" y2="419.48" xlink:href="#linear-gradient-2"/></defs><title>awards</title><path class="cls-1" d="M212.09,296a95.06,95.06,0,0,1-94.8-95.16V174.72a11.29,11.29,0,0,1,11.29-11.29h0l68.41.15A7.73,7.73,0,0,1,197,179h0l-64.24-.14v22a79.54,79.54,0,0,0,92,78.69l2.4-.4a7.73,7.73,0,1,1,2.67,15.22l-2.59.44A94.41,94.41,0,0,1,212.09,296Z" transform="translate(-117.29 -124.28)"/><path class="cls-1" d="M299.91,296a94.55,94.55,0,0,1-15.13-1.22l-2.59-.44a7.73,7.73,0,0,1,2.67-15.22l2.4.4a79.54,79.54,0,0,0,92-78.69v-22L315,179h0a7.73,7.73,0,0,1,0-15.45l68.41-.15h0a11.29,11.29,0,0,1,11.28,11.29v26.13A95.06,95.06,0,0,1,299.91,296Z" transform="translate(-117.29 -124.28)"/><path class="cls-2" d="M332.65,208.7V141.29H179.35V208.7a125.51,125.51,0,0,0,51.06,101,43.09,43.09,0,0,0,10.49,5.68C237.4,342.3,228.3,378.69,205.2,408H306.8c-23.1-29.3-32.2-65.69-35.71-92.57a43.09,43.09,0,0,0,10.49-5.68A125.51,125.51,0,0,0,332.65,208.7Z" transform="translate(-117.29 -124.28)"/><path class="cls-3" d="M338.14,151.82H173.86a4.48,4.48,0,0,1-4.48-4.48V128.76a4.48,4.48,0,0,1,4.48-4.48H338.14a4.48,4.48,0,0,1,4.48,4.48v18.58A4.48,4.48,0,0,1,338.14,151.82Z" transform="translate(-117.29 -124.28)"/><path class="cls-4" d="M343.16,440.57H169.52a3.62,3.62,0,0,1-3.39-4.87L179,400.76a3.61,3.61,0,0,1,3.39-2.36H330.27a3.61,3.61,0,0,1,3.39,2.36l12.89,34.94A3.62,3.62,0,0,1,343.16,440.57Z" transform="translate(-117.29 -124.28)"/></svg>