<svg id="Layer_1" data-name="Layer 1" xmlns="http://www.w3.org/2000/svg" viewBox="0 0 100 100"><defs><style>.cls-1{fill:#2f2e3c;}.cls-2{fill:#20202b;}.cls-3{fill:#8fa3a9;}.cls-4{fill:#ec1422;}.cls-5{fill:#525464;}.cls-6{fill:#f49f00;}</style></defs><title>Icons</title><path class="cls-1" d="M80.74,59.42A40.37,40.37,0,1,1,0,59.42a41.06,41.06,0,0,1,1-8.78A40.39,40.39,0,0,1,40.37,19,40,40,0,0,1,60,24.14a.06.06,0,0,1,.05,0l15,14.6A40.09,40.09,0,0,1,80.74,59.42Z"/><path class="cls-2" d="M69.52,87.35A40.37,40.37,0,0,1,0,59.42a41.06,41.06,0,0,1,1-8.78A54.66,54.66,0,0,0,69.52,87.35Z"/><path class="cls-2" d="M79.76,34.06l-4.7,4.7h0c-1.52,1.52-6.07-.57-10.16-4.67s-6.19-8.65-4.67-10.16l-.22.22,4.92-4.92"/><ellipse class="cls-1" cx="72.34" cy="26.64" rx="3.89" ry="10.49" transform="translate(2.35 58.95) rotate(-45)"/><path class="cls-3" d="M84.84,16.27,73.4,27.71a1.5,1.5,0,0,1-2.13-2.13l5.41-5.41h0l6-6a1.5,1.5,0,0,1,2.13,2.13Z"/><path class="cls-4" d="M84.84,16.27l-6,6a1.5,1.5,0,0,1-2.14-2.12h0l6-6a1.5,1.5,0,0,1,2.13,2.13Z"/><path class="cls-5" d="M33,26.56c-9,1.4,16.85,21,31.63,28.43a3.3,3.3,0,0,0,4.75-2.64A21.92,21.92,0,0,0,67.7,41.9C64.59,34.2,46.9,24.35,33,26.56Z"/><path class="cls-6" d="M84.2,10.14a1.5,1.5,0,0,1-1.5-1.5V1.5a1.5,1.5,0,1,1,3,0V8.63A1.5,1.5,0,0,1,84.2,10.14Z"/><path class="cls-6" d="M84.2,31.3a1.5,1.5,0,0,1-1.5-1.5V22.67a1.5,1.5,0,1,1,3,0V29.8A1.5,1.5,0,0,1,84.2,31.3Z"/><path class="cls-6" d="M79.69,11.78a1.5,1.5,0,0,1-1.15-.54L74,5.78a1.5,1.5,0,1,1,2.3-1.93l4.58,5.46a1.5,1.5,0,0,1-1.15,2.47Z"/><path class="cls-6" d="M93.29,28a1.5,1.5,0,0,1-1.15-.54L87.56,22a1.5,1.5,0,1,1,2.3-1.93l4.58,5.46A1.5,1.5,0,0,1,93.29,28Z"/><path class="cls-6" d="M77.29,15.94l-.26,0-7-1.24a1.5,1.5,0,1,1,.52-3l7,1.24a1.5,1.5,0,0,1-.26,3Z"/><path class="cls-6" d="M98.13,19.61l-.26,0-7-1.24a1.5,1.5,0,1,1,.52-3l7,1.24a1.5,1.5,0,0,1-.26,3Z"/><path class="cls-6" d="M90.28,13.65a1.5,1.5,0,0,1-.75-2.81l6.17-3.56a1.5,1.5,0,1,1,1.5,2.61L91,13.44A1.5,1.5,0,0,1,90.28,13.65Z"/></svg>