<svg id="Layer_1" data-name="Layer 1" xmlns="http://www.w3.org/2000/svg" viewBox="0 0 100 100"><defs><style>.cls-1{fill:#f29200;}.cls-2{fill:#ffd130;}.cls-3{fill:#faba02;}</style></defs><title>icons</title><path class="cls-1" d="M84.82,49.94c0,22.71-13,41.79-30.5,47.32v1.63l-10.5,0h-.27C21.07,98.66,2.92,76.76,3,49.8S21.23,1,43.71.88H44l10.5,0V2.52C72,8.09,84.86,27.22,84.82,49.94Z"/><path class="cls-1" d="M41.85.87h0Z"/><path class="cls-1" d="M41.69,98.87h0Z"/><ellipse class="cls-2" cx="53.38" cy="49.89" rx="49" ry="43.05" transform="translate(3.41 103.19) rotate(-89.91)"/><ellipse class="cls-3" cx="53.95" cy="49.89" rx="41.26" ry="36.25" transform="translate(3.97 103.76) rotate(-89.91)"/><path class="cls-1" d="M90.2,49.95c0,22.79-16.3,41.23-36.32,41.2q-1.28,0-2.55-.11c18.84-1.45,33.74-19.29,33.77-41.1S70.3,10.24,51.47,8.72q1.27-.1,2.55-.1C74,8.66,90.24,27.16,90.2,49.95Z"/><path class="cls-1" d="M57.26,62.47a4.22,4.22,0,0,0,.94,2.88,7.29,7.29,0,0,0,2.15,1.73,10,10,0,0,0,2.33.89c.75.18,1.24.28,1.47.31a.89.89,0,0,1,.49.26.44.44,0,0,1,.11.39.66.66,0,0,1-.24.36.81.81,0,0,1-.54.16l-25.1,0a.81.81,0,0,1-.54-.16.65.65,0,0,1-.24-.36.44.44,0,0,1,.11-.38.9.9,0,0,1,.5-.26c.23,0,.72-.13,1.47-.3A10,10,0,0,0,42.5,67a7.27,7.27,0,0,0,2.16-1.72,4.22,4.22,0,0,0,1-2.87l0-17.33a1.66,1.66,0,0,0-1.33-1.7q-.13,0-1-.18l-1.83-.33-1.85-.33c-.57-.09-.9-.16-1-.18-.37-.08-.56-.24-.56-.47s.2-.45.6-.67q2.38-1.17,4.73-2.56T48,35.79q2.23-1.51,4.27-3.09t3.82-3.11a.86.86,0,0,1,.78-.24c.29.06.43.27.43.65Z"/><path class="cls-3" d="M60.75,60.41a4.28,4.28,0,0,0,.86,2.79,6.74,6.74,0,0,0,2,1.68,8.8,8.8,0,0,0,2.12.87c.68.17,1.13.27,1.34.3a.8.8,0,0,1,.45.26.45.45,0,0,1,.1.37.64.64,0,0,1-.22.35.71.71,0,0,1-.49.16l-22.9,0a.71.71,0,0,1-.49-.16.64.64,0,0,1-.21-.35.45.45,0,0,1,.1-.37.8.8,0,0,1,.45-.26c.21,0,.65-.12,1.34-.29a8.75,8.75,0,0,0,2.13-.86,6.73,6.73,0,0,0,2-1.67,4.28,4.28,0,0,0,.87-2.79l0-16.84a1.6,1.6,0,0,0-1.22-1.65q-.11,0-.88-.18l-1.67-.32-1.69-.32c-.52-.09-.82-.15-.9-.18-.34-.08-.51-.23-.51-.45s.18-.44.55-.65q2.17-1.14,4.31-2.49t4.17-2.83q2-1.47,3.9-3t3.49-3a.75.75,0,0,1,.71-.23c.27.05.39.26.39.63Z"/></svg>