<svg id="Layer_1" data-name="Layer 1" xmlns="http://www.w3.org/2000/svg" viewBox="0 0 100 100"><defs><style>.cls-1{fill:#006cfa;}.cls-2{fill:#003983;}</style></defs><title>icons</title><path class="cls-1" d="M82.8,51V83.85a5.4,5.4,0,0,1-5.4,5.4H63a5.4,5.4,0,0,1-5.4-5.4v-14a5.4,5.4,0,0,0-5.4-5.4H49a5.4,5.4,0,0,0-5.4,5.4v14a5.4,5.4,0,0,1-5.4,5.4H22.6a5.4,5.4,0,0,1-5.4-5.4V51a5.4,5.4,0,0,1,2.11-4.28l27.4-21.08a5.4,5.4,0,0,1,6.58,0l27.4,21.08A5.4,5.4,0,0,1,82.8,51Z"/><path class="cls-2" d="M96.34,48,89,57.45a2.2,2.2,0,0,1-3.08.4L51.34,31.23a2.2,2.2,0,0,0-2.68,0L14.05,57.85a2.2,2.2,0,0,1-3.08-.4L3.66,48a2.2,2.2,0,0,1,.4-3.08l44.6-34.31a2.2,2.2,0,0,1,2.68,0L66.82,22.47a2.2,2.2,0,0,0,3.54-1.74h0a2.2,2.2,0,0,1,2.2-2.2H82a2.2,2.2,0,0,1,2.2,2.2v14A2.2,2.2,0,0,0,85,36.48l10.91,8.39A2.2,2.2,0,0,1,96.34,48Z"/></svg>