<svg id="Capa_1" data-name="Capa 1" xmlns="http://www.w3.org/2000/svg" viewBox="0 0 393 262"><defs><style>.cls-1{fill:#1e88e5;}.cls-2{fill:#64b5f6;}.cls-3{fill:#2196f3;}</style></defs><title>message</title><path class="cls-1" d="M443,372.26A40.94,40.94,0,0,1,411.56,387H100.44A40.94,40.94,0,0,1,69,372.26L219.16,247.16l15.56,10.64a37.48,37.48,0,0,0,42.58,0l15.56-10.64Z" transform="translate(-59.5 -125)"/><path class="cls-2" d="M445.3,142.85,292.84,247.16,277.29,257.8a37.48,37.48,0,0,1-42.58,0l-15.56-10.64L66.71,142.69A41.12,41.12,0,0,1,100.44,125H411.56A40.4,40.4,0,0,1,445.3,142.85Z" transform="translate(-59.5 -125)"/><path class="cls-3" d="M219.16,247.16,69,372.26a40.75,40.75,0,0,1-9.5-26.2V165.94a40.34,40.34,0,0,1,7.21-23.25Z" transform="translate(-59.5 -125)"/><path class="cls-3" d="M452.5,165.94V346.06a40.76,40.76,0,0,1-9.5,26.2L292.84,247.16,445.3,142.85A40.21,40.21,0,0,1,452.5,165.94Z" transform="translate(-59.5 -125)"/></svg>