<svg id="Capa_1" data-name="Capa 1" xmlns="http://www.w3.org/2000/svg" xmlns:xlink="http://www.w3.org/1999/xlink" viewBox="0 0 470.15 512"><defs><style>.cls-1{fill:url(#linear-gradient);}.cls-2{fill:url(#linear-gradient-2);}.cls-3{fill:url(#linear-gradient-3);}.cls-4{fill:url(#linear-gradient-4);}.cls-5{fill:url(#linear-gradient-5);}</style><linearGradient id="linear-gradient" x1="238.13" y1="2.03" x2="330.91" y2="156.66" gradientTransform="translate(-28.06 437.12) scale(1.07)" gradientUnits="userSpaceOnUse"><stop offset="0" stop-color="#ffc200"/><stop offset="0.27" stop-color="#fb0"/><stop offset="0.66" stop-color="#ffa801"/><stop offset="1" stop-color="#ff9102"/></linearGradient><linearGradient id="linear-gradient-2" x1="330.18" y1="85.99" x2="206.84" y2="-37.35" gradientTransform="translate(-7.14 437.12) scale(1.07)" gradientUnits="userSpaceOnUse"><stop offset="0" stop-color="#ffc200" stop-opacity="0"/><stop offset="0.2" stop-color="#fb0" stop-opacity="0.2"/><stop offset="0.5" stop-color="#ffa700" stop-opacity="0.5"/><stop offset="0.85" stop-color="#f80" stop-opacity="0.85"/><stop offset="1" stop-color="#ff7800"/></linearGradient><linearGradient id="linear-gradient-3" x1="192.61" y1="-124.16" x2="424.19" y2="261.8" gradientTransform="translate(-7.14 437.12) scale(1.07)" xlink:href="#linear-gradient"/><linearGradient id="linear-gradient-4" x1="191.89" y1="-215.26" x2="403.17" y2="-16.25" gradientTransform="translate(-7.14 437.12) scale(1.07)" xlink:href="#linear-gradient"/><linearGradient id="linear-gradient-5" x1="443.55" y1="-30.11" x2="6.81" y2="14.96" xlink:href="#linear-gradient-2"/></defs><title>notification</title><circle class="cls-1" cx="235.07" cy="454.48" r="57.51"/><path class="cls-2" d="M256,397a57.51,57.51,0,0,0-57.26,52.16l62.61,62.61A57.51,57.51,0,0,0,256,397Z" transform="translate(-20.92)"/><path class="cls-3" d="M444.46,354.19H67.53a46.61,46.61,0,0,0,0,93.22H444.46a46.61,46.61,0,0,0,0-93.22Z" transform="translate(-20.92)"/><path class="cls-4" d="M417.48,319V225.59A161.53,161.53,0,0,0,295.48,69a45.8,45.8,0,1,0-79,0,161.52,161.52,0,0,0-122,156.6V319A36.63,36.63,0,0,1,57.9,355.65H454.09A36.61,36.61,0,0,1,417.48,319ZM256,64.11A18.31,18.31,0,1,1,274.32,45.8,18.31,18.31,0,0,1,256,64.11Z" transform="translate(-20.92)"/><path class="cls-5" d="M21.5,410.07c3.52,22.26,22.79,39.28,46,37.17H444.46c23.25,2.11,42.51-14.92,46-37.17Z" transform="translate(-20.92)"/></svg>