<svg id="Layer_1" data-name="Layer 1" xmlns="http://www.w3.org/2000/svg" viewBox="0 0 100 100"><defs><style>.cls-1{fill:#5e6a75;}.cls-2{fill:#8e99a3;}.cls-3{fill:#747c82;}.cls-4{fill:#616d77;}.cls-5{fill:#798795;}.cls-6{fill:none;}</style></defs><title>icons</title><polygon class="cls-1" points="4.88 36.22 5.33 30.44 1.09 8.76 5.33 1.09 18.86 3.87 24.5 2.67 4.88 36.22"/><polygon class="cls-2" points="57.92 3.36 31.66 29 24.5 2.67 31.89 1.09 39.4 4.84 46.41 2.89 57.92 3.36"/><polygon class="cls-3" points="65.44 12.98 65.44 12.97 57.92 3.36 78.19 4.19 79.16 15.78 80.09 31.74 65.44 12.98"/><polygon class="cls-4" points="98.91 34.19 96.13 38.75 98.06 54.73 80.09 31.74 94.66 15.44 98.91 25.55 96.94 28.16 98.91 34.19"/><polygon class="cls-5" points="18.77 86.39 3.04 75.52 1.09 64.02 3.21 57.5 4.87 36.25 11.29 59.42 16.95 79.81 18.77 86.39"/><polygon class="cls-3" points="1.09 98.91 5.33 88.96 3.04 75.52 18.77 86.39 21.5 96.2 1.09 98.91"/><polygon class="cls-5" points="78.19 82 60.59 98.91 35.48 94.34 21.5 96.2 68.22 70.89 78.19 82"/><polygon class="cls-3" points="98.91 98.91 88.78 90.43 79.98 94.5 60.59 98.91 78.19 82 68.22 70.89 78.19 65.49 85.25 61.67 86.42 74.25 95.31 75.76 98.91 98.91"/><polygon class="cls-4" points="98.91 61.74 95.31 75.76 86.42 74.25 85.25 61.67 98.06 54.73 98.91 61.74"/><polygon class="cls-2" points="98.91 1.09 94.66 15.44 78.19 4.19 98.91 1.09"/><polygon class="cls-3" points="31.66 29 11.29 59.42 4.87 36.25 4.88 36.22 24.5 2.67 31.66 29"/><polygon class="cls-6" points="4.88 36.22 4.87 36.25 4.87 36.23 4.88 36.22"/><polygon class="cls-4" points="65.44 12.97 65.44 12.98 51.47 49.43 31.66 29 57.92 3.36 65.44 12.97"/><polygon class="cls-2" points="98.06 54.73 85.25 61.67 78.19 65.49 65.44 12.98 80.09 31.74 98.06 54.73"/><polygon class="cls-4" points="78.19 65.49 68.22 70.89 21.5 96.2 18.77 86.39 16.95 79.81 43.17 62.31 78.19 65.49"/><polygon class="cls-2" points="94.66 15.44 80.09 31.74 79.16 15.78 78.19 4.19 94.66 15.44"/><polygon class="cls-5" points="78.19 65.49 43.17 62.31 51.47 49.43 65.44 12.98 78.19 65.49"/><polygon class="cls-2" points="51.47 49.43 43.17 62.31 11.29 59.42 31.66 29 51.47 49.43"/><polygon class="cls-2" points="43.17 62.31 16.95 79.81 11.29 59.42 43.17 62.31"/><line class="cls-6" x1="18.79" y1="86.4" x2="18.78" y2="86.39"/></svg>