<svg id="Layer_1" data-name="Layer 1" xmlns="http://www.w3.org/2000/svg" xmlns:xlink="http://www.w3.org/1999/xlink" viewBox="0 0 100 100"><defs><style>.cls-1{fill:url(#linear-gradient);}.cls-2{fill:#ffd130;}</style><linearGradient id="linear-gradient" x1="50" y1="99" x2="50" y2="1" gradientUnits="userSpaceOnUse"><stop offset="0" stop-color="#f29200"/><stop offset="1" stop-color="#faba02"/></linearGradient></defs><title>icons</title><path class="cls-1" d="M50,99a2.87,2.87,0,0,1-.84-.13A55.93,55.93,0,0,1,9.8,45.4v-30a2.87,2.87,0,0,1,2-2.74L49.16,1.13a2.87,2.87,0,0,1,1.69,0L88.17,12.61a2.87,2.87,0,0,1,2,2.74v30A55.93,55.93,0,0,1,50.84,98.87,2.87,2.87,0,0,1,50,99Z"/><path class="cls-2" d="M50,92.07A50.59,50.59,0,0,0,81.58,45.4V17.48L50,7.76Z"/></svg>