<svg id="Layer_1" data-name="Layer 1" xmlns="http://www.w3.org/2000/svg" xmlns:xlink="http://www.w3.org/1999/xlink" viewBox="0 0 511 449.19"><defs><style>.cls-1{fill:#697c86;}.cls-2{fill:#465a61;}.cls-3{fill:#596c76;}.cls-4{fill:#3b4a51;}.cls-5{fill:url(#linear-gradient);}</style><linearGradient id="linear-gradient" x1="99.42" y1="210.62" x2="511" y2="210.62" gradientUnits="userSpaceOnUse"><stop offset="0" stop-color="#eb423f"/><stop offset="1" stop-color="#d13330"/></linearGradient></defs><title>shopping</title><path class="cls-1" d="M194.65,480.13a44.92,44.92,0,1,1,44.92-44.92A45,45,0,0,1,194.65,480.13Z" transform="translate(0 -30.94)"/><path class="cls-2" d="M194.65,450.18a15,15,0,1,1,15-15A15,15,0,0,1,194.65,450.18Z" transform="translate(0 -30.94)"/><path class="cls-3" d="M406.27,480.13a44.92,44.92,0,1,1,44.92-44.92A45,45,0,0,1,406.27,480.13Z" transform="translate(0 -30.94)"/><path class="cls-4" d="M406.27,450.18a15,15,0,1,1,15-15A15,15,0,0,1,406.27,450.18Z" transform="translate(0 -30.94)"/><path class="cls-2" d="M453.58,375.32a14.83,14.83,0,0,1-15,15H152.13a44.86,44.86,0,0,1-44.92-44.92,44.41,44.41,0,0,1,38.93-44.32,19.37,19.37,0,0,1,6-.6,13.87,13.87,0,0,1,9.58,3.89l-9,26.05h-.6a15,15,0,1,0,0,29.95H438.61A14.82,14.82,0,0,1,453.58,375.32Z" transform="translate(0 -30.94)"/><path class="cls-2" d="M99.37,90.87c1,1.2,17.08,8.48,33.31,15.61a14.45,14.45,0,0,0-.07-3.89L119.43,42.69a15,15,0,0,0-14.62-11.75H15a15,15,0,1,0,0,29.95h77.8Z" transform="translate(0 -30.94)"/><path class="cls-5" d="M508.08,96.82a14.75,14.75,0,0,0-12-6H99.42l46.72,210.22,6.59,29.35H436.21a15.1,15.1,0,0,0,14.37-10.78L510.48,110A15.71,15.71,0,0,0,508.08,96.82Z" transform="translate(0 -30.94)"/></svg>