<svg id="Capa_1" data-name="Capa 1" xmlns="http://www.w3.org/2000/svg" xmlns:xlink="http://www.w3.org/1999/xlink" viewBox="0 0 512 512"><defs><style>.cls-1{fill:url(#linear-gradient);}.cls-2{fill:#fff;}</style><linearGradient id="linear-gradient" x1="213.7" y1="289.13" x2="550.7" y2="41.13" gradientTransform="matrix(1, 0, 0, -1, 0, 514)" gradientUnits="userSpaceOnUse"><stop offset="0" stop-color="#006cfa"/><stop offset="1" stop-color="#003983"/></linearGradient></defs><title>user</title><circle class="cls-1" cx="256" cy="256" r="256"/><path class="cls-2" d="M331,181a75,75,0,1,0-75,75A75.09,75.09,0,0,0,331,181Zm-75,52c-74.44,0-135,60.56-135,135v14.06a15,15,0,0,0,5,11.17C162.53,426,208.7,444,256,444s93.47-18,130-50.77a15,15,0,0,0,5-11.17V368C391,293.56,330.44,233,256,233Z"/></svg>